M48
; DRILL file {KiCad (7.0.0)} date Sat Jul 15 19:37:35 2023
; FORMAT={-:-/ absolute / metric / decimal}
; #@! TF.CreationDate,2023-07-15T19:37:35+02:00
; #@! TF.GenerationSoftware,Kicad,Pcbnew,(7.0.0)
; #@! TF.FileFunction,Plated,1,8,PTH
FMAT,2
METRIC
; #@! TA.AperFunction,Plated,PTH,ViaDrill
T1C0.200
; #@! TA.AperFunction,Plated,PTH,ComponentDrill
T2C0.600
; #@! TA.AperFunction,Plated,PTH,ComponentDrill
T3C3.200
%
G90
G05
T1
X171.7Y-108.5
X172.25Y-112.0
X172.75Y-121.25
X172.75Y-122.0
X172.8Y-101.1
X173.0Y-112.0
X173.2Y-106.4
X173.2Y-110.9
X173.3Y-108.1
X173.5Y-121.25
X173.5Y-122.0
X173.7Y-102.0
X173.7Y-103.0
X173.7Y-104.0
X173.7Y-105.0
X174.25Y-121.25
X174.25Y-122.0
X174.3Y-109.9
X174.5Y-115.25
X174.5Y-116.5
X174.5Y-117.25
X174.5Y-118.0
X174.5Y-118.75
X174.5Y-119.5
X174.6Y-106.5
X175.0Y-121.25
X175.0Y-122.0
X175.1Y-108.5
X175.25Y-98.25
X175.25Y-116.5
X175.25Y-117.25
X175.25Y-118.0
X175.25Y-118.75
X175.25Y-119.5
X175.4Y-107.6
X175.75Y-121.25
X175.75Y-122.0
X175.9Y-110.2
X176.0Y-116.5
X176.0Y-117.25
X176.0Y-118.0
X176.0Y-118.75
X176.0Y-119.5
X176.5Y-121.25
X176.5Y-122.0
X176.75Y-116.5
X176.75Y-117.25
X176.75Y-118.0
X176.75Y-118.75
X176.75Y-119.5
X176.9Y-106.7
X177.0Y-114.5
X177.25Y-108.0
X177.3Y-109.4
X177.5Y-111.25
X177.5Y-112.0
X177.5Y-112.75
X177.5Y-116.5
X177.5Y-117.25
X177.5Y-118.0
X177.5Y-118.75
X177.5Y-119.5
X177.75Y-107.0
X177.75Y-108.5
X178.0Y-100.5
X178.25Y-110.5
X178.25Y-111.25
X178.25Y-112.0
X178.25Y-112.75
X178.25Y-113.5
X178.5Y-103.25
X179.0Y-110.5
X179.0Y-111.25
X179.0Y-112.0
X179.0Y-112.75
X179.25Y-103.25
X179.5Y-90.75
X179.5Y-91.5
X179.5Y-92.25
X179.75Y-110.5
X179.75Y-111.25
X179.75Y-112.0
X179.75Y-112.75
X180.0Y-95.5
X180.0Y-96.25
X180.0Y-97.0
X180.0Y-97.75
X180.25Y-90.75
X180.25Y-92.25
X180.25Y-123.5
X180.25Y-124.25
X180.5Y-110.5
X180.5Y-111.25
X180.75Y-107.25
X180.75Y-108.25
X180.75Y-109.0
X180.9Y-94.9
X181.0Y-90.75
X181.0Y-105.25
X181.0Y-106.0
X181.0Y-123.5
X181.0Y-124.25
X181.25Y-110.5
X181.25Y-111.25
X181.4Y-95.5
X181.5Y-107.25
X181.5Y-108.25
X181.5Y-109.0
X181.75Y-105.25
X181.75Y-106.0
X181.75Y-122.75
X181.75Y-123.5
X181.75Y-124.25
X182.0Y-111.25
X182.05Y-94.8
X182.1Y-112.4
X182.35Y-93.9
X182.4Y-95.5
X182.4Y-99.6
X182.5Y-103.75
X182.5Y-104.5
X182.5Y-122.75
X182.5Y-123.5
X182.5Y-124.25
X182.75Y-111.25
X183.1Y-95.5
X183.15Y-93.85
X183.25Y-103.75
X183.25Y-104.5
X183.25Y-122.75
X183.25Y-123.5
X183.25Y-124.25
X183.4Y-98.7
X183.5Y-93.2
X183.5Y-111.25
X184.4Y-101.5
X185.5Y-123.5
X185.5Y-124.25
X186.0Y-113.7
X186.0Y-116.7
X186.1Y-111.4
X186.25Y-123.5
X186.25Y-124.25
X186.7Y-93.5
X186.7Y-94.3
X186.8Y-98.1
X186.8Y-99.1
X186.8Y-113.1
X187.0Y-95.6
X187.0Y-124.25
X187.1Y-101.7
X187.135Y-122.94
X187.279Y-102.521
X187.4Y-98.7
X187.7Y-93.9
X187.75Y-94.85
X187.75Y-101.0
X187.75Y-123.5
X187.75Y-124.25
X187.8Y-95.6
X187.9Y-98.2
X188.1Y-99.0
X188.5Y-100.25
X188.5Y-101.0
X188.5Y-123.5
X188.5Y-124.25
X188.55Y-95.55
X188.6Y-92.7
X188.75Y-106.25
X188.8Y-94.35
X189.0Y-98.0
X189.5Y-105.5
X189.5Y-106.25
X189.5Y-107.0
X189.5Y-107.75
X189.5Y-108.5
X189.5Y-109.25
X189.6Y-92.7
X189.6Y-93.4
X189.6Y-94.2
X189.6Y-95.0
X189.8Y-101.5
X190.25Y-105.5
X190.25Y-106.25
X190.25Y-107.0
X190.25Y-107.75
X190.25Y-108.5
X190.25Y-109.25
X190.3Y-116.7
X190.5Y-119.75
X190.5Y-120.5
X190.5Y-121.25
X190.5Y-122.0
X190.5Y-122.75
X190.9Y-101.5
X190.9Y-102.45
X191.0Y-105.5
X191.0Y-106.25
X191.0Y-107.0
X191.0Y-107.75
X191.0Y-108.5
X191.0Y-109.25
X191.0Y-115.0
X191.0Y-115.75
X191.0Y-124.75
X191.0Y-125.5
X191.25Y-119.75
X191.25Y-120.5
X191.25Y-121.25
X191.25Y-122.0
X191.25Y-122.75
X191.5Y-116.5
X191.5Y-117.25
X191.75Y-105.5
X191.75Y-106.25
X191.75Y-107.0
X191.75Y-107.75
X191.75Y-108.5
X191.75Y-109.25
X191.75Y-115.0
X191.75Y-115.75
X191.75Y-124.75
X191.75Y-125.5
X192.0Y-119.75
X192.0Y-120.5
X192.0Y-121.25
X192.0Y-122.0
X192.0Y-122.75
X192.5Y-105.5
X192.5Y-106.25
X192.5Y-107.0
X192.5Y-107.75
X192.5Y-108.5
X192.5Y-109.25
X192.5Y-115.0
X192.5Y-116.0
X192.5Y-124.75
X192.5Y-125.5
X192.75Y-119.75
X192.75Y-120.5
X192.75Y-121.25
X192.75Y-122.0
X192.75Y-122.75
X192.8Y-93.6
X193.0Y-95.0
X193.25Y-115.0
X193.25Y-116.0
X193.25Y-117.75
X193.25Y-124.75
X193.25Y-125.5
X193.3Y-92.9
X193.5Y-119.75
X193.5Y-120.5
X193.5Y-121.25
X193.5Y-122.0
X193.5Y-122.75
X193.6Y-93.6
X193.6Y-94.6
X193.75Y-99.25
X193.75Y-100.25
X193.75Y-101.0
X194.0Y-115.0
X194.0Y-116.0
X194.1Y-103.1
X194.2Y-94.1
X194.25Y-119.75
X194.25Y-120.5
X194.25Y-121.25
X194.25Y-122.0
X194.25Y-122.75
X194.3Y-93.2
X194.3Y-103.9
X194.5Y-117.75
X194.75Y-115.0
X194.75Y-116.0
X194.8Y-102.6
X194.9Y-98.0
X195.2Y-105.1
X195.2Y-106.1
X195.3Y-100.5
X195.4Y-93.4
X195.4Y-101.3
X195.5Y-96.0
X195.5Y-98.7
X195.6Y-98.0
X195.7Y-92.6
X195.7Y-106.6
X195.7Y-111.8
X195.8Y-105.6
X195.9Y-104.6
X196.5Y-107.7
X196.5Y-116.0
X196.5Y-124.75
X196.5Y-125.5
X196.6Y-92.2
X196.75Y-117.75
X196.75Y-120.0
X196.75Y-120.75
X196.75Y-121.5
X196.75Y-122.25
X196.75Y-123.0
X197.25Y-114.0
X197.25Y-116.0
X197.25Y-124.75
X197.25Y-125.5
X197.5Y-120.0
X197.5Y-120.75
X197.5Y-121.5
X197.5Y-122.25
X197.5Y-123.0
X197.6Y-98.5
X197.6Y-99.3
X197.7Y-103.5
X197.7Y-106.3
X197.85Y-107.8
X197.9Y-108.6
X198.0Y-114.0
X198.0Y-116.0
X198.0Y-124.75
X198.0Y-125.5
X198.25Y-117.75
X198.25Y-120.0
X198.25Y-120.75
X198.25Y-121.5
X198.25Y-122.25
X198.25Y-123.0
X198.4Y-93.8
X198.4Y-94.6
X198.5Y-107.25
X198.5Y-112.75
X198.75Y-114.0
X198.75Y-116.0
X198.75Y-124.75
X198.75Y-125.5
X198.95Y-98.8
X199.0Y-92.6
X199.0Y-120.0
X199.0Y-120.75
X199.0Y-121.5
X199.0Y-122.25
X199.0Y-123.0
X199.2Y-113.3
X199.25Y-112.25
X199.5Y-105.6
X199.5Y-106.9
X199.5Y-114.5
X199.5Y-115.25
X199.5Y-116.0
X199.75Y-120.0
X199.75Y-120.75
X199.75Y-121.5
X199.75Y-122.25
X199.75Y-123.0
X199.8Y-108.545
X200.0Y-95.9
X200.35Y-107.9
X200.8Y-100.6
X201.1Y-109.25
X201.6Y-100.3
X201.8Y-107.3
X203.0Y-109.25
X203.5Y-118.0
X203.5Y-120.25
X203.5Y-121.0
X203.5Y-121.75
X203.9Y-109.6
X204.25Y-120.25
X204.25Y-121.0
X204.25Y-121.75
X205.0Y-120.25
X205.0Y-121.0
X205.6Y-109.9
X205.75Y-120.25
X205.75Y-121.0
X205.9Y-102.4
X205.9Y-103.3
X205.9Y-104.3
X206.9Y-110.3
X207.8Y-110.4
X207.9Y-111.6
X208.4Y-113.43
X208.9Y-109.8
T3
X170.0Y-118.0
X182.5Y-130.0
X190.0Y-130.0
X197.5Y-130.0
X210.0Y-118.0
T2
X203.85Y-99.19G85X202.75Y-99.19
G05
X203.85Y-107.83G85X202.75Y-107.83
G05
X207.88Y-99.19G85X207.08Y-99.19
G05
X207.88Y-107.83G85X207.08Y-107.83
G05
T0
M30
