%TF.GenerationSoftware,KiCad,Pcbnew,(7.0.0)*%
%TF.CreationDate,2023-07-15T19:37:13+02:00*%
%TF.ProjectId,Leistungsteil,4c656973-7475-46e6-9773-7465696c2e6b,rev?*%
%TF.SameCoordinates,Original*%
%TF.FileFunction,Legend,Top*%
%TF.FilePolarity,Positive*%
%FSLAX46Y46*%
G04 Gerber Fmt 4.6, Leading zero omitted, Abs format (unit mm)*
G04 Created by KiCad (PCBNEW (7.0.0)) date 2023-07-15 19:37:13*
%MOMM*%
%LPD*%
G01*
G04 APERTURE LIST*
G04 Aperture macros list*
%AMRoundRect*
0 Rectangle with rounded corners*
0 $1 Rounding radius*
0 $2 $3 $4 $5 $6 $7 $8 $9 X,Y pos of 4 corners*
0 Add a 4 corners polygon primitive as box body*
4,1,4,$2,$3,$4,$5,$6,$7,$8,$9,$2,$3,0*
0 Add four circle primitives for the rounded corners*
1,1,$1+$1,$2,$3*
1,1,$1+$1,$4,$5*
1,1,$1+$1,$6,$7*
1,1,$1+$1,$8,$9*
0 Add four rect primitives between the rounded corners*
20,1,$1+$1,$2,$3,$4,$5,0*
20,1,$1+$1,$4,$5,$6,$7,0*
20,1,$1+$1,$6,$7,$8,$9,0*
20,1,$1+$1,$8,$9,$2,$3,0*%
G04 Aperture macros list end*
%ADD10C,0.300000*%
%ADD11C,0.150000*%
%ADD12C,0.254000*%
%ADD13C,0.120000*%
%ADD14C,0.250000*%
%ADD15C,0.100000*%
%ADD16RoundRect,0.135000X-0.185000X0.135000X-0.185000X-0.135000X0.185000X-0.135000X0.185000X0.135000X0*%
%ADD17C,5.500000*%
%ADD18C,3.600000*%
%ADD19RoundRect,0.250000X0.650000X-0.350000X0.650000X0.350000X-0.650000X0.350000X-0.650000X-0.350000X0*%
%ADD20RoundRect,0.150000X0.625000X-0.150000X0.625000X0.150000X-0.625000X0.150000X-0.625000X-0.150000X0*%
%ADD21C,3.200000*%
%ADD22RoundRect,0.100000X-0.130000X-0.100000X0.130000X-0.100000X0.130000X0.100000X-0.130000X0.100000X0*%
%ADD23RoundRect,0.550000X0.550000X-3.200000X0.550000X3.200000X-0.550000X3.200000X-0.550000X-3.200000X0*%
%ADD24RoundRect,0.140000X-0.170000X0.140000X-0.170000X-0.140000X0.170000X-0.140000X0.170000X0.140000X0*%
%ADD25RoundRect,0.100000X0.130000X0.100000X-0.130000X0.100000X-0.130000X-0.100000X0.130000X-0.100000X0*%
%ADD26R,0.610000X1.020000*%
%ADD27R,3.910000X3.810000*%
%ADD28R,0.610000X1.270000*%
%ADD29RoundRect,0.100000X-0.100000X0.130000X-0.100000X-0.130000X0.100000X-0.130000X0.100000X0.130000X0*%
%ADD30RoundRect,0.140000X0.170000X-0.140000X0.170000X0.140000X-0.170000X0.140000X-0.170000X-0.140000X0*%
%ADD31RoundRect,0.250000X-1.100000X0.325000X-1.100000X-0.325000X1.100000X-0.325000X1.100000X0.325000X0*%
%ADD32RoundRect,0.062500X0.117500X0.062500X-0.117500X0.062500X-0.117500X-0.062500X0.117500X-0.062500X0*%
%ADD33RoundRect,0.225000X-0.250000X0.225000X-0.250000X-0.225000X0.250000X-0.225000X0.250000X0.225000X0*%
%ADD34RoundRect,0.140000X0.140000X0.170000X-0.140000X0.170000X-0.140000X-0.170000X0.140000X-0.170000X0*%
%ADD35RoundRect,0.100000X0.100000X-0.130000X0.100000X0.130000X-0.100000X0.130000X-0.100000X-0.130000X0*%
%ADD36R,4.700000X5.075000*%
%ADD37R,0.300000X0.850000*%
%ADD38R,0.850000X0.300000*%
%ADD39RoundRect,0.250000X-1.425000X0.362500X-1.425000X-0.362500X1.425000X-0.362500X1.425000X0.362500X0*%
%ADD40RoundRect,0.225000X-0.625000X0.225000X-0.625000X-0.225000X0.625000X-0.225000X0.625000X0.225000X0*%
%ADD41RoundRect,0.150000X-0.475000X0.150000X-0.475000X-0.150000X0.475000X-0.150000X0.475000X0.150000X0*%
%ADD42R,0.740000X2.400000*%
%ADD43RoundRect,0.335000X0.565000X0.335000X-0.565000X0.335000X-0.565000X-0.335000X0.565000X-0.335000X0*%
%ADD44RoundRect,0.062500X-0.117500X-0.062500X0.117500X-0.062500X0.117500X0.062500X-0.117500X0.062500X0*%
%ADD45RoundRect,0.250000X0.362500X1.425000X-0.362500X1.425000X-0.362500X-1.425000X0.362500X-1.425000X0*%
%ADD46RoundRect,0.135000X0.135000X0.185000X-0.135000X0.185000X-0.135000X-0.185000X0.135000X-0.185000X0*%
%ADD47RoundRect,0.135000X-0.135000X-0.185000X0.135000X-0.185000X0.135000X0.185000X-0.135000X0.185000X0*%
%ADD48RoundRect,0.225000X0.017678X-0.335876X0.335876X-0.017678X-0.017678X0.335876X-0.335876X0.017678X0*%
%ADD49RoundRect,0.100000X-0.021213X-0.162635X0.162635X0.021213X0.021213X0.162635X-0.162635X-0.021213X0*%
%ADD50RoundRect,0.250000X-0.362500X-1.425000X0.362500X-1.425000X0.362500X1.425000X-0.362500X1.425000X0*%
%ADD51RoundRect,0.225000X0.225000X0.250000X-0.225000X0.250000X-0.225000X-0.250000X0.225000X-0.250000X0*%
%ADD52RoundRect,0.200000X0.275000X-0.200000X0.275000X0.200000X-0.275000X0.200000X-0.275000X-0.200000X0*%
%ADD53RoundRect,0.225000X-0.225000X-0.250000X0.225000X-0.250000X0.225000X0.250000X-0.225000X0.250000X0*%
%ADD54RoundRect,0.250000X0.325000X1.100000X-0.325000X1.100000X-0.325000X-1.100000X0.325000X-1.100000X0*%
%ADD55C,1.100000*%
%ADD56C,1.600000*%
%ADD57O,2.100000X1.000000*%
%ADD58O,1.800000X1.000000*%
%ADD59C,0.650000*%
G04 APERTURE END LIST*
D10*
X178226190Y-126564761D02*
X178226190Y-128183809D01*
X178226190Y-128183809D02*
X178321428Y-128374285D01*
X178321428Y-128374285D02*
X178416666Y-128469523D01*
X178416666Y-128469523D02*
X178607142Y-128564761D01*
X178607142Y-128564761D02*
X178988095Y-128564761D01*
X178988095Y-128564761D02*
X179178571Y-128469523D01*
X179178571Y-128469523D02*
X179273809Y-128374285D01*
X179273809Y-128374285D02*
X179369047Y-128183809D01*
X179369047Y-128183809D02*
X179369047Y-126564761D01*
D11*
X197440476Y-97234761D02*
X197583333Y-97282380D01*
X197583333Y-97282380D02*
X197821428Y-97282380D01*
X197821428Y-97282380D02*
X197916666Y-97234761D01*
X197916666Y-97234761D02*
X197964285Y-97187142D01*
X197964285Y-97187142D02*
X198011904Y-97091904D01*
X198011904Y-97091904D02*
X198011904Y-96996666D01*
X198011904Y-96996666D02*
X197964285Y-96901428D01*
X197964285Y-96901428D02*
X197916666Y-96853809D01*
X197916666Y-96853809D02*
X197821428Y-96806190D01*
X197821428Y-96806190D02*
X197630952Y-96758571D01*
X197630952Y-96758571D02*
X197535714Y-96710952D01*
X197535714Y-96710952D02*
X197488095Y-96663333D01*
X197488095Y-96663333D02*
X197440476Y-96568095D01*
X197440476Y-96568095D02*
X197440476Y-96472857D01*
X197440476Y-96472857D02*
X197488095Y-96377619D01*
X197488095Y-96377619D02*
X197535714Y-96330000D01*
X197535714Y-96330000D02*
X197630952Y-96282380D01*
X197630952Y-96282380D02*
X197869047Y-96282380D01*
X197869047Y-96282380D02*
X198011904Y-96330000D01*
X198440476Y-97282380D02*
X198440476Y-96282380D01*
X198440476Y-96282380D02*
X198821428Y-96282380D01*
X198821428Y-96282380D02*
X198916666Y-96330000D01*
X198916666Y-96330000D02*
X198964285Y-96377619D01*
X198964285Y-96377619D02*
X199011904Y-96472857D01*
X199011904Y-96472857D02*
X199011904Y-96615714D01*
X199011904Y-96615714D02*
X198964285Y-96710952D01*
X198964285Y-96710952D02*
X198916666Y-96758571D01*
X198916666Y-96758571D02*
X198821428Y-96806190D01*
X198821428Y-96806190D02*
X198440476Y-96806190D01*
X199440476Y-97282380D02*
X199440476Y-96282380D01*
X199869047Y-96377619D02*
X199916666Y-96330000D01*
X199916666Y-96330000D02*
X200011904Y-96282380D01*
X200011904Y-96282380D02*
X200249999Y-96282380D01*
X200249999Y-96282380D02*
X200345237Y-96330000D01*
X200345237Y-96330000D02*
X200392856Y-96377619D01*
X200392856Y-96377619D02*
X200440475Y-96472857D01*
X200440475Y-96472857D02*
X200440475Y-96568095D01*
X200440475Y-96568095D02*
X200392856Y-96710952D01*
X200392856Y-96710952D02*
X199821428Y-97282380D01*
X199821428Y-97282380D02*
X200440475Y-97282380D01*
D10*
X208802857Y-127773809D02*
X208802857Y-126250000D01*
X209564761Y-127011904D02*
X208040952Y-127011904D01*
X208517142Y-124630952D02*
X208612380Y-124345238D01*
X208612380Y-124345238D02*
X208707619Y-124250000D01*
X208707619Y-124250000D02*
X208898095Y-124154762D01*
X208898095Y-124154762D02*
X209183809Y-124154762D01*
X209183809Y-124154762D02*
X209374285Y-124250000D01*
X209374285Y-124250000D02*
X209469523Y-124345238D01*
X209469523Y-124345238D02*
X209564761Y-124535714D01*
X209564761Y-124535714D02*
X209564761Y-125297619D01*
X209564761Y-125297619D02*
X207564761Y-125297619D01*
X207564761Y-125297619D02*
X207564761Y-124630952D01*
X207564761Y-124630952D02*
X207660000Y-124440476D01*
X207660000Y-124440476D02*
X207755238Y-124345238D01*
X207755238Y-124345238D02*
X207945714Y-124250000D01*
X207945714Y-124250000D02*
X208136190Y-124250000D01*
X208136190Y-124250000D02*
X208326666Y-124345238D01*
X208326666Y-124345238D02*
X208421904Y-124440476D01*
X208421904Y-124440476D02*
X208517142Y-124630952D01*
X208517142Y-124630952D02*
X208517142Y-125297619D01*
X208993333Y-123392857D02*
X208993333Y-122440476D01*
X209564761Y-123583333D02*
X207564761Y-122916667D01*
X207564761Y-122916667D02*
X209564761Y-122250000D01*
X207564761Y-121869047D02*
X207564761Y-120726190D01*
X209564761Y-121297619D02*
X207564761Y-121297619D01*
X186440476Y-126564761D02*
X187107142Y-128564761D01*
X187107142Y-128564761D02*
X187773809Y-126564761D01*
X200285714Y-126564761D02*
X200761904Y-128564761D01*
X200761904Y-128564761D02*
X201142857Y-127136190D01*
X201142857Y-127136190D02*
X201523809Y-128564761D01*
X201523809Y-128564761D02*
X202000000Y-126564761D01*
D11*
X201032380Y-107011904D02*
X201841904Y-107011904D01*
X201841904Y-107011904D02*
X201937142Y-106964285D01*
X201937142Y-106964285D02*
X201984761Y-106916666D01*
X201984761Y-106916666D02*
X202032380Y-106821428D01*
X202032380Y-106821428D02*
X202032380Y-106630952D01*
X202032380Y-106630952D02*
X201984761Y-106535714D01*
X201984761Y-106535714D02*
X201937142Y-106488095D01*
X201937142Y-106488095D02*
X201841904Y-106440476D01*
X201841904Y-106440476D02*
X201032380Y-106440476D01*
X201746666Y-106011904D02*
X201746666Y-105535714D01*
X202032380Y-106107142D02*
X201032380Y-105773809D01*
X201032380Y-105773809D02*
X202032380Y-105440476D01*
X202032380Y-104535714D02*
X201556190Y-104869047D01*
X202032380Y-105107142D02*
X201032380Y-105107142D01*
X201032380Y-105107142D02*
X201032380Y-104726190D01*
X201032380Y-104726190D02*
X201080000Y-104630952D01*
X201080000Y-104630952D02*
X201127619Y-104583333D01*
X201127619Y-104583333D02*
X201222857Y-104535714D01*
X201222857Y-104535714D02*
X201365714Y-104535714D01*
X201365714Y-104535714D02*
X201460952Y-104583333D01*
X201460952Y-104583333D02*
X201508571Y-104630952D01*
X201508571Y-104630952D02*
X201556190Y-104726190D01*
X201556190Y-104726190D02*
X201556190Y-105107142D01*
X201032380Y-104249999D02*
X201032380Y-103678571D01*
X202032380Y-103964285D02*
X201032380Y-103964285D01*
D10*
X170560000Y-127176190D02*
X170464761Y-127366666D01*
X170464761Y-127366666D02*
X170464761Y-127652380D01*
X170464761Y-127652380D02*
X170560000Y-127938095D01*
X170560000Y-127938095D02*
X170750476Y-128128571D01*
X170750476Y-128128571D02*
X170940952Y-128223809D01*
X170940952Y-128223809D02*
X171321904Y-128319047D01*
X171321904Y-128319047D02*
X171607619Y-128319047D01*
X171607619Y-128319047D02*
X171988571Y-128223809D01*
X171988571Y-128223809D02*
X172179047Y-128128571D01*
X172179047Y-128128571D02*
X172369523Y-127938095D01*
X172369523Y-127938095D02*
X172464761Y-127652380D01*
X172464761Y-127652380D02*
X172464761Y-127461904D01*
X172464761Y-127461904D02*
X172369523Y-127176190D01*
X172369523Y-127176190D02*
X172274285Y-127080952D01*
X172274285Y-127080952D02*
X171607619Y-127080952D01*
X171607619Y-127080952D02*
X171607619Y-127461904D01*
X172464761Y-126223809D02*
X170464761Y-126223809D01*
X170464761Y-126223809D02*
X172464761Y-125080952D01*
X172464761Y-125080952D02*
X170464761Y-125080952D01*
X172464761Y-124128571D02*
X170464761Y-124128571D01*
X170464761Y-124128571D02*
X170464761Y-123652381D01*
X170464761Y-123652381D02*
X170560000Y-123366666D01*
X170560000Y-123366666D02*
X170750476Y-123176190D01*
X170750476Y-123176190D02*
X170940952Y-123080952D01*
X170940952Y-123080952D02*
X171321904Y-122985714D01*
X171321904Y-122985714D02*
X171607619Y-122985714D01*
X171607619Y-122985714D02*
X171988571Y-123080952D01*
X171988571Y-123080952D02*
X172179047Y-123176190D01*
X172179047Y-123176190D02*
X172369523Y-123366666D01*
X172369523Y-123366666D02*
X172464761Y-123652381D01*
X172464761Y-123652381D02*
X172464761Y-124128571D01*
X171702857Y-122128571D02*
X171702857Y-120604762D01*
D11*
X177765238Y-98440476D02*
X177717619Y-98583333D01*
X177717619Y-98583333D02*
X177717619Y-98821428D01*
X177717619Y-98821428D02*
X177765238Y-98916666D01*
X177765238Y-98916666D02*
X177812857Y-98964285D01*
X177812857Y-98964285D02*
X177908095Y-99011904D01*
X177908095Y-99011904D02*
X178003333Y-99011904D01*
X178003333Y-99011904D02*
X178098571Y-98964285D01*
X178098571Y-98964285D02*
X178146190Y-98916666D01*
X178146190Y-98916666D02*
X178193809Y-98821428D01*
X178193809Y-98821428D02*
X178241428Y-98630952D01*
X178241428Y-98630952D02*
X178289047Y-98535714D01*
X178289047Y-98535714D02*
X178336666Y-98488095D01*
X178336666Y-98488095D02*
X178431904Y-98440476D01*
X178431904Y-98440476D02*
X178527142Y-98440476D01*
X178527142Y-98440476D02*
X178622380Y-98488095D01*
X178622380Y-98488095D02*
X178670000Y-98535714D01*
X178670000Y-98535714D02*
X178717619Y-98630952D01*
X178717619Y-98630952D02*
X178717619Y-98869047D01*
X178717619Y-98869047D02*
X178670000Y-99011904D01*
X177717619Y-99440476D02*
X178717619Y-99440476D01*
X178717619Y-99440476D02*
X178717619Y-99821428D01*
X178717619Y-99821428D02*
X178670000Y-99916666D01*
X178670000Y-99916666D02*
X178622380Y-99964285D01*
X178622380Y-99964285D02*
X178527142Y-100011904D01*
X178527142Y-100011904D02*
X178384285Y-100011904D01*
X178384285Y-100011904D02*
X178289047Y-99964285D01*
X178289047Y-99964285D02*
X178241428Y-99916666D01*
X178241428Y-99916666D02*
X178193809Y-99821428D01*
X178193809Y-99821428D02*
X178193809Y-99440476D01*
X177717619Y-100440476D02*
X178717619Y-100440476D01*
D12*
%TO.C,M1*%
X189876904Y-107816573D02*
X189876904Y-106546573D01*
X189876904Y-106546573D02*
X190300238Y-107453716D01*
X190300238Y-107453716D02*
X190723571Y-106546573D01*
X190723571Y-106546573D02*
X190723571Y-107816573D01*
X191993572Y-107816573D02*
X191267857Y-107816573D01*
X191630714Y-107816573D02*
X191630714Y-106546573D01*
X191630714Y-106546573D02*
X191509762Y-106728002D01*
X191509762Y-106728002D02*
X191388810Y-106848954D01*
X191388810Y-106848954D02*
X191267857Y-106909430D01*
D13*
%TO.C,NTC1*%
X208520000Y-110936359D02*
X208520000Y-111243641D01*
X209280000Y-110936359D02*
X209280000Y-111243641D01*
%TO.C,CAN_Con2*%
X207360000Y-100730000D02*
X204860000Y-100730000D01*
X204860000Y-100730000D02*
X204860000Y-101780000D01*
X209330000Y-104780000D02*
X209330000Y-101900000D01*
X204860000Y-104900000D02*
X203870000Y-104900000D01*
X207360000Y-105950000D02*
X204860000Y-105950000D01*
X204860000Y-105950000D02*
X204860000Y-104900000D01*
%TO.C,C_LDO2*%
X180940000Y-92792164D02*
X180940000Y-93007836D01*
X181660000Y-92792164D02*
X181660000Y-93007836D01*
%TO.C,Q_P_W_L1*%
X201465000Y-115925000D02*
X201465000Y-121815000D01*
X206605000Y-115470000D02*
X206605000Y-121815000D01*
%TO.C,C_SPI2*%
X196360000Y-101907836D02*
X196360000Y-101692164D01*
X195640000Y-101907836D02*
X195640000Y-101692164D01*
%TO.C,C_LDO1*%
X197360000Y-92707836D02*
X197360000Y-92492164D01*
X196640000Y-92707836D02*
X196640000Y-92492164D01*
%TO.C,C_IN6*%
X196140000Y-115688748D02*
X196140000Y-117111252D01*
X198860000Y-115688748D02*
X198860000Y-117111252D01*
%TO.C,D1_ESD3*%
X177495000Y-104300000D02*
X176135000Y-104300000D01*
X177495000Y-103500000D02*
X176135000Y-103500000D01*
X176135000Y-103500000D02*
X176135000Y-104300000D01*
%TO.C,D1_ESD2*%
X177495000Y-103300000D02*
X176135000Y-103300000D01*
X177495000Y-102500000D02*
X176135000Y-102500000D01*
X176135000Y-102500000D02*
X176135000Y-103300000D01*
%TO.C,C_5V1*%
X180445000Y-101659420D02*
X180445000Y-101940580D01*
X181465000Y-101659420D02*
X181465000Y-101940580D01*
%TO.C,R_SENS_Temp1*%
X207520000Y-112736359D02*
X207520000Y-113043641D01*
X208280000Y-112736359D02*
X208280000Y-113043641D01*
%TO.C,C_FB1*%
X185862836Y-100140000D02*
X185647164Y-100140000D01*
X185862836Y-100860000D02*
X185647164Y-100860000D01*
%TO.C,Q_P_V_H1*%
X195225000Y-125195000D02*
X195225000Y-119305000D01*
X190085000Y-125650000D02*
X190085000Y-119305000D01*
%TO.C,Q_P_U_L1*%
X179025000Y-119260000D02*
X179025000Y-125150000D01*
X184165000Y-118805000D02*
X184165000Y-125150000D01*
%TO.C,Q_P_U_H1*%
X178570000Y-121745000D02*
X178570000Y-115855000D01*
X173430000Y-122200000D02*
X173430000Y-115855000D01*
%TO.C,C_1*%
X179645000Y-104888748D02*
X179645000Y-106311252D01*
X182365000Y-104888748D02*
X182365000Y-106311252D01*
D14*
%TO.C,M1*%
X187155000Y-103850000D02*
G75*
G03*
X187155000Y-103850000I-125000J0D01*
G01*
D13*
%TO.C,Rs_P_U1*%
X180390000Y-112522936D02*
X180390000Y-116877064D01*
X183810000Y-112522936D02*
X183810000Y-116877064D01*
D15*
%TO.C,D_VBAT1*%
X171790000Y-108500000D02*
G75*
G03*
X171790000Y-108500000I-50000J0D01*
G01*
D13*
%TO.C,Q_P_W_H1*%
X200775000Y-125240000D02*
X200775000Y-119350000D01*
X195635000Y-125695000D02*
X195635000Y-119350000D01*
%TO.C,C_VM1*%
X179260000Y-105707836D02*
X179260000Y-105492164D01*
X178540000Y-105707836D02*
X178540000Y-105492164D01*
%TO.C,JST_SPI1*%
X170115000Y-107010000D02*
X170665000Y-107010000D01*
X172885000Y-107010000D02*
X174635000Y-107010000D01*
X174635000Y-107010000D02*
X174635000Y-105560000D01*
X174635000Y-99440000D02*
X175525000Y-99440000D01*
X170115000Y-97990000D02*
X170115000Y-107010000D01*
X170665000Y-97990000D02*
X170115000Y-97990000D01*
X172885000Y-97990000D02*
X174635000Y-97990000D01*
X174635000Y-97990000D02*
X174635000Y-99440000D01*
%TO.C,SPI2*%
X200850000Y-98985000D02*
X200915000Y-98985000D01*
X196985000Y-98985000D02*
X197050000Y-98985000D01*
X200915000Y-102515000D02*
X200915000Y-98985000D01*
X200850000Y-102515000D02*
X200915000Y-102515000D01*
X196985000Y-102515000D02*
X196985000Y-98985000D01*
X196985000Y-102515000D02*
X197050000Y-102515000D01*
X197050000Y-103840000D02*
X197050000Y-102515000D01*
%TO.C,D1*%
X194855000Y-98650000D02*
X194855000Y-98550000D01*
X192755000Y-95350000D02*
X192755000Y-98650000D01*
X192855000Y-95350000D02*
X192755000Y-95350000D01*
X194855000Y-95350000D02*
X194855000Y-98550000D01*
X194855000Y-95350000D02*
X192855000Y-95350000D01*
%TO.C,C_IN7*%
X190540000Y-101872164D02*
X190540000Y-102087836D01*
X191260000Y-101872164D02*
X191260000Y-102087836D01*
%TO.C,C_VM2*%
X183460000Y-106107836D02*
X183460000Y-105892164D01*
X182740000Y-106107836D02*
X182740000Y-105892164D01*
%TO.C,D1_ESD5*%
X201945000Y-102940000D02*
X203305000Y-102940000D01*
X201945000Y-103740000D02*
X203305000Y-103740000D01*
X203305000Y-103740000D02*
X203305000Y-102940000D01*
%TO.C,Rs_P_V1*%
X190477064Y-114990000D02*
X186122936Y-114990000D01*
X190477064Y-118410000D02*
X186122936Y-118410000D01*
%TO.C,C_VCC1*%
X190160000Y-102087836D02*
X190160000Y-101872164D01*
X189440000Y-102087836D02*
X189440000Y-101872164D01*
%TO.C,D1_ESD4*%
X177475000Y-105300000D02*
X176115000Y-105300000D01*
X177475000Y-104500000D02*
X176115000Y-104500000D01*
X176115000Y-104500000D02*
X176115000Y-105300000D01*
%TO.C,C_BST1*%
X190662836Y-100140000D02*
X190447164Y-100140000D01*
X190662836Y-100860000D02*
X190447164Y-100860000D01*
%TO.C,R_CAN1*%
X177138641Y-105520000D02*
X176831359Y-105520000D01*
X177138641Y-106280000D02*
X176831359Y-106280000D01*
%TO.C,R_FB2*%
X185928641Y-102120000D02*
X185621359Y-102120000D01*
X185928641Y-102880000D02*
X185621359Y-102880000D01*
%TO.C,Q_P_V_L1*%
X184565000Y-119305000D02*
X184565000Y-125195000D01*
X189705000Y-118850000D02*
X189705000Y-125195000D01*
%TO.C,R_FB1*%
X185601359Y-101880000D02*
X185908641Y-101880000D01*
X185601359Y-101120000D02*
X185908641Y-101120000D01*
%TO.C,D1_ESD1*%
X177495000Y-102300000D02*
X176135000Y-102300000D01*
X177495000Y-101500000D02*
X176135000Y-101500000D01*
X176135000Y-101500000D02*
X176135000Y-102300000D01*
%TO.C,C_VDRAIN1*%
X183161219Y-109460030D02*
X183360030Y-109261219D01*
X182439970Y-108738781D02*
X182638781Y-108539970D01*
%TO.C,C_SPI1*%
X176215000Y-100292164D02*
X176215000Y-100507836D01*
X176935000Y-100292164D02*
X176935000Y-100507836D01*
%TO.C,C_IN5*%
X192440000Y-115688748D02*
X192440000Y-117111252D01*
X195160000Y-115688748D02*
X195160000Y-117111252D01*
%TO.C,Rs_P_W1*%
X200822936Y-115010000D02*
X205177064Y-115010000D01*
X200822936Y-111590000D02*
X205177064Y-111590000D01*
%TO.C,C_DVDD2*%
X184240580Y-103690000D02*
X183959420Y-103690000D01*
X184240580Y-104710000D02*
X183959420Y-104710000D01*
%TO.C,R_C_s2*%
X184437500Y-101762258D02*
X184437500Y-101287742D01*
X183392500Y-101762258D02*
X183392500Y-101287742D01*
%TO.C,D1_ESD6*%
X201945000Y-102040000D02*
X203305000Y-102040000D01*
X201945000Y-102840000D02*
X203305000Y-102840000D01*
X203305000Y-102840000D02*
X203305000Y-102040000D01*
%TO.C,C_PUMP1*%
X184959420Y-106310000D02*
X185240580Y-106310000D01*
X184959420Y-105290000D02*
X185240580Y-105290000D01*
%TO.C,C_IN4*%
X176711252Y-112040000D02*
X175288748Y-112040000D01*
X176711252Y-114760000D02*
X175288748Y-114760000D01*
%TO.C,C_SENS_Temp1*%
X208550000Y-112842164D02*
X208550000Y-113057836D01*
X209270000Y-112842164D02*
X209270000Y-113057836D01*
%TO.C,R_C_s1*%
X182977500Y-101737258D02*
X182977500Y-101262742D01*
X181932500Y-101737258D02*
X181932500Y-101262742D01*
%TD*%
%LPC*%
D16*
%TO.C,NTC1*%
X208900000Y-111600000D03*
X208900000Y-110580000D03*
%TD*%
D17*
%TO.C,Phase_W1*%
X197500000Y-130000000D03*
D18*
X197500000Y-130000000D03*
%TD*%
D19*
%TO.C,CAN_Con2*%
X208520000Y-101040000D03*
X208520000Y-105640000D03*
D20*
X204645000Y-102340000D03*
X204645000Y-103340000D03*
X204645000Y-104340000D03*
%TD*%
D21*
%TO.C,H4*%
X174500000Y-125500000D03*
%TD*%
D22*
%TO.C,R_Fault1*%
X197620000Y-107200000D03*
X196980000Y-107200000D03*
%TD*%
D23*
%TO.C,L1*%
X191155000Y-96000000D03*
X185155000Y-96000000D03*
%TD*%
D24*
%TO.C,C_LDO2*%
X181300000Y-93380000D03*
X181300000Y-92420000D03*
%TD*%
D25*
%TO.C,C_Filter_W1*%
X201900000Y-108900000D03*
X202540000Y-108900000D03*
%TD*%
D26*
%TO.C,Q_P_W_L1*%
X202129999Y-121664999D03*
X203399999Y-121664999D03*
X204669999Y-121664999D03*
X205939999Y-121664999D03*
D27*
X204034999Y-119559999D03*
D28*
X202129999Y-116199999D03*
X203399999Y-116199999D03*
X204669999Y-116199999D03*
X205939999Y-116199999D03*
%TD*%
D29*
%TO.C,C_Filter_U1*%
X199300000Y-108565000D03*
X199300000Y-107925000D03*
%TD*%
D30*
%TO.C,C_SPI2*%
X196000000Y-101320000D03*
X196000000Y-102280000D03*
%TD*%
%TO.C,C_LDO1*%
X197000000Y-92120000D03*
X197000000Y-93080000D03*
%TD*%
D31*
%TO.C,C_IN6*%
X197500000Y-117875000D03*
X197500000Y-114925000D03*
%TD*%
D21*
%TO.C,H2*%
X205500000Y-94500000D03*
%TD*%
D32*
%TO.C,D1_ESD3*%
X177415000Y-103900000D03*
X176575000Y-103900000D03*
%TD*%
%TO.C,D1_ESD2*%
X177415000Y-102900000D03*
X176575000Y-102900000D03*
%TD*%
D33*
%TO.C,C_5V1*%
X180955000Y-102575000D03*
X180955000Y-101025000D03*
%TD*%
D16*
%TO.C,R_SENS_Temp1*%
X207900000Y-113400000D03*
X207900000Y-112380000D03*
%TD*%
D21*
%TO.C,H1*%
X174500000Y-94500000D03*
%TD*%
D34*
%TO.C,C_FB1*%
X185275000Y-100500000D03*
X186235000Y-100500000D03*
%TD*%
D26*
%TO.C,Q_P_V_H1*%
X194559999Y-119454999D03*
X193289999Y-119454999D03*
X192019999Y-119454999D03*
X190749999Y-119454999D03*
D27*
X192654999Y-121559999D03*
D28*
X194559999Y-124919999D03*
X193289999Y-124919999D03*
X192019999Y-124919999D03*
X190749999Y-124919999D03*
%TD*%
D22*
%TO.C,R_BAT1*%
X171520000Y-107800000D03*
X170880000Y-107800000D03*
%TD*%
D35*
%TO.C,C_Vref1*%
X197300000Y-107980000D03*
X197300000Y-108620000D03*
%TD*%
D26*
%TO.C,Q_P_U_L1*%
X179689999Y-124999999D03*
X180959999Y-124999999D03*
X182229999Y-124999999D03*
X183499999Y-124999999D03*
D27*
X181594999Y-122894999D03*
D28*
X179689999Y-119534999D03*
X180959999Y-119534999D03*
X182229999Y-119534999D03*
X183499999Y-119534999D03*
%TD*%
D22*
%TO.C,R_BAT2*%
X172920000Y-107800000D03*
X172280000Y-107800000D03*
%TD*%
D35*
%TO.C,R_CS2*%
X201050000Y-107900000D03*
X201050000Y-108540000D03*
%TD*%
D17*
%TO.C,Positiv1*%
X210000000Y-118000000D03*
D18*
X210000000Y-118000000D03*
%TD*%
D26*
%TO.C,Q_P_U_H1*%
X177904999Y-116004999D03*
X176634999Y-116004999D03*
X175364999Y-116004999D03*
X174094999Y-116004999D03*
D27*
X175999999Y-118109999D03*
D28*
X177904999Y-121469999D03*
X176634999Y-121469999D03*
X175364999Y-121469999D03*
X174094999Y-121469999D03*
%TD*%
D35*
%TO.C,C_DVDD1*%
X193800000Y-101380000D03*
X193800000Y-102020000D03*
%TD*%
D31*
%TO.C,C_1*%
X181005000Y-107075000D03*
X181005000Y-104125000D03*
%TD*%
D25*
%TO.C,R_RT/SD1*%
X187442500Y-102700000D03*
X188082500Y-102700000D03*
%TD*%
D36*
%TO.C,M1*%
X190904999Y-107349999D03*
D37*
X188154999Y-103899999D03*
X188654999Y-103899999D03*
X189154999Y-103899999D03*
X189654999Y-103899999D03*
X190154999Y-103899999D03*
X190654999Y-103899999D03*
X191154999Y-103899999D03*
X191654999Y-103899999D03*
X192154999Y-103899999D03*
X192654999Y-103899999D03*
X193154999Y-103899999D03*
X193654999Y-103899999D03*
D38*
X194354999Y-104599999D03*
X194354999Y-105099999D03*
X194354999Y-105599999D03*
X194354999Y-106099999D03*
X194354999Y-106599999D03*
X194354999Y-107099999D03*
X194354999Y-107599999D03*
X194354999Y-108099999D03*
X194354999Y-108599999D03*
X194354999Y-109099999D03*
X194354999Y-109599999D03*
X194354999Y-110099999D03*
D37*
X193654999Y-110799999D03*
X193154999Y-110799999D03*
X192654999Y-110799999D03*
X192154999Y-110799999D03*
X191654999Y-110799999D03*
X191154999Y-110799999D03*
X190654999Y-110799999D03*
X190154999Y-110799999D03*
X189654999Y-110799999D03*
X189154999Y-110799999D03*
X188654999Y-110799999D03*
X188154999Y-110799999D03*
D38*
X187454999Y-110099999D03*
X187454999Y-109599999D03*
X187454999Y-109099999D03*
X187454999Y-108599999D03*
X187454999Y-108099999D03*
X187454999Y-107599999D03*
X187454999Y-107099999D03*
X187454999Y-106599999D03*
X187454999Y-106099999D03*
X187454999Y-105599999D03*
X187454999Y-105099999D03*
X187454999Y-104599999D03*
%TD*%
D39*
%TO.C,Rs_P_U1*%
X182100000Y-117662500D03*
X182100000Y-111737500D03*
%TD*%
D22*
%TO.C,D_VBAT1*%
X172920000Y-108500000D03*
X172280000Y-108500000D03*
%TD*%
D21*
%TO.C,H3*%
X205500000Y-125500000D03*
%TD*%
D26*
%TO.C,Q_P_W_H1*%
X200109999Y-119499999D03*
X198839999Y-119499999D03*
X197569999Y-119499999D03*
X196299999Y-119499999D03*
D27*
X198204999Y-121604999D03*
D28*
X200109999Y-124964999D03*
X198839999Y-124964999D03*
X197569999Y-124964999D03*
X196299999Y-124964999D03*
%TD*%
D30*
%TO.C,C_VM1*%
X178900000Y-105120000D03*
X178900000Y-106080000D03*
%TD*%
D40*
%TO.C,JST_SPI1*%
X171775000Y-106450000D03*
X171775000Y-98550000D03*
D41*
X174900000Y-105000000D03*
X174900000Y-104000000D03*
X174900000Y-103000000D03*
X174900000Y-102000000D03*
X174900000Y-101000000D03*
X174900000Y-100000000D03*
%TD*%
D42*
%TO.C,SPI2*%
X200219999Y-98799999D03*
X200219999Y-102699999D03*
X198949999Y-98799999D03*
X198949999Y-102699999D03*
X197679999Y-98799999D03*
X197679999Y-102699999D03*
%TD*%
D25*
%TO.C,R_RCL1*%
X187880000Y-101800000D03*
X188520000Y-101800000D03*
%TD*%
D43*
%TO.C,D1*%
X193855000Y-99050000D03*
X193855000Y-96190000D03*
%TD*%
D24*
%TO.C,C_IN7*%
X190900000Y-102460000D03*
X190900000Y-101500000D03*
%TD*%
D30*
%TO.C,C_VM2*%
X183100000Y-105520000D03*
X183100000Y-106480000D03*
%TD*%
D35*
%TO.C,R_CS1*%
X198600000Y-107925000D03*
X198600000Y-108565000D03*
%TD*%
D44*
%TO.C,D1_ESD5*%
X202025000Y-103340000D03*
X202865000Y-103340000D03*
%TD*%
D45*
%TO.C,Rs_P_V1*%
X185337500Y-116700000D03*
X191262500Y-116700000D03*
%TD*%
D22*
%TO.C,R_SDO_PU1*%
X198420000Y-106300000D03*
X197780000Y-106300000D03*
%TD*%
D30*
%TO.C,C_VCC1*%
X189800000Y-101500000D03*
X189800000Y-102460000D03*
%TD*%
D32*
%TO.C,D1_ESD4*%
X177395000Y-104900000D03*
X176555000Y-104900000D03*
%TD*%
D17*
%TO.C,Phase_V1*%
X190000000Y-130000000D03*
D18*
X190000000Y-130000000D03*
%TD*%
D34*
%TO.C,C_BST1*%
X190075000Y-100500000D03*
X191035000Y-100500000D03*
%TD*%
D46*
%TO.C,R_CAN1*%
X176475000Y-105900000D03*
X177495000Y-105900000D03*
%TD*%
%TO.C,R_FB2*%
X185265000Y-102500000D03*
X186285000Y-102500000D03*
%TD*%
D26*
%TO.C,Q_P_V_L1*%
X185229999Y-125044999D03*
X186499999Y-125044999D03*
X187769999Y-125044999D03*
X189039999Y-125044999D03*
D27*
X187134999Y-122939999D03*
D28*
X185229999Y-119579999D03*
X186499999Y-119579999D03*
X187769999Y-119579999D03*
X189039999Y-119579999D03*
%TD*%
D47*
%TO.C,R_FB1*%
X186265000Y-101500000D03*
X185245000Y-101500000D03*
%TD*%
D22*
%TO.C,C_VM_1*%
X174320000Y-108500000D03*
X173680000Y-108500000D03*
%TD*%
%TO.C,R_VM_1*%
X174320000Y-107800000D03*
X173680000Y-107800000D03*
%TD*%
D17*
%TO.C,Negativ1*%
X170000000Y-118000000D03*
D18*
X170000000Y-118000000D03*
%TD*%
D32*
%TO.C,D1_ESD1*%
X177415000Y-101900000D03*
X176575000Y-101900000D03*
%TD*%
D48*
%TO.C,C_VDRAIN1*%
X183448008Y-108451992D03*
X182351992Y-109548008D03*
%TD*%
D24*
%TO.C,C_SPI1*%
X176575000Y-100880000D03*
X176575000Y-99920000D03*
%TD*%
D49*
%TO.C,R_SCLK1*%
X196726274Y-105673726D03*
X196273726Y-106126274D03*
%TD*%
D31*
%TO.C,C_IN5*%
X193800000Y-117875000D03*
X193800000Y-114925000D03*
%TD*%
D50*
%TO.C,Rs_P_W1*%
X205962500Y-113300000D03*
X200037500Y-113300000D03*
%TD*%
D51*
%TO.C,C_DVDD2*%
X183325000Y-104200000D03*
X184875000Y-104200000D03*
%TD*%
D52*
%TO.C,R_C_s2*%
X183915000Y-100700000D03*
X183915000Y-102350000D03*
%TD*%
D44*
%TO.C,D1_ESD6*%
X202025000Y-102440000D03*
X202865000Y-102440000D03*
%TD*%
D53*
%TO.C,C_PUMP1*%
X185875000Y-105800000D03*
X184325000Y-105800000D03*
%TD*%
D29*
%TO.C,C_Filter_V1*%
X200350000Y-108540000D03*
X200350000Y-107900000D03*
%TD*%
D54*
%TO.C,C_IN4*%
X174525000Y-113400000D03*
X177475000Y-113400000D03*
%TD*%
D17*
%TO.C,Phase_U1*%
X182500000Y-130000000D03*
D18*
X182500000Y-130000000D03*
%TD*%
D24*
%TO.C,C_SENS_Temp1*%
X208910000Y-113430000D03*
X208910000Y-112470000D03*
%TD*%
D52*
%TO.C,R_C_s1*%
X182455000Y-100675000D03*
X182455000Y-102325000D03*
%TD*%
D22*
%TO.C,R_CS3*%
X202540000Y-109600000D03*
X201900000Y-109600000D03*
%TD*%
D55*
%TO.C,J1*%
X179850000Y-94150000D03*
D56*
X199850000Y-94150000D03*
%TD*%
D57*
%TO.C,J7*%
X203299999Y-107829999D03*
D58*
X207479999Y-107829999D03*
D57*
X203299999Y-99189999D03*
D58*
X207479999Y-99189999D03*
D59*
X203800000Y-106400000D03*
X203800000Y-100620000D03*
%TD*%
M02*
