%TF.GenerationSoftware,KiCad,Pcbnew,(7.0.0)*%
%TF.CreationDate,2023-07-15T19:37:13+02:00*%
%TF.ProjectId,Leistungsteil,4c656973-7475-46e6-9773-7465696c2e6b,rev?*%
%TF.SameCoordinates,Original*%
%TF.FileFunction,Legend,Bot*%
%TF.FilePolarity,Positive*%
%FSLAX46Y46*%
G04 Gerber Fmt 4.6, Leading zero omitted, Abs format (unit mm)*
G04 Created by KiCad (PCBNEW (7.0.0)) date 2023-07-15 19:37:13*
%MOMM*%
%LPD*%
G01*
G04 APERTURE LIST*
G04 Aperture macros list*
%AMRoundRect*
0 Rectangle with rounded corners*
0 $1 Rounding radius*
0 $2 $3 $4 $5 $6 $7 $8 $9 X,Y pos of 4 corners*
0 Add a 4 corners polygon primitive as box body*
4,1,4,$2,$3,$4,$5,$6,$7,$8,$9,$2,$3,0*
0 Add four circle primitives for the rounded corners*
1,1,$1+$1,$2,$3*
1,1,$1+$1,$4,$5*
1,1,$1+$1,$6,$7*
1,1,$1+$1,$8,$9*
0 Add four rect primitives between the rounded corners*
20,1,$1+$1,$2,$3,$4,$5,0*
20,1,$1+$1,$4,$5,$6,$7,0*
20,1,$1+$1,$6,$7,$8,$9,0*
20,1,$1+$1,$8,$9,$2,$3,0*%
G04 Aperture macros list end*
%ADD10C,0.300000*%
%ADD11C,0.150000*%
%ADD12C,0.254000*%
%ADD13C,0.120000*%
%ADD14C,0.100000*%
%ADD15C,5.500000*%
%ADD16C,3.600000*%
%ADD17C,3.200000*%
%ADD18R,1.550000X2.400000*%
%ADD19R,0.650000X0.350000*%
%ADD20RoundRect,0.250000X1.000000X-1.750000X1.000000X1.750000X-1.000000X1.750000X-1.000000X-1.750000X0*%
%ADD21RoundRect,0.100000X0.130000X0.100000X-0.130000X0.100000X-0.130000X-0.100000X0.130000X-0.100000X0*%
%ADD22RoundRect,0.100000X-0.130000X-0.100000X0.130000X-0.100000X0.130000X0.100000X-0.130000X0.100000X0*%
%ADD23RoundRect,0.250000X0.650000X-0.350000X0.650000X0.350000X-0.650000X0.350000X-0.650000X-0.350000X0*%
%ADD24RoundRect,0.150000X0.625000X-0.150000X0.625000X0.150000X-0.625000X0.150000X-0.625000X-0.150000X0*%
%ADD25RoundRect,0.140000X0.170000X-0.140000X0.170000X0.140000X-0.170000X0.140000X-0.170000X-0.140000X0*%
%ADD26R,0.300000X1.375000*%
%ADD27C,1.100000*%
%ADD28C,1.600000*%
%ADD29O,2.100000X1.000000*%
%ADD30O,1.800000X1.000000*%
%ADD31R,1.150000X0.600000*%
%ADD32R,1.150000X0.300000*%
%ADD33C,0.650000*%
%ADD34RoundRect,0.135000X0.135000X0.185000X-0.135000X0.185000X-0.135000X-0.185000X0.135000X-0.185000X0*%
%ADD35RoundRect,0.140000X0.140000X0.170000X-0.140000X0.170000X-0.140000X-0.170000X0.140000X-0.170000X0*%
%ADD36RoundRect,0.150000X0.512500X0.150000X-0.512500X0.150000X-0.512500X-0.150000X0.512500X-0.150000X0*%
%ADD37RoundRect,0.150000X0.587500X0.150000X-0.587500X0.150000X-0.587500X-0.150000X0.587500X-0.150000X0*%
%ADD38RoundRect,0.225000X0.375000X-0.225000X0.375000X0.225000X-0.375000X0.225000X-0.375000X-0.225000X0*%
%ADD39RoundRect,0.140000X-0.170000X0.140000X-0.170000X-0.140000X0.170000X-0.140000X0.170000X0.140000X0*%
%ADD40RoundRect,0.140000X-0.140000X-0.170000X0.140000X-0.170000X0.140000X0.170000X-0.140000X0.170000X0*%
%ADD41R,2.000000X1.500000*%
%ADD42R,2.000000X3.800000*%
%ADD43RoundRect,0.225000X0.250000X-0.225000X0.250000X0.225000X-0.250000X0.225000X-0.250000X-0.225000X0*%
G04 APERTURE END LIST*
D10*
X187809523Y-126564761D02*
X187142857Y-128564761D01*
X187142857Y-128564761D02*
X186476190Y-126564761D01*
X208447142Y-127773809D02*
X208447142Y-126250000D01*
X207685238Y-127011904D02*
X209209047Y-127011904D01*
X208732857Y-124630952D02*
X208637619Y-124345238D01*
X208637619Y-124345238D02*
X208542380Y-124250000D01*
X208542380Y-124250000D02*
X208351904Y-124154762D01*
X208351904Y-124154762D02*
X208066190Y-124154762D01*
X208066190Y-124154762D02*
X207875714Y-124250000D01*
X207875714Y-124250000D02*
X207780476Y-124345238D01*
X207780476Y-124345238D02*
X207685238Y-124535714D01*
X207685238Y-124535714D02*
X207685238Y-125297619D01*
X207685238Y-125297619D02*
X209685238Y-125297619D01*
X209685238Y-125297619D02*
X209685238Y-124630952D01*
X209685238Y-124630952D02*
X209590000Y-124440476D01*
X209590000Y-124440476D02*
X209494761Y-124345238D01*
X209494761Y-124345238D02*
X209304285Y-124250000D01*
X209304285Y-124250000D02*
X209113809Y-124250000D01*
X209113809Y-124250000D02*
X208923333Y-124345238D01*
X208923333Y-124345238D02*
X208828095Y-124440476D01*
X208828095Y-124440476D02*
X208732857Y-124630952D01*
X208732857Y-124630952D02*
X208732857Y-125297619D01*
X208256666Y-123392857D02*
X208256666Y-122440476D01*
X207685238Y-123583333D02*
X209685238Y-122916667D01*
X209685238Y-122916667D02*
X207685238Y-122250000D01*
X209685238Y-121869047D02*
X209685238Y-120726190D01*
X207685238Y-121297619D02*
X209685238Y-121297619D01*
X179273809Y-126564761D02*
X179273809Y-128183809D01*
X179273809Y-128183809D02*
X179178571Y-128374285D01*
X179178571Y-128374285D02*
X179083333Y-128469523D01*
X179083333Y-128469523D02*
X178892857Y-128564761D01*
X178892857Y-128564761D02*
X178511904Y-128564761D01*
X178511904Y-128564761D02*
X178321428Y-128469523D01*
X178321428Y-128469523D02*
X178226190Y-128374285D01*
X178226190Y-128374285D02*
X178130952Y-128183809D01*
X178130952Y-128183809D02*
X178130952Y-126564761D01*
D11*
X186988095Y-98467619D02*
X186988095Y-99467619D01*
X186988095Y-99467619D02*
X187321428Y-98753333D01*
X187321428Y-98753333D02*
X187654761Y-99467619D01*
X187654761Y-99467619D02*
X187654761Y-98467619D01*
X188130952Y-98848571D02*
X188892857Y-98848571D01*
X189369047Y-98467619D02*
X189369047Y-99467619D01*
X189940475Y-98467619D02*
X189511904Y-99039047D01*
X189940475Y-99467619D02*
X189369047Y-98896190D01*
X190749999Y-98515238D02*
X190654761Y-98467619D01*
X190654761Y-98467619D02*
X190464285Y-98467619D01*
X190464285Y-98467619D02*
X190369047Y-98515238D01*
X190369047Y-98515238D02*
X190321428Y-98610476D01*
X190321428Y-98610476D02*
X190321428Y-98991428D01*
X190321428Y-98991428D02*
X190369047Y-99086666D01*
X190369047Y-99086666D02*
X190464285Y-99134285D01*
X190464285Y-99134285D02*
X190654761Y-99134285D01*
X190654761Y-99134285D02*
X190749999Y-99086666D01*
X190749999Y-99086666D02*
X190797618Y-98991428D01*
X190797618Y-98991428D02*
X190797618Y-98896190D01*
X190797618Y-98896190D02*
X190321428Y-98800952D01*
X191130952Y-99134285D02*
X191369047Y-98467619D01*
X191607142Y-99134285D02*
X191369047Y-98467619D01*
X191369047Y-98467619D02*
X191273809Y-98229523D01*
X191273809Y-98229523D02*
X191226190Y-98181904D01*
X191226190Y-98181904D02*
X191130952Y-98134285D01*
D10*
X201964285Y-126564761D02*
X201488095Y-128564761D01*
X201488095Y-128564761D02*
X201107142Y-127136190D01*
X201107142Y-127136190D02*
X200726190Y-128564761D01*
X200726190Y-128564761D02*
X200250000Y-126564761D01*
D11*
X176562857Y-104190476D02*
X176515238Y-104238095D01*
X176515238Y-104238095D02*
X176467619Y-104380952D01*
X176467619Y-104380952D02*
X176467619Y-104476190D01*
X176467619Y-104476190D02*
X176515238Y-104619047D01*
X176515238Y-104619047D02*
X176610476Y-104714285D01*
X176610476Y-104714285D02*
X176705714Y-104761904D01*
X176705714Y-104761904D02*
X176896190Y-104809523D01*
X176896190Y-104809523D02*
X177039047Y-104809523D01*
X177039047Y-104809523D02*
X177229523Y-104761904D01*
X177229523Y-104761904D02*
X177324761Y-104714285D01*
X177324761Y-104714285D02*
X177420000Y-104619047D01*
X177420000Y-104619047D02*
X177467619Y-104476190D01*
X177467619Y-104476190D02*
X177467619Y-104380952D01*
X177467619Y-104380952D02*
X177420000Y-104238095D01*
X177420000Y-104238095D02*
X177372380Y-104190476D01*
X176753333Y-103809523D02*
X176753333Y-103333333D01*
X176467619Y-103904761D02*
X177467619Y-103571428D01*
X177467619Y-103571428D02*
X176467619Y-103238095D01*
X176467619Y-102904761D02*
X177467619Y-102904761D01*
X177467619Y-102904761D02*
X176467619Y-102333333D01*
X176467619Y-102333333D02*
X177467619Y-102333333D01*
D10*
X172440000Y-127176190D02*
X172535238Y-127366666D01*
X172535238Y-127366666D02*
X172535238Y-127652380D01*
X172535238Y-127652380D02*
X172440000Y-127938095D01*
X172440000Y-127938095D02*
X172249523Y-128128571D01*
X172249523Y-128128571D02*
X172059047Y-128223809D01*
X172059047Y-128223809D02*
X171678095Y-128319047D01*
X171678095Y-128319047D02*
X171392380Y-128319047D01*
X171392380Y-128319047D02*
X171011428Y-128223809D01*
X171011428Y-128223809D02*
X170820952Y-128128571D01*
X170820952Y-128128571D02*
X170630476Y-127938095D01*
X170630476Y-127938095D02*
X170535238Y-127652380D01*
X170535238Y-127652380D02*
X170535238Y-127461904D01*
X170535238Y-127461904D02*
X170630476Y-127176190D01*
X170630476Y-127176190D02*
X170725714Y-127080952D01*
X170725714Y-127080952D02*
X171392380Y-127080952D01*
X171392380Y-127080952D02*
X171392380Y-127461904D01*
X170535238Y-126223809D02*
X172535238Y-126223809D01*
X172535238Y-126223809D02*
X170535238Y-125080952D01*
X170535238Y-125080952D02*
X172535238Y-125080952D01*
X170535238Y-124128571D02*
X172535238Y-124128571D01*
X172535238Y-124128571D02*
X172535238Y-123652381D01*
X172535238Y-123652381D02*
X172440000Y-123366666D01*
X172440000Y-123366666D02*
X172249523Y-123176190D01*
X172249523Y-123176190D02*
X172059047Y-123080952D01*
X172059047Y-123080952D02*
X171678095Y-122985714D01*
X171678095Y-122985714D02*
X171392380Y-122985714D01*
X171392380Y-122985714D02*
X171011428Y-123080952D01*
X171011428Y-123080952D02*
X170820952Y-123176190D01*
X170820952Y-123176190D02*
X170630476Y-123366666D01*
X170630476Y-123366666D02*
X170535238Y-123652381D01*
X170535238Y-123652381D02*
X170535238Y-124128571D01*
X171297142Y-122128571D02*
X171297142Y-120604762D01*
D12*
%TO.C,J1*%
X190273332Y-93346573D02*
X190273332Y-94253716D01*
X190273332Y-94253716D02*
X190333809Y-94435145D01*
X190333809Y-94435145D02*
X190454761Y-94556097D01*
X190454761Y-94556097D02*
X190636190Y-94616573D01*
X190636190Y-94616573D02*
X190757142Y-94616573D01*
X189003332Y-94616573D02*
X189729047Y-94616573D01*
X189366190Y-94616573D02*
X189366190Y-93346573D01*
X189366190Y-93346573D02*
X189487142Y-93528002D01*
X189487142Y-93528002D02*
X189608094Y-93648954D01*
X189608094Y-93648954D02*
X189729047Y-93709430D01*
D13*
%TO.C,U3*%
X180890000Y-98865000D02*
X180890000Y-99015000D01*
X180890000Y-101985000D02*
X180890000Y-101835000D01*
X182450000Y-98865000D02*
X180890000Y-98865000D01*
X184010000Y-101985000D02*
X180890000Y-101985000D01*
X184010000Y-101985000D02*
X184010000Y-101835000D01*
%TO.C,C_IN1*%
X195260000Y-111540000D02*
X191510000Y-111540000D01*
X184740000Y-111540000D02*
X188490000Y-111540000D01*
X195260000Y-120995563D02*
X195260000Y-111540000D01*
X184740000Y-120995563D02*
X184740000Y-111540000D01*
X194195563Y-122060000D02*
X195260000Y-120995563D01*
X194195563Y-122060000D02*
X191510000Y-122060000D01*
X185804437Y-122060000D02*
X184740000Y-120995563D01*
X185804437Y-122060000D02*
X188490000Y-122060000D01*
X193385000Y-122925000D02*
X192135000Y-122925000D01*
X192760000Y-123550000D02*
X192760000Y-122300000D01*
D14*
%TO.C,D_sense_W1*%
X207190000Y-110300000D02*
G75*
G03*
X207190000Y-110300000I-50000J0D01*
G01*
%TO.C,D_sense_U1*%
X174335000Y-109900000D02*
G75*
G03*
X174335000Y-109900000I-50000J0D01*
G01*
D13*
%TO.C,CAN_Con1*%
X174885000Y-98490000D02*
X174885000Y-99540000D01*
X172385000Y-98490000D02*
X174885000Y-98490000D01*
X170415000Y-102540000D02*
X170415000Y-99660000D01*
X174885000Y-102660000D02*
X175875000Y-102660000D01*
X174885000Y-103710000D02*
X174885000Y-102660000D01*
X172385000Y-103710000D02*
X174885000Y-103710000D01*
%TO.C,C_LDO4*%
X189010000Y-107207836D02*
X189010000Y-106992164D01*
X188290000Y-107207836D02*
X188290000Y-106992164D01*
%TO.C,C_IN2*%
X206260000Y-111790000D02*
X202510000Y-111790000D01*
X195740000Y-111790000D02*
X199490000Y-111790000D01*
X206260000Y-121245563D02*
X206260000Y-111790000D01*
X195740000Y-121245563D02*
X195740000Y-111790000D01*
X205195563Y-122310000D02*
X206260000Y-121245563D01*
X205195563Y-122310000D02*
X202510000Y-122310000D01*
X196804437Y-122310000D02*
X195740000Y-121245563D01*
X196804437Y-122310000D02*
X199490000Y-122310000D01*
X204385000Y-123175000D02*
X203135000Y-123175000D01*
X203760000Y-123800000D02*
X203760000Y-122550000D01*
D14*
%TO.C,J1*%
X179050000Y-97250000D02*
G75*
G03*
X179050000Y-97150000I0J50000D01*
G01*
X179050000Y-97150000D02*
G75*
G03*
X179050000Y-97250000I0J-50000D01*
G01*
X179050000Y-97150000D02*
X179050000Y-97150000D01*
X179050000Y-97250000D02*
X179050000Y-97250000D01*
D13*
%TO.C,J7*%
X206405000Y-108180000D02*
X204605000Y-108180000D01*
X208505000Y-108180000D02*
X209655000Y-108180000D01*
X206405000Y-98840000D02*
X204605000Y-98840000D01*
X208505000Y-98840000D02*
X209655000Y-98840000D01*
%TO.C,R_USB3*%
X200853641Y-106120000D02*
X200546359Y-106120000D01*
X200853641Y-106880000D02*
X200546359Y-106880000D01*
%TO.C,C_Reset1*%
X180107836Y-102340000D02*
X179892164Y-102340000D01*
X180107836Y-103060000D02*
X179892164Y-103060000D01*
D14*
%TO.C,D_sense_V1*%
X176190000Y-106800000D02*
G75*
G03*
X176190000Y-106800000I-50000J0D01*
G01*
D13*
%TO.C,U2*%
X199462500Y-101990000D02*
X198662500Y-101990000D01*
X199462500Y-101990000D02*
X201262500Y-101990000D01*
X199462500Y-105110000D02*
X198662500Y-105110000D01*
X199462500Y-105110000D02*
X200262500Y-105110000D01*
%TO.C,D2*%
X178300000Y-98740000D02*
X177650000Y-98740000D01*
X178300000Y-98740000D02*
X179975000Y-98740000D01*
X178300000Y-101860000D02*
X177650000Y-101860000D01*
X178300000Y-101860000D02*
X178950000Y-101860000D01*
%TO.C,D_TVS1*%
X173300000Y-116060000D02*
X173300000Y-112050000D01*
X173300000Y-116060000D02*
X171300000Y-116060000D01*
X171300000Y-116060000D02*
X171300000Y-112050000D01*
%TO.C,C_Reset2*%
X185240000Y-100892164D02*
X185240000Y-101107836D01*
X185960000Y-100892164D02*
X185960000Y-101107836D01*
%TO.C,C_LDO5*%
X181742164Y-103060000D02*
X181957836Y-103060000D01*
X181742164Y-102340000D02*
X181957836Y-102340000D01*
%TO.C,C_LDO6*%
X183742164Y-103060000D02*
X183957836Y-103060000D01*
X183742164Y-102340000D02*
X183957836Y-102340000D01*
%TO.C,U1*%
X180390000Y-103390000D02*
X180390000Y-104650000D01*
X180390000Y-110210000D02*
X180390000Y-108950000D01*
X184150000Y-110210000D02*
X180390000Y-110210000D01*
X186400000Y-103390000D02*
X180390000Y-103390000D01*
%TO.C,C_IN3*%
X184260000Y-111540000D02*
X180510000Y-111540000D01*
X173740000Y-111540000D02*
X177490000Y-111540000D01*
X184260000Y-120995563D02*
X184260000Y-111540000D01*
X173740000Y-120995563D02*
X173740000Y-111540000D01*
X183195563Y-122060000D02*
X184260000Y-120995563D01*
X183195563Y-122060000D02*
X180510000Y-122060000D01*
X174804437Y-122060000D02*
X173740000Y-120995563D01*
X174804437Y-122060000D02*
X177490000Y-122060000D01*
X182385000Y-122925000D02*
X181135000Y-122925000D01*
X181760000Y-123550000D02*
X181760000Y-122300000D01*
%TO.C,C_LDO3*%
X187960000Y-107140580D02*
X187960000Y-106859420D01*
X186940000Y-107140580D02*
X186940000Y-106859420D01*
%TD*%
%LPC*%
D15*
%TO.C,Phase_W1*%
X197500000Y-130000000D03*
D16*
X197500000Y-130000000D03*
%TD*%
D17*
%TO.C,H4*%
X174500000Y-125500000D03*
%TD*%
%TO.C,H2*%
X205500000Y-94500000D03*
%TD*%
%TO.C,H1*%
X174500000Y-94500000D03*
%TD*%
D15*
%TO.C,Positiv1*%
X210000000Y-118000000D03*
D16*
X210000000Y-118000000D03*
%TD*%
D17*
%TO.C,H3*%
X205500000Y-125500000D03*
%TD*%
D15*
%TO.C,Phase_V1*%
X190000000Y-130000000D03*
D16*
X190000000Y-130000000D03*
%TD*%
D15*
%TO.C,Negativ1*%
X170000000Y-118000000D03*
D16*
X170000000Y-118000000D03*
%TD*%
D15*
%TO.C,Phase_U1*%
X182500000Y-130000000D03*
D16*
X182500000Y-130000000D03*
%TD*%
D18*
%TO.C,U3*%
X182449999Y-100424999D03*
D19*
X180899999Y-99449999D03*
X180899999Y-100099999D03*
X180899999Y-100749999D03*
X180899999Y-101399999D03*
X183999999Y-101399999D03*
X183999999Y-100749999D03*
X183999999Y-100099999D03*
X183999999Y-99449999D03*
%TD*%
D20*
%TO.C,C_IN1*%
X190000000Y-112800000D03*
X190000000Y-120800000D03*
%TD*%
D21*
%TO.C,R_sense_W1*%
X207360000Y-109600000D03*
X208000000Y-109600000D03*
%TD*%
%TO.C,R_sense_V1*%
X176360000Y-106100000D03*
X177000000Y-106100000D03*
%TD*%
%TO.C,R_sense_V2*%
X174960000Y-106100000D03*
X175600000Y-106100000D03*
%TD*%
%TO.C,D_sense_W1*%
X205960000Y-110300000D03*
X206600000Y-110300000D03*
%TD*%
D22*
%TO.C,D_sense_U1*%
X175465000Y-109900000D03*
X174825000Y-109900000D03*
%TD*%
D21*
%TO.C,R_sense_W3*%
X204560000Y-109600000D03*
X205200000Y-109600000D03*
%TD*%
D23*
%TO.C,CAN_Con1*%
X171225000Y-98800000D03*
X171225000Y-103400000D03*
D24*
X175100000Y-100100000D03*
X175100000Y-101100000D03*
X175100000Y-102100000D03*
%TD*%
D25*
%TO.C,C_LDO4*%
X188650000Y-106620000D03*
X188650000Y-107580000D03*
%TD*%
D20*
%TO.C,C_IN2*%
X201000000Y-113050000D03*
X201000000Y-121050000D03*
%TD*%
D26*
%TO.C,J1*%
X199099999Y-96799999D03*
X198849999Y-91499999D03*
X198599999Y-96799999D03*
X198349999Y-91499999D03*
X198099999Y-96799999D03*
X197849999Y-91499999D03*
X197599999Y-96799999D03*
X197349999Y-91499999D03*
X197099999Y-96799999D03*
X194849999Y-91499999D03*
X194599999Y-96799999D03*
X194349999Y-91499999D03*
X194099999Y-96799999D03*
X193849999Y-91499999D03*
X193599999Y-96799999D03*
X193349999Y-91499999D03*
X193099999Y-96799999D03*
X192849999Y-91499999D03*
X192599999Y-96799999D03*
X192349999Y-91499999D03*
X192099999Y-96799999D03*
X191849999Y-91499999D03*
X191599999Y-96799999D03*
X191349999Y-91499999D03*
X191099999Y-96799999D03*
X190849999Y-91499999D03*
X190599999Y-96799999D03*
X190349999Y-91499999D03*
X190099999Y-96799999D03*
X189849999Y-91499999D03*
X189599999Y-96799999D03*
X189349999Y-91499999D03*
X189099999Y-96799999D03*
X188849999Y-91499999D03*
X188599999Y-96799999D03*
X188349999Y-91499999D03*
X188099999Y-96799999D03*
X187849999Y-91499999D03*
X187599999Y-96799999D03*
X187349999Y-91499999D03*
X187099999Y-96799999D03*
X186849999Y-91499999D03*
X186599999Y-96799999D03*
X186349999Y-91499999D03*
X186099999Y-96799999D03*
X185849999Y-91499999D03*
X185599999Y-96799999D03*
X185349999Y-91499999D03*
X185099999Y-96799999D03*
X184849999Y-91499999D03*
X184599999Y-96799999D03*
X184349999Y-91499999D03*
X184099999Y-96799999D03*
X183849999Y-91499999D03*
X183599999Y-96799999D03*
X183349999Y-91499999D03*
X183099999Y-96799999D03*
X182849999Y-91499999D03*
X182599999Y-96799999D03*
X182349999Y-91499999D03*
X182099999Y-96799999D03*
X181849999Y-91499999D03*
X181599999Y-96799999D03*
X181349999Y-91499999D03*
X181099999Y-96799999D03*
X180849999Y-91499999D03*
X180599999Y-96799999D03*
D27*
X179850000Y-94150000D03*
D28*
X199850000Y-94150000D03*
%TD*%
D29*
%TO.C,J7*%
X203299999Y-107829999D03*
D30*
X207479999Y-107829999D03*
D29*
X203299999Y-99189999D03*
D30*
X207479999Y-99189999D03*
D31*
X202724999Y-100309999D03*
X202724999Y-101109999D03*
D32*
X202724999Y-101759999D03*
X202724999Y-102759999D03*
X202724999Y-104259999D03*
X202724999Y-105259999D03*
D31*
X202724999Y-105909999D03*
X202724999Y-106709999D03*
X202724999Y-106709999D03*
X202724999Y-105909999D03*
D32*
X202724999Y-104759999D03*
X202724999Y-103759999D03*
X202724999Y-103259999D03*
X202724999Y-102259999D03*
D31*
X202724999Y-101109999D03*
X202724999Y-100309999D03*
D33*
X203800000Y-106400000D03*
X203800000Y-100620000D03*
%TD*%
D21*
%TO.C,R_USB2*%
X200480000Y-101500000D03*
X201120000Y-101500000D03*
%TD*%
D34*
%TO.C,R_USB3*%
X200190000Y-106500000D03*
X201210000Y-106500000D03*
%TD*%
D21*
%TO.C,R_sense_W2*%
X205960000Y-109600000D03*
X206600000Y-109600000D03*
%TD*%
%TO.C,C_sense_V1*%
X173560000Y-106800000D03*
X174200000Y-106800000D03*
%TD*%
%TO.C,C_sense_W1*%
X204560000Y-110300000D03*
X205200000Y-110300000D03*
%TD*%
D35*
%TO.C,C_Reset1*%
X179520000Y-102700000D03*
X180480000Y-102700000D03*
%TD*%
D22*
%TO.C,R_sense_U3*%
X174065000Y-110600000D03*
X173425000Y-110600000D03*
%TD*%
D21*
%TO.C,D_sense_V1*%
X174960000Y-106800000D03*
X175600000Y-106800000D03*
%TD*%
D36*
%TO.C,U2*%
X198325000Y-102600000D03*
X198325000Y-103550000D03*
X198325000Y-104500000D03*
X200600000Y-104500000D03*
X200600000Y-103550000D03*
X200600000Y-102600000D03*
%TD*%
D37*
%TO.C,D2*%
X177362500Y-100300000D03*
X179237500Y-101250000D03*
X179237500Y-99350000D03*
%TD*%
D38*
%TO.C,D_TVS1*%
X172300000Y-112050000D03*
X172300000Y-115350000D03*
%TD*%
D39*
%TO.C,C_Reset2*%
X185600000Y-101480000D03*
X185600000Y-100520000D03*
%TD*%
D22*
%TO.C,R_sense_U1*%
X175465000Y-110600000D03*
X174825000Y-110600000D03*
%TD*%
D40*
%TO.C,C_LDO5*%
X182330000Y-102700000D03*
X181370000Y-102700000D03*
%TD*%
D22*
%TO.C,C_sense_U1*%
X176865000Y-109900000D03*
X176225000Y-109900000D03*
%TD*%
D40*
%TO.C,C_LDO6*%
X184330000Y-102700000D03*
X183370000Y-102700000D03*
%TD*%
D41*
%TO.C,U1*%
X185449999Y-109099999D03*
D42*
X179149999Y-106799999D03*
D41*
X185449999Y-106799999D03*
X185449999Y-104499999D03*
%TD*%
D21*
%TO.C,R_USB1*%
X200480000Y-105600000D03*
X201120000Y-105600000D03*
%TD*%
D20*
%TO.C,C_IN3*%
X179000000Y-112800000D03*
X179000000Y-120800000D03*
%TD*%
D21*
%TO.C,R_sense_V3*%
X173560000Y-106100000D03*
X174200000Y-106100000D03*
%TD*%
D43*
%TO.C,C_LDO3*%
X187450000Y-106225000D03*
X187450000Y-107775000D03*
%TD*%
D22*
%TO.C,R_sense_U2*%
X176865000Y-110600000D03*
X176225000Y-110600000D03*
%TD*%
M02*
