%TF.GenerationSoftware,KiCad,Pcbnew,(7.0.0)*%
%TF.CreationDate,2023-07-15T19:37:41+02:00*%
%TF.ProjectId,Leistungsteil,4c656973-7475-46e6-9773-7465696c2e6b,rev?*%
%TF.SameCoordinates,Original*%
%TF.FileFunction,Drillmap*%
%TF.FilePolarity,Positive*%
%FSLAX45Y45*%
G04 Gerber Fmt 4.5, Leading zero omitted, Abs format (unit mm)*
G04 Created by KiCad (PCBNEW (7.0.0)) date 2023-07-15 19:37:41*
%MOMM*%
%LPD*%
G01*
G04 APERTURE LIST*
%ADD10C,0.100000*%
%ADD11C,0.200000*%
%ADD12C,0.020000*%
%ADD13C,0.060000*%
%ADD14C,0.320000*%
G04 APERTURE END LIST*
D10*
X17000000Y-9000000D02*
X21000000Y-9000000D01*
X21000000Y-9000000D02*
X21000000Y-13000000D01*
X21000000Y-13000000D02*
X17000000Y-13000000D01*
X17000000Y-13000000D02*
X17000000Y-9000000D01*
D11*
D12*
X17160000Y-10840000D02*
X17180000Y-10860000D01*
X17180000Y-10840000D02*
X17160000Y-10860000D01*
X17215000Y-11190000D02*
X17235000Y-11210000D01*
X17235000Y-11190000D02*
X17215000Y-11210000D01*
X17265000Y-12115000D02*
X17285000Y-12135000D01*
X17285000Y-12115000D02*
X17265000Y-12135000D01*
X17265000Y-12190000D02*
X17285000Y-12210000D01*
X17285000Y-12190000D02*
X17265000Y-12210000D01*
X17270000Y-10100000D02*
X17290000Y-10120000D01*
X17290000Y-10100000D02*
X17270000Y-10120000D01*
X17290000Y-11190000D02*
X17310000Y-11210000D01*
X17310000Y-11190000D02*
X17290000Y-11210000D01*
X17310000Y-10630000D02*
X17330000Y-10650000D01*
X17330000Y-10630000D02*
X17310000Y-10650000D01*
X17310000Y-11080000D02*
X17330000Y-11100000D01*
X17330000Y-11080000D02*
X17310000Y-11100000D01*
X17320000Y-10800000D02*
X17340000Y-10820000D01*
X17340000Y-10800000D02*
X17320000Y-10820000D01*
X17340000Y-12115000D02*
X17360000Y-12135000D01*
X17360000Y-12115000D02*
X17340000Y-12135000D01*
X17340000Y-12190000D02*
X17360000Y-12210000D01*
X17360000Y-12190000D02*
X17340000Y-12210000D01*
X17360000Y-10190000D02*
X17380000Y-10210000D01*
X17380000Y-10190000D02*
X17360000Y-10210000D01*
X17360000Y-10290000D02*
X17380000Y-10310000D01*
X17380000Y-10290000D02*
X17360000Y-10310000D01*
X17360000Y-10390000D02*
X17380000Y-10410000D01*
X17380000Y-10390000D02*
X17360000Y-10410000D01*
X17360000Y-10490000D02*
X17380000Y-10510000D01*
X17380000Y-10490000D02*
X17360000Y-10510000D01*
X17415000Y-12115000D02*
X17435000Y-12135000D01*
X17435000Y-12115000D02*
X17415000Y-12135000D01*
X17415000Y-12190000D02*
X17435000Y-12210000D01*
X17435000Y-12190000D02*
X17415000Y-12210000D01*
X17420000Y-10980000D02*
X17440000Y-11000000D01*
X17440000Y-10980000D02*
X17420000Y-11000000D01*
X17440000Y-11515000D02*
X17460000Y-11535000D01*
X17460000Y-11515000D02*
X17440000Y-11535000D01*
X17440000Y-11640000D02*
X17460000Y-11660000D01*
X17460000Y-11640000D02*
X17440000Y-11660000D01*
X17440000Y-11715000D02*
X17460000Y-11735000D01*
X17460000Y-11715000D02*
X17440000Y-11735000D01*
X17440000Y-11790000D02*
X17460000Y-11810000D01*
X17460000Y-11790000D02*
X17440000Y-11810000D01*
X17440000Y-11865000D02*
X17460000Y-11885000D01*
X17460000Y-11865000D02*
X17440000Y-11885000D01*
X17440000Y-11940000D02*
X17460000Y-11960000D01*
X17460000Y-11940000D02*
X17440000Y-11960000D01*
X17450000Y-10640000D02*
X17470000Y-10660000D01*
X17470000Y-10640000D02*
X17450000Y-10660000D01*
X17490000Y-12115000D02*
X17510000Y-12135000D01*
X17510000Y-12115000D02*
X17490000Y-12135000D01*
X17490000Y-12190000D02*
X17510000Y-12210000D01*
X17510000Y-12190000D02*
X17490000Y-12210000D01*
X17500000Y-10840000D02*
X17520000Y-10860000D01*
X17520000Y-10840000D02*
X17500000Y-10860000D01*
X17515000Y-9815000D02*
X17535000Y-9835000D01*
X17535000Y-9815000D02*
X17515000Y-9835000D01*
X17515000Y-11640000D02*
X17535000Y-11660000D01*
X17535000Y-11640000D02*
X17515000Y-11660000D01*
X17515000Y-11715000D02*
X17535000Y-11735000D01*
X17535000Y-11715000D02*
X17515000Y-11735000D01*
X17515000Y-11790000D02*
X17535000Y-11810000D01*
X17535000Y-11790000D02*
X17515000Y-11810000D01*
X17515000Y-11865000D02*
X17535000Y-11885000D01*
X17535000Y-11865000D02*
X17515000Y-11885000D01*
X17515000Y-11940000D02*
X17535000Y-11960000D01*
X17535000Y-11940000D02*
X17515000Y-11960000D01*
X17530000Y-10750000D02*
X17550000Y-10770000D01*
X17550000Y-10750000D02*
X17530000Y-10770000D01*
X17565000Y-12115000D02*
X17585000Y-12135000D01*
X17585000Y-12115000D02*
X17565000Y-12135000D01*
X17565000Y-12190000D02*
X17585000Y-12210000D01*
X17585000Y-12190000D02*
X17565000Y-12210000D01*
X17580000Y-11010000D02*
X17600000Y-11030000D01*
X17600000Y-11010000D02*
X17580000Y-11030000D01*
X17590000Y-11640000D02*
X17610000Y-11660000D01*
X17610000Y-11640000D02*
X17590000Y-11660000D01*
X17590000Y-11715000D02*
X17610000Y-11735000D01*
X17610000Y-11715000D02*
X17590000Y-11735000D01*
X17590000Y-11790000D02*
X17610000Y-11810000D01*
X17610000Y-11790000D02*
X17590000Y-11810000D01*
X17590000Y-11865000D02*
X17610000Y-11885000D01*
X17610000Y-11865000D02*
X17590000Y-11885000D01*
X17590000Y-11940000D02*
X17610000Y-11960000D01*
X17610000Y-11940000D02*
X17590000Y-11960000D01*
X17640000Y-12115000D02*
X17660000Y-12135000D01*
X17660000Y-12115000D02*
X17640000Y-12135000D01*
X17640000Y-12190000D02*
X17660000Y-12210000D01*
X17660000Y-12190000D02*
X17640000Y-12210000D01*
X17665000Y-11640000D02*
X17685000Y-11660000D01*
X17685000Y-11640000D02*
X17665000Y-11660000D01*
X17665000Y-11715000D02*
X17685000Y-11735000D01*
X17685000Y-11715000D02*
X17665000Y-11735000D01*
X17665000Y-11790000D02*
X17685000Y-11810000D01*
X17685000Y-11790000D02*
X17665000Y-11810000D01*
X17665000Y-11865000D02*
X17685000Y-11885000D01*
X17685000Y-11865000D02*
X17665000Y-11885000D01*
X17665000Y-11940000D02*
X17685000Y-11960000D01*
X17685000Y-11940000D02*
X17665000Y-11960000D01*
X17680000Y-10660000D02*
X17700000Y-10680000D01*
X17700000Y-10660000D02*
X17680000Y-10680000D01*
X17690000Y-11440000D02*
X17710000Y-11460000D01*
X17710000Y-11440000D02*
X17690000Y-11460000D01*
X17715000Y-10790000D02*
X17735000Y-10810000D01*
X17735000Y-10790000D02*
X17715000Y-10810000D01*
X17720000Y-10930000D02*
X17740000Y-10950000D01*
X17740000Y-10930000D02*
X17720000Y-10950000D01*
X17740000Y-11115000D02*
X17760000Y-11135000D01*
X17760000Y-11115000D02*
X17740000Y-11135000D01*
X17740000Y-11190000D02*
X17760000Y-11210000D01*
X17760000Y-11190000D02*
X17740000Y-11210000D01*
X17740000Y-11265000D02*
X17760000Y-11285000D01*
X17760000Y-11265000D02*
X17740000Y-11285000D01*
X17740000Y-11640000D02*
X17760000Y-11660000D01*
X17760000Y-11640000D02*
X17740000Y-11660000D01*
X17740000Y-11715000D02*
X17760000Y-11735000D01*
X17760000Y-11715000D02*
X17740000Y-11735000D01*
X17740000Y-11790000D02*
X17760000Y-11810000D01*
X17760000Y-11790000D02*
X17740000Y-11810000D01*
X17740000Y-11865000D02*
X17760000Y-11885000D01*
X17760000Y-11865000D02*
X17740000Y-11885000D01*
X17740000Y-11940000D02*
X17760000Y-11960000D01*
X17760000Y-11940000D02*
X17740000Y-11960000D01*
X17765000Y-10690000D02*
X17785000Y-10710000D01*
X17785000Y-10690000D02*
X17765000Y-10710000D01*
X17765000Y-10840000D02*
X17785000Y-10860000D01*
X17785000Y-10840000D02*
X17765000Y-10860000D01*
X17790000Y-10040000D02*
X17810000Y-10060000D01*
X17810000Y-10040000D02*
X17790000Y-10060000D01*
X17815000Y-11040000D02*
X17835000Y-11060000D01*
X17835000Y-11040000D02*
X17815000Y-11060000D01*
X17815000Y-11115000D02*
X17835000Y-11135000D01*
X17835000Y-11115000D02*
X17815000Y-11135000D01*
X17815000Y-11190000D02*
X17835000Y-11210000D01*
X17835000Y-11190000D02*
X17815000Y-11210000D01*
X17815000Y-11265000D02*
X17835000Y-11285000D01*
X17835000Y-11265000D02*
X17815000Y-11285000D01*
X17815000Y-11340000D02*
X17835000Y-11360000D01*
X17835000Y-11340000D02*
X17815000Y-11360000D01*
X17840000Y-10315000D02*
X17860000Y-10335000D01*
X17860000Y-10315000D02*
X17840000Y-10335000D01*
X17890000Y-11040000D02*
X17910000Y-11060000D01*
X17910000Y-11040000D02*
X17890000Y-11060000D01*
X17890000Y-11115000D02*
X17910000Y-11135000D01*
X17910000Y-11115000D02*
X17890000Y-11135000D01*
X17890000Y-11190000D02*
X17910000Y-11210000D01*
X17910000Y-11190000D02*
X17890000Y-11210000D01*
X17890000Y-11265000D02*
X17910000Y-11285000D01*
X17910000Y-11265000D02*
X17890000Y-11285000D01*
X17915000Y-10315000D02*
X17935000Y-10335000D01*
X17935000Y-10315000D02*
X17915000Y-10335000D01*
X17940000Y-9065000D02*
X17960000Y-9085000D01*
X17960000Y-9065000D02*
X17940000Y-9085000D01*
X17940000Y-9140000D02*
X17960000Y-9160000D01*
X17960000Y-9140000D02*
X17940000Y-9160000D01*
X17940000Y-9215000D02*
X17960000Y-9235000D01*
X17960000Y-9215000D02*
X17940000Y-9235000D01*
X17965000Y-11040000D02*
X17985000Y-11060000D01*
X17985000Y-11040000D02*
X17965000Y-11060000D01*
X17965000Y-11115000D02*
X17985000Y-11135000D01*
X17985000Y-11115000D02*
X17965000Y-11135000D01*
X17965000Y-11190000D02*
X17985000Y-11210000D01*
X17985000Y-11190000D02*
X17965000Y-11210000D01*
X17965000Y-11265000D02*
X17985000Y-11285000D01*
X17985000Y-11265000D02*
X17965000Y-11285000D01*
X17990000Y-9540000D02*
X18010000Y-9560000D01*
X18010000Y-9540000D02*
X17990000Y-9560000D01*
X17990000Y-9615000D02*
X18010000Y-9635000D01*
X18010000Y-9615000D02*
X17990000Y-9635000D01*
X17990000Y-9690000D02*
X18010000Y-9710000D01*
X18010000Y-9690000D02*
X17990000Y-9710000D01*
X17990000Y-9765000D02*
X18010000Y-9785000D01*
X18010000Y-9765000D02*
X17990000Y-9785000D01*
X18015000Y-9065000D02*
X18035000Y-9085000D01*
X18035000Y-9065000D02*
X18015000Y-9085000D01*
X18015000Y-9215000D02*
X18035000Y-9235000D01*
X18035000Y-9215000D02*
X18015000Y-9235000D01*
X18015000Y-12340000D02*
X18035000Y-12360000D01*
X18035000Y-12340000D02*
X18015000Y-12360000D01*
X18015000Y-12415000D02*
X18035000Y-12435000D01*
X18035000Y-12415000D02*
X18015000Y-12435000D01*
X18040000Y-11040000D02*
X18060000Y-11060000D01*
X18060000Y-11040000D02*
X18040000Y-11060000D01*
X18040000Y-11115000D02*
X18060000Y-11135000D01*
X18060000Y-11115000D02*
X18040000Y-11135000D01*
X18065000Y-10715000D02*
X18085000Y-10735000D01*
X18085000Y-10715000D02*
X18065000Y-10735000D01*
X18065000Y-10815000D02*
X18085000Y-10835000D01*
X18085000Y-10815000D02*
X18065000Y-10835000D01*
X18065000Y-10890000D02*
X18085000Y-10910000D01*
X18085000Y-10890000D02*
X18065000Y-10910000D01*
X18080000Y-9480000D02*
X18100000Y-9500000D01*
X18100000Y-9480000D02*
X18080000Y-9500000D01*
X18090000Y-9065000D02*
X18110000Y-9085000D01*
X18110000Y-9065000D02*
X18090000Y-9085000D01*
X18090000Y-10515000D02*
X18110000Y-10535000D01*
X18110000Y-10515000D02*
X18090000Y-10535000D01*
X18090000Y-10590000D02*
X18110000Y-10610000D01*
X18110000Y-10590000D02*
X18090000Y-10610000D01*
X18090000Y-12340000D02*
X18110000Y-12360000D01*
X18110000Y-12340000D02*
X18090000Y-12360000D01*
X18090000Y-12415000D02*
X18110000Y-12435000D01*
X18110000Y-12415000D02*
X18090000Y-12435000D01*
X18115000Y-11040000D02*
X18135000Y-11060000D01*
X18135000Y-11040000D02*
X18115000Y-11060000D01*
X18115000Y-11115000D02*
X18135000Y-11135000D01*
X18135000Y-11115000D02*
X18115000Y-11135000D01*
X18130000Y-9540000D02*
X18150000Y-9560000D01*
X18150000Y-9540000D02*
X18130000Y-9560000D01*
X18140000Y-10715000D02*
X18160000Y-10735000D01*
X18160000Y-10715000D02*
X18140000Y-10735000D01*
X18140000Y-10815000D02*
X18160000Y-10835000D01*
X18160000Y-10815000D02*
X18140000Y-10835000D01*
X18140000Y-10890000D02*
X18160000Y-10910000D01*
X18160000Y-10890000D02*
X18140000Y-10910000D01*
X18165000Y-10515000D02*
X18185000Y-10535000D01*
X18185000Y-10515000D02*
X18165000Y-10535000D01*
X18165000Y-10590000D02*
X18185000Y-10610000D01*
X18185000Y-10590000D02*
X18165000Y-10610000D01*
X18165000Y-12265000D02*
X18185000Y-12285000D01*
X18185000Y-12265000D02*
X18165000Y-12285000D01*
X18165000Y-12340000D02*
X18185000Y-12360000D01*
X18185000Y-12340000D02*
X18165000Y-12360000D01*
X18165000Y-12415000D02*
X18185000Y-12435000D01*
X18185000Y-12415000D02*
X18165000Y-12435000D01*
X18190000Y-11115000D02*
X18210000Y-11135000D01*
X18210000Y-11115000D02*
X18190000Y-11135000D01*
X18195000Y-9470000D02*
X18215000Y-9490000D01*
X18215000Y-9470000D02*
X18195000Y-9490000D01*
X18200000Y-11230000D02*
X18220000Y-11250000D01*
X18220000Y-11230000D02*
X18200000Y-11250000D01*
X18225000Y-9380000D02*
X18245000Y-9400000D01*
X18245000Y-9380000D02*
X18225000Y-9400000D01*
X18230000Y-9540000D02*
X18250000Y-9560000D01*
X18250000Y-9540000D02*
X18230000Y-9560000D01*
X18230000Y-9950000D02*
X18250000Y-9970000D01*
X18250000Y-9950000D02*
X18230000Y-9970000D01*
X18240000Y-10365000D02*
X18260000Y-10385000D01*
X18260000Y-10365000D02*
X18240000Y-10385000D01*
X18240000Y-10440000D02*
X18260000Y-10460000D01*
X18260000Y-10440000D02*
X18240000Y-10460000D01*
X18240000Y-12265000D02*
X18260000Y-12285000D01*
X18260000Y-12265000D02*
X18240000Y-12285000D01*
X18240000Y-12340000D02*
X18260000Y-12360000D01*
X18260000Y-12340000D02*
X18240000Y-12360000D01*
X18240000Y-12415000D02*
X18260000Y-12435000D01*
X18260000Y-12415000D02*
X18240000Y-12435000D01*
X18265000Y-11115000D02*
X18285000Y-11135000D01*
X18285000Y-11115000D02*
X18265000Y-11135000D01*
X18300000Y-9540000D02*
X18320000Y-9560000D01*
X18320000Y-9540000D02*
X18300000Y-9560000D01*
X18305000Y-9375000D02*
X18325000Y-9395000D01*
X18325000Y-9375000D02*
X18305000Y-9395000D01*
X18315000Y-10365000D02*
X18335000Y-10385000D01*
X18335000Y-10365000D02*
X18315000Y-10385000D01*
X18315000Y-10440000D02*
X18335000Y-10460000D01*
X18335000Y-10440000D02*
X18315000Y-10460000D01*
X18315000Y-12265000D02*
X18335000Y-12285000D01*
X18335000Y-12265000D02*
X18315000Y-12285000D01*
X18315000Y-12340000D02*
X18335000Y-12360000D01*
X18335000Y-12340000D02*
X18315000Y-12360000D01*
X18315000Y-12415000D02*
X18335000Y-12435000D01*
X18335000Y-12415000D02*
X18315000Y-12435000D01*
X18330000Y-9860000D02*
X18350000Y-9880000D01*
X18350000Y-9860000D02*
X18330000Y-9880000D01*
X18340000Y-9310000D02*
X18360000Y-9330000D01*
X18360000Y-9310000D02*
X18340000Y-9330000D01*
X18340000Y-11115000D02*
X18360000Y-11135000D01*
X18360000Y-11115000D02*
X18340000Y-11135000D01*
X18430000Y-10140000D02*
X18450000Y-10160000D01*
X18450000Y-10140000D02*
X18430000Y-10160000D01*
X18540000Y-12340000D02*
X18560000Y-12360000D01*
X18560000Y-12340000D02*
X18540000Y-12360000D01*
X18540000Y-12415000D02*
X18560000Y-12435000D01*
X18560000Y-12415000D02*
X18540000Y-12435000D01*
X18590000Y-11360000D02*
X18610000Y-11380000D01*
X18610000Y-11360000D02*
X18590000Y-11380000D01*
X18590000Y-11660000D02*
X18610000Y-11680000D01*
X18610000Y-11660000D02*
X18590000Y-11680000D01*
X18600000Y-11130000D02*
X18620000Y-11150000D01*
X18620000Y-11130000D02*
X18600000Y-11150000D01*
X18615000Y-12340000D02*
X18635000Y-12360000D01*
X18635000Y-12340000D02*
X18615000Y-12360000D01*
X18615000Y-12415000D02*
X18635000Y-12435000D01*
X18635000Y-12415000D02*
X18615000Y-12435000D01*
X18660000Y-9340000D02*
X18680000Y-9360000D01*
X18680000Y-9340000D02*
X18660000Y-9360000D01*
X18660000Y-9420000D02*
X18680000Y-9440000D01*
X18680000Y-9420000D02*
X18660000Y-9440000D01*
X18670000Y-9800000D02*
X18690000Y-9820000D01*
X18690000Y-9800000D02*
X18670000Y-9820000D01*
X18670000Y-9900000D02*
X18690000Y-9920000D01*
X18690000Y-9900000D02*
X18670000Y-9920000D01*
X18670000Y-11300000D02*
X18690000Y-11320000D01*
X18690000Y-11300000D02*
X18670000Y-11320000D01*
X18690000Y-9550000D02*
X18710000Y-9570000D01*
X18710000Y-9550000D02*
X18690000Y-9570000D01*
X18690000Y-12415000D02*
X18710000Y-12435000D01*
X18710000Y-12415000D02*
X18690000Y-12435000D01*
X18700000Y-10160000D02*
X18720000Y-10180000D01*
X18720000Y-10160000D02*
X18700000Y-10180000D01*
X18703500Y-12284000D02*
X18723500Y-12304000D01*
X18723500Y-12284000D02*
X18703500Y-12304000D01*
X18717875Y-10242125D02*
X18737875Y-10262125D01*
X18737875Y-10242125D02*
X18717875Y-10262125D01*
X18730000Y-9860000D02*
X18750000Y-9880000D01*
X18750000Y-9860000D02*
X18730000Y-9880000D01*
X18760000Y-9380000D02*
X18780000Y-9400000D01*
X18780000Y-9380000D02*
X18760000Y-9400000D01*
X18765000Y-9475000D02*
X18785000Y-9495000D01*
X18785000Y-9475000D02*
X18765000Y-9495000D01*
X18765000Y-10090000D02*
X18785000Y-10110000D01*
X18785000Y-10090000D02*
X18765000Y-10110000D01*
X18765000Y-12340000D02*
X18785000Y-12360000D01*
X18785000Y-12340000D02*
X18765000Y-12360000D01*
X18765000Y-12415000D02*
X18785000Y-12435000D01*
X18785000Y-12415000D02*
X18765000Y-12435000D01*
X18770000Y-9550000D02*
X18790000Y-9570000D01*
X18790000Y-9550000D02*
X18770000Y-9570000D01*
X18780000Y-9810000D02*
X18800000Y-9830000D01*
X18800000Y-9810000D02*
X18780000Y-9830000D01*
X18800000Y-9890000D02*
X18820000Y-9910000D01*
X18820000Y-9890000D02*
X18800000Y-9910000D01*
X18840000Y-10015000D02*
X18860000Y-10035000D01*
X18860000Y-10015000D02*
X18840000Y-10035000D01*
X18840000Y-10090000D02*
X18860000Y-10110000D01*
X18860000Y-10090000D02*
X18840000Y-10110000D01*
X18840000Y-12340000D02*
X18860000Y-12360000D01*
X18860000Y-12340000D02*
X18840000Y-12360000D01*
X18840000Y-12415000D02*
X18860000Y-12435000D01*
X18860000Y-12415000D02*
X18840000Y-12435000D01*
X18845000Y-9545000D02*
X18865000Y-9565000D01*
X18865000Y-9545000D02*
X18845000Y-9565000D01*
X18850000Y-9260000D02*
X18870000Y-9280000D01*
X18870000Y-9260000D02*
X18850000Y-9280000D01*
X18865000Y-10615000D02*
X18885000Y-10635000D01*
X18885000Y-10615000D02*
X18865000Y-10635000D01*
X18870000Y-9425000D02*
X18890000Y-9445000D01*
X18890000Y-9425000D02*
X18870000Y-9445000D01*
X18890000Y-9790000D02*
X18910000Y-9810000D01*
X18910000Y-9790000D02*
X18890000Y-9810000D01*
X18940000Y-10540000D02*
X18960000Y-10560000D01*
X18960000Y-10540000D02*
X18940000Y-10560000D01*
X18940000Y-10615000D02*
X18960000Y-10635000D01*
X18960000Y-10615000D02*
X18940000Y-10635000D01*
X18940000Y-10690000D02*
X18960000Y-10710000D01*
X18960000Y-10690000D02*
X18940000Y-10710000D01*
X18940000Y-10765000D02*
X18960000Y-10785000D01*
X18960000Y-10765000D02*
X18940000Y-10785000D01*
X18940000Y-10840000D02*
X18960000Y-10860000D01*
X18960000Y-10840000D02*
X18940000Y-10860000D01*
X18940000Y-10915000D02*
X18960000Y-10935000D01*
X18960000Y-10915000D02*
X18940000Y-10935000D01*
X18950000Y-9260000D02*
X18970000Y-9280000D01*
X18970000Y-9260000D02*
X18950000Y-9280000D01*
X18950000Y-9330000D02*
X18970000Y-9350000D01*
X18970000Y-9330000D02*
X18950000Y-9350000D01*
X18950000Y-9410000D02*
X18970000Y-9430000D01*
X18970000Y-9410000D02*
X18950000Y-9430000D01*
X18950000Y-9490000D02*
X18970000Y-9510000D01*
X18970000Y-9490000D02*
X18950000Y-9510000D01*
X18970000Y-10140000D02*
X18990000Y-10160000D01*
X18990000Y-10140000D02*
X18970000Y-10160000D01*
X19015000Y-10540000D02*
X19035000Y-10560000D01*
X19035000Y-10540000D02*
X19015000Y-10560000D01*
X19015000Y-10615000D02*
X19035000Y-10635000D01*
X19035000Y-10615000D02*
X19015000Y-10635000D01*
X19015000Y-10690000D02*
X19035000Y-10710000D01*
X19035000Y-10690000D02*
X19015000Y-10710000D01*
X19015000Y-10765000D02*
X19035000Y-10785000D01*
X19035000Y-10765000D02*
X19015000Y-10785000D01*
X19015000Y-10840000D02*
X19035000Y-10860000D01*
X19035000Y-10840000D02*
X19015000Y-10860000D01*
X19015000Y-10915000D02*
X19035000Y-10935000D01*
X19035000Y-10915000D02*
X19015000Y-10935000D01*
X19020000Y-11660000D02*
X19040000Y-11680000D01*
X19040000Y-11660000D02*
X19020000Y-11680000D01*
X19040000Y-11965000D02*
X19060000Y-11985000D01*
X19060000Y-11965000D02*
X19040000Y-11985000D01*
X19040000Y-12040000D02*
X19060000Y-12060000D01*
X19060000Y-12040000D02*
X19040000Y-12060000D01*
X19040000Y-12115000D02*
X19060000Y-12135000D01*
X19060000Y-12115000D02*
X19040000Y-12135000D01*
X19040000Y-12190000D02*
X19060000Y-12210000D01*
X19060000Y-12190000D02*
X19040000Y-12210000D01*
X19040000Y-12265000D02*
X19060000Y-12285000D01*
X19060000Y-12265000D02*
X19040000Y-12285000D01*
X19080000Y-10140000D02*
X19100000Y-10160000D01*
X19100000Y-10140000D02*
X19080000Y-10160000D01*
X19080000Y-10235000D02*
X19100000Y-10255000D01*
X19100000Y-10235000D02*
X19080000Y-10255000D01*
X19090000Y-10540000D02*
X19110000Y-10560000D01*
X19110000Y-10540000D02*
X19090000Y-10560000D01*
X19090000Y-10615000D02*
X19110000Y-10635000D01*
X19110000Y-10615000D02*
X19090000Y-10635000D01*
X19090000Y-10690000D02*
X19110000Y-10710000D01*
X19110000Y-10690000D02*
X19090000Y-10710000D01*
X19090000Y-10765000D02*
X19110000Y-10785000D01*
X19110000Y-10765000D02*
X19090000Y-10785000D01*
X19090000Y-10840000D02*
X19110000Y-10860000D01*
X19110000Y-10840000D02*
X19090000Y-10860000D01*
X19090000Y-10915000D02*
X19110000Y-10935000D01*
X19110000Y-10915000D02*
X19090000Y-10935000D01*
X19090000Y-11490000D02*
X19110000Y-11510000D01*
X19110000Y-11490000D02*
X19090000Y-11510000D01*
X19090000Y-11565000D02*
X19110000Y-11585000D01*
X19110000Y-11565000D02*
X19090000Y-11585000D01*
X19090000Y-12465000D02*
X19110000Y-12485000D01*
X19110000Y-12465000D02*
X19090000Y-12485000D01*
X19090000Y-12540000D02*
X19110000Y-12560000D01*
X19110000Y-12540000D02*
X19090000Y-12560000D01*
X19115000Y-11965000D02*
X19135000Y-11985000D01*
X19135000Y-11965000D02*
X19115000Y-11985000D01*
X19115000Y-12040000D02*
X19135000Y-12060000D01*
X19135000Y-12040000D02*
X19115000Y-12060000D01*
X19115000Y-12115000D02*
X19135000Y-12135000D01*
X19135000Y-12115000D02*
X19115000Y-12135000D01*
X19115000Y-12190000D02*
X19135000Y-12210000D01*
X19135000Y-12190000D02*
X19115000Y-12210000D01*
X19115000Y-12265000D02*
X19135000Y-12285000D01*
X19135000Y-12265000D02*
X19115000Y-12285000D01*
X19140000Y-11640000D02*
X19160000Y-11660000D01*
X19160000Y-11640000D02*
X19140000Y-11660000D01*
X19140000Y-11715000D02*
X19160000Y-11735000D01*
X19160000Y-11715000D02*
X19140000Y-11735000D01*
X19165000Y-10540000D02*
X19185000Y-10560000D01*
X19185000Y-10540000D02*
X19165000Y-10560000D01*
X19165000Y-10615000D02*
X19185000Y-10635000D01*
X19185000Y-10615000D02*
X19165000Y-10635000D01*
X19165000Y-10690000D02*
X19185000Y-10710000D01*
X19185000Y-10690000D02*
X19165000Y-10710000D01*
X19165000Y-10765000D02*
X19185000Y-10785000D01*
X19185000Y-10765000D02*
X19165000Y-10785000D01*
X19165000Y-10840000D02*
X19185000Y-10860000D01*
X19185000Y-10840000D02*
X19165000Y-10860000D01*
X19165000Y-10915000D02*
X19185000Y-10935000D01*
X19185000Y-10915000D02*
X19165000Y-10935000D01*
X19165000Y-11490000D02*
X19185000Y-11510000D01*
X19185000Y-11490000D02*
X19165000Y-11510000D01*
X19165000Y-11565000D02*
X19185000Y-11585000D01*
X19185000Y-11565000D02*
X19165000Y-11585000D01*
X19165000Y-12465000D02*
X19185000Y-12485000D01*
X19185000Y-12465000D02*
X19165000Y-12485000D01*
X19165000Y-12540000D02*
X19185000Y-12560000D01*
X19185000Y-12540000D02*
X19165000Y-12560000D01*
X19190000Y-11965000D02*
X19210000Y-11985000D01*
X19210000Y-11965000D02*
X19190000Y-11985000D01*
X19190000Y-12040000D02*
X19210000Y-12060000D01*
X19210000Y-12040000D02*
X19190000Y-12060000D01*
X19190000Y-12115000D02*
X19210000Y-12135000D01*
X19210000Y-12115000D02*
X19190000Y-12135000D01*
X19190000Y-12190000D02*
X19210000Y-12210000D01*
X19210000Y-12190000D02*
X19190000Y-12210000D01*
X19190000Y-12265000D02*
X19210000Y-12285000D01*
X19210000Y-12265000D02*
X19190000Y-12285000D01*
X19240000Y-10540000D02*
X19260000Y-10560000D01*
X19260000Y-10540000D02*
X19240000Y-10560000D01*
X19240000Y-10615000D02*
X19260000Y-10635000D01*
X19260000Y-10615000D02*
X19240000Y-10635000D01*
X19240000Y-10690000D02*
X19260000Y-10710000D01*
X19260000Y-10690000D02*
X19240000Y-10710000D01*
X19240000Y-10765000D02*
X19260000Y-10785000D01*
X19260000Y-10765000D02*
X19240000Y-10785000D01*
X19240000Y-10840000D02*
X19260000Y-10860000D01*
X19260000Y-10840000D02*
X19240000Y-10860000D01*
X19240000Y-10915000D02*
X19260000Y-10935000D01*
X19260000Y-10915000D02*
X19240000Y-10935000D01*
X19240000Y-11490000D02*
X19260000Y-11510000D01*
X19260000Y-11490000D02*
X19240000Y-11510000D01*
X19240000Y-11590000D02*
X19260000Y-11610000D01*
X19260000Y-11590000D02*
X19240000Y-11610000D01*
X19240000Y-12465000D02*
X19260000Y-12485000D01*
X19260000Y-12465000D02*
X19240000Y-12485000D01*
X19240000Y-12540000D02*
X19260000Y-12560000D01*
X19260000Y-12540000D02*
X19240000Y-12560000D01*
X19265000Y-11965000D02*
X19285000Y-11985000D01*
X19285000Y-11965000D02*
X19265000Y-11985000D01*
X19265000Y-12040000D02*
X19285000Y-12060000D01*
X19285000Y-12040000D02*
X19265000Y-12060000D01*
X19265000Y-12115000D02*
X19285000Y-12135000D01*
X19285000Y-12115000D02*
X19265000Y-12135000D01*
X19265000Y-12190000D02*
X19285000Y-12210000D01*
X19285000Y-12190000D02*
X19265000Y-12210000D01*
X19265000Y-12265000D02*
X19285000Y-12285000D01*
X19285000Y-12265000D02*
X19265000Y-12285000D01*
X19270000Y-9350000D02*
X19290000Y-9370000D01*
X19290000Y-9350000D02*
X19270000Y-9370000D01*
X19290000Y-9490000D02*
X19310000Y-9510000D01*
X19310000Y-9490000D02*
X19290000Y-9510000D01*
X19315000Y-11490000D02*
X19335000Y-11510000D01*
X19335000Y-11490000D02*
X19315000Y-11510000D01*
X19315000Y-11590000D02*
X19335000Y-11610000D01*
X19335000Y-11590000D02*
X19315000Y-11610000D01*
X19315000Y-11765000D02*
X19335000Y-11785000D01*
X19335000Y-11765000D02*
X19315000Y-11785000D01*
X19315000Y-12465000D02*
X19335000Y-12485000D01*
X19335000Y-12465000D02*
X19315000Y-12485000D01*
X19315000Y-12540000D02*
X19335000Y-12560000D01*
X19335000Y-12540000D02*
X19315000Y-12560000D01*
X19320000Y-9280000D02*
X19340000Y-9300000D01*
X19340000Y-9280000D02*
X19320000Y-9300000D01*
X19340000Y-11965000D02*
X19360000Y-11985000D01*
X19360000Y-11965000D02*
X19340000Y-11985000D01*
X19340000Y-12040000D02*
X19360000Y-12060000D01*
X19360000Y-12040000D02*
X19340000Y-12060000D01*
X19340000Y-12115000D02*
X19360000Y-12135000D01*
X19360000Y-12115000D02*
X19340000Y-12135000D01*
X19340000Y-12190000D02*
X19360000Y-12210000D01*
X19360000Y-12190000D02*
X19340000Y-12210000D01*
X19340000Y-12265000D02*
X19360000Y-12285000D01*
X19360000Y-12265000D02*
X19340000Y-12285000D01*
X19350000Y-9350000D02*
X19370000Y-9370000D01*
X19370000Y-9350000D02*
X19350000Y-9370000D01*
X19350000Y-9450000D02*
X19370000Y-9470000D01*
X19370000Y-9450000D02*
X19350000Y-9470000D01*
X19365000Y-9915000D02*
X19385000Y-9935000D01*
X19385000Y-9915000D02*
X19365000Y-9935000D01*
X19365000Y-10015000D02*
X19385000Y-10035000D01*
X19385000Y-10015000D02*
X19365000Y-10035000D01*
X19365000Y-10090000D02*
X19385000Y-10110000D01*
X19385000Y-10090000D02*
X19365000Y-10110000D01*
X19390000Y-11490000D02*
X19410000Y-11510000D01*
X19410000Y-11490000D02*
X19390000Y-11510000D01*
X19390000Y-11590000D02*
X19410000Y-11610000D01*
X19410000Y-11590000D02*
X19390000Y-11610000D01*
X19400000Y-10300000D02*
X19420000Y-10320000D01*
X19420000Y-10300000D02*
X19400000Y-10320000D01*
X19410000Y-9400000D02*
X19430000Y-9420000D01*
X19430000Y-9400000D02*
X19410000Y-9420000D01*
X19415000Y-11965000D02*
X19435000Y-11985000D01*
X19435000Y-11965000D02*
X19415000Y-11985000D01*
X19415000Y-12040000D02*
X19435000Y-12060000D01*
X19435000Y-12040000D02*
X19415000Y-12060000D01*
X19415000Y-12115000D02*
X19435000Y-12135000D01*
X19435000Y-12115000D02*
X19415000Y-12135000D01*
X19415000Y-12190000D02*
X19435000Y-12210000D01*
X19435000Y-12190000D02*
X19415000Y-12210000D01*
X19415000Y-12265000D02*
X19435000Y-12285000D01*
X19435000Y-12265000D02*
X19415000Y-12285000D01*
X19420000Y-9310000D02*
X19440000Y-9330000D01*
X19440000Y-9310000D02*
X19420000Y-9330000D01*
X19420000Y-10380000D02*
X19440000Y-10400000D01*
X19440000Y-10380000D02*
X19420000Y-10400000D01*
X19440000Y-11765000D02*
X19460000Y-11785000D01*
X19460000Y-11765000D02*
X19440000Y-11785000D01*
X19465000Y-11490000D02*
X19485000Y-11510000D01*
X19485000Y-11490000D02*
X19465000Y-11510000D01*
X19465000Y-11590000D02*
X19485000Y-11610000D01*
X19485000Y-11590000D02*
X19465000Y-11610000D01*
X19470000Y-10250000D02*
X19490000Y-10270000D01*
X19490000Y-10250000D02*
X19470000Y-10270000D01*
X19480000Y-9790000D02*
X19500000Y-9810000D01*
X19500000Y-9790000D02*
X19480000Y-9810000D01*
X19510000Y-10500000D02*
X19530000Y-10520000D01*
X19530000Y-10500000D02*
X19510000Y-10520000D01*
X19510000Y-10600000D02*
X19530000Y-10620000D01*
X19530000Y-10600000D02*
X19510000Y-10620000D01*
X19520000Y-10040000D02*
X19540000Y-10060000D01*
X19540000Y-10040000D02*
X19520000Y-10060000D01*
X19530000Y-9330000D02*
X19550000Y-9350000D01*
X19550000Y-9330000D02*
X19530000Y-9350000D01*
X19530000Y-10120000D02*
X19550000Y-10140000D01*
X19550000Y-10120000D02*
X19530000Y-10140000D01*
X19540000Y-9590000D02*
X19560000Y-9610000D01*
X19560000Y-9590000D02*
X19540000Y-9610000D01*
X19540000Y-9860000D02*
X19560000Y-9880000D01*
X19560000Y-9860000D02*
X19540000Y-9880000D01*
X19550000Y-9790000D02*
X19570000Y-9810000D01*
X19570000Y-9790000D02*
X19550000Y-9810000D01*
X19560000Y-9250000D02*
X19580000Y-9270000D01*
X19580000Y-9250000D02*
X19560000Y-9270000D01*
X19560000Y-10650000D02*
X19580000Y-10670000D01*
X19580000Y-10650000D02*
X19560000Y-10670000D01*
X19560000Y-11170000D02*
X19580000Y-11190000D01*
X19580000Y-11170000D02*
X19560000Y-11190000D01*
X19570000Y-10550000D02*
X19590000Y-10570000D01*
X19590000Y-10550000D02*
X19570000Y-10570000D01*
X19580000Y-10450000D02*
X19600000Y-10470000D01*
X19600000Y-10450000D02*
X19580000Y-10470000D01*
X19640000Y-10760000D02*
X19660000Y-10780000D01*
X19660000Y-10760000D02*
X19640000Y-10780000D01*
X19640000Y-11590000D02*
X19660000Y-11610000D01*
X19660000Y-11590000D02*
X19640000Y-11610000D01*
X19640000Y-12465000D02*
X19660000Y-12485000D01*
X19660000Y-12465000D02*
X19640000Y-12485000D01*
X19640000Y-12540000D02*
X19660000Y-12560000D01*
X19660000Y-12540000D02*
X19640000Y-12560000D01*
X19650000Y-9210000D02*
X19670000Y-9230000D01*
X19670000Y-9210000D02*
X19650000Y-9230000D01*
X19665000Y-11765000D02*
X19685000Y-11785000D01*
X19685000Y-11765000D02*
X19665000Y-11785000D01*
X19665000Y-11990000D02*
X19685000Y-12010000D01*
X19685000Y-11990000D02*
X19665000Y-12010000D01*
X19665000Y-12065000D02*
X19685000Y-12085000D01*
X19685000Y-12065000D02*
X19665000Y-12085000D01*
X19665000Y-12140000D02*
X19685000Y-12160000D01*
X19685000Y-12140000D02*
X19665000Y-12160000D01*
X19665000Y-12215000D02*
X19685000Y-12235000D01*
X19685000Y-12215000D02*
X19665000Y-12235000D01*
X19665000Y-12290000D02*
X19685000Y-12310000D01*
X19685000Y-12290000D02*
X19665000Y-12310000D01*
X19715000Y-11390000D02*
X19735000Y-11410000D01*
X19735000Y-11390000D02*
X19715000Y-11410000D01*
X19715000Y-11590000D02*
X19735000Y-11610000D01*
X19735000Y-11590000D02*
X19715000Y-11610000D01*
X19715000Y-12465000D02*
X19735000Y-12485000D01*
X19735000Y-12465000D02*
X19715000Y-12485000D01*
X19715000Y-12540000D02*
X19735000Y-12560000D01*
X19735000Y-12540000D02*
X19715000Y-12560000D01*
X19740000Y-11990000D02*
X19760000Y-12010000D01*
X19760000Y-11990000D02*
X19740000Y-12010000D01*
X19740000Y-12065000D02*
X19760000Y-12085000D01*
X19760000Y-12065000D02*
X19740000Y-12085000D01*
X19740000Y-12140000D02*
X19760000Y-12160000D01*
X19760000Y-12140000D02*
X19740000Y-12160000D01*
X19740000Y-12215000D02*
X19760000Y-12235000D01*
X19760000Y-12215000D02*
X19740000Y-12235000D01*
X19740000Y-12290000D02*
X19760000Y-12310000D01*
X19760000Y-12290000D02*
X19740000Y-12310000D01*
X19750000Y-9840000D02*
X19770000Y-9860000D01*
X19770000Y-9840000D02*
X19750000Y-9860000D01*
X19750000Y-9920000D02*
X19770000Y-9940000D01*
X19770000Y-9920000D02*
X19750000Y-9940000D01*
X19760000Y-10340000D02*
X19780000Y-10360000D01*
X19780000Y-10340000D02*
X19760000Y-10360000D01*
X19760000Y-10620000D02*
X19780000Y-10640000D01*
X19780000Y-10620000D02*
X19760000Y-10640000D01*
X19775000Y-10770000D02*
X19795000Y-10790000D01*
X19795000Y-10770000D02*
X19775000Y-10790000D01*
X19780000Y-10850000D02*
X19800000Y-10870000D01*
X19800000Y-10850000D02*
X19780000Y-10870000D01*
X19790000Y-11390000D02*
X19810000Y-11410000D01*
X19810000Y-11390000D02*
X19790000Y-11410000D01*
X19790000Y-11590000D02*
X19810000Y-11610000D01*
X19810000Y-11590000D02*
X19790000Y-11610000D01*
X19790000Y-12465000D02*
X19810000Y-12485000D01*
X19810000Y-12465000D02*
X19790000Y-12485000D01*
X19790000Y-12540000D02*
X19810000Y-12560000D01*
X19810000Y-12540000D02*
X19790000Y-12560000D01*
X19815000Y-11765000D02*
X19835000Y-11785000D01*
X19835000Y-11765000D02*
X19815000Y-11785000D01*
X19815000Y-11990000D02*
X19835000Y-12010000D01*
X19835000Y-11990000D02*
X19815000Y-12010000D01*
X19815000Y-12065000D02*
X19835000Y-12085000D01*
X19835000Y-12065000D02*
X19815000Y-12085000D01*
X19815000Y-12140000D02*
X19835000Y-12160000D01*
X19835000Y-12140000D02*
X19815000Y-12160000D01*
X19815000Y-12215000D02*
X19835000Y-12235000D01*
X19835000Y-12215000D02*
X19815000Y-12235000D01*
X19815000Y-12290000D02*
X19835000Y-12310000D01*
X19835000Y-12290000D02*
X19815000Y-12310000D01*
X19830000Y-9370000D02*
X19850000Y-9390000D01*
X19850000Y-9370000D02*
X19830000Y-9390000D01*
X19830000Y-9450000D02*
X19850000Y-9470000D01*
X19850000Y-9450000D02*
X19830000Y-9470000D01*
X19840000Y-10715000D02*
X19860000Y-10735000D01*
X19860000Y-10715000D02*
X19840000Y-10735000D01*
X19840000Y-11265000D02*
X19860000Y-11285000D01*
X19860000Y-11265000D02*
X19840000Y-11285000D01*
X19865000Y-11390000D02*
X19885000Y-11410000D01*
X19885000Y-11390000D02*
X19865000Y-11410000D01*
X19865000Y-11590000D02*
X19885000Y-11610000D01*
X19885000Y-11590000D02*
X19865000Y-11610000D01*
X19865000Y-12465000D02*
X19885000Y-12485000D01*
X19885000Y-12465000D02*
X19865000Y-12485000D01*
X19865000Y-12540000D02*
X19885000Y-12560000D01*
X19885000Y-12540000D02*
X19865000Y-12560000D01*
X19885000Y-9870000D02*
X19905000Y-9890000D01*
X19905000Y-9870000D02*
X19885000Y-9890000D01*
X19890000Y-9250000D02*
X19910000Y-9270000D01*
X19910000Y-9250000D02*
X19890000Y-9270000D01*
X19890000Y-11990000D02*
X19910000Y-12010000D01*
X19910000Y-11990000D02*
X19890000Y-12010000D01*
X19890000Y-12065000D02*
X19910000Y-12085000D01*
X19910000Y-12065000D02*
X19890000Y-12085000D01*
X19890000Y-12140000D02*
X19910000Y-12160000D01*
X19910000Y-12140000D02*
X19890000Y-12160000D01*
X19890000Y-12215000D02*
X19910000Y-12235000D01*
X19910000Y-12215000D02*
X19890000Y-12235000D01*
X19890000Y-12290000D02*
X19910000Y-12310000D01*
X19910000Y-12290000D02*
X19890000Y-12310000D01*
X19910000Y-11320000D02*
X19930000Y-11340000D01*
X19930000Y-11320000D02*
X19910000Y-11340000D01*
X19915000Y-11215000D02*
X19935000Y-11235000D01*
X19935000Y-11215000D02*
X19915000Y-11235000D01*
X19940000Y-10550000D02*
X19960000Y-10570000D01*
X19960000Y-10550000D02*
X19940000Y-10570000D01*
X19940000Y-10680000D02*
X19960000Y-10700000D01*
X19960000Y-10680000D02*
X19940000Y-10700000D01*
X19940000Y-11440000D02*
X19960000Y-11460000D01*
X19960000Y-11440000D02*
X19940000Y-11460000D01*
X19940000Y-11515000D02*
X19960000Y-11535000D01*
X19960000Y-11515000D02*
X19940000Y-11535000D01*
X19940000Y-11590000D02*
X19960000Y-11610000D01*
X19960000Y-11590000D02*
X19940000Y-11610000D01*
X19965000Y-11990000D02*
X19985000Y-12010000D01*
X19985000Y-11990000D02*
X19965000Y-12010000D01*
X19965000Y-12065000D02*
X19985000Y-12085000D01*
X19985000Y-12065000D02*
X19965000Y-12085000D01*
X19965000Y-12140000D02*
X19985000Y-12160000D01*
X19985000Y-12140000D02*
X19965000Y-12160000D01*
X19965000Y-12215000D02*
X19985000Y-12235000D01*
X19985000Y-12215000D02*
X19965000Y-12235000D01*
X19965000Y-12290000D02*
X19985000Y-12310000D01*
X19985000Y-12290000D02*
X19965000Y-12310000D01*
X19970000Y-10844500D02*
X19990000Y-10864500D01*
X19990000Y-10844500D02*
X19970000Y-10864500D01*
X19990000Y-9580000D02*
X20010000Y-9600000D01*
X20010000Y-9580000D02*
X19990000Y-9600000D01*
X20025000Y-10780000D02*
X20045000Y-10800000D01*
X20045000Y-10780000D02*
X20025000Y-10800000D01*
X20070000Y-10050000D02*
X20090000Y-10070000D01*
X20090000Y-10050000D02*
X20070000Y-10070000D01*
X20100000Y-10915000D02*
X20120000Y-10935000D01*
X20120000Y-10915000D02*
X20100000Y-10935000D01*
X20150000Y-10020000D02*
X20170000Y-10040000D01*
X20170000Y-10020000D02*
X20150000Y-10040000D01*
X20170000Y-10720000D02*
X20190000Y-10740000D01*
X20190000Y-10720000D02*
X20170000Y-10740000D01*
X20290000Y-10915000D02*
X20310000Y-10935000D01*
X20310000Y-10915000D02*
X20290000Y-10935000D01*
X20340000Y-11790000D02*
X20360000Y-11810000D01*
X20360000Y-11790000D02*
X20340000Y-11810000D01*
X20340000Y-12015000D02*
X20360000Y-12035000D01*
X20360000Y-12015000D02*
X20340000Y-12035000D01*
X20340000Y-12090000D02*
X20360000Y-12110000D01*
X20360000Y-12090000D02*
X20340000Y-12110000D01*
X20340000Y-12165000D02*
X20360000Y-12185000D01*
X20360000Y-12165000D02*
X20340000Y-12185000D01*
X20380000Y-10950000D02*
X20400000Y-10970000D01*
X20400000Y-10950000D02*
X20380000Y-10970000D01*
X20415000Y-12015000D02*
X20435000Y-12035000D01*
X20435000Y-12015000D02*
X20415000Y-12035000D01*
X20415000Y-12090000D02*
X20435000Y-12110000D01*
X20435000Y-12090000D02*
X20415000Y-12110000D01*
X20415000Y-12165000D02*
X20435000Y-12185000D01*
X20435000Y-12165000D02*
X20415000Y-12185000D01*
X20490000Y-12015000D02*
X20510000Y-12035000D01*
X20510000Y-12015000D02*
X20490000Y-12035000D01*
X20490000Y-12090000D02*
X20510000Y-12110000D01*
X20510000Y-12090000D02*
X20490000Y-12110000D01*
X20550000Y-10980000D02*
X20570000Y-11000000D01*
X20570000Y-10980000D02*
X20550000Y-11000000D01*
X20565000Y-12015000D02*
X20585000Y-12035000D01*
X20585000Y-12015000D02*
X20565000Y-12035000D01*
X20565000Y-12090000D02*
X20585000Y-12110000D01*
X20585000Y-12090000D02*
X20565000Y-12110000D01*
X20580000Y-10230000D02*
X20600000Y-10250000D01*
X20600000Y-10230000D02*
X20580000Y-10250000D01*
X20580000Y-10320000D02*
X20600000Y-10340000D01*
X20600000Y-10320000D02*
X20580000Y-10340000D01*
X20580000Y-10420000D02*
X20600000Y-10440000D01*
X20600000Y-10420000D02*
X20580000Y-10440000D01*
X20680000Y-11020000D02*
X20700000Y-11040000D01*
X20700000Y-11020000D02*
X20680000Y-11040000D01*
X20770000Y-11030000D02*
X20790000Y-11050000D01*
X20790000Y-11030000D02*
X20770000Y-11050000D01*
X20780000Y-11150000D02*
X20800000Y-11170000D01*
X20800000Y-11150000D02*
X20780000Y-11170000D01*
X20830000Y-11333000D02*
X20850000Y-11353000D01*
X20850000Y-11333000D02*
X20830000Y-11353000D01*
X20880000Y-10970000D02*
X20900000Y-10990000D01*
X20900000Y-10970000D02*
X20880000Y-10990000D01*
D13*
X20360000Y-9919000D02*
G75*
G03*
X20360000Y-9919000I-30000J0D01*
G01*
D11*
X20385000Y-9889000D02*
X20275000Y-9889000D01*
X20275000Y-9889000D02*
G75*
G03*
X20275000Y-9949000I0J-30000D01*
G01*
X20275000Y-9949000D02*
X20385000Y-9949000D01*
X20385000Y-9949000D02*
G75*
G03*
X20385000Y-9889000I0J30000D01*
G01*
D13*
X20360000Y-10783000D02*
G75*
G03*
X20360000Y-10783000I-30000J0D01*
G01*
D11*
X20385000Y-10753000D02*
X20275000Y-10753000D01*
X20275000Y-10753000D02*
G75*
G03*
X20275000Y-10813000I0J-30000D01*
G01*
X20275000Y-10813000D02*
X20385000Y-10813000D01*
X20385000Y-10813000D02*
G75*
G03*
X20385000Y-10753000I0J30000D01*
G01*
D13*
X20778000Y-9919000D02*
G75*
G03*
X20778000Y-9919000I-30000J0D01*
G01*
D11*
X20788000Y-9889000D02*
X20708000Y-9889000D01*
X20708000Y-9889000D02*
G75*
G03*
X20708000Y-9949000I0J-30000D01*
G01*
X20708000Y-9949000D02*
X20788000Y-9949000D01*
X20788000Y-9949000D02*
G75*
G03*
X20788000Y-9889000I0J30000D01*
G01*
D13*
X20778000Y-10783000D02*
G75*
G03*
X20778000Y-10783000I-30000J0D01*
G01*
D11*
X20788000Y-10753000D02*
X20708000Y-10753000D01*
X20708000Y-10753000D02*
G75*
G03*
X20708000Y-10813000I0J-30000D01*
G01*
X20708000Y-10813000D02*
X20788000Y-10813000D01*
X20788000Y-10813000D02*
G75*
G03*
X20788000Y-10753000I0J30000D01*
G01*
D14*
X17000000Y-11640000D02*
X17000000Y-11960000D01*
X16840000Y-11800000D02*
X17160000Y-11800000D01*
X18250000Y-12840000D02*
X18250000Y-13160000D01*
X18090000Y-13000000D02*
X18410000Y-13000000D01*
X19000000Y-12840000D02*
X19000000Y-13160000D01*
X18840000Y-13000000D02*
X19160000Y-13000000D01*
X19750000Y-12840000D02*
X19750000Y-13160000D01*
X19590000Y-13000000D02*
X19910000Y-13000000D01*
X21000000Y-11640000D02*
X21000000Y-11960000D01*
X20840000Y-11800000D02*
X21160000Y-11800000D01*
D11*
X17242619Y-13298476D02*
X17242619Y-13098476D01*
X17242619Y-13098476D02*
X17290238Y-13098476D01*
X17290238Y-13098476D02*
X17318810Y-13108000D01*
X17318810Y-13108000D02*
X17337857Y-13127048D01*
X17337857Y-13127048D02*
X17347381Y-13146095D01*
X17347381Y-13146095D02*
X17356905Y-13184190D01*
X17356905Y-13184190D02*
X17356905Y-13212762D01*
X17356905Y-13212762D02*
X17347381Y-13250857D01*
X17347381Y-13250857D02*
X17337857Y-13269905D01*
X17337857Y-13269905D02*
X17318810Y-13288952D01*
X17318810Y-13288952D02*
X17290238Y-13298476D01*
X17290238Y-13298476D02*
X17242619Y-13298476D01*
X17442619Y-13298476D02*
X17442619Y-13165143D01*
X17442619Y-13203238D02*
X17452143Y-13184190D01*
X17452143Y-13184190D02*
X17461667Y-13174667D01*
X17461667Y-13174667D02*
X17480714Y-13165143D01*
X17480714Y-13165143D02*
X17499762Y-13165143D01*
X17566429Y-13298476D02*
X17566429Y-13165143D01*
X17566429Y-13098476D02*
X17556905Y-13108000D01*
X17556905Y-13108000D02*
X17566429Y-13117524D01*
X17566429Y-13117524D02*
X17575952Y-13108000D01*
X17575952Y-13108000D02*
X17566429Y-13098476D01*
X17566429Y-13098476D02*
X17566429Y-13117524D01*
X17690238Y-13298476D02*
X17671190Y-13288952D01*
X17671190Y-13288952D02*
X17661667Y-13269905D01*
X17661667Y-13269905D02*
X17661667Y-13098476D01*
X17795000Y-13298476D02*
X17775952Y-13288952D01*
X17775952Y-13288952D02*
X17766429Y-13269905D01*
X17766429Y-13269905D02*
X17766429Y-13098476D01*
X17991190Y-13298476D02*
X17991190Y-13098476D01*
X17991190Y-13098476D02*
X18057857Y-13241333D01*
X18057857Y-13241333D02*
X18124524Y-13098476D01*
X18124524Y-13098476D02*
X18124524Y-13298476D01*
X18305476Y-13298476D02*
X18305476Y-13193714D01*
X18305476Y-13193714D02*
X18295952Y-13174667D01*
X18295952Y-13174667D02*
X18276905Y-13165143D01*
X18276905Y-13165143D02*
X18238809Y-13165143D01*
X18238809Y-13165143D02*
X18219762Y-13174667D01*
X18305476Y-13288952D02*
X18286429Y-13298476D01*
X18286429Y-13298476D02*
X18238809Y-13298476D01*
X18238809Y-13298476D02*
X18219762Y-13288952D01*
X18219762Y-13288952D02*
X18210238Y-13269905D01*
X18210238Y-13269905D02*
X18210238Y-13250857D01*
X18210238Y-13250857D02*
X18219762Y-13231809D01*
X18219762Y-13231809D02*
X18238809Y-13222286D01*
X18238809Y-13222286D02*
X18286429Y-13222286D01*
X18286429Y-13222286D02*
X18305476Y-13212762D01*
X18400714Y-13165143D02*
X18400714Y-13365143D01*
X18400714Y-13174667D02*
X18419762Y-13165143D01*
X18419762Y-13165143D02*
X18457857Y-13165143D01*
X18457857Y-13165143D02*
X18476905Y-13174667D01*
X18476905Y-13174667D02*
X18486429Y-13184190D01*
X18486429Y-13184190D02*
X18495952Y-13203238D01*
X18495952Y-13203238D02*
X18495952Y-13260381D01*
X18495952Y-13260381D02*
X18486429Y-13279428D01*
X18486429Y-13279428D02*
X18476905Y-13288952D01*
X18476905Y-13288952D02*
X18457857Y-13298476D01*
X18457857Y-13298476D02*
X18419762Y-13298476D01*
X18419762Y-13298476D02*
X18400714Y-13288952D01*
X18581667Y-13279428D02*
X18591190Y-13288952D01*
X18591190Y-13288952D02*
X18581667Y-13298476D01*
X18581667Y-13298476D02*
X18572143Y-13288952D01*
X18572143Y-13288952D02*
X18581667Y-13279428D01*
X18581667Y-13279428D02*
X18581667Y-13298476D01*
X18581667Y-13174667D02*
X18591190Y-13184190D01*
X18591190Y-13184190D02*
X18581667Y-13193714D01*
X18581667Y-13193714D02*
X18572143Y-13184190D01*
X18572143Y-13184190D02*
X18581667Y-13174667D01*
X18581667Y-13174667D02*
X18581667Y-13193714D01*
D12*
X16975000Y-13635000D02*
X16995000Y-13655000D01*
X16995000Y-13635000D02*
X16975000Y-13655000D01*
D11*
X17280714Y-13518476D02*
X17299762Y-13518476D01*
X17299762Y-13518476D02*
X17318810Y-13528000D01*
X17318810Y-13528000D02*
X17328333Y-13537524D01*
X17328333Y-13537524D02*
X17337857Y-13556571D01*
X17337857Y-13556571D02*
X17347381Y-13594667D01*
X17347381Y-13594667D02*
X17347381Y-13642286D01*
X17347381Y-13642286D02*
X17337857Y-13680381D01*
X17337857Y-13680381D02*
X17328333Y-13699428D01*
X17328333Y-13699428D02*
X17318810Y-13708952D01*
X17318810Y-13708952D02*
X17299762Y-13718476D01*
X17299762Y-13718476D02*
X17280714Y-13718476D01*
X17280714Y-13718476D02*
X17261667Y-13708952D01*
X17261667Y-13708952D02*
X17252143Y-13699428D01*
X17252143Y-13699428D02*
X17242619Y-13680381D01*
X17242619Y-13680381D02*
X17233095Y-13642286D01*
X17233095Y-13642286D02*
X17233095Y-13594667D01*
X17233095Y-13594667D02*
X17242619Y-13556571D01*
X17242619Y-13556571D02*
X17252143Y-13537524D01*
X17252143Y-13537524D02*
X17261667Y-13528000D01*
X17261667Y-13528000D02*
X17280714Y-13518476D01*
X17433095Y-13699428D02*
X17442619Y-13708952D01*
X17442619Y-13708952D02*
X17433095Y-13718476D01*
X17433095Y-13718476D02*
X17423571Y-13708952D01*
X17423571Y-13708952D02*
X17433095Y-13699428D01*
X17433095Y-13699428D02*
X17433095Y-13718476D01*
X17518810Y-13537524D02*
X17528333Y-13528000D01*
X17528333Y-13528000D02*
X17547381Y-13518476D01*
X17547381Y-13518476D02*
X17595000Y-13518476D01*
X17595000Y-13518476D02*
X17614048Y-13528000D01*
X17614048Y-13528000D02*
X17623571Y-13537524D01*
X17623571Y-13537524D02*
X17633095Y-13556571D01*
X17633095Y-13556571D02*
X17633095Y-13575619D01*
X17633095Y-13575619D02*
X17623571Y-13604190D01*
X17623571Y-13604190D02*
X17509286Y-13718476D01*
X17509286Y-13718476D02*
X17633095Y-13718476D01*
X17756905Y-13518476D02*
X17775952Y-13518476D01*
X17775952Y-13518476D02*
X17795000Y-13528000D01*
X17795000Y-13528000D02*
X17804524Y-13537524D01*
X17804524Y-13537524D02*
X17814048Y-13556571D01*
X17814048Y-13556571D02*
X17823571Y-13594667D01*
X17823571Y-13594667D02*
X17823571Y-13642286D01*
X17823571Y-13642286D02*
X17814048Y-13680381D01*
X17814048Y-13680381D02*
X17804524Y-13699428D01*
X17804524Y-13699428D02*
X17795000Y-13708952D01*
X17795000Y-13708952D02*
X17775952Y-13718476D01*
X17775952Y-13718476D02*
X17756905Y-13718476D01*
X17756905Y-13718476D02*
X17737857Y-13708952D01*
X17737857Y-13708952D02*
X17728333Y-13699428D01*
X17728333Y-13699428D02*
X17718810Y-13680381D01*
X17718810Y-13680381D02*
X17709286Y-13642286D01*
X17709286Y-13642286D02*
X17709286Y-13594667D01*
X17709286Y-13594667D02*
X17718810Y-13556571D01*
X17718810Y-13556571D02*
X17728333Y-13537524D01*
X17728333Y-13537524D02*
X17737857Y-13528000D01*
X17737857Y-13528000D02*
X17756905Y-13518476D01*
X17947381Y-13518476D02*
X17966429Y-13518476D01*
X17966429Y-13518476D02*
X17985476Y-13528000D01*
X17985476Y-13528000D02*
X17995000Y-13537524D01*
X17995000Y-13537524D02*
X18004524Y-13556571D01*
X18004524Y-13556571D02*
X18014048Y-13594667D01*
X18014048Y-13594667D02*
X18014048Y-13642286D01*
X18014048Y-13642286D02*
X18004524Y-13680381D01*
X18004524Y-13680381D02*
X17995000Y-13699428D01*
X17995000Y-13699428D02*
X17985476Y-13708952D01*
X17985476Y-13708952D02*
X17966429Y-13718476D01*
X17966429Y-13718476D02*
X17947381Y-13718476D01*
X17947381Y-13718476D02*
X17928333Y-13708952D01*
X17928333Y-13708952D02*
X17918810Y-13699428D01*
X17918810Y-13699428D02*
X17909286Y-13680381D01*
X17909286Y-13680381D02*
X17899762Y-13642286D01*
X17899762Y-13642286D02*
X17899762Y-13594667D01*
X17899762Y-13594667D02*
X17909286Y-13556571D01*
X17909286Y-13556571D02*
X17918810Y-13537524D01*
X17918810Y-13537524D02*
X17928333Y-13528000D01*
X17928333Y-13528000D02*
X17947381Y-13518476D01*
X18099762Y-13718476D02*
X18099762Y-13585143D01*
X18099762Y-13604190D02*
X18109286Y-13594667D01*
X18109286Y-13594667D02*
X18128333Y-13585143D01*
X18128333Y-13585143D02*
X18156905Y-13585143D01*
X18156905Y-13585143D02*
X18175952Y-13594667D01*
X18175952Y-13594667D02*
X18185476Y-13613714D01*
X18185476Y-13613714D02*
X18185476Y-13718476D01*
X18185476Y-13613714D02*
X18195000Y-13594667D01*
X18195000Y-13594667D02*
X18214048Y-13585143D01*
X18214048Y-13585143D02*
X18242619Y-13585143D01*
X18242619Y-13585143D02*
X18261667Y-13594667D01*
X18261667Y-13594667D02*
X18271191Y-13613714D01*
X18271191Y-13613714D02*
X18271191Y-13718476D01*
X18366429Y-13718476D02*
X18366429Y-13585143D01*
X18366429Y-13604190D02*
X18375952Y-13594667D01*
X18375952Y-13594667D02*
X18395000Y-13585143D01*
X18395000Y-13585143D02*
X18423572Y-13585143D01*
X18423572Y-13585143D02*
X18442619Y-13594667D01*
X18442619Y-13594667D02*
X18452143Y-13613714D01*
X18452143Y-13613714D02*
X18452143Y-13718476D01*
X18452143Y-13613714D02*
X18461667Y-13594667D01*
X18461667Y-13594667D02*
X18480714Y-13585143D01*
X18480714Y-13585143D02*
X18509286Y-13585143D01*
X18509286Y-13585143D02*
X18528333Y-13594667D01*
X18528333Y-13594667D02*
X18537857Y-13613714D01*
X18537857Y-13613714D02*
X18537857Y-13718476D01*
X18895952Y-13508952D02*
X18724524Y-13766095D01*
X19120714Y-13518476D02*
X19139762Y-13518476D01*
X19139762Y-13518476D02*
X19158810Y-13528000D01*
X19158810Y-13528000D02*
X19168333Y-13537524D01*
X19168333Y-13537524D02*
X19177857Y-13556571D01*
X19177857Y-13556571D02*
X19187381Y-13594667D01*
X19187381Y-13594667D02*
X19187381Y-13642286D01*
X19187381Y-13642286D02*
X19177857Y-13680381D01*
X19177857Y-13680381D02*
X19168333Y-13699428D01*
X19168333Y-13699428D02*
X19158810Y-13708952D01*
X19158810Y-13708952D02*
X19139762Y-13718476D01*
X19139762Y-13718476D02*
X19120714Y-13718476D01*
X19120714Y-13718476D02*
X19101667Y-13708952D01*
X19101667Y-13708952D02*
X19092143Y-13699428D01*
X19092143Y-13699428D02*
X19082619Y-13680381D01*
X19082619Y-13680381D02*
X19073095Y-13642286D01*
X19073095Y-13642286D02*
X19073095Y-13594667D01*
X19073095Y-13594667D02*
X19082619Y-13556571D01*
X19082619Y-13556571D02*
X19092143Y-13537524D01*
X19092143Y-13537524D02*
X19101667Y-13528000D01*
X19101667Y-13528000D02*
X19120714Y-13518476D01*
X19273095Y-13699428D02*
X19282619Y-13708952D01*
X19282619Y-13708952D02*
X19273095Y-13718476D01*
X19273095Y-13718476D02*
X19263572Y-13708952D01*
X19263572Y-13708952D02*
X19273095Y-13699428D01*
X19273095Y-13699428D02*
X19273095Y-13718476D01*
X19406429Y-13518476D02*
X19425476Y-13518476D01*
X19425476Y-13518476D02*
X19444524Y-13528000D01*
X19444524Y-13528000D02*
X19454048Y-13537524D01*
X19454048Y-13537524D02*
X19463572Y-13556571D01*
X19463572Y-13556571D02*
X19473095Y-13594667D01*
X19473095Y-13594667D02*
X19473095Y-13642286D01*
X19473095Y-13642286D02*
X19463572Y-13680381D01*
X19463572Y-13680381D02*
X19454048Y-13699428D01*
X19454048Y-13699428D02*
X19444524Y-13708952D01*
X19444524Y-13708952D02*
X19425476Y-13718476D01*
X19425476Y-13718476D02*
X19406429Y-13718476D01*
X19406429Y-13718476D02*
X19387381Y-13708952D01*
X19387381Y-13708952D02*
X19377857Y-13699428D01*
X19377857Y-13699428D02*
X19368333Y-13680381D01*
X19368333Y-13680381D02*
X19358810Y-13642286D01*
X19358810Y-13642286D02*
X19358810Y-13594667D01*
X19358810Y-13594667D02*
X19368333Y-13556571D01*
X19368333Y-13556571D02*
X19377857Y-13537524D01*
X19377857Y-13537524D02*
X19387381Y-13528000D01*
X19387381Y-13528000D02*
X19406429Y-13518476D01*
X19596905Y-13518476D02*
X19615953Y-13518476D01*
X19615953Y-13518476D02*
X19635000Y-13528000D01*
X19635000Y-13528000D02*
X19644524Y-13537524D01*
X19644524Y-13537524D02*
X19654048Y-13556571D01*
X19654048Y-13556571D02*
X19663572Y-13594667D01*
X19663572Y-13594667D02*
X19663572Y-13642286D01*
X19663572Y-13642286D02*
X19654048Y-13680381D01*
X19654048Y-13680381D02*
X19644524Y-13699428D01*
X19644524Y-13699428D02*
X19635000Y-13708952D01*
X19635000Y-13708952D02*
X19615953Y-13718476D01*
X19615953Y-13718476D02*
X19596905Y-13718476D01*
X19596905Y-13718476D02*
X19577857Y-13708952D01*
X19577857Y-13708952D02*
X19568333Y-13699428D01*
X19568333Y-13699428D02*
X19558810Y-13680381D01*
X19558810Y-13680381D02*
X19549286Y-13642286D01*
X19549286Y-13642286D02*
X19549286Y-13594667D01*
X19549286Y-13594667D02*
X19558810Y-13556571D01*
X19558810Y-13556571D02*
X19568333Y-13537524D01*
X19568333Y-13537524D02*
X19577857Y-13528000D01*
X19577857Y-13528000D02*
X19596905Y-13518476D01*
X19730238Y-13518476D02*
X19863572Y-13518476D01*
X19863572Y-13518476D02*
X19777857Y-13718476D01*
X19949286Y-13718476D02*
X19987381Y-13718476D01*
X19987381Y-13718476D02*
X20006429Y-13708952D01*
X20006429Y-13708952D02*
X20015953Y-13699428D01*
X20015953Y-13699428D02*
X20035000Y-13670857D01*
X20035000Y-13670857D02*
X20044524Y-13632762D01*
X20044524Y-13632762D02*
X20044524Y-13556571D01*
X20044524Y-13556571D02*
X20035000Y-13537524D01*
X20035000Y-13537524D02*
X20025476Y-13528000D01*
X20025476Y-13528000D02*
X20006429Y-13518476D01*
X20006429Y-13518476D02*
X19968333Y-13518476D01*
X19968333Y-13518476D02*
X19949286Y-13528000D01*
X19949286Y-13528000D02*
X19939762Y-13537524D01*
X19939762Y-13537524D02*
X19930238Y-13556571D01*
X19930238Y-13556571D02*
X19930238Y-13604190D01*
X19930238Y-13604190D02*
X19939762Y-13623238D01*
X19939762Y-13623238D02*
X19949286Y-13632762D01*
X19949286Y-13632762D02*
X19968333Y-13642286D01*
X19968333Y-13642286D02*
X20006429Y-13642286D01*
X20006429Y-13642286D02*
X20025476Y-13632762D01*
X20025476Y-13632762D02*
X20035000Y-13623238D01*
X20035000Y-13623238D02*
X20044524Y-13604190D01*
X20120714Y-13518476D02*
X20120714Y-13556571D01*
X20196905Y-13518476D02*
X20196905Y-13556571D01*
X20459762Y-13794667D02*
X20450238Y-13785143D01*
X20450238Y-13785143D02*
X20431191Y-13756571D01*
X20431191Y-13756571D02*
X20421667Y-13737524D01*
X20421667Y-13737524D02*
X20412143Y-13708952D01*
X20412143Y-13708952D02*
X20402619Y-13661333D01*
X20402619Y-13661333D02*
X20402619Y-13623238D01*
X20402619Y-13623238D02*
X20412143Y-13575619D01*
X20412143Y-13575619D02*
X20421667Y-13547048D01*
X20421667Y-13547048D02*
X20431191Y-13528000D01*
X20431191Y-13528000D02*
X20450238Y-13499428D01*
X20450238Y-13499428D02*
X20459762Y-13489905D01*
X20516905Y-13518476D02*
X20640714Y-13518476D01*
X20640714Y-13518476D02*
X20574048Y-13594667D01*
X20574048Y-13594667D02*
X20602619Y-13594667D01*
X20602619Y-13594667D02*
X20621667Y-13604190D01*
X20621667Y-13604190D02*
X20631191Y-13613714D01*
X20631191Y-13613714D02*
X20640714Y-13632762D01*
X20640714Y-13632762D02*
X20640714Y-13680381D01*
X20640714Y-13680381D02*
X20631191Y-13699428D01*
X20631191Y-13699428D02*
X20621667Y-13708952D01*
X20621667Y-13708952D02*
X20602619Y-13718476D01*
X20602619Y-13718476D02*
X20545476Y-13718476D01*
X20545476Y-13718476D02*
X20526429Y-13708952D01*
X20526429Y-13708952D02*
X20516905Y-13699428D01*
X20755000Y-13604190D02*
X20735953Y-13594667D01*
X20735953Y-13594667D02*
X20726429Y-13585143D01*
X20726429Y-13585143D02*
X20716905Y-13566095D01*
X20716905Y-13566095D02*
X20716905Y-13556571D01*
X20716905Y-13556571D02*
X20726429Y-13537524D01*
X20726429Y-13537524D02*
X20735953Y-13528000D01*
X20735953Y-13528000D02*
X20755000Y-13518476D01*
X20755000Y-13518476D02*
X20793095Y-13518476D01*
X20793095Y-13518476D02*
X20812143Y-13528000D01*
X20812143Y-13528000D02*
X20821667Y-13537524D01*
X20821667Y-13537524D02*
X20831191Y-13556571D01*
X20831191Y-13556571D02*
X20831191Y-13566095D01*
X20831191Y-13566095D02*
X20821667Y-13585143D01*
X20821667Y-13585143D02*
X20812143Y-13594667D01*
X20812143Y-13594667D02*
X20793095Y-13604190D01*
X20793095Y-13604190D02*
X20755000Y-13604190D01*
X20755000Y-13604190D02*
X20735953Y-13613714D01*
X20735953Y-13613714D02*
X20726429Y-13623238D01*
X20726429Y-13623238D02*
X20716905Y-13642286D01*
X20716905Y-13642286D02*
X20716905Y-13680381D01*
X20716905Y-13680381D02*
X20726429Y-13699428D01*
X20726429Y-13699428D02*
X20735953Y-13708952D01*
X20735953Y-13708952D02*
X20755000Y-13718476D01*
X20755000Y-13718476D02*
X20793095Y-13718476D01*
X20793095Y-13718476D02*
X20812143Y-13708952D01*
X20812143Y-13708952D02*
X20821667Y-13699428D01*
X20821667Y-13699428D02*
X20831191Y-13680381D01*
X20831191Y-13680381D02*
X20831191Y-13642286D01*
X20831191Y-13642286D02*
X20821667Y-13623238D01*
X20821667Y-13623238D02*
X20812143Y-13613714D01*
X20812143Y-13613714D02*
X20793095Y-13604190D01*
X20907381Y-13537524D02*
X20916905Y-13528000D01*
X20916905Y-13528000D02*
X20935953Y-13518476D01*
X20935953Y-13518476D02*
X20983572Y-13518476D01*
X20983572Y-13518476D02*
X21002619Y-13528000D01*
X21002619Y-13528000D02*
X21012143Y-13537524D01*
X21012143Y-13537524D02*
X21021667Y-13556571D01*
X21021667Y-13556571D02*
X21021667Y-13575619D01*
X21021667Y-13575619D02*
X21012143Y-13604190D01*
X21012143Y-13604190D02*
X20897857Y-13718476D01*
X20897857Y-13718476D02*
X21021667Y-13718476D01*
X21227381Y-13718476D02*
X21227381Y-13518476D01*
X21313095Y-13718476D02*
X21313095Y-13613714D01*
X21313095Y-13613714D02*
X21303572Y-13594667D01*
X21303572Y-13594667D02*
X21284524Y-13585143D01*
X21284524Y-13585143D02*
X21255953Y-13585143D01*
X21255953Y-13585143D02*
X21236905Y-13594667D01*
X21236905Y-13594667D02*
X21227381Y-13604190D01*
X21436905Y-13718476D02*
X21417857Y-13708952D01*
X21417857Y-13708952D02*
X21408334Y-13699428D01*
X21408334Y-13699428D02*
X21398810Y-13680381D01*
X21398810Y-13680381D02*
X21398810Y-13623238D01*
X21398810Y-13623238D02*
X21408334Y-13604190D01*
X21408334Y-13604190D02*
X21417857Y-13594667D01*
X21417857Y-13594667D02*
X21436905Y-13585143D01*
X21436905Y-13585143D02*
X21465476Y-13585143D01*
X21465476Y-13585143D02*
X21484524Y-13594667D01*
X21484524Y-13594667D02*
X21494048Y-13604190D01*
X21494048Y-13604190D02*
X21503572Y-13623238D01*
X21503572Y-13623238D02*
X21503572Y-13680381D01*
X21503572Y-13680381D02*
X21494048Y-13699428D01*
X21494048Y-13699428D02*
X21484524Y-13708952D01*
X21484524Y-13708952D02*
X21465476Y-13718476D01*
X21465476Y-13718476D02*
X21436905Y-13718476D01*
X21617857Y-13718476D02*
X21598810Y-13708952D01*
X21598810Y-13708952D02*
X21589286Y-13689905D01*
X21589286Y-13689905D02*
X21589286Y-13518476D01*
X21770238Y-13708952D02*
X21751191Y-13718476D01*
X21751191Y-13718476D02*
X21713095Y-13718476D01*
X21713095Y-13718476D02*
X21694048Y-13708952D01*
X21694048Y-13708952D02*
X21684524Y-13689905D01*
X21684524Y-13689905D02*
X21684524Y-13613714D01*
X21684524Y-13613714D02*
X21694048Y-13594667D01*
X21694048Y-13594667D02*
X21713095Y-13585143D01*
X21713095Y-13585143D02*
X21751191Y-13585143D01*
X21751191Y-13585143D02*
X21770238Y-13594667D01*
X21770238Y-13594667D02*
X21779762Y-13613714D01*
X21779762Y-13613714D02*
X21779762Y-13632762D01*
X21779762Y-13632762D02*
X21684524Y-13651809D01*
X21855953Y-13708952D02*
X21875000Y-13718476D01*
X21875000Y-13718476D02*
X21913095Y-13718476D01*
X21913095Y-13718476D02*
X21932143Y-13708952D01*
X21932143Y-13708952D02*
X21941667Y-13689905D01*
X21941667Y-13689905D02*
X21941667Y-13680381D01*
X21941667Y-13680381D02*
X21932143Y-13661333D01*
X21932143Y-13661333D02*
X21913095Y-13651809D01*
X21913095Y-13651809D02*
X21884524Y-13651809D01*
X21884524Y-13651809D02*
X21865476Y-13642286D01*
X21865476Y-13642286D02*
X21855953Y-13623238D01*
X21855953Y-13623238D02*
X21855953Y-13613714D01*
X21855953Y-13613714D02*
X21865476Y-13594667D01*
X21865476Y-13594667D02*
X21884524Y-13585143D01*
X21884524Y-13585143D02*
X21913095Y-13585143D01*
X21913095Y-13585143D02*
X21932143Y-13594667D01*
X22008334Y-13794667D02*
X22017857Y-13785143D01*
X22017857Y-13785143D02*
X22036905Y-13756571D01*
X22036905Y-13756571D02*
X22046429Y-13737524D01*
X22046429Y-13737524D02*
X22055953Y-13708952D01*
X22055953Y-13708952D02*
X22065476Y-13661333D01*
X22065476Y-13661333D02*
X22065476Y-13623238D01*
X22065476Y-13623238D02*
X22055953Y-13575619D01*
X22055953Y-13575619D02*
X22046429Y-13547048D01*
X22046429Y-13547048D02*
X22036905Y-13528000D01*
X22036905Y-13528000D02*
X22017857Y-13499428D01*
X22017857Y-13499428D02*
X22008334Y-13489905D01*
D13*
X16995000Y-13909000D02*
G75*
G03*
X16995000Y-13909000I-30000J0D01*
G01*
D11*
X17280714Y-13782476D02*
X17299762Y-13782476D01*
X17299762Y-13782476D02*
X17318810Y-13792000D01*
X17318810Y-13792000D02*
X17328333Y-13801524D01*
X17328333Y-13801524D02*
X17337857Y-13820571D01*
X17337857Y-13820571D02*
X17347381Y-13858667D01*
X17347381Y-13858667D02*
X17347381Y-13906286D01*
X17347381Y-13906286D02*
X17337857Y-13944381D01*
X17337857Y-13944381D02*
X17328333Y-13963428D01*
X17328333Y-13963428D02*
X17318810Y-13972952D01*
X17318810Y-13972952D02*
X17299762Y-13982476D01*
X17299762Y-13982476D02*
X17280714Y-13982476D01*
X17280714Y-13982476D02*
X17261667Y-13972952D01*
X17261667Y-13972952D02*
X17252143Y-13963428D01*
X17252143Y-13963428D02*
X17242619Y-13944381D01*
X17242619Y-13944381D02*
X17233095Y-13906286D01*
X17233095Y-13906286D02*
X17233095Y-13858667D01*
X17233095Y-13858667D02*
X17242619Y-13820571D01*
X17242619Y-13820571D02*
X17252143Y-13801524D01*
X17252143Y-13801524D02*
X17261667Y-13792000D01*
X17261667Y-13792000D02*
X17280714Y-13782476D01*
X17433095Y-13963428D02*
X17442619Y-13972952D01*
X17442619Y-13972952D02*
X17433095Y-13982476D01*
X17433095Y-13982476D02*
X17423571Y-13972952D01*
X17423571Y-13972952D02*
X17433095Y-13963428D01*
X17433095Y-13963428D02*
X17433095Y-13982476D01*
X17614048Y-13782476D02*
X17575952Y-13782476D01*
X17575952Y-13782476D02*
X17556905Y-13792000D01*
X17556905Y-13792000D02*
X17547381Y-13801524D01*
X17547381Y-13801524D02*
X17528333Y-13830095D01*
X17528333Y-13830095D02*
X17518810Y-13868190D01*
X17518810Y-13868190D02*
X17518810Y-13944381D01*
X17518810Y-13944381D02*
X17528333Y-13963428D01*
X17528333Y-13963428D02*
X17537857Y-13972952D01*
X17537857Y-13972952D02*
X17556905Y-13982476D01*
X17556905Y-13982476D02*
X17595000Y-13982476D01*
X17595000Y-13982476D02*
X17614048Y-13972952D01*
X17614048Y-13972952D02*
X17623571Y-13963428D01*
X17623571Y-13963428D02*
X17633095Y-13944381D01*
X17633095Y-13944381D02*
X17633095Y-13896762D01*
X17633095Y-13896762D02*
X17623571Y-13877714D01*
X17623571Y-13877714D02*
X17614048Y-13868190D01*
X17614048Y-13868190D02*
X17595000Y-13858667D01*
X17595000Y-13858667D02*
X17556905Y-13858667D01*
X17556905Y-13858667D02*
X17537857Y-13868190D01*
X17537857Y-13868190D02*
X17528333Y-13877714D01*
X17528333Y-13877714D02*
X17518810Y-13896762D01*
X17756905Y-13782476D02*
X17775952Y-13782476D01*
X17775952Y-13782476D02*
X17795000Y-13792000D01*
X17795000Y-13792000D02*
X17804524Y-13801524D01*
X17804524Y-13801524D02*
X17814048Y-13820571D01*
X17814048Y-13820571D02*
X17823571Y-13858667D01*
X17823571Y-13858667D02*
X17823571Y-13906286D01*
X17823571Y-13906286D02*
X17814048Y-13944381D01*
X17814048Y-13944381D02*
X17804524Y-13963428D01*
X17804524Y-13963428D02*
X17795000Y-13972952D01*
X17795000Y-13972952D02*
X17775952Y-13982476D01*
X17775952Y-13982476D02*
X17756905Y-13982476D01*
X17756905Y-13982476D02*
X17737857Y-13972952D01*
X17737857Y-13972952D02*
X17728333Y-13963428D01*
X17728333Y-13963428D02*
X17718810Y-13944381D01*
X17718810Y-13944381D02*
X17709286Y-13906286D01*
X17709286Y-13906286D02*
X17709286Y-13858667D01*
X17709286Y-13858667D02*
X17718810Y-13820571D01*
X17718810Y-13820571D02*
X17728333Y-13801524D01*
X17728333Y-13801524D02*
X17737857Y-13792000D01*
X17737857Y-13792000D02*
X17756905Y-13782476D01*
X17947381Y-13782476D02*
X17966429Y-13782476D01*
X17966429Y-13782476D02*
X17985476Y-13792000D01*
X17985476Y-13792000D02*
X17995000Y-13801524D01*
X17995000Y-13801524D02*
X18004524Y-13820571D01*
X18004524Y-13820571D02*
X18014048Y-13858667D01*
X18014048Y-13858667D02*
X18014048Y-13906286D01*
X18014048Y-13906286D02*
X18004524Y-13944381D01*
X18004524Y-13944381D02*
X17995000Y-13963428D01*
X17995000Y-13963428D02*
X17985476Y-13972952D01*
X17985476Y-13972952D02*
X17966429Y-13982476D01*
X17966429Y-13982476D02*
X17947381Y-13982476D01*
X17947381Y-13982476D02*
X17928333Y-13972952D01*
X17928333Y-13972952D02*
X17918810Y-13963428D01*
X17918810Y-13963428D02*
X17909286Y-13944381D01*
X17909286Y-13944381D02*
X17899762Y-13906286D01*
X17899762Y-13906286D02*
X17899762Y-13858667D01*
X17899762Y-13858667D02*
X17909286Y-13820571D01*
X17909286Y-13820571D02*
X17918810Y-13801524D01*
X17918810Y-13801524D02*
X17928333Y-13792000D01*
X17928333Y-13792000D02*
X17947381Y-13782476D01*
X18099762Y-13982476D02*
X18099762Y-13849143D01*
X18099762Y-13868190D02*
X18109286Y-13858667D01*
X18109286Y-13858667D02*
X18128333Y-13849143D01*
X18128333Y-13849143D02*
X18156905Y-13849143D01*
X18156905Y-13849143D02*
X18175952Y-13858667D01*
X18175952Y-13858667D02*
X18185476Y-13877714D01*
X18185476Y-13877714D02*
X18185476Y-13982476D01*
X18185476Y-13877714D02*
X18195000Y-13858667D01*
X18195000Y-13858667D02*
X18214048Y-13849143D01*
X18214048Y-13849143D02*
X18242619Y-13849143D01*
X18242619Y-13849143D02*
X18261667Y-13858667D01*
X18261667Y-13858667D02*
X18271191Y-13877714D01*
X18271191Y-13877714D02*
X18271191Y-13982476D01*
X18366429Y-13982476D02*
X18366429Y-13849143D01*
X18366429Y-13868190D02*
X18375952Y-13858667D01*
X18375952Y-13858667D02*
X18395000Y-13849143D01*
X18395000Y-13849143D02*
X18423572Y-13849143D01*
X18423572Y-13849143D02*
X18442619Y-13858667D01*
X18442619Y-13858667D02*
X18452143Y-13877714D01*
X18452143Y-13877714D02*
X18452143Y-13982476D01*
X18452143Y-13877714D02*
X18461667Y-13858667D01*
X18461667Y-13858667D02*
X18480714Y-13849143D01*
X18480714Y-13849143D02*
X18509286Y-13849143D01*
X18509286Y-13849143D02*
X18528333Y-13858667D01*
X18528333Y-13858667D02*
X18537857Y-13877714D01*
X18537857Y-13877714D02*
X18537857Y-13982476D01*
X18895952Y-13772952D02*
X18724524Y-14030095D01*
X19120714Y-13782476D02*
X19139762Y-13782476D01*
X19139762Y-13782476D02*
X19158810Y-13792000D01*
X19158810Y-13792000D02*
X19168333Y-13801524D01*
X19168333Y-13801524D02*
X19177857Y-13820571D01*
X19177857Y-13820571D02*
X19187381Y-13858667D01*
X19187381Y-13858667D02*
X19187381Y-13906286D01*
X19187381Y-13906286D02*
X19177857Y-13944381D01*
X19177857Y-13944381D02*
X19168333Y-13963428D01*
X19168333Y-13963428D02*
X19158810Y-13972952D01*
X19158810Y-13972952D02*
X19139762Y-13982476D01*
X19139762Y-13982476D02*
X19120714Y-13982476D01*
X19120714Y-13982476D02*
X19101667Y-13972952D01*
X19101667Y-13972952D02*
X19092143Y-13963428D01*
X19092143Y-13963428D02*
X19082619Y-13944381D01*
X19082619Y-13944381D02*
X19073095Y-13906286D01*
X19073095Y-13906286D02*
X19073095Y-13858667D01*
X19073095Y-13858667D02*
X19082619Y-13820571D01*
X19082619Y-13820571D02*
X19092143Y-13801524D01*
X19092143Y-13801524D02*
X19101667Y-13792000D01*
X19101667Y-13792000D02*
X19120714Y-13782476D01*
X19273095Y-13963428D02*
X19282619Y-13972952D01*
X19282619Y-13972952D02*
X19273095Y-13982476D01*
X19273095Y-13982476D02*
X19263572Y-13972952D01*
X19263572Y-13972952D02*
X19273095Y-13963428D01*
X19273095Y-13963428D02*
X19273095Y-13982476D01*
X19406429Y-13782476D02*
X19425476Y-13782476D01*
X19425476Y-13782476D02*
X19444524Y-13792000D01*
X19444524Y-13792000D02*
X19454048Y-13801524D01*
X19454048Y-13801524D02*
X19463572Y-13820571D01*
X19463572Y-13820571D02*
X19473095Y-13858667D01*
X19473095Y-13858667D02*
X19473095Y-13906286D01*
X19473095Y-13906286D02*
X19463572Y-13944381D01*
X19463572Y-13944381D02*
X19454048Y-13963428D01*
X19454048Y-13963428D02*
X19444524Y-13972952D01*
X19444524Y-13972952D02*
X19425476Y-13982476D01*
X19425476Y-13982476D02*
X19406429Y-13982476D01*
X19406429Y-13982476D02*
X19387381Y-13972952D01*
X19387381Y-13972952D02*
X19377857Y-13963428D01*
X19377857Y-13963428D02*
X19368333Y-13944381D01*
X19368333Y-13944381D02*
X19358810Y-13906286D01*
X19358810Y-13906286D02*
X19358810Y-13858667D01*
X19358810Y-13858667D02*
X19368333Y-13820571D01*
X19368333Y-13820571D02*
X19377857Y-13801524D01*
X19377857Y-13801524D02*
X19387381Y-13792000D01*
X19387381Y-13792000D02*
X19406429Y-13782476D01*
X19549286Y-13801524D02*
X19558810Y-13792000D01*
X19558810Y-13792000D02*
X19577857Y-13782476D01*
X19577857Y-13782476D02*
X19625476Y-13782476D01*
X19625476Y-13782476D02*
X19644524Y-13792000D01*
X19644524Y-13792000D02*
X19654048Y-13801524D01*
X19654048Y-13801524D02*
X19663572Y-13820571D01*
X19663572Y-13820571D02*
X19663572Y-13839619D01*
X19663572Y-13839619D02*
X19654048Y-13868190D01*
X19654048Y-13868190D02*
X19539762Y-13982476D01*
X19539762Y-13982476D02*
X19663572Y-13982476D01*
X19730238Y-13782476D02*
X19854048Y-13782476D01*
X19854048Y-13782476D02*
X19787381Y-13858667D01*
X19787381Y-13858667D02*
X19815953Y-13858667D01*
X19815953Y-13858667D02*
X19835000Y-13868190D01*
X19835000Y-13868190D02*
X19844524Y-13877714D01*
X19844524Y-13877714D02*
X19854048Y-13896762D01*
X19854048Y-13896762D02*
X19854048Y-13944381D01*
X19854048Y-13944381D02*
X19844524Y-13963428D01*
X19844524Y-13963428D02*
X19835000Y-13972952D01*
X19835000Y-13972952D02*
X19815953Y-13982476D01*
X19815953Y-13982476D02*
X19758810Y-13982476D01*
X19758810Y-13982476D02*
X19739762Y-13972952D01*
X19739762Y-13972952D02*
X19730238Y-13963428D01*
X20025476Y-13782476D02*
X19987381Y-13782476D01*
X19987381Y-13782476D02*
X19968333Y-13792000D01*
X19968333Y-13792000D02*
X19958810Y-13801524D01*
X19958810Y-13801524D02*
X19939762Y-13830095D01*
X19939762Y-13830095D02*
X19930238Y-13868190D01*
X19930238Y-13868190D02*
X19930238Y-13944381D01*
X19930238Y-13944381D02*
X19939762Y-13963428D01*
X19939762Y-13963428D02*
X19949286Y-13972952D01*
X19949286Y-13972952D02*
X19968333Y-13982476D01*
X19968333Y-13982476D02*
X20006429Y-13982476D01*
X20006429Y-13982476D02*
X20025476Y-13972952D01*
X20025476Y-13972952D02*
X20035000Y-13963428D01*
X20035000Y-13963428D02*
X20044524Y-13944381D01*
X20044524Y-13944381D02*
X20044524Y-13896762D01*
X20044524Y-13896762D02*
X20035000Y-13877714D01*
X20035000Y-13877714D02*
X20025476Y-13868190D01*
X20025476Y-13868190D02*
X20006429Y-13858667D01*
X20006429Y-13858667D02*
X19968333Y-13858667D01*
X19968333Y-13858667D02*
X19949286Y-13868190D01*
X19949286Y-13868190D02*
X19939762Y-13877714D01*
X19939762Y-13877714D02*
X19930238Y-13896762D01*
X20120714Y-13782476D02*
X20120714Y-13820571D01*
X20196905Y-13782476D02*
X20196905Y-13820571D01*
X20459762Y-14058667D02*
X20450238Y-14049143D01*
X20450238Y-14049143D02*
X20431191Y-14020571D01*
X20431191Y-14020571D02*
X20421667Y-14001524D01*
X20421667Y-14001524D02*
X20412143Y-13972952D01*
X20412143Y-13972952D02*
X20402619Y-13925333D01*
X20402619Y-13925333D02*
X20402619Y-13887238D01*
X20402619Y-13887238D02*
X20412143Y-13839619D01*
X20412143Y-13839619D02*
X20421667Y-13811048D01*
X20421667Y-13811048D02*
X20431191Y-13792000D01*
X20431191Y-13792000D02*
X20450238Y-13763428D01*
X20450238Y-13763428D02*
X20459762Y-13753905D01*
X20574048Y-13782476D02*
X20593095Y-13782476D01*
X20593095Y-13782476D02*
X20612143Y-13792000D01*
X20612143Y-13792000D02*
X20621667Y-13801524D01*
X20621667Y-13801524D02*
X20631191Y-13820571D01*
X20631191Y-13820571D02*
X20640714Y-13858667D01*
X20640714Y-13858667D02*
X20640714Y-13906286D01*
X20640714Y-13906286D02*
X20631191Y-13944381D01*
X20631191Y-13944381D02*
X20621667Y-13963428D01*
X20621667Y-13963428D02*
X20612143Y-13972952D01*
X20612143Y-13972952D02*
X20593095Y-13982476D01*
X20593095Y-13982476D02*
X20574048Y-13982476D01*
X20574048Y-13982476D02*
X20555000Y-13972952D01*
X20555000Y-13972952D02*
X20545476Y-13963428D01*
X20545476Y-13963428D02*
X20535953Y-13944381D01*
X20535953Y-13944381D02*
X20526429Y-13906286D01*
X20526429Y-13906286D02*
X20526429Y-13858667D01*
X20526429Y-13858667D02*
X20535953Y-13820571D01*
X20535953Y-13820571D02*
X20545476Y-13801524D01*
X20545476Y-13801524D02*
X20555000Y-13792000D01*
X20555000Y-13792000D02*
X20574048Y-13782476D01*
X20846429Y-13982476D02*
X20846429Y-13782476D01*
X20932143Y-13982476D02*
X20932143Y-13877714D01*
X20932143Y-13877714D02*
X20922619Y-13858667D01*
X20922619Y-13858667D02*
X20903572Y-13849143D01*
X20903572Y-13849143D02*
X20875000Y-13849143D01*
X20875000Y-13849143D02*
X20855953Y-13858667D01*
X20855953Y-13858667D02*
X20846429Y-13868190D01*
X21055953Y-13982476D02*
X21036905Y-13972952D01*
X21036905Y-13972952D02*
X21027381Y-13963428D01*
X21027381Y-13963428D02*
X21017857Y-13944381D01*
X21017857Y-13944381D02*
X21017857Y-13887238D01*
X21017857Y-13887238D02*
X21027381Y-13868190D01*
X21027381Y-13868190D02*
X21036905Y-13858667D01*
X21036905Y-13858667D02*
X21055953Y-13849143D01*
X21055953Y-13849143D02*
X21084524Y-13849143D01*
X21084524Y-13849143D02*
X21103572Y-13858667D01*
X21103572Y-13858667D02*
X21113095Y-13868190D01*
X21113095Y-13868190D02*
X21122619Y-13887238D01*
X21122619Y-13887238D02*
X21122619Y-13944381D01*
X21122619Y-13944381D02*
X21113095Y-13963428D01*
X21113095Y-13963428D02*
X21103572Y-13972952D01*
X21103572Y-13972952D02*
X21084524Y-13982476D01*
X21084524Y-13982476D02*
X21055953Y-13982476D01*
X21236905Y-13982476D02*
X21217857Y-13972952D01*
X21217857Y-13972952D02*
X21208334Y-13953905D01*
X21208334Y-13953905D02*
X21208334Y-13782476D01*
X21389286Y-13972952D02*
X21370238Y-13982476D01*
X21370238Y-13982476D02*
X21332143Y-13982476D01*
X21332143Y-13982476D02*
X21313095Y-13972952D01*
X21313095Y-13972952D02*
X21303572Y-13953905D01*
X21303572Y-13953905D02*
X21303572Y-13877714D01*
X21303572Y-13877714D02*
X21313095Y-13858667D01*
X21313095Y-13858667D02*
X21332143Y-13849143D01*
X21332143Y-13849143D02*
X21370238Y-13849143D01*
X21370238Y-13849143D02*
X21389286Y-13858667D01*
X21389286Y-13858667D02*
X21398810Y-13877714D01*
X21398810Y-13877714D02*
X21398810Y-13896762D01*
X21398810Y-13896762D02*
X21303572Y-13915809D01*
X21475000Y-13972952D02*
X21494048Y-13982476D01*
X21494048Y-13982476D02*
X21532143Y-13982476D01*
X21532143Y-13982476D02*
X21551191Y-13972952D01*
X21551191Y-13972952D02*
X21560715Y-13953905D01*
X21560715Y-13953905D02*
X21560715Y-13944381D01*
X21560715Y-13944381D02*
X21551191Y-13925333D01*
X21551191Y-13925333D02*
X21532143Y-13915809D01*
X21532143Y-13915809D02*
X21503572Y-13915809D01*
X21503572Y-13915809D02*
X21484524Y-13906286D01*
X21484524Y-13906286D02*
X21475000Y-13887238D01*
X21475000Y-13887238D02*
X21475000Y-13877714D01*
X21475000Y-13877714D02*
X21484524Y-13858667D01*
X21484524Y-13858667D02*
X21503572Y-13849143D01*
X21503572Y-13849143D02*
X21532143Y-13849143D01*
X21532143Y-13849143D02*
X21551191Y-13858667D01*
X21766429Y-13906286D02*
X21918810Y-13906286D01*
X21842619Y-13982476D02*
X21842619Y-13830095D01*
X22219762Y-13849143D02*
X22219762Y-13982476D01*
X22172143Y-13772952D02*
X22124524Y-13915809D01*
X22124524Y-13915809D02*
X22248334Y-13915809D01*
X22435000Y-13972952D02*
X22454048Y-13982476D01*
X22454048Y-13982476D02*
X22492143Y-13982476D01*
X22492143Y-13982476D02*
X22511191Y-13972952D01*
X22511191Y-13972952D02*
X22520714Y-13953905D01*
X22520714Y-13953905D02*
X22520714Y-13944381D01*
X22520714Y-13944381D02*
X22511191Y-13925333D01*
X22511191Y-13925333D02*
X22492143Y-13915809D01*
X22492143Y-13915809D02*
X22463572Y-13915809D01*
X22463572Y-13915809D02*
X22444524Y-13906286D01*
X22444524Y-13906286D02*
X22435000Y-13887238D01*
X22435000Y-13887238D02*
X22435000Y-13877714D01*
X22435000Y-13877714D02*
X22444524Y-13858667D01*
X22444524Y-13858667D02*
X22463572Y-13849143D01*
X22463572Y-13849143D02*
X22492143Y-13849143D01*
X22492143Y-13849143D02*
X22511191Y-13858667D01*
X22635000Y-13982476D02*
X22615953Y-13972952D01*
X22615953Y-13972952D02*
X22606429Y-13953905D01*
X22606429Y-13953905D02*
X22606429Y-13782476D01*
X22739762Y-13982476D02*
X22720714Y-13972952D01*
X22720714Y-13972952D02*
X22711191Y-13963428D01*
X22711191Y-13963428D02*
X22701667Y-13944381D01*
X22701667Y-13944381D02*
X22701667Y-13887238D01*
X22701667Y-13887238D02*
X22711191Y-13868190D01*
X22711191Y-13868190D02*
X22720714Y-13858667D01*
X22720714Y-13858667D02*
X22739762Y-13849143D01*
X22739762Y-13849143D02*
X22768334Y-13849143D01*
X22768334Y-13849143D02*
X22787381Y-13858667D01*
X22787381Y-13858667D02*
X22796905Y-13868190D01*
X22796905Y-13868190D02*
X22806429Y-13887238D01*
X22806429Y-13887238D02*
X22806429Y-13944381D01*
X22806429Y-13944381D02*
X22796905Y-13963428D01*
X22796905Y-13963428D02*
X22787381Y-13972952D01*
X22787381Y-13972952D02*
X22768334Y-13982476D01*
X22768334Y-13982476D02*
X22739762Y-13982476D01*
X22863572Y-13849143D02*
X22939762Y-13849143D01*
X22892143Y-13782476D02*
X22892143Y-13953905D01*
X22892143Y-13953905D02*
X22901667Y-13972952D01*
X22901667Y-13972952D02*
X22920714Y-13982476D01*
X22920714Y-13982476D02*
X22939762Y-13982476D01*
X22996905Y-13972952D02*
X23015953Y-13982476D01*
X23015953Y-13982476D02*
X23054048Y-13982476D01*
X23054048Y-13982476D02*
X23073095Y-13972952D01*
X23073095Y-13972952D02*
X23082619Y-13953905D01*
X23082619Y-13953905D02*
X23082619Y-13944381D01*
X23082619Y-13944381D02*
X23073095Y-13925333D01*
X23073095Y-13925333D02*
X23054048Y-13915809D01*
X23054048Y-13915809D02*
X23025476Y-13915809D01*
X23025476Y-13915809D02*
X23006429Y-13906286D01*
X23006429Y-13906286D02*
X22996905Y-13887238D01*
X22996905Y-13887238D02*
X22996905Y-13877714D01*
X22996905Y-13877714D02*
X23006429Y-13858667D01*
X23006429Y-13858667D02*
X23025476Y-13849143D01*
X23025476Y-13849143D02*
X23054048Y-13849143D01*
X23054048Y-13849143D02*
X23073095Y-13858667D01*
X23149286Y-14058667D02*
X23158810Y-14049143D01*
X23158810Y-14049143D02*
X23177857Y-14020571D01*
X23177857Y-14020571D02*
X23187381Y-14001524D01*
X23187381Y-14001524D02*
X23196905Y-13972952D01*
X23196905Y-13972952D02*
X23206429Y-13925333D01*
X23206429Y-13925333D02*
X23206429Y-13887238D01*
X23206429Y-13887238D02*
X23196905Y-13839619D01*
X23196905Y-13839619D02*
X23187381Y-13811048D01*
X23187381Y-13811048D02*
X23177857Y-13792000D01*
X23177857Y-13792000D02*
X23158810Y-13763428D01*
X23158810Y-13763428D02*
X23149286Y-13753905D01*
X16895000Y-14073000D02*
X16895000Y-14273000D01*
X16795000Y-14173000D02*
X16995000Y-14173000D01*
X17223571Y-14046476D02*
X17347381Y-14046476D01*
X17347381Y-14046476D02*
X17280714Y-14122667D01*
X17280714Y-14122667D02*
X17309286Y-14122667D01*
X17309286Y-14122667D02*
X17328333Y-14132190D01*
X17328333Y-14132190D02*
X17337857Y-14141714D01*
X17337857Y-14141714D02*
X17347381Y-14160762D01*
X17347381Y-14160762D02*
X17347381Y-14208381D01*
X17347381Y-14208381D02*
X17337857Y-14227428D01*
X17337857Y-14227428D02*
X17328333Y-14236952D01*
X17328333Y-14236952D02*
X17309286Y-14246476D01*
X17309286Y-14246476D02*
X17252143Y-14246476D01*
X17252143Y-14246476D02*
X17233095Y-14236952D01*
X17233095Y-14236952D02*
X17223571Y-14227428D01*
X17433095Y-14227428D02*
X17442619Y-14236952D01*
X17442619Y-14236952D02*
X17433095Y-14246476D01*
X17433095Y-14246476D02*
X17423571Y-14236952D01*
X17423571Y-14236952D02*
X17433095Y-14227428D01*
X17433095Y-14227428D02*
X17433095Y-14246476D01*
X17518810Y-14065524D02*
X17528333Y-14056000D01*
X17528333Y-14056000D02*
X17547381Y-14046476D01*
X17547381Y-14046476D02*
X17595000Y-14046476D01*
X17595000Y-14046476D02*
X17614048Y-14056000D01*
X17614048Y-14056000D02*
X17623571Y-14065524D01*
X17623571Y-14065524D02*
X17633095Y-14084571D01*
X17633095Y-14084571D02*
X17633095Y-14103619D01*
X17633095Y-14103619D02*
X17623571Y-14132190D01*
X17623571Y-14132190D02*
X17509286Y-14246476D01*
X17509286Y-14246476D02*
X17633095Y-14246476D01*
X17756905Y-14046476D02*
X17775952Y-14046476D01*
X17775952Y-14046476D02*
X17795000Y-14056000D01*
X17795000Y-14056000D02*
X17804524Y-14065524D01*
X17804524Y-14065524D02*
X17814048Y-14084571D01*
X17814048Y-14084571D02*
X17823571Y-14122667D01*
X17823571Y-14122667D02*
X17823571Y-14170286D01*
X17823571Y-14170286D02*
X17814048Y-14208381D01*
X17814048Y-14208381D02*
X17804524Y-14227428D01*
X17804524Y-14227428D02*
X17795000Y-14236952D01*
X17795000Y-14236952D02*
X17775952Y-14246476D01*
X17775952Y-14246476D02*
X17756905Y-14246476D01*
X17756905Y-14246476D02*
X17737857Y-14236952D01*
X17737857Y-14236952D02*
X17728333Y-14227428D01*
X17728333Y-14227428D02*
X17718810Y-14208381D01*
X17718810Y-14208381D02*
X17709286Y-14170286D01*
X17709286Y-14170286D02*
X17709286Y-14122667D01*
X17709286Y-14122667D02*
X17718810Y-14084571D01*
X17718810Y-14084571D02*
X17728333Y-14065524D01*
X17728333Y-14065524D02*
X17737857Y-14056000D01*
X17737857Y-14056000D02*
X17756905Y-14046476D01*
X17947381Y-14046476D02*
X17966429Y-14046476D01*
X17966429Y-14046476D02*
X17985476Y-14056000D01*
X17985476Y-14056000D02*
X17995000Y-14065524D01*
X17995000Y-14065524D02*
X18004524Y-14084571D01*
X18004524Y-14084571D02*
X18014048Y-14122667D01*
X18014048Y-14122667D02*
X18014048Y-14170286D01*
X18014048Y-14170286D02*
X18004524Y-14208381D01*
X18004524Y-14208381D02*
X17995000Y-14227428D01*
X17995000Y-14227428D02*
X17985476Y-14236952D01*
X17985476Y-14236952D02*
X17966429Y-14246476D01*
X17966429Y-14246476D02*
X17947381Y-14246476D01*
X17947381Y-14246476D02*
X17928333Y-14236952D01*
X17928333Y-14236952D02*
X17918810Y-14227428D01*
X17918810Y-14227428D02*
X17909286Y-14208381D01*
X17909286Y-14208381D02*
X17899762Y-14170286D01*
X17899762Y-14170286D02*
X17899762Y-14122667D01*
X17899762Y-14122667D02*
X17909286Y-14084571D01*
X17909286Y-14084571D02*
X17918810Y-14065524D01*
X17918810Y-14065524D02*
X17928333Y-14056000D01*
X17928333Y-14056000D02*
X17947381Y-14046476D01*
X18099762Y-14246476D02*
X18099762Y-14113143D01*
X18099762Y-14132190D02*
X18109286Y-14122667D01*
X18109286Y-14122667D02*
X18128333Y-14113143D01*
X18128333Y-14113143D02*
X18156905Y-14113143D01*
X18156905Y-14113143D02*
X18175952Y-14122667D01*
X18175952Y-14122667D02*
X18185476Y-14141714D01*
X18185476Y-14141714D02*
X18185476Y-14246476D01*
X18185476Y-14141714D02*
X18195000Y-14122667D01*
X18195000Y-14122667D02*
X18214048Y-14113143D01*
X18214048Y-14113143D02*
X18242619Y-14113143D01*
X18242619Y-14113143D02*
X18261667Y-14122667D01*
X18261667Y-14122667D02*
X18271191Y-14141714D01*
X18271191Y-14141714D02*
X18271191Y-14246476D01*
X18366429Y-14246476D02*
X18366429Y-14113143D01*
X18366429Y-14132190D02*
X18375952Y-14122667D01*
X18375952Y-14122667D02*
X18395000Y-14113143D01*
X18395000Y-14113143D02*
X18423572Y-14113143D01*
X18423572Y-14113143D02*
X18442619Y-14122667D01*
X18442619Y-14122667D02*
X18452143Y-14141714D01*
X18452143Y-14141714D02*
X18452143Y-14246476D01*
X18452143Y-14141714D02*
X18461667Y-14122667D01*
X18461667Y-14122667D02*
X18480714Y-14113143D01*
X18480714Y-14113143D02*
X18509286Y-14113143D01*
X18509286Y-14113143D02*
X18528333Y-14122667D01*
X18528333Y-14122667D02*
X18537857Y-14141714D01*
X18537857Y-14141714D02*
X18537857Y-14246476D01*
X18895952Y-14036952D02*
X18724524Y-14294095D01*
X19120714Y-14046476D02*
X19139762Y-14046476D01*
X19139762Y-14046476D02*
X19158810Y-14056000D01*
X19158810Y-14056000D02*
X19168333Y-14065524D01*
X19168333Y-14065524D02*
X19177857Y-14084571D01*
X19177857Y-14084571D02*
X19187381Y-14122667D01*
X19187381Y-14122667D02*
X19187381Y-14170286D01*
X19187381Y-14170286D02*
X19177857Y-14208381D01*
X19177857Y-14208381D02*
X19168333Y-14227428D01*
X19168333Y-14227428D02*
X19158810Y-14236952D01*
X19158810Y-14236952D02*
X19139762Y-14246476D01*
X19139762Y-14246476D02*
X19120714Y-14246476D01*
X19120714Y-14246476D02*
X19101667Y-14236952D01*
X19101667Y-14236952D02*
X19092143Y-14227428D01*
X19092143Y-14227428D02*
X19082619Y-14208381D01*
X19082619Y-14208381D02*
X19073095Y-14170286D01*
X19073095Y-14170286D02*
X19073095Y-14122667D01*
X19073095Y-14122667D02*
X19082619Y-14084571D01*
X19082619Y-14084571D02*
X19092143Y-14065524D01*
X19092143Y-14065524D02*
X19101667Y-14056000D01*
X19101667Y-14056000D02*
X19120714Y-14046476D01*
X19273095Y-14227428D02*
X19282619Y-14236952D01*
X19282619Y-14236952D02*
X19273095Y-14246476D01*
X19273095Y-14246476D02*
X19263572Y-14236952D01*
X19263572Y-14236952D02*
X19273095Y-14227428D01*
X19273095Y-14227428D02*
X19273095Y-14246476D01*
X19473095Y-14246476D02*
X19358810Y-14246476D01*
X19415952Y-14246476D02*
X19415952Y-14046476D01*
X19415952Y-14046476D02*
X19396905Y-14075048D01*
X19396905Y-14075048D02*
X19377857Y-14094095D01*
X19377857Y-14094095D02*
X19358810Y-14103619D01*
X19549286Y-14065524D02*
X19558810Y-14056000D01*
X19558810Y-14056000D02*
X19577857Y-14046476D01*
X19577857Y-14046476D02*
X19625476Y-14046476D01*
X19625476Y-14046476D02*
X19644524Y-14056000D01*
X19644524Y-14056000D02*
X19654048Y-14065524D01*
X19654048Y-14065524D02*
X19663572Y-14084571D01*
X19663572Y-14084571D02*
X19663572Y-14103619D01*
X19663572Y-14103619D02*
X19654048Y-14132190D01*
X19654048Y-14132190D02*
X19539762Y-14246476D01*
X19539762Y-14246476D02*
X19663572Y-14246476D01*
X19835000Y-14046476D02*
X19796905Y-14046476D01*
X19796905Y-14046476D02*
X19777857Y-14056000D01*
X19777857Y-14056000D02*
X19768333Y-14065524D01*
X19768333Y-14065524D02*
X19749286Y-14094095D01*
X19749286Y-14094095D02*
X19739762Y-14132190D01*
X19739762Y-14132190D02*
X19739762Y-14208381D01*
X19739762Y-14208381D02*
X19749286Y-14227428D01*
X19749286Y-14227428D02*
X19758810Y-14236952D01*
X19758810Y-14236952D02*
X19777857Y-14246476D01*
X19777857Y-14246476D02*
X19815953Y-14246476D01*
X19815953Y-14246476D02*
X19835000Y-14236952D01*
X19835000Y-14236952D02*
X19844524Y-14227428D01*
X19844524Y-14227428D02*
X19854048Y-14208381D01*
X19854048Y-14208381D02*
X19854048Y-14160762D01*
X19854048Y-14160762D02*
X19844524Y-14141714D01*
X19844524Y-14141714D02*
X19835000Y-14132190D01*
X19835000Y-14132190D02*
X19815953Y-14122667D01*
X19815953Y-14122667D02*
X19777857Y-14122667D01*
X19777857Y-14122667D02*
X19758810Y-14132190D01*
X19758810Y-14132190D02*
X19749286Y-14141714D01*
X19749286Y-14141714D02*
X19739762Y-14160762D01*
X19977857Y-14046476D02*
X19996905Y-14046476D01*
X19996905Y-14046476D02*
X20015953Y-14056000D01*
X20015953Y-14056000D02*
X20025476Y-14065524D01*
X20025476Y-14065524D02*
X20035000Y-14084571D01*
X20035000Y-14084571D02*
X20044524Y-14122667D01*
X20044524Y-14122667D02*
X20044524Y-14170286D01*
X20044524Y-14170286D02*
X20035000Y-14208381D01*
X20035000Y-14208381D02*
X20025476Y-14227428D01*
X20025476Y-14227428D02*
X20015953Y-14236952D01*
X20015953Y-14236952D02*
X19996905Y-14246476D01*
X19996905Y-14246476D02*
X19977857Y-14246476D01*
X19977857Y-14246476D02*
X19958810Y-14236952D01*
X19958810Y-14236952D02*
X19949286Y-14227428D01*
X19949286Y-14227428D02*
X19939762Y-14208381D01*
X19939762Y-14208381D02*
X19930238Y-14170286D01*
X19930238Y-14170286D02*
X19930238Y-14122667D01*
X19930238Y-14122667D02*
X19939762Y-14084571D01*
X19939762Y-14084571D02*
X19949286Y-14065524D01*
X19949286Y-14065524D02*
X19958810Y-14056000D01*
X19958810Y-14056000D02*
X19977857Y-14046476D01*
X20120714Y-14046476D02*
X20120714Y-14084571D01*
X20196905Y-14046476D02*
X20196905Y-14084571D01*
X20459762Y-14322667D02*
X20450238Y-14313143D01*
X20450238Y-14313143D02*
X20431191Y-14284571D01*
X20431191Y-14284571D02*
X20421667Y-14265524D01*
X20421667Y-14265524D02*
X20412143Y-14236952D01*
X20412143Y-14236952D02*
X20402619Y-14189333D01*
X20402619Y-14189333D02*
X20402619Y-14151238D01*
X20402619Y-14151238D02*
X20412143Y-14103619D01*
X20412143Y-14103619D02*
X20421667Y-14075048D01*
X20421667Y-14075048D02*
X20431191Y-14056000D01*
X20431191Y-14056000D02*
X20450238Y-14027428D01*
X20450238Y-14027428D02*
X20459762Y-14017905D01*
X20631191Y-14046476D02*
X20535953Y-14046476D01*
X20535953Y-14046476D02*
X20526429Y-14141714D01*
X20526429Y-14141714D02*
X20535953Y-14132190D01*
X20535953Y-14132190D02*
X20555000Y-14122667D01*
X20555000Y-14122667D02*
X20602619Y-14122667D01*
X20602619Y-14122667D02*
X20621667Y-14132190D01*
X20621667Y-14132190D02*
X20631191Y-14141714D01*
X20631191Y-14141714D02*
X20640714Y-14160762D01*
X20640714Y-14160762D02*
X20640714Y-14208381D01*
X20640714Y-14208381D02*
X20631191Y-14227428D01*
X20631191Y-14227428D02*
X20621667Y-14236952D01*
X20621667Y-14236952D02*
X20602619Y-14246476D01*
X20602619Y-14246476D02*
X20555000Y-14246476D01*
X20555000Y-14246476D02*
X20535953Y-14236952D01*
X20535953Y-14236952D02*
X20526429Y-14227428D01*
X20846429Y-14246476D02*
X20846429Y-14046476D01*
X20932143Y-14246476D02*
X20932143Y-14141714D01*
X20932143Y-14141714D02*
X20922619Y-14122667D01*
X20922619Y-14122667D02*
X20903572Y-14113143D01*
X20903572Y-14113143D02*
X20875000Y-14113143D01*
X20875000Y-14113143D02*
X20855953Y-14122667D01*
X20855953Y-14122667D02*
X20846429Y-14132190D01*
X21055953Y-14246476D02*
X21036905Y-14236952D01*
X21036905Y-14236952D02*
X21027381Y-14227428D01*
X21027381Y-14227428D02*
X21017857Y-14208381D01*
X21017857Y-14208381D02*
X21017857Y-14151238D01*
X21017857Y-14151238D02*
X21027381Y-14132190D01*
X21027381Y-14132190D02*
X21036905Y-14122667D01*
X21036905Y-14122667D02*
X21055953Y-14113143D01*
X21055953Y-14113143D02*
X21084524Y-14113143D01*
X21084524Y-14113143D02*
X21103572Y-14122667D01*
X21103572Y-14122667D02*
X21113095Y-14132190D01*
X21113095Y-14132190D02*
X21122619Y-14151238D01*
X21122619Y-14151238D02*
X21122619Y-14208381D01*
X21122619Y-14208381D02*
X21113095Y-14227428D01*
X21113095Y-14227428D02*
X21103572Y-14236952D01*
X21103572Y-14236952D02*
X21084524Y-14246476D01*
X21084524Y-14246476D02*
X21055953Y-14246476D01*
X21236905Y-14246476D02*
X21217857Y-14236952D01*
X21217857Y-14236952D02*
X21208334Y-14217905D01*
X21208334Y-14217905D02*
X21208334Y-14046476D01*
X21389286Y-14236952D02*
X21370238Y-14246476D01*
X21370238Y-14246476D02*
X21332143Y-14246476D01*
X21332143Y-14246476D02*
X21313095Y-14236952D01*
X21313095Y-14236952D02*
X21303572Y-14217905D01*
X21303572Y-14217905D02*
X21303572Y-14141714D01*
X21303572Y-14141714D02*
X21313095Y-14122667D01*
X21313095Y-14122667D02*
X21332143Y-14113143D01*
X21332143Y-14113143D02*
X21370238Y-14113143D01*
X21370238Y-14113143D02*
X21389286Y-14122667D01*
X21389286Y-14122667D02*
X21398810Y-14141714D01*
X21398810Y-14141714D02*
X21398810Y-14160762D01*
X21398810Y-14160762D02*
X21303572Y-14179809D01*
X21475000Y-14236952D02*
X21494048Y-14246476D01*
X21494048Y-14246476D02*
X21532143Y-14246476D01*
X21532143Y-14246476D02*
X21551191Y-14236952D01*
X21551191Y-14236952D02*
X21560715Y-14217905D01*
X21560715Y-14217905D02*
X21560715Y-14208381D01*
X21560715Y-14208381D02*
X21551191Y-14189333D01*
X21551191Y-14189333D02*
X21532143Y-14179809D01*
X21532143Y-14179809D02*
X21503572Y-14179809D01*
X21503572Y-14179809D02*
X21484524Y-14170286D01*
X21484524Y-14170286D02*
X21475000Y-14151238D01*
X21475000Y-14151238D02*
X21475000Y-14141714D01*
X21475000Y-14141714D02*
X21484524Y-14122667D01*
X21484524Y-14122667D02*
X21503572Y-14113143D01*
X21503572Y-14113143D02*
X21532143Y-14113143D01*
X21532143Y-14113143D02*
X21551191Y-14122667D01*
X21627381Y-14322667D02*
X21636905Y-14313143D01*
X21636905Y-14313143D02*
X21655953Y-14284571D01*
X21655953Y-14284571D02*
X21665476Y-14265524D01*
X21665476Y-14265524D02*
X21675000Y-14236952D01*
X21675000Y-14236952D02*
X21684524Y-14189333D01*
X21684524Y-14189333D02*
X21684524Y-14151238D01*
X21684524Y-14151238D02*
X21675000Y-14103619D01*
X21675000Y-14103619D02*
X21665476Y-14075048D01*
X21665476Y-14075048D02*
X21655953Y-14056000D01*
X21655953Y-14056000D02*
X21636905Y-14027428D01*
X21636905Y-14027428D02*
X21627381Y-14017905D01*
M02*
