%TF.GenerationSoftware,KiCad,Pcbnew,(7.0.0)*%
%TF.CreationDate,2023-07-15T19:37:13+02:00*%
%TF.ProjectId,Leistungsteil,4c656973-7475-46e6-9773-7465696c2e6b,rev?*%
%TF.SameCoordinates,Original*%
%TF.FileFunction,Soldermask,Top*%
%TF.FilePolarity,Negative*%
%FSLAX46Y46*%
G04 Gerber Fmt 4.6, Leading zero omitted, Abs format (unit mm)*
G04 Created by KiCad (PCBNEW (7.0.0)) date 2023-07-15 19:37:13*
%MOMM*%
%LPD*%
G01*
G04 APERTURE LIST*
G04 Aperture macros list*
%AMRoundRect*
0 Rectangle with rounded corners*
0 $1 Rounding radius*
0 $2 $3 $4 $5 $6 $7 $8 $9 X,Y pos of 4 corners*
0 Add a 4 corners polygon primitive as box body*
4,1,4,$2,$3,$4,$5,$6,$7,$8,$9,$2,$3,0*
0 Add four circle primitives for the rounded corners*
1,1,$1+$1,$2,$3*
1,1,$1+$1,$4,$5*
1,1,$1+$1,$6,$7*
1,1,$1+$1,$8,$9*
0 Add four rect primitives between the rounded corners*
20,1,$1+$1,$2,$3,$4,$5,0*
20,1,$1+$1,$4,$5,$6,$7,0*
20,1,$1+$1,$6,$7,$8,$9,0*
20,1,$1+$1,$8,$9,$2,$3,0*%
G04 Aperture macros list end*
%ADD10RoundRect,0.135000X-0.185000X0.135000X-0.185000X-0.135000X0.185000X-0.135000X0.185000X0.135000X0*%
%ADD11C,5.500000*%
%ADD12C,3.600000*%
%ADD13RoundRect,0.250000X0.650000X-0.350000X0.650000X0.350000X-0.650000X0.350000X-0.650000X-0.350000X0*%
%ADD14RoundRect,0.150000X0.625000X-0.150000X0.625000X0.150000X-0.625000X0.150000X-0.625000X-0.150000X0*%
%ADD15C,3.200000*%
%ADD16RoundRect,0.100000X-0.130000X-0.100000X0.130000X-0.100000X0.130000X0.100000X-0.130000X0.100000X0*%
%ADD17RoundRect,0.550000X0.550000X-3.200000X0.550000X3.200000X-0.550000X3.200000X-0.550000X-3.200000X0*%
%ADD18RoundRect,0.140000X-0.170000X0.140000X-0.170000X-0.140000X0.170000X-0.140000X0.170000X0.140000X0*%
%ADD19RoundRect,0.100000X0.130000X0.100000X-0.130000X0.100000X-0.130000X-0.100000X0.130000X-0.100000X0*%
%ADD20R,0.610000X1.020000*%
%ADD21R,3.910000X3.810000*%
%ADD22R,0.610000X1.270000*%
%ADD23RoundRect,0.100000X-0.100000X0.130000X-0.100000X-0.130000X0.100000X-0.130000X0.100000X0.130000X0*%
%ADD24RoundRect,0.140000X0.170000X-0.140000X0.170000X0.140000X-0.170000X0.140000X-0.170000X-0.140000X0*%
%ADD25RoundRect,0.250000X-1.100000X0.325000X-1.100000X-0.325000X1.100000X-0.325000X1.100000X0.325000X0*%
%ADD26RoundRect,0.062500X0.117500X0.062500X-0.117500X0.062500X-0.117500X-0.062500X0.117500X-0.062500X0*%
%ADD27RoundRect,0.225000X-0.250000X0.225000X-0.250000X-0.225000X0.250000X-0.225000X0.250000X0.225000X0*%
%ADD28RoundRect,0.140000X0.140000X0.170000X-0.140000X0.170000X-0.140000X-0.170000X0.140000X-0.170000X0*%
%ADD29RoundRect,0.100000X0.100000X-0.130000X0.100000X0.130000X-0.100000X0.130000X-0.100000X-0.130000X0*%
%ADD30R,4.700000X5.075000*%
%ADD31R,0.300000X0.850000*%
%ADD32R,0.850000X0.300000*%
%ADD33RoundRect,0.250000X-1.425000X0.362500X-1.425000X-0.362500X1.425000X-0.362500X1.425000X0.362500X0*%
%ADD34RoundRect,0.225000X-0.625000X0.225000X-0.625000X-0.225000X0.625000X-0.225000X0.625000X0.225000X0*%
%ADD35RoundRect,0.150000X-0.475000X0.150000X-0.475000X-0.150000X0.475000X-0.150000X0.475000X0.150000X0*%
%ADD36R,0.740000X2.400000*%
%ADD37RoundRect,0.335000X0.565000X0.335000X-0.565000X0.335000X-0.565000X-0.335000X0.565000X-0.335000X0*%
%ADD38RoundRect,0.062500X-0.117500X-0.062500X0.117500X-0.062500X0.117500X0.062500X-0.117500X0.062500X0*%
%ADD39RoundRect,0.250000X0.362500X1.425000X-0.362500X1.425000X-0.362500X-1.425000X0.362500X-1.425000X0*%
%ADD40RoundRect,0.135000X0.135000X0.185000X-0.135000X0.185000X-0.135000X-0.185000X0.135000X-0.185000X0*%
%ADD41RoundRect,0.135000X-0.135000X-0.185000X0.135000X-0.185000X0.135000X0.185000X-0.135000X0.185000X0*%
%ADD42RoundRect,0.225000X0.017678X-0.335876X0.335876X-0.017678X-0.017678X0.335876X-0.335876X0.017678X0*%
%ADD43RoundRect,0.100000X-0.021213X-0.162635X0.162635X0.021213X0.021213X0.162635X-0.162635X-0.021213X0*%
%ADD44RoundRect,0.250000X-0.362500X-1.425000X0.362500X-1.425000X0.362500X1.425000X-0.362500X1.425000X0*%
%ADD45RoundRect,0.225000X0.225000X0.250000X-0.225000X0.250000X-0.225000X-0.250000X0.225000X-0.250000X0*%
%ADD46RoundRect,0.200000X0.275000X-0.200000X0.275000X0.200000X-0.275000X0.200000X-0.275000X-0.200000X0*%
%ADD47RoundRect,0.225000X-0.225000X-0.250000X0.225000X-0.250000X0.225000X0.250000X-0.225000X0.250000X0*%
%ADD48RoundRect,0.250000X0.325000X1.100000X-0.325000X1.100000X-0.325000X-1.100000X0.325000X-1.100000X0*%
%ADD49C,1.100000*%
%ADD50C,1.600000*%
%ADD51O,2.100000X1.000000*%
%ADD52O,1.800000X1.000000*%
%ADD53C,0.650000*%
G04 APERTURE END LIST*
D10*
%TO.C,NTC1*%
X208900000Y-111600000D03*
X208900000Y-110580000D03*
%TD*%
D11*
%TO.C,Phase_W1*%
X197500000Y-130000000D03*
D12*
X197500000Y-130000000D03*
%TD*%
D13*
%TO.C,CAN_Con2*%
X208520000Y-101040000D03*
X208520000Y-105640000D03*
D14*
X204645000Y-102340000D03*
X204645000Y-103340000D03*
X204645000Y-104340000D03*
%TD*%
D15*
%TO.C,H4*%
X174500000Y-125500000D03*
%TD*%
D16*
%TO.C,R_Fault1*%
X197620000Y-107200000D03*
X196980000Y-107200000D03*
%TD*%
D17*
%TO.C,L1*%
X191155000Y-96000000D03*
X185155000Y-96000000D03*
%TD*%
D18*
%TO.C,C_LDO2*%
X181300000Y-93380000D03*
X181300000Y-92420000D03*
%TD*%
D19*
%TO.C,C_Filter_W1*%
X201900000Y-108900000D03*
X202540000Y-108900000D03*
%TD*%
D20*
%TO.C,Q_P_W_L1*%
X202129999Y-121664999D03*
X203399999Y-121664999D03*
X204669999Y-121664999D03*
X205939999Y-121664999D03*
D21*
X204034999Y-119559999D03*
D22*
X202129999Y-116199999D03*
X203399999Y-116199999D03*
X204669999Y-116199999D03*
X205939999Y-116199999D03*
%TD*%
D23*
%TO.C,C_Filter_U1*%
X199300000Y-108565000D03*
X199300000Y-107925000D03*
%TD*%
D24*
%TO.C,C_SPI2*%
X196000000Y-101320000D03*
X196000000Y-102280000D03*
%TD*%
%TO.C,C_LDO1*%
X197000000Y-92120000D03*
X197000000Y-93080000D03*
%TD*%
D25*
%TO.C,C_IN6*%
X197500000Y-117875000D03*
X197500000Y-114925000D03*
%TD*%
D15*
%TO.C,H2*%
X205500000Y-94500000D03*
%TD*%
D26*
%TO.C,D1_ESD3*%
X177415000Y-103900000D03*
X176575000Y-103900000D03*
%TD*%
%TO.C,D1_ESD2*%
X177415000Y-102900000D03*
X176575000Y-102900000D03*
%TD*%
D27*
%TO.C,C_5V1*%
X180955000Y-102575000D03*
X180955000Y-101025000D03*
%TD*%
D10*
%TO.C,R_SENS_Temp1*%
X207900000Y-113400000D03*
X207900000Y-112380000D03*
%TD*%
D15*
%TO.C,H1*%
X174500000Y-94500000D03*
%TD*%
D28*
%TO.C,C_FB1*%
X185275000Y-100500000D03*
X186235000Y-100500000D03*
%TD*%
D20*
%TO.C,Q_P_V_H1*%
X194559999Y-119454999D03*
X193289999Y-119454999D03*
X192019999Y-119454999D03*
X190749999Y-119454999D03*
D21*
X192654999Y-121559999D03*
D22*
X194559999Y-124919999D03*
X193289999Y-124919999D03*
X192019999Y-124919999D03*
X190749999Y-124919999D03*
%TD*%
D16*
%TO.C,R_BAT1*%
X171520000Y-107800000D03*
X170880000Y-107800000D03*
%TD*%
D29*
%TO.C,C_Vref1*%
X197300000Y-107980000D03*
X197300000Y-108620000D03*
%TD*%
D20*
%TO.C,Q_P_U_L1*%
X179689999Y-124999999D03*
X180959999Y-124999999D03*
X182229999Y-124999999D03*
X183499999Y-124999999D03*
D21*
X181594999Y-122894999D03*
D22*
X179689999Y-119534999D03*
X180959999Y-119534999D03*
X182229999Y-119534999D03*
X183499999Y-119534999D03*
%TD*%
D16*
%TO.C,R_BAT2*%
X172920000Y-107800000D03*
X172280000Y-107800000D03*
%TD*%
D29*
%TO.C,R_CS2*%
X201050000Y-107900000D03*
X201050000Y-108540000D03*
%TD*%
D11*
%TO.C,Positiv1*%
X210000000Y-118000000D03*
D12*
X210000000Y-118000000D03*
%TD*%
D20*
%TO.C,Q_P_U_H1*%
X177904999Y-116004999D03*
X176634999Y-116004999D03*
X175364999Y-116004999D03*
X174094999Y-116004999D03*
D21*
X175999999Y-118109999D03*
D22*
X177904999Y-121469999D03*
X176634999Y-121469999D03*
X175364999Y-121469999D03*
X174094999Y-121469999D03*
%TD*%
D29*
%TO.C,C_DVDD1*%
X193800000Y-101380000D03*
X193800000Y-102020000D03*
%TD*%
D25*
%TO.C,C_1*%
X181005000Y-107075000D03*
X181005000Y-104125000D03*
%TD*%
D19*
%TO.C,R_RT/SD1*%
X187442500Y-102700000D03*
X188082500Y-102700000D03*
%TD*%
D30*
%TO.C,M1*%
X190904999Y-107349999D03*
D31*
X188154999Y-103899999D03*
X188654999Y-103899999D03*
X189154999Y-103899999D03*
X189654999Y-103899999D03*
X190154999Y-103899999D03*
X190654999Y-103899999D03*
X191154999Y-103899999D03*
X191654999Y-103899999D03*
X192154999Y-103899999D03*
X192654999Y-103899999D03*
X193154999Y-103899999D03*
X193654999Y-103899999D03*
D32*
X194354999Y-104599999D03*
X194354999Y-105099999D03*
X194354999Y-105599999D03*
X194354999Y-106099999D03*
X194354999Y-106599999D03*
X194354999Y-107099999D03*
X194354999Y-107599999D03*
X194354999Y-108099999D03*
X194354999Y-108599999D03*
X194354999Y-109099999D03*
X194354999Y-109599999D03*
X194354999Y-110099999D03*
D31*
X193654999Y-110799999D03*
X193154999Y-110799999D03*
X192654999Y-110799999D03*
X192154999Y-110799999D03*
X191654999Y-110799999D03*
X191154999Y-110799999D03*
X190654999Y-110799999D03*
X190154999Y-110799999D03*
X189654999Y-110799999D03*
X189154999Y-110799999D03*
X188654999Y-110799999D03*
X188154999Y-110799999D03*
D32*
X187454999Y-110099999D03*
X187454999Y-109599999D03*
X187454999Y-109099999D03*
X187454999Y-108599999D03*
X187454999Y-108099999D03*
X187454999Y-107599999D03*
X187454999Y-107099999D03*
X187454999Y-106599999D03*
X187454999Y-106099999D03*
X187454999Y-105599999D03*
X187454999Y-105099999D03*
X187454999Y-104599999D03*
%TD*%
D33*
%TO.C,Rs_P_U1*%
X182100000Y-117662500D03*
X182100000Y-111737500D03*
%TD*%
D16*
%TO.C,D_VBAT1*%
X172920000Y-108500000D03*
X172280000Y-108500000D03*
%TD*%
D15*
%TO.C,H3*%
X205500000Y-125500000D03*
%TD*%
D20*
%TO.C,Q_P_W_H1*%
X200109999Y-119499999D03*
X198839999Y-119499999D03*
X197569999Y-119499999D03*
X196299999Y-119499999D03*
D21*
X198204999Y-121604999D03*
D22*
X200109999Y-124964999D03*
X198839999Y-124964999D03*
X197569999Y-124964999D03*
X196299999Y-124964999D03*
%TD*%
D24*
%TO.C,C_VM1*%
X178900000Y-105120000D03*
X178900000Y-106080000D03*
%TD*%
D34*
%TO.C,JST_SPI1*%
X171775000Y-106450000D03*
X171775000Y-98550000D03*
D35*
X174900000Y-105000000D03*
X174900000Y-104000000D03*
X174900000Y-103000000D03*
X174900000Y-102000000D03*
X174900000Y-101000000D03*
X174900000Y-100000000D03*
%TD*%
D36*
%TO.C,SPI2*%
X200219999Y-98799999D03*
X200219999Y-102699999D03*
X198949999Y-98799999D03*
X198949999Y-102699999D03*
X197679999Y-98799999D03*
X197679999Y-102699999D03*
%TD*%
D19*
%TO.C,R_RCL1*%
X187880000Y-101800000D03*
X188520000Y-101800000D03*
%TD*%
D37*
%TO.C,D1*%
X193855000Y-99050000D03*
X193855000Y-96190000D03*
%TD*%
D18*
%TO.C,C_IN7*%
X190900000Y-102460000D03*
X190900000Y-101500000D03*
%TD*%
D24*
%TO.C,C_VM2*%
X183100000Y-105520000D03*
X183100000Y-106480000D03*
%TD*%
D29*
%TO.C,R_CS1*%
X198600000Y-107925000D03*
X198600000Y-108565000D03*
%TD*%
D38*
%TO.C,D1_ESD5*%
X202025000Y-103340000D03*
X202865000Y-103340000D03*
%TD*%
D39*
%TO.C,Rs_P_V1*%
X185337500Y-116700000D03*
X191262500Y-116700000D03*
%TD*%
D16*
%TO.C,R_SDO_PU1*%
X198420000Y-106300000D03*
X197780000Y-106300000D03*
%TD*%
D24*
%TO.C,C_VCC1*%
X189800000Y-101500000D03*
X189800000Y-102460000D03*
%TD*%
D26*
%TO.C,D1_ESD4*%
X177395000Y-104900000D03*
X176555000Y-104900000D03*
%TD*%
D11*
%TO.C,Phase_V1*%
X190000000Y-130000000D03*
D12*
X190000000Y-130000000D03*
%TD*%
D28*
%TO.C,C_BST1*%
X190075000Y-100500000D03*
X191035000Y-100500000D03*
%TD*%
D40*
%TO.C,R_CAN1*%
X176475000Y-105900000D03*
X177495000Y-105900000D03*
%TD*%
%TO.C,R_FB2*%
X185265000Y-102500000D03*
X186285000Y-102500000D03*
%TD*%
D20*
%TO.C,Q_P_V_L1*%
X185229999Y-125044999D03*
X186499999Y-125044999D03*
X187769999Y-125044999D03*
X189039999Y-125044999D03*
D21*
X187134999Y-122939999D03*
D22*
X185229999Y-119579999D03*
X186499999Y-119579999D03*
X187769999Y-119579999D03*
X189039999Y-119579999D03*
%TD*%
D41*
%TO.C,R_FB1*%
X186265000Y-101500000D03*
X185245000Y-101500000D03*
%TD*%
D16*
%TO.C,C_VM_1*%
X174320000Y-108500000D03*
X173680000Y-108500000D03*
%TD*%
%TO.C,R_VM_1*%
X174320000Y-107800000D03*
X173680000Y-107800000D03*
%TD*%
D11*
%TO.C,Negativ1*%
X170000000Y-118000000D03*
D12*
X170000000Y-118000000D03*
%TD*%
D26*
%TO.C,D1_ESD1*%
X177415000Y-101900000D03*
X176575000Y-101900000D03*
%TD*%
D42*
%TO.C,C_VDRAIN1*%
X183448008Y-108451992D03*
X182351992Y-109548008D03*
%TD*%
D18*
%TO.C,C_SPI1*%
X176575000Y-100880000D03*
X176575000Y-99920000D03*
%TD*%
D43*
%TO.C,R_SCLK1*%
X196726274Y-105673726D03*
X196273726Y-106126274D03*
%TD*%
D25*
%TO.C,C_IN5*%
X193800000Y-117875000D03*
X193800000Y-114925000D03*
%TD*%
D44*
%TO.C,Rs_P_W1*%
X205962500Y-113300000D03*
X200037500Y-113300000D03*
%TD*%
D45*
%TO.C,C_DVDD2*%
X183325000Y-104200000D03*
X184875000Y-104200000D03*
%TD*%
D46*
%TO.C,R_C_s2*%
X183915000Y-100700000D03*
X183915000Y-102350000D03*
%TD*%
D38*
%TO.C,D1_ESD6*%
X202025000Y-102440000D03*
X202865000Y-102440000D03*
%TD*%
D47*
%TO.C,C_PUMP1*%
X185875000Y-105800000D03*
X184325000Y-105800000D03*
%TD*%
D23*
%TO.C,C_Filter_V1*%
X200350000Y-108540000D03*
X200350000Y-107900000D03*
%TD*%
D48*
%TO.C,C_IN4*%
X174525000Y-113400000D03*
X177475000Y-113400000D03*
%TD*%
D11*
%TO.C,Phase_U1*%
X182500000Y-130000000D03*
D12*
X182500000Y-130000000D03*
%TD*%
D18*
%TO.C,C_SENS_Temp1*%
X208910000Y-113430000D03*
X208910000Y-112470000D03*
%TD*%
D46*
%TO.C,R_C_s1*%
X182455000Y-100675000D03*
X182455000Y-102325000D03*
%TD*%
D16*
%TO.C,R_CS3*%
X202540000Y-109600000D03*
X201900000Y-109600000D03*
%TD*%
D49*
%TO.C,J1*%
X179850000Y-94150000D03*
D50*
X199850000Y-94150000D03*
%TD*%
D51*
%TO.C,J7*%
X203299999Y-107829999D03*
D52*
X207479999Y-107829999D03*
D51*
X203299999Y-99189999D03*
D52*
X207479999Y-99189999D03*
D53*
X203800000Y-106400000D03*
X203800000Y-100620000D03*
%TD*%
M02*
