%TF.GenerationSoftware,KiCad,Pcbnew,(7.0.0)*%
%TF.CreationDate,2023-07-15T19:37:13+02:00*%
%TF.ProjectId,Leistungsteil,4c656973-7475-46e6-9773-7465696c2e6b,rev?*%
%TF.SameCoordinates,Original*%
%TF.FileFunction,Copper,L3,Inr*%
%TF.FilePolarity,Positive*%
%FSLAX46Y46*%
G04 Gerber Fmt 4.6, Leading zero omitted, Abs format (unit mm)*
G04 Created by KiCad (PCBNEW (7.0.0)) date 2023-07-15 19:37:13*
%MOMM*%
%LPD*%
G01*
G04 APERTURE LIST*
%TA.AperFunction,ComponentPad*%
%ADD10C,3.600000*%
%TD*%
%TA.AperFunction,ComponentPad*%
%ADD11O,2.100000X1.000000*%
%TD*%
%TA.AperFunction,ComponentPad*%
%ADD12O,1.800000X1.000000*%
%TD*%
%TA.AperFunction,ViaPad*%
%ADD13C,0.450000*%
%TD*%
%TA.AperFunction,ViaPad*%
%ADD14C,0.600000*%
%TD*%
%TA.AperFunction,Conductor*%
%ADD15C,0.250000*%
%TD*%
%TA.AperFunction,Conductor*%
%ADD16C,0.100000*%
%TD*%
%TA.AperFunction,Conductor*%
%ADD17C,0.125000*%
%TD*%
G04 APERTURE END LIST*
D10*
%TO.N,Phase_W_Source_H*%
%TO.C,Phase_W1*%
X197500000Y-130000000D03*
%TD*%
%TO.N,+BATT*%
%TO.C,Positiv1*%
X210000000Y-118000000D03*
%TD*%
%TO.N,Phase_V_Source_H*%
%TO.C,Phase_V1*%
X190000000Y-130000000D03*
%TD*%
%TO.N,Phase_U_GND*%
%TO.C,Negativ1*%
X170000000Y-118000000D03*
%TD*%
%TO.N,Phase_U_Source_H*%
%TO.C,Phase_U1*%
X182500000Y-130000000D03*
%TD*%
D11*
%TO.N,unconnected-(J7-SHIELD-PadS1)*%
%TO.C,J7*%
X203299999Y-107829999D03*
D12*
X207479999Y-107829999D03*
D11*
X203299999Y-99189999D03*
D12*
X207479999Y-99189999D03*
%TD*%
D13*
%TO.N,Phase_U_GND*%
X177000000Y-114500000D03*
X201600000Y-100300000D03*
X181250000Y-111250000D03*
X179000000Y-112750000D03*
X197600000Y-98500000D03*
X178250000Y-110500000D03*
X179750000Y-112000000D03*
X190250000Y-109250000D03*
X177300000Y-109400000D03*
X189500000Y-108500000D03*
X178500000Y-103250000D03*
X181400000Y-95500000D03*
X192500000Y-108500000D03*
X194750000Y-115000000D03*
X193750000Y-99250000D03*
X180000000Y-97750000D03*
X191500000Y-117250000D03*
X205900000Y-104300000D03*
X190250000Y-106250000D03*
X194750000Y-116000000D03*
X187700000Y-93900000D03*
X197850000Y-107800000D03*
X193000000Y-95000000D03*
X193750000Y-100250000D03*
D14*
X199200000Y-113300000D03*
D13*
X194000000Y-115000000D03*
X198000000Y-114000000D03*
X178250000Y-111250000D03*
D14*
X186800000Y-113100000D03*
D13*
X191000000Y-108500000D03*
X172800000Y-101100000D03*
X190250000Y-107000000D03*
X188750000Y-106250000D03*
X181250000Y-110500000D03*
X180500000Y-111250000D03*
D14*
X186100000Y-111400000D03*
D13*
X180000000Y-96250000D03*
D14*
X182100000Y-112400000D03*
D13*
X191750000Y-106250000D03*
X178250000Y-112750000D03*
X198750000Y-116000000D03*
X201100000Y-109250000D03*
X196500000Y-116000000D03*
X191000000Y-107750000D03*
X183250000Y-104500000D03*
X180000000Y-97000000D03*
X175100000Y-108500000D03*
X194000000Y-116000000D03*
X190250000Y-108500000D03*
X197250000Y-114000000D03*
X182750000Y-111250000D03*
X191750000Y-109250000D03*
X178250000Y-113500000D03*
X179000000Y-112000000D03*
X179750000Y-112750000D03*
X192500000Y-106250000D03*
X192500000Y-115000000D03*
X208400000Y-113430000D03*
X189500000Y-107000000D03*
X189500000Y-107750000D03*
X195500000Y-96000000D03*
X182400000Y-95500000D03*
X179750000Y-111250000D03*
X194300000Y-93200000D03*
X182500000Y-103750000D03*
X199500000Y-116000000D03*
X191000000Y-107000000D03*
X179000000Y-111250000D03*
X191750000Y-105500000D03*
X178000000Y-100500000D03*
X192800000Y-93600000D03*
X197600000Y-99300000D03*
X192500000Y-109250000D03*
X179250000Y-103250000D03*
X189500000Y-105500000D03*
X195600000Y-98000000D03*
X195400000Y-101300000D03*
X191000000Y-106250000D03*
X203900000Y-109600000D03*
X191000000Y-109250000D03*
X180000000Y-95500000D03*
X173200000Y-106400000D03*
X189800000Y-101500000D03*
X191750000Y-115000000D03*
X191750000Y-108500000D03*
X192500000Y-107750000D03*
X200000000Y-95900000D03*
X193600000Y-93600000D03*
X199500000Y-115250000D03*
X198750000Y-114000000D03*
X191750000Y-107750000D03*
X177500000Y-112000000D03*
X197250000Y-116000000D03*
X199000000Y-92600000D03*
X187800000Y-95600000D03*
X190250000Y-107750000D03*
X179750000Y-110500000D03*
X177500000Y-112750000D03*
X182500000Y-104500000D03*
X189500000Y-106250000D03*
X180500000Y-110500000D03*
X182000000Y-111250000D03*
X191000000Y-115000000D03*
X200800000Y-100600000D03*
X178250000Y-112000000D03*
X183150000Y-93850000D03*
X198500000Y-112750000D03*
X177500000Y-111250000D03*
X187400000Y-98700000D03*
X191000000Y-105500000D03*
X198000000Y-116000000D03*
X189500000Y-109250000D03*
X190900000Y-101500000D03*
D14*
X190300000Y-116700000D03*
D13*
X199500000Y-105600000D03*
X193250000Y-115000000D03*
X192500000Y-116000000D03*
D14*
X199800000Y-108545000D03*
D13*
X192500000Y-105500000D03*
X191000000Y-115750000D03*
X201800000Y-107300000D03*
X199250000Y-112250000D03*
X196600000Y-92200000D03*
X183500000Y-111250000D03*
X199500000Y-114500000D03*
X193250000Y-116000000D03*
X193750000Y-101000000D03*
X189000000Y-98000000D03*
X179000000Y-110500000D03*
X191750000Y-107000000D03*
D14*
X195700000Y-111800000D03*
D13*
X183250000Y-103750000D03*
X192500000Y-107000000D03*
X182400000Y-99600000D03*
X190250000Y-105500000D03*
X191500000Y-116500000D03*
X187100000Y-101700000D03*
X191750000Y-115750000D03*
%TO.N,+BATT*%
X193500000Y-119750000D03*
X190500000Y-122000000D03*
X175250000Y-117250000D03*
X196750000Y-117750000D03*
X177500000Y-117250000D03*
X192000000Y-122750000D03*
X176000000Y-118750000D03*
X187278750Y-102521250D03*
X196750000Y-123000000D03*
X194250000Y-122750000D03*
X174500000Y-119500000D03*
X199000000Y-121500000D03*
X192000000Y-122000000D03*
X180750000Y-107250000D03*
X193500000Y-122750000D03*
X176750000Y-118750000D03*
X194500000Y-117750000D03*
X176750000Y-117250000D03*
X191250000Y-121250000D03*
X199750000Y-122250000D03*
X174500000Y-117250000D03*
X198250000Y-122250000D03*
X197500000Y-120750000D03*
X198250000Y-120000000D03*
X176000000Y-116500000D03*
X199000000Y-120750000D03*
X176750000Y-118000000D03*
X192750000Y-122000000D03*
X175250000Y-118000000D03*
X191250000Y-120500000D03*
X197500000Y-121500000D03*
X177500000Y-118750000D03*
X192750000Y-122750000D03*
X176000000Y-118000000D03*
X174500000Y-118750000D03*
X176000000Y-119500000D03*
X176750000Y-119500000D03*
X191250000Y-119750000D03*
X199750000Y-120000000D03*
X176000000Y-117250000D03*
X197500000Y-123000000D03*
X173000000Y-112000000D03*
X198250000Y-120750000D03*
X199000000Y-120000000D03*
X196750000Y-122250000D03*
X176750000Y-116500000D03*
X198250000Y-121500000D03*
X194250000Y-121250000D03*
X177250000Y-108000000D03*
X190500000Y-120500000D03*
X191250000Y-122000000D03*
X197500000Y-120000000D03*
X192750000Y-119750000D03*
X194250000Y-120500000D03*
X190500000Y-122750000D03*
X193250000Y-117750000D03*
X193500000Y-120500000D03*
X199750000Y-123000000D03*
X177500000Y-116500000D03*
X177500000Y-118000000D03*
X198250000Y-123000000D03*
X174500000Y-116500000D03*
X199750000Y-121500000D03*
X194250000Y-122000000D03*
X197500000Y-122250000D03*
X192000000Y-120500000D03*
X198250000Y-117750000D03*
X199000000Y-122250000D03*
X192000000Y-121250000D03*
X175250000Y-116500000D03*
X190500000Y-121250000D03*
X192750000Y-120500000D03*
X193500000Y-122000000D03*
X175250000Y-119500000D03*
X194250000Y-119750000D03*
X196750000Y-120000000D03*
X192000000Y-119750000D03*
X193500000Y-121250000D03*
X196750000Y-120750000D03*
X190500000Y-119750000D03*
X199000000Y-123000000D03*
X181500000Y-107250000D03*
X174500000Y-115250000D03*
X199750000Y-120750000D03*
X191250000Y-122750000D03*
X196750000Y-121500000D03*
X192750000Y-121250000D03*
X175250000Y-118750000D03*
X190900000Y-102450000D03*
X177750000Y-108500000D03*
X177500000Y-119500000D03*
X172250000Y-112000000D03*
X174500000Y-118000000D03*
%TO.N,+5V*%
X180750000Y-109000000D03*
X180750000Y-108250000D03*
X187750000Y-101000000D03*
X181500000Y-108250000D03*
X181500000Y-109000000D03*
X188500000Y-101000000D03*
X188500000Y-100250000D03*
%TO.N,ADC1_-*%
X198500000Y-107250000D03*
X187000000Y-95600000D03*
%TO.N,ADC1_+*%
X187750000Y-94850000D03*
X200350000Y-107900000D03*
%TO.N,ADC2_-*%
X203000000Y-109250000D03*
X188550000Y-95550000D03*
%TO.N,+3V3*%
X198400000Y-94600000D03*
X181750000Y-105250000D03*
X181000000Y-105250000D03*
X181000000Y-90750000D03*
X198400000Y-93800000D03*
X175400000Y-107600000D03*
X197700000Y-103500000D03*
X179500000Y-90750000D03*
X181000000Y-106000000D03*
X199500000Y-106900000D03*
X180250000Y-90750000D03*
X181750000Y-106000000D03*
X206900000Y-110300000D03*
X197900000Y-108600000D03*
X177750000Y-107000000D03*
X171700000Y-108500000D03*
X208900000Y-109800000D03*
X179500000Y-91500000D03*
X180250000Y-92250000D03*
X179500000Y-92250000D03*
X174300000Y-109900000D03*
X175250000Y-98250000D03*
%TO.N,ADC321_4*%
X175900000Y-110200000D03*
X183100000Y-95500000D03*
%TO.N,ADC1_3*%
X174600000Y-106500000D03*
X180900000Y-94900000D03*
%TO.N,ADC2_3*%
X182350000Y-93900000D03*
X205600000Y-109900000D03*
%TO.N,ADC3_2*%
X207900000Y-111600000D03*
X183500000Y-93200000D03*
%TO.N,ADC3_1*%
X182050000Y-94800000D03*
X173300000Y-108100000D03*
%TO.N,SPI_1_MOSI*%
X188100000Y-99000000D03*
X173700000Y-102000000D03*
%TO.N,SPI_1_SCLK*%
X173700000Y-103000000D03*
X186800000Y-98100000D03*
%TO.N,SPI_1_MISO*%
X173700000Y-104000000D03*
X187900000Y-98200000D03*
%TO.N,SPI_1_CS*%
X173700000Y-105000000D03*
X186800000Y-99100000D03*
%TO.N,LPUART TX*%
X205900000Y-103300000D03*
X195700000Y-92600000D03*
%TO.N,LPUART RX*%
X195400000Y-93400000D03*
X205900000Y-102400000D03*
%TO.N,CAN_TX*%
X183400000Y-98700000D03*
X186700000Y-94300000D03*
%TO.N,CAN_RX*%
X184400000Y-101500000D03*
X186700000Y-93500000D03*
%TO.N,PWM_U_N*%
X195200000Y-105100000D03*
X189600000Y-95000000D03*
%TO.N,PWM_U_P*%
X195800000Y-105600000D03*
X188800000Y-94350000D03*
%TO.N,PWM_V_N*%
X194300000Y-103900000D03*
X189600000Y-94200000D03*
%TO.N,PWM_V_P*%
X195900000Y-104600000D03*
X188600000Y-92700000D03*
%TO.N,PWM_W_N*%
X189600000Y-93400000D03*
X194800000Y-102600000D03*
%TO.N,PWM_W_P*%
X189600000Y-92700000D03*
X194100000Y-103100000D03*
%TO.N,UART8_TX*%
X194200000Y-94100000D03*
%TO.N,I2C_SDA*%
X195200000Y-106100000D03*
%TO.N,SPI_2_CS*%
X195300000Y-100500000D03*
X195700000Y-106600000D03*
%TO.N,SPI_2_MOSI*%
X195500000Y-98700000D03*
%TO.N,TIM1_BKIN*%
X196500000Y-107700000D03*
X193300000Y-92900000D03*
%TO.N,SPI_2_MISO*%
X197700000Y-106300000D03*
X198950000Y-98800000D03*
X193600000Y-94600000D03*
%TO.N,SPI_2_SCLK*%
X194900000Y-98000000D03*
%TO.N,Phase_U_Source_H*%
X182500000Y-122750000D03*
X175000000Y-122000000D03*
X176500000Y-121250000D03*
X181750000Y-123500000D03*
X175750000Y-121250000D03*
X182500000Y-123500000D03*
X182500000Y-124250000D03*
X175750000Y-122000000D03*
X183250000Y-122750000D03*
X180250000Y-124250000D03*
X174250000Y-122000000D03*
X181750000Y-122750000D03*
X174250000Y-121250000D03*
X172750000Y-122000000D03*
X173500000Y-122000000D03*
X173500000Y-121250000D03*
X180250000Y-123500000D03*
X176500000Y-122000000D03*
X172750000Y-121250000D03*
X175000000Y-121250000D03*
X173200000Y-110900000D03*
X181000000Y-123500000D03*
X183250000Y-124250000D03*
X181750000Y-124250000D03*
X183250000Y-123500000D03*
X181000000Y-124250000D03*
D14*
%TO.N,Phase_V_Source_L*%
X186000000Y-113700000D03*
X186000000Y-116700000D03*
D13*
%TO.N,Phase_V_Source_H*%
X185500000Y-124250000D03*
X191000000Y-124750000D03*
X188500000Y-124250000D03*
X188500000Y-123500000D03*
X187000000Y-124250000D03*
X185500000Y-123500000D03*
X187750000Y-124250000D03*
X192500000Y-125500000D03*
X191750000Y-125500000D03*
X193250000Y-124750000D03*
X186250000Y-123500000D03*
X187135000Y-122940000D03*
X191000000Y-125500000D03*
X192500000Y-124750000D03*
X186250000Y-124250000D03*
X176900000Y-106700000D03*
X191750000Y-124750000D03*
X187750000Y-123500000D03*
X193250000Y-125500000D03*
%TO.N,Phase_W_Source_H*%
X203500000Y-118000000D03*
X196500000Y-125500000D03*
X198000000Y-124750000D03*
X196500000Y-124750000D03*
X197250000Y-124750000D03*
X198000000Y-125500000D03*
X197250000Y-125500000D03*
X198750000Y-124750000D03*
X203500000Y-120250000D03*
X205750000Y-121000000D03*
X203500000Y-121000000D03*
X207800000Y-110400000D03*
X204250000Y-121000000D03*
X204250000Y-120250000D03*
X205750000Y-120250000D03*
X204250000Y-121750000D03*
X205000000Y-121000000D03*
X198750000Y-125500000D03*
X203500000Y-121750000D03*
X205000000Y-120250000D03*
%TD*%
D15*
%TO.N,Phase_U_GND*%
X186800000Y-113100000D02*
X190300000Y-116600000D01*
X199200000Y-113300000D02*
X197200000Y-113300000D01*
X197200000Y-113300000D02*
X195700000Y-111800000D01*
X185100000Y-112400000D02*
X186100000Y-111400000D01*
X190300000Y-116600000D02*
X190300000Y-116700000D01*
X182100000Y-112400000D02*
X185100000Y-112400000D01*
D16*
%TO.N,ADC321_4*%
X173200000Y-100000000D02*
X172100000Y-101100000D01*
X181200000Y-100000000D02*
X173200000Y-100000000D01*
X172100000Y-104800000D02*
X173100000Y-105800000D01*
X172100000Y-101100000D02*
X172100000Y-104800000D01*
X183100000Y-95500000D02*
X183100000Y-98100000D01*
X175000000Y-105800000D02*
X175900000Y-106700000D01*
X173100000Y-105800000D02*
X175000000Y-105800000D01*
X183100000Y-98100000D02*
X181200000Y-100000000D01*
X175900000Y-106700000D02*
X175900000Y-110200000D01*
%TO.N,ADC1_3*%
X180900000Y-98100000D02*
X180100000Y-98900000D01*
X171200000Y-100600000D02*
X171200000Y-107000000D01*
X173000000Y-108800000D02*
X173800000Y-108800000D01*
X180900000Y-94900000D02*
X180900000Y-98100000D01*
X180100000Y-98900000D02*
X172900000Y-98900000D01*
X172900000Y-98900000D02*
X171200000Y-100600000D01*
X174600000Y-108000000D02*
X174600000Y-106500000D01*
X173800000Y-108800000D02*
X174600000Y-108000000D01*
X171200000Y-107000000D02*
X173000000Y-108800000D01*
%TO.N,ADC2_3*%
X182350000Y-93900000D02*
X182350000Y-91450000D01*
X203800000Y-97900000D02*
X205000000Y-97900000D01*
X205000000Y-97900000D02*
X205900000Y-98800000D01*
X205600000Y-107700000D02*
X205600000Y-109900000D01*
X207700000Y-101500000D02*
X207700000Y-105600000D01*
X182800000Y-91000000D02*
X200600000Y-91000000D01*
X200600000Y-91000000D02*
X202000000Y-92400000D01*
X182350000Y-91450000D02*
X182800000Y-91000000D01*
X207700000Y-105600000D02*
X205600000Y-107700000D01*
X202000000Y-92400000D02*
X202000000Y-96100000D01*
X205900000Y-98800000D02*
X205900000Y-99700000D01*
X202000000Y-96100000D02*
X203800000Y-97900000D01*
X205900000Y-99700000D02*
X207700000Y-101500000D01*
%TO.N,ADC3_2*%
X205900000Y-110600000D02*
X206200000Y-110300000D01*
X205300000Y-98800000D02*
X205300000Y-99700000D01*
X205100000Y-110600000D02*
X205900000Y-110600000D01*
X201400000Y-96200000D02*
X203500000Y-98300000D01*
X206200000Y-110300000D02*
X206200000Y-110000000D01*
X208000000Y-109700000D02*
X208400000Y-110100000D01*
X200600000Y-91600000D02*
X201400000Y-92400000D01*
X206500000Y-109700000D02*
X208000000Y-109700000D01*
X183500000Y-93200000D02*
X183500000Y-92000000D01*
X204800000Y-107400000D02*
X204800000Y-110300000D01*
X207300000Y-104900000D02*
X204800000Y-107400000D01*
X183500000Y-92000000D02*
X183900000Y-91600000D01*
X204800000Y-98300000D02*
X205300000Y-98800000D01*
X208400000Y-110100000D02*
X208400000Y-111100000D01*
X207300000Y-101700000D02*
X207300000Y-104900000D01*
X203500000Y-98300000D02*
X204800000Y-98300000D01*
X208400000Y-111100000D02*
X207900000Y-111600000D01*
X206200000Y-110000000D02*
X206500000Y-109700000D01*
X204800000Y-110300000D02*
X205100000Y-110600000D01*
X201400000Y-92400000D02*
X201400000Y-96200000D01*
X205300000Y-99700000D02*
X207300000Y-101700000D01*
X183900000Y-91600000D02*
X200600000Y-91600000D01*
%TO.N,ADC3_1*%
X181900000Y-98000000D02*
X180400000Y-99500000D01*
X172900000Y-99500000D02*
X171700000Y-100700000D01*
X180400000Y-99500000D02*
X172900000Y-99500000D01*
X171700000Y-100700000D02*
X171700000Y-106500000D01*
X181900000Y-94950000D02*
X181900000Y-98000000D01*
X171700000Y-106500000D02*
X173300000Y-108100000D01*
X182050000Y-94800000D02*
X181900000Y-94950000D01*
%TO.N,SPI_1_MOSI*%
X184900000Y-102200000D02*
X173900000Y-102200000D01*
X188100000Y-99000000D02*
X184900000Y-102200000D01*
X173900000Y-102200000D02*
X173700000Y-102000000D01*
%TO.N,SPI_1_SCLK*%
X186800000Y-98100000D02*
X186400000Y-98500000D01*
X173300000Y-103000000D02*
X173700000Y-103000000D01*
X172900000Y-101700000D02*
X172900000Y-102600000D01*
X173500000Y-101100000D02*
X172900000Y-101700000D01*
X186400000Y-98500000D02*
X184900000Y-98500000D01*
X182300000Y-101100000D02*
X173500000Y-101100000D01*
X172900000Y-102600000D02*
X173300000Y-103000000D01*
X184900000Y-98500000D02*
X182300000Y-101100000D01*
%TO.N,SPI_1_MISO*%
X177200000Y-102700000D02*
X175900000Y-104000000D01*
X188700000Y-98400000D02*
X188700000Y-99400000D01*
X188500000Y-98200000D02*
X188700000Y-98400000D01*
X185400000Y-102700000D02*
X177200000Y-102700000D01*
X187900000Y-98200000D02*
X188500000Y-98200000D01*
X175900000Y-104000000D02*
X173700000Y-104000000D01*
X188700000Y-99400000D02*
X185400000Y-102700000D01*
%TO.N,SPI_1_CS*%
X174100000Y-102500000D02*
X174300000Y-102700000D01*
X173400000Y-102500000D02*
X174100000Y-102500000D01*
X174300000Y-103200000D02*
X174000000Y-103500000D01*
X173500000Y-101500000D02*
X173200000Y-101800000D01*
X173200000Y-101800000D02*
X173200000Y-102300000D01*
X174000000Y-103500000D02*
X173300000Y-103500000D01*
X173300000Y-103500000D02*
X173100000Y-103700000D01*
X174300000Y-102700000D02*
X174300000Y-103200000D01*
X185200000Y-99100000D02*
X182800000Y-101500000D01*
X173100000Y-104400000D02*
X173700000Y-105000000D01*
X173100000Y-103700000D02*
X173100000Y-104400000D01*
X173200000Y-102300000D02*
X173400000Y-102500000D01*
X186800000Y-99100000D02*
X185200000Y-99100000D01*
X182800000Y-101500000D02*
X173500000Y-101500000D01*
%TO.N,LPUART TX*%
X206400000Y-102100000D02*
X206400000Y-102800000D01*
X203790460Y-101500000D02*
X205800000Y-101500000D01*
X206400000Y-102800000D02*
X205900000Y-103300000D01*
X201700000Y-98600000D02*
X201700000Y-99400000D01*
X195700000Y-92600000D02*
X201700000Y-98600000D01*
X202300000Y-100000000D02*
X202300000Y-100009540D01*
X201700000Y-99400000D02*
X202300000Y-100000000D01*
X205800000Y-101500000D02*
X206400000Y-102100000D01*
X202300000Y-100009540D02*
X203790460Y-101500000D01*
%TO.N,LPUART RX*%
X201800000Y-99900000D02*
X201100000Y-99200000D01*
X201100000Y-99200000D02*
X201100000Y-98600000D01*
X204300000Y-102400000D02*
X201800000Y-99900000D01*
X201100000Y-98600000D02*
X195900000Y-93400000D01*
X205900000Y-102400000D02*
X204300000Y-102400000D01*
X195900000Y-93400000D02*
X195400000Y-93400000D01*
%TO.N,CAN_TX*%
X183400000Y-96700000D02*
X183400000Y-98700000D01*
X185800000Y-94300000D02*
X183400000Y-96700000D01*
X186700000Y-94300000D02*
X185800000Y-94300000D01*
%TO.N,PWM_U_N*%
X195200000Y-105100000D02*
X193600000Y-105100000D01*
X190000000Y-95400000D02*
X189600000Y-95000000D01*
X190000000Y-98250000D02*
X190000000Y-95400000D01*
X192500000Y-100750000D02*
X190000000Y-98250000D01*
X192500000Y-104000000D02*
X192500000Y-100750000D01*
X193600000Y-105100000D02*
X192500000Y-104000000D01*
%TO.N,PWM_U_P*%
X189500000Y-95700000D02*
X189500000Y-98500000D01*
X189500000Y-98500000D02*
X192000000Y-101000000D01*
X193350000Y-105600000D02*
X195800000Y-105600000D01*
X192000000Y-101000000D02*
X192000000Y-104250000D01*
X188800000Y-94350000D02*
X188800000Y-95000000D01*
X188800000Y-95000000D02*
X189500000Y-95700000D01*
X192000000Y-104250000D02*
X193350000Y-105600000D01*
%TO.N,PWM_V_N*%
X190500000Y-94800000D02*
X189900000Y-94200000D01*
X194300000Y-103900000D02*
X193500000Y-103900000D01*
X193000000Y-100500000D02*
X190500000Y-98000000D01*
X190500000Y-98000000D02*
X190500000Y-94800000D01*
X189900000Y-94200000D02*
X189600000Y-94200000D01*
X193000000Y-103400000D02*
X193000000Y-100500000D01*
X193500000Y-103900000D02*
X193000000Y-103400000D01*
%TO.N,PWM_V_P*%
X195300000Y-101700000D02*
X194800000Y-101700000D01*
X192000000Y-94400000D02*
X189700000Y-92100000D01*
X195900000Y-102300000D02*
X195300000Y-101700000D01*
X195900000Y-104600000D02*
X195900000Y-102300000D01*
X194800000Y-101700000D02*
X194600000Y-101500000D01*
X194000000Y-98100000D02*
X192700000Y-98100000D01*
X192000000Y-97400000D02*
X192000000Y-94400000D01*
X192700000Y-98100000D02*
X192000000Y-97400000D01*
X194600000Y-98700000D02*
X194000000Y-98100000D01*
X194600000Y-101500000D02*
X194600000Y-98700000D01*
X189700000Y-92100000D02*
X189200000Y-92100000D01*
X189200000Y-92100000D02*
X188600000Y-92700000D01*
%TO.N,PWM_W_N*%
X191000000Y-97800000D02*
X193300000Y-100100000D01*
X193300000Y-102000000D02*
X193900000Y-102600000D01*
X193300000Y-100100000D02*
X193300000Y-102000000D01*
X193900000Y-102600000D02*
X194800000Y-102600000D01*
X189600000Y-93400000D02*
X191000000Y-94800000D01*
X191000000Y-94800000D02*
X191000000Y-97800000D01*
%TO.N,PWM_W_P*%
X195300000Y-102900000D02*
X195000000Y-103200000D01*
X191500000Y-94600000D02*
X191500000Y-97600000D01*
X195000000Y-102000000D02*
X195300000Y-102300000D01*
X194600000Y-102000000D02*
X195000000Y-102000000D01*
X193800000Y-98500000D02*
X194200000Y-98900000D01*
X192400000Y-98500000D02*
X193800000Y-98500000D01*
X194200000Y-103200000D02*
X194100000Y-103100000D01*
X194200000Y-101600000D02*
X194600000Y-102000000D01*
X194200000Y-98900000D02*
X194200000Y-101600000D01*
X189600000Y-92700000D02*
X191500000Y-94600000D01*
X195000000Y-103200000D02*
X194200000Y-103200000D01*
X195300000Y-102300000D02*
X195300000Y-102900000D01*
X191500000Y-97600000D02*
X192400000Y-98500000D01*
%TO.N,SPI_2_CS*%
X196800000Y-105500000D02*
X195700000Y-106600000D01*
X196800000Y-102000000D02*
X196800000Y-105500000D01*
X195300000Y-100500000D02*
X196800000Y-102000000D01*
%TO.N,TIM1_BKIN*%
X196500000Y-106300000D02*
X197100000Y-105700000D01*
X192400000Y-92900000D02*
X193300000Y-92900000D01*
X192100000Y-93800000D02*
X192100000Y-93200000D01*
X196500000Y-107700000D02*
X196500000Y-106300000D01*
X197100000Y-105700000D02*
X197100000Y-103900000D01*
X197100000Y-103900000D02*
X197100000Y-98600000D01*
X192500000Y-96700000D02*
X192500000Y-94200000D01*
X193000000Y-97200000D02*
X192500000Y-96700000D01*
X197100000Y-98600000D02*
X195700000Y-97200000D01*
X195700000Y-97200000D02*
X193000000Y-97200000D01*
X192500000Y-94200000D02*
X192100000Y-93800000D01*
X192100000Y-93200000D02*
X192400000Y-92900000D01*
%TO.N,SPI_2_MISO*%
X198200000Y-105800000D02*
X198200000Y-99550000D01*
X198200000Y-99550000D02*
X198950000Y-98800000D01*
X197700000Y-106300000D02*
X198200000Y-105800000D01*
D17*
%TO.N,Phase_U_Source_H*%
X179000000Y-115600000D02*
X174800000Y-111400000D01*
X173600000Y-111300000D02*
X173200000Y-110900000D01*
X179000000Y-121500000D02*
X179000000Y-119800000D01*
X180250000Y-122750000D02*
X180100000Y-122600000D01*
X180100000Y-122600000D02*
X179000000Y-121500000D01*
X179000000Y-119800000D02*
X179000000Y-115600000D01*
X174800000Y-111400000D02*
X174700000Y-111300000D01*
X181750000Y-122750000D02*
X180250000Y-122750000D01*
X174700000Y-111300000D02*
X173600000Y-111300000D01*
D15*
%TO.N,Phase_V_Source_L*%
X186000000Y-113700000D02*
X186000000Y-116700000D01*
D17*
%TO.N,Phase_V_Source_H*%
X179400000Y-115500000D02*
X176700000Y-112800000D01*
X184100000Y-120600000D02*
X180000000Y-120600000D01*
X179400000Y-120000000D02*
X179400000Y-115500000D01*
X180000000Y-120600000D02*
X179400000Y-120000000D01*
X176700000Y-106900000D02*
X176900000Y-106700000D01*
X186440000Y-122940000D02*
X184100000Y-120600000D01*
X176700000Y-112800000D02*
X176700000Y-106900000D01*
X187135000Y-122940000D02*
X186440000Y-122940000D01*
%TO.N,Phase_W_Source_H*%
X203500000Y-118000000D02*
X201600000Y-118000000D01*
X201600000Y-118000000D02*
X201400000Y-117800000D01*
X201700000Y-111600000D02*
X202300000Y-111000000D01*
X202300000Y-111000000D02*
X207200000Y-111000000D01*
X201700000Y-114900000D02*
X201700000Y-111600000D01*
X201400000Y-117800000D02*
X201400000Y-115200000D01*
X207200000Y-111000000D02*
X207800000Y-110400000D01*
X201400000Y-115200000D02*
X201700000Y-114900000D01*
%TD*%
%TA.AperFunction,Conductor*%
%TO.N,Phase_V_Source_H*%
G36*
X189026623Y-122703373D02*
G01*
X189050500Y-122713263D01*
X189071004Y-122728996D01*
X189086737Y-122749500D01*
X189096627Y-122773377D01*
X189100000Y-122799000D01*
X189100000Y-123500000D01*
X189900000Y-124300000D01*
X193401000Y-124300000D01*
X193426623Y-124303373D01*
X193450500Y-124313263D01*
X193471004Y-124328996D01*
X193486737Y-124349500D01*
X193496627Y-124373377D01*
X193500000Y-124399000D01*
X193500000Y-129800500D01*
X193496627Y-129826123D01*
X193486737Y-129850000D01*
X193471004Y-129870504D01*
X193450500Y-129886237D01*
X193426623Y-129896127D01*
X193401000Y-129899500D01*
X186599000Y-129899500D01*
X186573377Y-129896127D01*
X186549500Y-129886237D01*
X186528996Y-129870504D01*
X186513263Y-129850000D01*
X186503373Y-129826123D01*
X186500000Y-129800500D01*
X186500000Y-127756487D01*
X186500000Y-127750000D01*
X184528996Y-125778996D01*
X184513263Y-125758492D01*
X184503373Y-125734615D01*
X184500000Y-125708992D01*
X184500000Y-122841008D01*
X184503373Y-122815385D01*
X184513263Y-122791508D01*
X184528996Y-122771004D01*
X184571004Y-122728996D01*
X184591508Y-122713263D01*
X184615385Y-122703373D01*
X184641008Y-122700000D01*
X189001000Y-122700000D01*
X189026623Y-122703373D01*
G37*
%TD.AperFunction*%
%TD*%
%TA.AperFunction,Conductor*%
%TO.N,Phase_U_Source_H*%
G36*
X178384615Y-120803373D02*
G01*
X178408492Y-120813263D01*
X178428996Y-120828996D01*
X180000000Y-122400000D01*
X183458992Y-122400000D01*
X183484615Y-122403373D01*
X183508492Y-122413263D01*
X183528996Y-122428996D01*
X183571004Y-122471004D01*
X183586737Y-122491508D01*
X183596627Y-122515385D01*
X183600000Y-122541008D01*
X183600000Y-126600000D01*
X183604584Y-126604584D01*
X185171004Y-128171004D01*
X185186737Y-128191508D01*
X185196627Y-128215385D01*
X185200000Y-128241008D01*
X185200000Y-129800500D01*
X185196627Y-129826123D01*
X185186737Y-129850000D01*
X185171004Y-129870504D01*
X185150500Y-129886237D01*
X185126623Y-129896127D01*
X185101000Y-129899500D01*
X170199500Y-129899500D01*
X170173877Y-129896127D01*
X170150000Y-129886237D01*
X170129496Y-129870504D01*
X170113763Y-129850000D01*
X170103873Y-129826123D01*
X170100500Y-129800500D01*
X170100500Y-125500000D01*
X172644507Y-125500000D01*
X172644560Y-125501619D01*
X172648426Y-125619726D01*
X172648427Y-125619746D01*
X172648480Y-125621355D01*
X172648639Y-125622978D01*
X172648640Y-125622980D01*
X172660222Y-125740582D01*
X172660224Y-125740601D01*
X172660381Y-125742190D01*
X172660639Y-125743754D01*
X172660642Y-125743775D01*
X172679897Y-125860397D01*
X172680160Y-125861989D01*
X172707731Y-125980237D01*
X172708195Y-125981768D01*
X172708200Y-125981785D01*
X172742509Y-126094883D01*
X172742978Y-126096429D01*
X172743539Y-126097921D01*
X172743545Y-126097937D01*
X172781510Y-126198807D01*
X172785748Y-126210066D01*
X172835859Y-126320664D01*
X172836611Y-126322071D01*
X172836616Y-126322081D01*
X172892338Y-126426329D01*
X172892345Y-126426342D01*
X172893096Y-126427746D01*
X172893941Y-126429104D01*
X172893948Y-126429117D01*
X172956355Y-126529476D01*
X172957214Y-126530857D01*
X172958146Y-126532158D01*
X172958157Y-126532174D01*
X173026997Y-126628241D01*
X173027009Y-126628257D01*
X173027938Y-126629553D01*
X173104967Y-126723412D01*
X173187968Y-126812032D01*
X173276588Y-126895033D01*
X173370447Y-126972062D01*
X173371747Y-126972993D01*
X173371758Y-126973002D01*
X173467825Y-127041842D01*
X173467834Y-127041848D01*
X173469143Y-127042786D01*
X173572254Y-127106904D01*
X173679336Y-127164141D01*
X173789934Y-127214252D01*
X173903571Y-127257022D01*
X174019763Y-127292269D01*
X174138011Y-127319840D01*
X174257810Y-127339619D01*
X174378645Y-127351520D01*
X174469669Y-127354500D01*
X174529505Y-127354500D01*
X174530331Y-127354500D01*
X174621355Y-127351520D01*
X174742190Y-127339619D01*
X174861989Y-127319840D01*
X174980237Y-127292269D01*
X175096429Y-127257022D01*
X175210066Y-127214252D01*
X175320664Y-127164141D01*
X175427746Y-127106904D01*
X175530857Y-127042786D01*
X175629553Y-126972062D01*
X175723412Y-126895033D01*
X175812032Y-126812032D01*
X175895033Y-126723412D01*
X175972062Y-126629553D01*
X176042786Y-126530857D01*
X176106904Y-126427747D01*
X176164141Y-126320664D01*
X176214252Y-126210066D01*
X176257022Y-126096429D01*
X176292269Y-125980237D01*
X176319840Y-125861989D01*
X176339619Y-125742190D01*
X176351520Y-125621355D01*
X176355493Y-125500000D01*
X176351520Y-125378645D01*
X176339619Y-125257810D01*
X176319840Y-125138011D01*
X176292269Y-125019763D01*
X176257022Y-124903571D01*
X176214252Y-124789934D01*
X176164141Y-124679336D01*
X176106904Y-124572254D01*
X176042786Y-124469143D01*
X175985648Y-124389406D01*
X175973002Y-124371758D01*
X175972993Y-124371747D01*
X175972062Y-124370447D01*
X175895033Y-124276588D01*
X175812032Y-124187968D01*
X175723412Y-124104967D01*
X175629553Y-124027938D01*
X175628257Y-124027009D01*
X175628241Y-124026997D01*
X175532174Y-123958157D01*
X175532158Y-123958146D01*
X175530857Y-123957214D01*
X175529476Y-123956355D01*
X175429117Y-123893948D01*
X175429104Y-123893941D01*
X175427746Y-123893096D01*
X175426342Y-123892345D01*
X175426329Y-123892338D01*
X175322081Y-123836616D01*
X175322071Y-123836611D01*
X175320664Y-123835859D01*
X175210066Y-123785748D01*
X175173066Y-123771822D01*
X175097937Y-123743545D01*
X175097921Y-123743539D01*
X175096429Y-123742978D01*
X175094883Y-123742509D01*
X174981785Y-123708200D01*
X174981768Y-123708195D01*
X174980237Y-123707731D01*
X174978659Y-123707363D01*
X174863564Y-123680527D01*
X174863557Y-123680525D01*
X174861989Y-123680160D01*
X174860401Y-123679897D01*
X174860397Y-123679897D01*
X174743775Y-123660642D01*
X174743754Y-123660639D01*
X174742190Y-123660381D01*
X174740601Y-123660224D01*
X174740582Y-123660222D01*
X174622980Y-123648640D01*
X174622978Y-123648639D01*
X174621355Y-123648480D01*
X174619746Y-123648427D01*
X174619726Y-123648426D01*
X174534146Y-123645624D01*
X174530331Y-123645500D01*
X174469669Y-123645500D01*
X174468844Y-123645526D01*
X174468844Y-123645527D01*
X174380273Y-123648426D01*
X174380251Y-123648427D01*
X174378645Y-123648480D01*
X174377023Y-123648639D01*
X174377019Y-123648640D01*
X174259417Y-123660222D01*
X174259394Y-123660224D01*
X174257810Y-123660381D01*
X174256249Y-123660638D01*
X174256224Y-123660642D01*
X174139602Y-123679897D01*
X174139592Y-123679898D01*
X174138011Y-123680160D01*
X174136448Y-123680524D01*
X174136435Y-123680527D01*
X174021340Y-123707363D01*
X174021331Y-123707365D01*
X174019763Y-123707731D01*
X174018239Y-123708193D01*
X174018214Y-123708200D01*
X173905116Y-123742509D01*
X173905107Y-123742512D01*
X173903571Y-123742978D01*
X173902087Y-123743536D01*
X173902062Y-123743545D01*
X173791429Y-123785185D01*
X173791420Y-123785188D01*
X173789934Y-123785748D01*
X173788485Y-123786404D01*
X173788479Y-123786407D01*
X173680796Y-123835197D01*
X173680783Y-123835203D01*
X173679336Y-123835859D01*
X173677940Y-123836604D01*
X173677918Y-123836616D01*
X173573670Y-123892338D01*
X173573643Y-123892353D01*
X173572254Y-123893096D01*
X173570908Y-123893932D01*
X173570882Y-123893948D01*
X173470523Y-123956355D01*
X173470504Y-123956367D01*
X173469143Y-123957214D01*
X173467854Y-123958136D01*
X173467825Y-123958157D01*
X173371758Y-124026997D01*
X173371727Y-124027020D01*
X173370447Y-124027938D01*
X173369207Y-124028955D01*
X173369200Y-124028961D01*
X173277832Y-124103945D01*
X173277813Y-124103961D01*
X173276588Y-124104967D01*
X173275419Y-124106061D01*
X173275412Y-124106068D01*
X173189166Y-124186845D01*
X173189150Y-124186860D01*
X173187968Y-124187968D01*
X173186860Y-124189150D01*
X173186845Y-124189166D01*
X173129869Y-124250000D01*
X173104967Y-124276588D01*
X173103961Y-124277813D01*
X173103945Y-124277832D01*
X173028961Y-124369200D01*
X173027938Y-124370447D01*
X173027020Y-124371727D01*
X173026997Y-124371758D01*
X172958150Y-124467836D01*
X172958142Y-124467847D01*
X172957214Y-124469143D01*
X172956372Y-124470496D01*
X172956366Y-124470506D01*
X172893951Y-124570877D01*
X172893942Y-124570891D01*
X172893096Y-124572253D01*
X172892339Y-124573670D01*
X172892329Y-124573687D01*
X172836621Y-124677910D01*
X172835859Y-124679336D01*
X172835203Y-124680783D01*
X172835196Y-124680798D01*
X172790040Y-124780461D01*
X172785748Y-124789934D01*
X172785188Y-124791420D01*
X172785185Y-124791429D01*
X172743545Y-124902062D01*
X172743536Y-124902087D01*
X172742978Y-124903571D01*
X172742512Y-124905107D01*
X172742509Y-124905116D01*
X172708200Y-125018214D01*
X172708193Y-125018239D01*
X172707731Y-125019763D01*
X172680160Y-125138011D01*
X172679898Y-125139592D01*
X172679897Y-125139602D01*
X172660642Y-125256224D01*
X172660638Y-125256249D01*
X172660381Y-125257810D01*
X172660224Y-125259394D01*
X172660222Y-125259417D01*
X172648640Y-125377019D01*
X172648480Y-125378645D01*
X172648427Y-125380251D01*
X172648426Y-125380273D01*
X172644560Y-125498381D01*
X172644507Y-125500000D01*
X170100500Y-125500000D01*
X170100500Y-123040508D01*
X170103873Y-123014885D01*
X170113763Y-122991008D01*
X170129496Y-122970504D01*
X172271004Y-120828996D01*
X172291508Y-120813263D01*
X172315385Y-120803373D01*
X172341008Y-120800000D01*
X178358992Y-120800000D01*
X178384615Y-120803373D01*
G37*
%TD.AperFunction*%
%TD*%
%TA.AperFunction,Conductor*%
%TO.N,Phase_W_Source_H*%
G36*
X206026623Y-119803373D02*
G01*
X206050500Y-119813263D01*
X206071004Y-119828996D01*
X206086737Y-119849500D01*
X206096627Y-119873377D01*
X206100000Y-119899000D01*
X206100000Y-121100000D01*
X207100000Y-122100000D01*
X208858992Y-122100000D01*
X208884615Y-122103373D01*
X208908492Y-122113263D01*
X208928996Y-122128996D01*
X209870504Y-123070504D01*
X209886237Y-123091008D01*
X209896127Y-123114885D01*
X209899500Y-123140508D01*
X209899500Y-129800500D01*
X209896127Y-129826123D01*
X209886237Y-129850000D01*
X209870504Y-129870504D01*
X209850000Y-129886237D01*
X209826123Y-129896127D01*
X209800500Y-129899500D01*
X194399000Y-129899500D01*
X194373377Y-129896127D01*
X194349500Y-129886237D01*
X194328996Y-129870504D01*
X194313263Y-129850000D01*
X194303373Y-129826123D01*
X194300000Y-129800500D01*
X194300000Y-127441008D01*
X194303373Y-127415385D01*
X194313263Y-127391508D01*
X194328996Y-127371004D01*
X195071759Y-126628241D01*
X196000000Y-125700000D01*
X196000000Y-124399000D01*
X196003373Y-124373377D01*
X196013263Y-124349500D01*
X196028996Y-124328996D01*
X196049500Y-124313263D01*
X196073377Y-124303373D01*
X196099000Y-124300000D01*
X199101000Y-124300000D01*
X199126623Y-124303373D01*
X199150500Y-124313263D01*
X199171004Y-124328996D01*
X199186737Y-124349500D01*
X199196627Y-124373377D01*
X199200000Y-124399000D01*
X199200000Y-125600000D01*
X199600000Y-126000000D01*
X199606487Y-126000000D01*
X200793513Y-126000000D01*
X200800000Y-126000000D01*
X201300000Y-125500000D01*
X203644507Y-125500000D01*
X203644560Y-125501619D01*
X203648426Y-125619726D01*
X203648427Y-125619746D01*
X203648480Y-125621355D01*
X203648639Y-125622978D01*
X203648640Y-125622980D01*
X203660222Y-125740582D01*
X203660224Y-125740601D01*
X203660381Y-125742190D01*
X203660639Y-125743754D01*
X203660642Y-125743775D01*
X203679897Y-125860397D01*
X203680160Y-125861989D01*
X203707731Y-125980237D01*
X203708195Y-125981768D01*
X203708200Y-125981785D01*
X203713726Y-126000000D01*
X203742978Y-126096429D01*
X203743539Y-126097921D01*
X203743545Y-126097937D01*
X203781510Y-126198807D01*
X203785748Y-126210066D01*
X203835859Y-126320664D01*
X203836611Y-126322071D01*
X203836616Y-126322081D01*
X203892338Y-126426329D01*
X203892345Y-126426342D01*
X203893096Y-126427746D01*
X203893941Y-126429104D01*
X203893948Y-126429117D01*
X203956355Y-126529476D01*
X203957214Y-126530857D01*
X203958146Y-126532158D01*
X203958157Y-126532174D01*
X204026997Y-126628241D01*
X204027009Y-126628257D01*
X204027938Y-126629553D01*
X204104967Y-126723412D01*
X204187968Y-126812032D01*
X204276588Y-126895033D01*
X204370447Y-126972062D01*
X204371747Y-126972993D01*
X204371758Y-126973002D01*
X204467825Y-127041842D01*
X204467834Y-127041848D01*
X204469143Y-127042786D01*
X204572254Y-127106904D01*
X204679336Y-127164141D01*
X204789934Y-127214252D01*
X204903571Y-127257022D01*
X205019763Y-127292269D01*
X205138011Y-127319840D01*
X205257810Y-127339619D01*
X205378645Y-127351520D01*
X205469669Y-127354500D01*
X205529505Y-127354500D01*
X205530331Y-127354500D01*
X205621355Y-127351520D01*
X205742190Y-127339619D01*
X205861989Y-127319840D01*
X205980237Y-127292269D01*
X206096429Y-127257022D01*
X206210066Y-127214252D01*
X206320664Y-127164141D01*
X206427746Y-127106904D01*
X206530857Y-127042786D01*
X206629553Y-126972062D01*
X206723412Y-126895033D01*
X206812032Y-126812032D01*
X206895033Y-126723412D01*
X206972062Y-126629553D01*
X207042786Y-126530857D01*
X207106904Y-126427747D01*
X207164141Y-126320664D01*
X207214252Y-126210066D01*
X207257022Y-126096429D01*
X207292269Y-125980237D01*
X207319840Y-125861989D01*
X207339619Y-125742190D01*
X207351520Y-125621355D01*
X207355493Y-125500000D01*
X207351520Y-125378645D01*
X207339619Y-125257810D01*
X207319840Y-125138011D01*
X207292269Y-125019763D01*
X207257022Y-124903571D01*
X207214252Y-124789934D01*
X207164141Y-124679336D01*
X207106904Y-124572254D01*
X207042786Y-124469143D01*
X206974162Y-124373377D01*
X206973002Y-124371758D01*
X206972993Y-124371747D01*
X206972062Y-124370447D01*
X206895033Y-124276588D01*
X206812032Y-124187968D01*
X206723412Y-124104967D01*
X206629553Y-124027938D01*
X206628257Y-124027009D01*
X206628241Y-124026997D01*
X206532174Y-123958157D01*
X206532158Y-123958146D01*
X206530857Y-123957214D01*
X206529476Y-123956355D01*
X206429117Y-123893948D01*
X206429104Y-123893941D01*
X206427746Y-123893096D01*
X206426342Y-123892345D01*
X206426329Y-123892338D01*
X206322081Y-123836616D01*
X206322071Y-123836611D01*
X206320664Y-123835859D01*
X206210066Y-123785748D01*
X206198807Y-123781510D01*
X206097937Y-123743545D01*
X206097921Y-123743539D01*
X206096429Y-123742978D01*
X206094883Y-123742509D01*
X205981785Y-123708200D01*
X205981768Y-123708195D01*
X205980237Y-123707731D01*
X205978659Y-123707363D01*
X205863564Y-123680527D01*
X205863557Y-123680525D01*
X205861989Y-123680160D01*
X205860401Y-123679897D01*
X205860397Y-123679897D01*
X205743775Y-123660642D01*
X205743754Y-123660639D01*
X205742190Y-123660381D01*
X205740601Y-123660224D01*
X205740582Y-123660222D01*
X205622980Y-123648640D01*
X205622978Y-123648639D01*
X205621355Y-123648480D01*
X205619746Y-123648427D01*
X205619726Y-123648426D01*
X205534146Y-123645624D01*
X205530331Y-123645500D01*
X205469669Y-123645500D01*
X205468844Y-123645526D01*
X205468844Y-123645527D01*
X205380273Y-123648426D01*
X205380251Y-123648427D01*
X205378645Y-123648480D01*
X205377023Y-123648639D01*
X205377019Y-123648640D01*
X205259417Y-123660222D01*
X205259394Y-123660224D01*
X205257810Y-123660381D01*
X205256249Y-123660638D01*
X205256224Y-123660642D01*
X205139602Y-123679897D01*
X205139592Y-123679898D01*
X205138011Y-123680160D01*
X205136448Y-123680524D01*
X205136435Y-123680527D01*
X205021340Y-123707363D01*
X205021331Y-123707365D01*
X205019763Y-123707731D01*
X205018239Y-123708193D01*
X205018214Y-123708200D01*
X204905116Y-123742509D01*
X204905107Y-123742512D01*
X204903571Y-123742978D01*
X204902087Y-123743536D01*
X204902062Y-123743545D01*
X204791429Y-123785185D01*
X204791420Y-123785188D01*
X204789934Y-123785748D01*
X204788485Y-123786404D01*
X204788479Y-123786407D01*
X204680796Y-123835197D01*
X204680783Y-123835203D01*
X204679336Y-123835859D01*
X204677940Y-123836604D01*
X204677918Y-123836616D01*
X204573670Y-123892338D01*
X204573643Y-123892353D01*
X204572254Y-123893096D01*
X204570908Y-123893932D01*
X204570882Y-123893948D01*
X204470523Y-123956355D01*
X204470504Y-123956367D01*
X204469143Y-123957214D01*
X204467854Y-123958136D01*
X204467825Y-123958157D01*
X204371758Y-124026997D01*
X204371727Y-124027020D01*
X204370447Y-124027938D01*
X204369207Y-124028955D01*
X204369200Y-124028961D01*
X204277832Y-124103945D01*
X204277813Y-124103961D01*
X204276588Y-124104967D01*
X204275419Y-124106061D01*
X204275412Y-124106068D01*
X204189166Y-124186845D01*
X204189150Y-124186860D01*
X204187968Y-124187968D01*
X204186860Y-124189150D01*
X204186845Y-124189166D01*
X204106068Y-124275412D01*
X204104967Y-124276588D01*
X204103961Y-124277813D01*
X204103945Y-124277832D01*
X204028961Y-124369200D01*
X204027938Y-124370447D01*
X204027020Y-124371727D01*
X204026997Y-124371758D01*
X203958150Y-124467836D01*
X203958142Y-124467847D01*
X203957214Y-124469143D01*
X203956372Y-124470496D01*
X203956366Y-124470506D01*
X203893951Y-124570877D01*
X203893942Y-124570891D01*
X203893096Y-124572253D01*
X203892339Y-124573670D01*
X203892329Y-124573687D01*
X203836621Y-124677910D01*
X203835859Y-124679336D01*
X203835203Y-124680783D01*
X203835196Y-124680798D01*
X203786407Y-124788479D01*
X203785748Y-124789934D01*
X203785188Y-124791420D01*
X203785185Y-124791429D01*
X203743545Y-124902062D01*
X203743536Y-124902087D01*
X203742978Y-124903571D01*
X203742512Y-124905107D01*
X203742509Y-124905116D01*
X203708200Y-125018214D01*
X203708193Y-125018239D01*
X203707731Y-125019763D01*
X203680160Y-125138011D01*
X203679898Y-125139592D01*
X203679897Y-125139602D01*
X203660642Y-125256224D01*
X203660638Y-125256249D01*
X203660381Y-125257810D01*
X203660224Y-125259394D01*
X203660222Y-125259417D01*
X203648640Y-125377019D01*
X203648480Y-125378645D01*
X203648427Y-125380251D01*
X203648426Y-125380273D01*
X203644560Y-125498381D01*
X203644507Y-125500000D01*
X201300000Y-125500000D01*
X202500000Y-124300000D01*
X202500000Y-120041008D01*
X202503373Y-120015385D01*
X202513263Y-119991508D01*
X202528996Y-119971004D01*
X202671004Y-119828996D01*
X202691508Y-119813263D01*
X202715385Y-119803373D01*
X202741008Y-119800000D01*
X206001000Y-119800000D01*
X206026623Y-119803373D01*
G37*
%TD.AperFunction*%
%TD*%
%TA.AperFunction,Conductor*%
%TO.N,Phase_U_GND*%
G36*
X191376123Y-103303373D02*
G01*
X191400000Y-103313263D01*
X191420504Y-103328996D01*
X191436237Y-103349500D01*
X191446127Y-103373377D01*
X191449500Y-103399000D01*
X191449500Y-104216701D01*
X191449500Y-104283299D01*
X191449860Y-104286261D01*
X191451149Y-104296881D01*
X191451689Y-104302827D01*
X191452515Y-104316477D01*
X191453053Y-104319413D01*
X191453055Y-104319429D01*
X191454977Y-104329917D01*
X191455875Y-104335817D01*
X191457165Y-104346437D01*
X191457167Y-104346449D01*
X191457527Y-104349412D01*
X191458239Y-104352301D01*
X191458242Y-104352317D01*
X191460802Y-104362703D01*
X191462055Y-104368541D01*
X191463978Y-104379036D01*
X191463984Y-104379061D01*
X191464520Y-104381984D01*
X191465407Y-104384833D01*
X191465408Y-104384834D01*
X191468589Y-104395043D01*
X191470189Y-104400781D01*
X191473466Y-104414074D01*
X191474524Y-104416864D01*
X191474527Y-104416873D01*
X191478310Y-104426846D01*
X191480262Y-104432502D01*
X191483444Y-104442716D01*
X191483447Y-104442725D01*
X191484333Y-104445567D01*
X191485554Y-104448280D01*
X191485557Y-104448288D01*
X191489947Y-104458042D01*
X191492232Y-104463559D01*
X191496023Y-104473554D01*
X191497082Y-104476345D01*
X191498463Y-104478978D01*
X191498467Y-104478985D01*
X191503433Y-104488447D01*
X191506047Y-104493816D01*
X191510435Y-104503566D01*
X191510444Y-104503583D01*
X191511666Y-104506298D01*
X191513213Y-104508857D01*
X191518744Y-104518007D01*
X191521682Y-104523217D01*
X191526642Y-104532668D01*
X191526647Y-104532677D01*
X191528032Y-104535315D01*
X191529726Y-104537769D01*
X191529727Y-104537771D01*
X191535792Y-104546559D01*
X191539033Y-104551571D01*
X191544571Y-104560732D01*
X191544578Y-104560743D01*
X191546119Y-104563291D01*
X191547959Y-104565639D01*
X191547967Y-104565651D01*
X191554546Y-104574048D01*
X191558092Y-104578866D01*
X191564167Y-104587667D01*
X191565863Y-104590124D01*
X191567844Y-104592360D01*
X191567847Y-104592364D01*
X191574945Y-104600377D01*
X191578760Y-104604954D01*
X191587192Y-104615716D01*
X191598969Y-104627493D01*
X191598977Y-104627502D01*
X192972498Y-106001023D01*
X192972506Y-106001030D01*
X192984284Y-106012808D01*
X192995051Y-106021243D01*
X192999634Y-106025062D01*
X193009876Y-106034136D01*
X193021133Y-106041906D01*
X193025934Y-106045439D01*
X193034348Y-106052032D01*
X193034356Y-106052037D01*
X193036709Y-106053881D01*
X193039273Y-106055431D01*
X193048421Y-106060961D01*
X193053426Y-106064197D01*
X193064685Y-106071968D01*
X193067339Y-106073361D01*
X193067341Y-106073362D01*
X193076776Y-106078314D01*
X193081988Y-106081252D01*
X193093702Y-106088334D01*
X193106181Y-106093950D01*
X193111550Y-106096565D01*
X193123655Y-106102918D01*
X193136367Y-106107739D01*
X193136428Y-106107762D01*
X193141955Y-106110051D01*
X193154433Y-106115667D01*
X193167497Y-106119737D01*
X193173126Y-106121679D01*
X193185926Y-106126534D01*
X193199017Y-106129760D01*
X193199197Y-106129805D01*
X193204959Y-106131411D01*
X193218016Y-106135480D01*
X193231488Y-106137948D01*
X193237293Y-106139195D01*
X193250588Y-106142472D01*
X193264144Y-106144117D01*
X193270068Y-106145019D01*
X193280582Y-106146946D01*
X193280583Y-106146946D01*
X193283523Y-106147485D01*
X193297178Y-106148310D01*
X193303135Y-106148851D01*
X193316701Y-106150499D01*
X193333334Y-106150499D01*
X193333356Y-106150499D01*
X193333368Y-106150500D01*
X194309492Y-106150500D01*
X194335115Y-106153873D01*
X194358992Y-106163763D01*
X194379496Y-106179496D01*
X194485035Y-106285035D01*
X194499438Y-106303305D01*
X194508850Y-106323714D01*
X194509061Y-106324500D01*
X194509990Y-106326921D01*
X194509991Y-106326923D01*
X194535381Y-106393067D01*
X194535386Y-106393078D01*
X194536313Y-106395493D01*
X194570836Y-106463248D01*
X194572241Y-106465411D01*
X194572243Y-106465415D01*
X194610838Y-106524848D01*
X194610846Y-106524859D01*
X194612252Y-106527024D01*
X194622672Y-106539892D01*
X194658474Y-106584104D01*
X194658480Y-106584111D01*
X194660108Y-106586121D01*
X194713879Y-106639892D01*
X194715889Y-106641520D01*
X194715895Y-106641525D01*
X194719300Y-106644282D01*
X194772976Y-106687748D01*
X194775143Y-106689155D01*
X194775151Y-106689161D01*
X194807408Y-106710108D01*
X194836752Y-106729164D01*
X194904507Y-106763687D01*
X194958606Y-106784454D01*
X194982702Y-106797811D01*
X195002188Y-106817296D01*
X195015547Y-106841397D01*
X195035381Y-106893067D01*
X195035386Y-106893078D01*
X195036313Y-106895493D01*
X195070836Y-106963248D01*
X195072241Y-106965411D01*
X195072243Y-106965415D01*
X195110838Y-107024848D01*
X195110846Y-107024859D01*
X195112252Y-107027024D01*
X195113888Y-107029044D01*
X195158474Y-107084104D01*
X195158480Y-107084111D01*
X195160108Y-107086121D01*
X195213879Y-107139892D01*
X195215889Y-107141520D01*
X195215895Y-107141525D01*
X195244940Y-107165045D01*
X195272976Y-107187748D01*
X195275143Y-107189155D01*
X195275151Y-107189161D01*
X195325166Y-107221640D01*
X195336752Y-107229164D01*
X195404507Y-107263687D01*
X195475500Y-107290939D01*
X195476278Y-107291147D01*
X195496689Y-107300558D01*
X195514964Y-107314964D01*
X195748647Y-107548647D01*
X195762315Y-107565736D01*
X195771895Y-107585409D01*
X195776920Y-107606706D01*
X195777096Y-107624039D01*
X195777484Y-107624059D01*
X195777484Y-107624060D01*
X195773504Y-107700000D01*
X195773640Y-107702595D01*
X195777347Y-107773343D01*
X195777348Y-107773359D01*
X195777484Y-107775940D01*
X195789380Y-107851047D01*
X195809061Y-107924500D01*
X195809990Y-107926921D01*
X195809992Y-107926926D01*
X195835381Y-107993067D01*
X195835386Y-107993078D01*
X195836313Y-107995493D01*
X195870836Y-108063248D01*
X195872241Y-108065411D01*
X195872243Y-108065415D01*
X195910838Y-108124848D01*
X195910846Y-108124859D01*
X195912252Y-108127024D01*
X195913888Y-108129044D01*
X195958474Y-108184104D01*
X195958480Y-108184111D01*
X195960108Y-108186121D01*
X195961936Y-108187949D01*
X195961937Y-108187950D01*
X195971004Y-108197017D01*
X195986737Y-108217521D01*
X195996627Y-108241398D01*
X196000000Y-108267021D01*
X196000000Y-109901000D01*
X195996627Y-109926623D01*
X195986737Y-109950500D01*
X195971004Y-109971004D01*
X195950500Y-109986737D01*
X195926623Y-109996627D01*
X195901000Y-110000000D01*
X182199000Y-110000000D01*
X182173377Y-109996627D01*
X182149500Y-109986737D01*
X182128996Y-109971004D01*
X182113263Y-109950500D01*
X182103373Y-109926623D01*
X182100000Y-109901000D01*
X182100000Y-109437483D01*
X182101819Y-109418593D01*
X182107208Y-109400398D01*
X182115971Y-109383565D01*
X182127751Y-109365424D01*
X182127751Y-109365422D01*
X182129164Y-109363248D01*
X182163687Y-109295493D01*
X182190939Y-109224500D01*
X182210620Y-109151047D01*
X182222516Y-109075940D01*
X182226496Y-109000000D01*
X182222516Y-108924060D01*
X182210620Y-108848953D01*
X182190939Y-108775500D01*
X182163687Y-108704507D01*
X182146075Y-108669941D01*
X182138022Y-108648112D01*
X182135286Y-108625000D01*
X182138022Y-108601888D01*
X182146075Y-108580058D01*
X182163687Y-108545493D01*
X182190939Y-108474500D01*
X182210620Y-108401047D01*
X182222516Y-108325940D01*
X182226496Y-108250000D01*
X182222516Y-108174060D01*
X182210620Y-108098953D01*
X182190939Y-108025500D01*
X182163687Y-107954507D01*
X182129164Y-107886752D01*
X182127756Y-107884585D01*
X182127751Y-107884575D01*
X182115971Y-107866435D01*
X182107208Y-107849602D01*
X182101819Y-107831407D01*
X182100000Y-107812517D01*
X182100000Y-107687483D01*
X182101819Y-107668593D01*
X182107208Y-107650398D01*
X182115971Y-107633565D01*
X182127751Y-107615424D01*
X182127751Y-107615422D01*
X182129164Y-107613248D01*
X182163687Y-107545493D01*
X182190939Y-107474500D01*
X182210620Y-107401047D01*
X182222516Y-107325940D01*
X182226496Y-107250000D01*
X182222516Y-107174060D01*
X182210620Y-107098953D01*
X182190939Y-107025500D01*
X182163687Y-106954507D01*
X182129164Y-106886752D01*
X182127756Y-106884585D01*
X182127751Y-106884575D01*
X182115971Y-106866435D01*
X182107208Y-106849602D01*
X182101819Y-106831407D01*
X182100000Y-106812517D01*
X182100000Y-106691521D01*
X182103046Y-106667152D01*
X182111997Y-106644282D01*
X182126302Y-106624320D01*
X182145081Y-106608493D01*
X182174834Y-106589170D01*
X182177024Y-106587748D01*
X182236121Y-106539892D01*
X182289892Y-106486121D01*
X182337748Y-106427024D01*
X182379164Y-106363248D01*
X182413687Y-106295493D01*
X182440939Y-106224500D01*
X182460620Y-106151047D01*
X182472516Y-106075940D01*
X182476496Y-106000000D01*
X182472516Y-105924060D01*
X182460620Y-105848953D01*
X182440939Y-105775500D01*
X182413687Y-105704507D01*
X182396075Y-105669941D01*
X182388022Y-105648112D01*
X182385286Y-105625000D01*
X182388022Y-105601888D01*
X182396075Y-105580058D01*
X182413687Y-105545493D01*
X182440939Y-105474500D01*
X182460620Y-105401047D01*
X182472516Y-105325940D01*
X182476496Y-105250000D01*
X182472516Y-105174060D01*
X182460620Y-105098953D01*
X182440939Y-105025500D01*
X182413687Y-104954507D01*
X182379164Y-104886752D01*
X182371640Y-104875166D01*
X182339161Y-104825151D01*
X182339155Y-104825143D01*
X182337748Y-104822976D01*
X182289892Y-104763879D01*
X182236121Y-104710108D01*
X182234111Y-104708480D01*
X182234104Y-104708474D01*
X182179044Y-104663888D01*
X182177024Y-104662252D01*
X182174844Y-104660836D01*
X182174834Y-104660829D01*
X182145081Y-104641507D01*
X182126302Y-104625680D01*
X182111997Y-104605718D01*
X182103046Y-104582848D01*
X182100000Y-104558479D01*
X182100000Y-103399000D01*
X182103373Y-103373377D01*
X182113263Y-103349500D01*
X182128996Y-103328996D01*
X182149500Y-103313263D01*
X182173377Y-103303373D01*
X182199000Y-103300000D01*
X191350500Y-103300000D01*
X191376123Y-103303373D01*
G37*
%TD.AperFunction*%
%TD*%
%TA.AperFunction,Conductor*%
%TO.N,Phase_U_GND*%
G36*
X200784615Y-100003373D02*
G01*
X200808492Y-100013263D01*
X200828996Y-100028995D01*
X204800000Y-104000000D01*
X205696284Y-104000000D01*
X205721905Y-104003372D01*
X205748953Y-104010620D01*
X205824060Y-104022516D01*
X205900000Y-104026496D01*
X205975940Y-104022516D01*
X206051047Y-104010620D01*
X206061118Y-104007921D01*
X206075379Y-104004101D01*
X206101002Y-104000728D01*
X206126624Y-104004102D01*
X206150501Y-104013992D01*
X206171004Y-104029725D01*
X206186737Y-104050228D01*
X206196627Y-104074105D01*
X206200000Y-104099728D01*
X206200000Y-104858992D01*
X206196627Y-104884615D01*
X206186737Y-104908492D01*
X206171004Y-104928996D01*
X206028996Y-105071004D01*
X206008492Y-105086737D01*
X205984615Y-105096627D01*
X205958992Y-105100000D01*
X200241008Y-105100000D01*
X200215385Y-105096627D01*
X200191508Y-105086737D01*
X200171004Y-105071004D01*
X199428996Y-104328996D01*
X199413263Y-104308492D01*
X199403373Y-104284615D01*
X199400000Y-104258992D01*
X199400000Y-100099000D01*
X199403373Y-100073377D01*
X199413263Y-100049500D01*
X199428996Y-100028996D01*
X199449500Y-100013263D01*
X199473377Y-100003373D01*
X199499000Y-100000000D01*
X200758992Y-100000000D01*
X200784615Y-100003373D01*
G37*
%TD.AperFunction*%
%TD*%
%TA.AperFunction,Conductor*%
%TO.N,+BATT*%
G36*
X195162383Y-111003805D02*
G01*
X195187477Y-111014929D01*
X195208553Y-111032515D01*
X195223989Y-111055212D01*
X195232600Y-111081276D01*
X195233722Y-111108702D01*
X195227271Y-111135382D01*
X195213742Y-111159266D01*
X195195319Y-111177389D01*
X195195386Y-111177470D01*
X195194494Y-111178201D01*
X195194175Y-111178516D01*
X195193514Y-111179006D01*
X195193503Y-111179014D01*
X195191556Y-111180459D01*
X195189763Y-111182083D01*
X195189757Y-111182089D01*
X195135083Y-111231643D01*
X195135073Y-111231652D01*
X195133279Y-111233279D01*
X195131652Y-111235073D01*
X195131643Y-111235083D01*
X195082089Y-111289757D01*
X195082083Y-111289763D01*
X195080459Y-111291556D01*
X195079020Y-111293496D01*
X195079012Y-111293506D01*
X195035054Y-111352777D01*
X195033606Y-111354730D01*
X195032361Y-111356805D01*
X195032353Y-111356819D01*
X194998506Y-111413291D01*
X194993171Y-111422192D01*
X194992134Y-111424384D01*
X194992130Y-111424392D01*
X194961497Y-111489161D01*
X194959543Y-111493293D01*
X194958729Y-111495567D01*
X194958724Y-111495580D01*
X194933865Y-111565055D01*
X194933858Y-111565074D01*
X194933046Y-111567347D01*
X194932454Y-111569708D01*
X194932454Y-111569710D01*
X194914525Y-111641283D01*
X194914521Y-111641300D01*
X194913935Y-111643642D01*
X194913580Y-111646030D01*
X194913577Y-111646049D01*
X194904254Y-111708903D01*
X194902394Y-111721443D01*
X194902274Y-111723866D01*
X194902274Y-111723876D01*
X194899340Y-111783618D01*
X194898535Y-111800000D01*
X194898654Y-111802422D01*
X194901634Y-111863098D01*
X194902394Y-111878557D01*
X194902751Y-111880967D01*
X194902752Y-111880972D01*
X194913577Y-111953950D01*
X194913580Y-111953965D01*
X194913935Y-111956358D01*
X194914522Y-111958703D01*
X194914525Y-111958716D01*
X194922020Y-111988635D01*
X194933046Y-112032653D01*
X194933860Y-112034930D01*
X194933865Y-112034944D01*
X194958724Y-112104419D01*
X194959543Y-112106707D01*
X194993171Y-112177808D01*
X194999129Y-112187748D01*
X195024655Y-112230337D01*
X195033606Y-112245270D01*
X195080459Y-112308444D01*
X195133279Y-112366721D01*
X195191556Y-112419541D01*
X195254730Y-112466394D01*
X195322192Y-112506829D01*
X195393293Y-112540457D01*
X195467347Y-112566954D01*
X195543642Y-112586065D01*
X195579205Y-112591340D01*
X195599539Y-112596611D01*
X195618314Y-112606061D01*
X195634671Y-112619262D01*
X196122238Y-113106829D01*
X196580549Y-113565139D01*
X196595758Y-113584748D01*
X196605614Y-113607523D01*
X196609496Y-113632033D01*
X196607161Y-113656739D01*
X196598755Y-113680088D01*
X196587490Y-113702196D01*
X196587486Y-113702204D01*
X196586313Y-113704507D01*
X196585389Y-113706913D01*
X196585381Y-113706932D01*
X196559992Y-113773073D01*
X196559988Y-113773084D01*
X196559061Y-113775500D01*
X196558390Y-113778002D01*
X196558389Y-113778007D01*
X196542767Y-113836313D01*
X196539380Y-113848953D01*
X196538976Y-113851503D01*
X196538974Y-113851513D01*
X196527890Y-113921494D01*
X196527484Y-113924060D01*
X196527348Y-113926638D01*
X196527347Y-113926656D01*
X196524231Y-113986121D01*
X196523504Y-114000000D01*
X196523640Y-114002595D01*
X196527347Y-114073343D01*
X196527348Y-114073359D01*
X196527484Y-114075940D01*
X196527889Y-114078500D01*
X196527890Y-114078505D01*
X196538773Y-114147218D01*
X196539380Y-114151047D01*
X196540049Y-114153545D01*
X196540050Y-114153548D01*
X196540840Y-114156496D01*
X196559061Y-114224500D01*
X196559990Y-114226921D01*
X196559992Y-114226926D01*
X196585381Y-114293067D01*
X196585386Y-114293078D01*
X196586313Y-114295493D01*
X196620836Y-114363248D01*
X196622241Y-114365411D01*
X196622243Y-114365415D01*
X196660838Y-114424848D01*
X196660846Y-114424859D01*
X196662252Y-114427024D01*
X196663888Y-114429044D01*
X196708474Y-114484104D01*
X196708480Y-114484111D01*
X196710108Y-114486121D01*
X196763879Y-114539892D01*
X196765889Y-114541520D01*
X196765895Y-114541525D01*
X196794940Y-114565045D01*
X196822976Y-114587748D01*
X196825143Y-114589155D01*
X196825151Y-114589161D01*
X196875000Y-114621532D01*
X196886752Y-114629164D01*
X196954507Y-114663687D01*
X197025500Y-114690939D01*
X197098953Y-114710620D01*
X197174060Y-114722516D01*
X197250000Y-114726496D01*
X197325940Y-114722516D01*
X197401047Y-114710620D01*
X197474500Y-114690939D01*
X197545493Y-114663687D01*
X197580058Y-114646075D01*
X197601888Y-114638022D01*
X197625000Y-114635286D01*
X197648112Y-114638022D01*
X197669941Y-114646075D01*
X197704507Y-114663687D01*
X197775500Y-114690939D01*
X197848953Y-114710620D01*
X197924060Y-114722516D01*
X198000000Y-114726496D01*
X198075940Y-114722516D01*
X198151047Y-114710620D01*
X198224500Y-114690939D01*
X198295493Y-114663687D01*
X198330058Y-114646075D01*
X198351888Y-114638022D01*
X198375000Y-114635286D01*
X198398112Y-114638022D01*
X198419941Y-114646075D01*
X198454507Y-114663687D01*
X198525500Y-114690939D01*
X198598953Y-114710620D01*
X198674060Y-114722516D01*
X198711916Y-114724500D01*
X198746852Y-114726331D01*
X198769290Y-114730126D01*
X198790268Y-114738944D01*
X198808679Y-114752319D01*
X198823549Y-114769545D01*
X198834093Y-114789711D01*
X198836313Y-114795493D01*
X198837489Y-114797802D01*
X198837490Y-114797803D01*
X198853923Y-114830055D01*
X198861978Y-114851889D01*
X198864713Y-114875000D01*
X198861978Y-114898111D01*
X198853923Y-114919945D01*
X198837490Y-114952196D01*
X198837490Y-114952197D01*
X198836313Y-114954507D01*
X198835389Y-114956913D01*
X198835381Y-114956932D01*
X198809992Y-115023073D01*
X198809988Y-115023084D01*
X198809061Y-115025500D01*
X198808390Y-115028002D01*
X198808389Y-115028007D01*
X198792004Y-115089161D01*
X198789380Y-115098953D01*
X198788976Y-115101503D01*
X198788974Y-115101513D01*
X198779127Y-115163687D01*
X198777484Y-115174060D01*
X198777348Y-115176645D01*
X198777348Y-115176650D01*
X198776998Y-115183326D01*
X198772806Y-115207085D01*
X198762992Y-115229126D01*
X198748138Y-115248138D01*
X198729126Y-115262992D01*
X198707085Y-115272806D01*
X198683326Y-115276998D01*
X198676650Y-115277348D01*
X198676645Y-115277348D01*
X198674060Y-115277484D01*
X198671501Y-115277889D01*
X198671494Y-115277890D01*
X198601513Y-115288974D01*
X198601503Y-115288976D01*
X198598953Y-115289380D01*
X198596457Y-115290048D01*
X198596451Y-115290050D01*
X198528007Y-115308389D01*
X198528002Y-115308390D01*
X198525500Y-115309061D01*
X198523084Y-115309988D01*
X198523073Y-115309992D01*
X198456932Y-115335381D01*
X198456913Y-115335389D01*
X198454507Y-115336313D01*
X198452204Y-115337486D01*
X198452196Y-115337490D01*
X198419945Y-115353923D01*
X198398111Y-115361978D01*
X198375000Y-115364713D01*
X198351889Y-115361978D01*
X198330055Y-115353923D01*
X198297803Y-115337490D01*
X198297802Y-115337489D01*
X198295493Y-115336313D01*
X198293078Y-115335386D01*
X198293067Y-115335381D01*
X198226926Y-115309992D01*
X198226921Y-115309990D01*
X198224500Y-115309061D01*
X198221992Y-115308389D01*
X198153548Y-115290050D01*
X198153545Y-115290049D01*
X198151047Y-115289380D01*
X198148492Y-115288975D01*
X198148486Y-115288974D01*
X198078505Y-115277890D01*
X198078500Y-115277889D01*
X198075940Y-115277484D01*
X198073359Y-115277348D01*
X198073343Y-115277347D01*
X198002595Y-115273640D01*
X198000000Y-115273504D01*
X197997405Y-115273640D01*
X197926656Y-115277347D01*
X197926638Y-115277348D01*
X197924060Y-115277484D01*
X197921501Y-115277889D01*
X197921494Y-115277890D01*
X197851513Y-115288974D01*
X197851503Y-115288976D01*
X197848953Y-115289380D01*
X197846457Y-115290048D01*
X197846451Y-115290050D01*
X197778007Y-115308389D01*
X197778002Y-115308390D01*
X197775500Y-115309061D01*
X197773084Y-115309988D01*
X197773073Y-115309992D01*
X197706932Y-115335381D01*
X197706913Y-115335389D01*
X197704507Y-115336313D01*
X197702204Y-115337486D01*
X197702196Y-115337490D01*
X197669945Y-115353923D01*
X197648111Y-115361978D01*
X197625000Y-115364713D01*
X197601889Y-115361978D01*
X197580055Y-115353923D01*
X197547803Y-115337490D01*
X197547802Y-115337489D01*
X197545493Y-115336313D01*
X197543078Y-115335386D01*
X197543067Y-115335381D01*
X197476926Y-115309992D01*
X197476921Y-115309990D01*
X197474500Y-115309061D01*
X197471992Y-115308389D01*
X197403548Y-115290050D01*
X197403545Y-115290049D01*
X197401047Y-115289380D01*
X197398492Y-115288975D01*
X197398486Y-115288974D01*
X197328505Y-115277890D01*
X197328500Y-115277889D01*
X197325940Y-115277484D01*
X197323359Y-115277348D01*
X197323343Y-115277347D01*
X197252595Y-115273640D01*
X197250000Y-115273504D01*
X197247405Y-115273640D01*
X197176656Y-115277347D01*
X197176638Y-115277348D01*
X197174060Y-115277484D01*
X197171501Y-115277889D01*
X197171494Y-115277890D01*
X197101513Y-115288974D01*
X197101503Y-115288976D01*
X197098953Y-115289380D01*
X197096457Y-115290048D01*
X197096451Y-115290050D01*
X197028007Y-115308389D01*
X197028002Y-115308390D01*
X197025500Y-115309061D01*
X197023084Y-115309988D01*
X197023073Y-115309992D01*
X196956932Y-115335381D01*
X196956913Y-115335389D01*
X196954507Y-115336313D01*
X196952204Y-115337486D01*
X196952196Y-115337490D01*
X196919945Y-115353923D01*
X196898111Y-115361978D01*
X196875000Y-115364713D01*
X196851889Y-115361978D01*
X196830055Y-115353923D01*
X196797803Y-115337490D01*
X196797802Y-115337489D01*
X196795493Y-115336313D01*
X196793078Y-115335386D01*
X196793067Y-115335381D01*
X196726926Y-115309992D01*
X196726921Y-115309990D01*
X196724500Y-115309061D01*
X196721992Y-115308389D01*
X196653548Y-115290050D01*
X196653545Y-115290049D01*
X196651047Y-115289380D01*
X196648492Y-115288975D01*
X196648486Y-115288974D01*
X196578505Y-115277890D01*
X196578500Y-115277889D01*
X196575940Y-115277484D01*
X196573359Y-115277348D01*
X196573343Y-115277347D01*
X196502595Y-115273640D01*
X196500000Y-115273504D01*
X196497405Y-115273640D01*
X196426656Y-115277347D01*
X196426638Y-115277348D01*
X196424060Y-115277484D01*
X196421501Y-115277889D01*
X196421494Y-115277890D01*
X196351513Y-115288974D01*
X196351503Y-115288976D01*
X196348953Y-115289380D01*
X196346457Y-115290048D01*
X196346451Y-115290050D01*
X196278007Y-115308389D01*
X196278002Y-115308390D01*
X196275500Y-115309061D01*
X196273084Y-115309988D01*
X196273073Y-115309992D01*
X196206932Y-115335381D01*
X196206913Y-115335389D01*
X196204507Y-115336313D01*
X196202204Y-115337486D01*
X196202196Y-115337490D01*
X196139055Y-115369662D01*
X196139046Y-115369666D01*
X196136752Y-115370836D01*
X196134596Y-115372235D01*
X196134584Y-115372243D01*
X196075151Y-115410838D01*
X196075130Y-115410852D01*
X196072976Y-115412252D01*
X196070961Y-115413882D01*
X196070955Y-115413888D01*
X196015895Y-115458474D01*
X196015878Y-115458488D01*
X196013879Y-115460108D01*
X196012059Y-115461927D01*
X196012049Y-115461937D01*
X195961937Y-115512049D01*
X195961927Y-115512059D01*
X195960108Y-115513879D01*
X195958488Y-115515878D01*
X195958474Y-115515895D01*
X195913888Y-115570955D01*
X195913882Y-115570961D01*
X195912252Y-115572976D01*
X195910852Y-115575130D01*
X195910838Y-115575151D01*
X195872243Y-115634584D01*
X195872235Y-115634596D01*
X195870836Y-115636752D01*
X195869666Y-115639046D01*
X195869662Y-115639055D01*
X195837490Y-115702196D01*
X195837486Y-115702204D01*
X195836313Y-115704507D01*
X195835389Y-115706913D01*
X195835381Y-115706932D01*
X195809992Y-115773073D01*
X195809988Y-115773084D01*
X195809061Y-115775500D01*
X195789380Y-115848953D01*
X195788976Y-115851503D01*
X195788974Y-115851513D01*
X195785379Y-115874211D01*
X195777484Y-115924060D01*
X195777348Y-115926638D01*
X195777347Y-115926656D01*
X195773640Y-115997405D01*
X195773504Y-116000000D01*
X195773640Y-116002595D01*
X195777347Y-116073343D01*
X195777348Y-116073359D01*
X195777484Y-116075940D01*
X195789380Y-116151047D01*
X195790049Y-116153545D01*
X195790050Y-116153548D01*
X195790393Y-116154828D01*
X195809061Y-116224500D01*
X195809990Y-116226921D01*
X195809992Y-116226926D01*
X195835381Y-116293067D01*
X195835386Y-116293078D01*
X195836313Y-116295493D01*
X195870836Y-116363248D01*
X195872241Y-116365411D01*
X195872243Y-116365415D01*
X195910838Y-116424848D01*
X195910846Y-116424859D01*
X195912252Y-116427024D01*
X195913888Y-116429044D01*
X195958474Y-116484104D01*
X195958480Y-116484111D01*
X195960108Y-116486121D01*
X196013879Y-116539892D01*
X196015889Y-116541520D01*
X196015895Y-116541525D01*
X196021482Y-116546049D01*
X196072976Y-116587748D01*
X196075143Y-116589155D01*
X196075151Y-116589161D01*
X196121142Y-116619027D01*
X196136752Y-116629164D01*
X196204507Y-116663687D01*
X196206930Y-116664617D01*
X196206932Y-116664618D01*
X196223604Y-116671018D01*
X196275500Y-116690939D01*
X196348953Y-116710620D01*
X196424060Y-116722516D01*
X196500000Y-116726496D01*
X196575940Y-116722516D01*
X196651047Y-116710620D01*
X196724500Y-116690939D01*
X196795493Y-116663687D01*
X196830058Y-116646075D01*
X196851888Y-116638022D01*
X196875000Y-116635286D01*
X196898112Y-116638022D01*
X196919941Y-116646075D01*
X196954507Y-116663687D01*
X196956930Y-116664617D01*
X196956932Y-116664618D01*
X196973604Y-116671018D01*
X197025500Y-116690939D01*
X197098953Y-116710620D01*
X197174060Y-116722516D01*
X197250000Y-116726496D01*
X197325940Y-116722516D01*
X197401047Y-116710620D01*
X197474500Y-116690939D01*
X197545493Y-116663687D01*
X197580058Y-116646075D01*
X197601888Y-116638022D01*
X197625000Y-116635286D01*
X197648112Y-116638022D01*
X197669941Y-116646075D01*
X197704507Y-116663687D01*
X197706930Y-116664617D01*
X197706932Y-116664618D01*
X197723604Y-116671018D01*
X197775500Y-116690939D01*
X197848953Y-116710620D01*
X197924060Y-116722516D01*
X198000000Y-116726496D01*
X198075940Y-116722516D01*
X198151047Y-116710620D01*
X198224500Y-116690939D01*
X198295493Y-116663687D01*
X198330058Y-116646075D01*
X198351888Y-116638022D01*
X198375000Y-116635286D01*
X198398112Y-116638022D01*
X198419941Y-116646075D01*
X198454507Y-116663687D01*
X198456930Y-116664617D01*
X198456932Y-116664618D01*
X198473604Y-116671018D01*
X198525500Y-116690939D01*
X198598953Y-116710620D01*
X198674060Y-116722516D01*
X198750000Y-116726496D01*
X198825940Y-116722516D01*
X198901047Y-116710620D01*
X198974500Y-116690939D01*
X199045493Y-116663687D01*
X199080058Y-116646075D01*
X199101888Y-116638022D01*
X199125000Y-116635286D01*
X199148112Y-116638022D01*
X199169941Y-116646075D01*
X199204507Y-116663687D01*
X199206930Y-116664617D01*
X199206932Y-116664618D01*
X199223604Y-116671018D01*
X199275500Y-116690939D01*
X199348953Y-116710620D01*
X199424060Y-116722516D01*
X199500000Y-116726496D01*
X199575940Y-116722516D01*
X199651047Y-116710620D01*
X199724500Y-116690939D01*
X199795493Y-116663687D01*
X199863248Y-116629164D01*
X199927024Y-116587748D01*
X199986121Y-116539892D01*
X200039892Y-116486121D01*
X200087748Y-116427024D01*
X200129164Y-116363248D01*
X200163687Y-116295493D01*
X200190939Y-116224500D01*
X200210620Y-116151047D01*
X200222516Y-116075940D01*
X200226496Y-116000000D01*
X200222516Y-115924060D01*
X200210620Y-115848953D01*
X200190939Y-115775500D01*
X200163687Y-115704507D01*
X200162510Y-115702197D01*
X200162506Y-115702188D01*
X200146077Y-115669945D01*
X200138021Y-115648110D01*
X200135286Y-115624998D01*
X200138022Y-115601886D01*
X200146075Y-115580056D01*
X200163687Y-115545493D01*
X200190939Y-115474500D01*
X200210620Y-115401047D01*
X200222516Y-115325940D01*
X200226496Y-115250000D01*
X200222516Y-115174060D01*
X200210620Y-115098953D01*
X200190939Y-115025500D01*
X200163687Y-114954507D01*
X200146075Y-114919941D01*
X200138022Y-114898112D01*
X200135286Y-114875000D01*
X200138022Y-114851888D01*
X200146075Y-114830058D01*
X200163687Y-114795493D01*
X200190939Y-114724500D01*
X200210620Y-114651047D01*
X200222516Y-114575940D01*
X200226496Y-114500000D01*
X200222516Y-114424060D01*
X200210620Y-114348953D01*
X200190939Y-114275500D01*
X200163687Y-114204507D01*
X200129164Y-114136752D01*
X200110875Y-114108589D01*
X200089161Y-114075151D01*
X200089155Y-114075143D01*
X200087748Y-114072976D01*
X200057882Y-114036095D01*
X200041525Y-114015895D01*
X200041520Y-114015889D01*
X200039892Y-114013879D01*
X199986121Y-113960108D01*
X199984111Y-113958480D01*
X199984104Y-113958474D01*
X199929044Y-113913888D01*
X199927024Y-113912252D01*
X199924839Y-113910833D01*
X199890877Y-113888778D01*
X199870538Y-113871224D01*
X199855668Y-113848847D01*
X199847362Y-113823296D01*
X199846232Y-113796453D01*
X199852361Y-113770294D01*
X199863836Y-113749407D01*
X199863594Y-113749246D01*
X199864943Y-113747226D01*
X199866394Y-113745270D01*
X199906829Y-113677808D01*
X199940457Y-113606707D01*
X199966954Y-113532653D01*
X199986065Y-113456358D01*
X199997606Y-113378557D01*
X200001465Y-113300000D01*
X199997606Y-113221443D01*
X199986065Y-113143642D01*
X199966954Y-113067347D01*
X199940457Y-112993293D01*
X199906829Y-112922192D01*
X199866394Y-112854730D01*
X199829621Y-112805147D01*
X199816995Y-112782375D01*
X199810743Y-112757098D01*
X199811299Y-112731064D01*
X199818623Y-112706076D01*
X199832203Y-112683870D01*
X199837748Y-112677024D01*
X199879164Y-112613248D01*
X199913687Y-112545493D01*
X199940939Y-112474500D01*
X199960620Y-112401047D01*
X199972516Y-112325940D01*
X199976496Y-112250000D01*
X199972516Y-112174060D01*
X199960620Y-112098953D01*
X199940939Y-112025500D01*
X199916034Y-111960620D01*
X199914618Y-111956932D01*
X199914617Y-111956930D01*
X199913687Y-111954507D01*
X199879164Y-111886752D01*
X199863419Y-111862506D01*
X199839161Y-111825151D01*
X199839155Y-111825143D01*
X199837748Y-111822976D01*
X199808590Y-111786969D01*
X199791525Y-111765895D01*
X199791520Y-111765889D01*
X199789892Y-111763879D01*
X199736121Y-111710108D01*
X199734111Y-111708480D01*
X199734104Y-111708474D01*
X199690720Y-111673343D01*
X199677024Y-111662252D01*
X199674859Y-111660846D01*
X199674848Y-111660838D01*
X199615415Y-111622243D01*
X199615411Y-111622241D01*
X199613248Y-111620836D01*
X199591074Y-111609538D01*
X199547803Y-111587490D01*
X199547802Y-111587489D01*
X199545493Y-111586313D01*
X199543078Y-111585386D01*
X199543067Y-111585381D01*
X199476926Y-111559992D01*
X199476921Y-111559990D01*
X199474500Y-111559061D01*
X199401047Y-111539380D01*
X199398492Y-111538975D01*
X199398486Y-111538974D01*
X199328505Y-111527890D01*
X199328500Y-111527889D01*
X199325940Y-111527484D01*
X199323359Y-111527348D01*
X199323343Y-111527347D01*
X199252595Y-111523640D01*
X199250000Y-111523504D01*
X199247405Y-111523640D01*
X199176656Y-111527347D01*
X199176638Y-111527348D01*
X199174060Y-111527484D01*
X199171501Y-111527889D01*
X199171494Y-111527890D01*
X199101513Y-111538974D01*
X199101503Y-111538976D01*
X199098953Y-111539380D01*
X199096457Y-111540048D01*
X199096451Y-111540050D01*
X199028007Y-111558389D01*
X199028002Y-111558390D01*
X199025500Y-111559061D01*
X199023084Y-111559988D01*
X199023073Y-111559992D01*
X198956932Y-111585381D01*
X198956913Y-111585389D01*
X198954507Y-111586313D01*
X198952204Y-111587486D01*
X198952196Y-111587490D01*
X198889055Y-111619662D01*
X198889046Y-111619666D01*
X198886752Y-111620836D01*
X198884596Y-111622235D01*
X198884584Y-111622243D01*
X198825151Y-111660838D01*
X198825130Y-111660852D01*
X198822976Y-111662252D01*
X198820961Y-111663882D01*
X198820955Y-111663888D01*
X198765895Y-111708474D01*
X198765878Y-111708488D01*
X198763879Y-111710108D01*
X198762059Y-111711927D01*
X198762049Y-111711937D01*
X198711937Y-111762049D01*
X198711927Y-111762059D01*
X198710108Y-111763879D01*
X198708488Y-111765878D01*
X198708474Y-111765895D01*
X198663888Y-111820955D01*
X198663882Y-111820961D01*
X198662252Y-111822976D01*
X198660852Y-111825130D01*
X198660838Y-111825151D01*
X198622243Y-111884584D01*
X198622235Y-111884596D01*
X198620836Y-111886752D01*
X198619666Y-111889046D01*
X198619662Y-111889055D01*
X198587490Y-111952196D01*
X198587486Y-111952204D01*
X198586313Y-111954507D01*
X198585383Y-111956928D01*
X198585381Y-111956934D01*
X198584091Y-111960294D01*
X198573547Y-111980458D01*
X198558677Y-111997682D01*
X198540267Y-112011056D01*
X198519290Y-112019873D01*
X198496854Y-112023668D01*
X198426926Y-112027333D01*
X198424060Y-112027484D01*
X198421501Y-112027889D01*
X198421494Y-112027890D01*
X198351513Y-112038974D01*
X198351503Y-112038976D01*
X198348953Y-112039380D01*
X198346457Y-112040048D01*
X198346451Y-112040050D01*
X198278007Y-112058389D01*
X198278002Y-112058390D01*
X198275500Y-112059061D01*
X198273084Y-112059988D01*
X198273073Y-112059992D01*
X198206932Y-112085381D01*
X198206913Y-112085389D01*
X198204507Y-112086313D01*
X198202204Y-112087486D01*
X198202196Y-112087490D01*
X198139055Y-112119662D01*
X198139046Y-112119666D01*
X198136752Y-112120836D01*
X198134596Y-112122235D01*
X198134584Y-112122243D01*
X198075151Y-112160838D01*
X198075130Y-112160852D01*
X198072976Y-112162252D01*
X198070961Y-112163882D01*
X198070955Y-112163888D01*
X198015895Y-112208474D01*
X198015878Y-112208488D01*
X198013879Y-112210108D01*
X198012059Y-112211927D01*
X198012049Y-112211937D01*
X197961937Y-112262049D01*
X197961927Y-112262059D01*
X197960108Y-112263879D01*
X197958488Y-112265878D01*
X197958474Y-112265895D01*
X197913888Y-112320955D01*
X197913882Y-112320961D01*
X197912252Y-112322976D01*
X197910852Y-112325130D01*
X197910838Y-112325151D01*
X197872243Y-112384584D01*
X197872235Y-112384596D01*
X197870836Y-112386752D01*
X197869666Y-112389046D01*
X197869662Y-112389055D01*
X197837490Y-112452196D01*
X197837490Y-112452197D01*
X197836313Y-112454507D01*
X197835389Y-112456913D01*
X197835381Y-112456932D01*
X197809992Y-112523073D01*
X197809988Y-112523084D01*
X197809061Y-112525500D01*
X197808390Y-112528002D01*
X197808389Y-112528007D01*
X197789380Y-112598953D01*
X197789120Y-112598883D01*
X197781027Y-112621365D01*
X197765461Y-112643269D01*
X197744577Y-112660181D01*
X197719915Y-112670853D01*
X197693292Y-112674500D01*
X197500098Y-112674500D01*
X197474475Y-112671127D01*
X197450598Y-112661236D01*
X197430094Y-112645504D01*
X196975927Y-112191337D01*
X196519262Y-111734671D01*
X196506061Y-111718314D01*
X196496611Y-111699539D01*
X196491340Y-111679205D01*
X196486065Y-111643642D01*
X196466954Y-111567347D01*
X196465644Y-111563687D01*
X196456802Y-111538974D01*
X196440457Y-111493293D01*
X196406829Y-111422192D01*
X196366394Y-111354730D01*
X196319541Y-111291556D01*
X196266721Y-111233279D01*
X196208444Y-111180459D01*
X196206485Y-111179006D01*
X196205825Y-111178516D01*
X196205505Y-111178201D01*
X196204614Y-111177470D01*
X196204680Y-111177389D01*
X196186258Y-111159266D01*
X196172729Y-111135382D01*
X196166278Y-111108702D01*
X196167400Y-111081276D01*
X196176011Y-111055212D01*
X196191447Y-111032515D01*
X196212523Y-111014929D01*
X196237617Y-111003805D01*
X196264801Y-111000000D01*
X201264788Y-111000000D01*
X201290411Y-111003373D01*
X201314288Y-111013264D01*
X201334792Y-111028997D01*
X201350525Y-111049501D01*
X201360415Y-111073378D01*
X201363788Y-111099001D01*
X201360414Y-111124625D01*
X201350524Y-111148502D01*
X201334790Y-111169005D01*
X201312297Y-111191497D01*
X201309123Y-111194534D01*
X201295332Y-111207151D01*
X201293423Y-111209365D01*
X201293424Y-111209365D01*
X201276706Y-111228762D01*
X201275749Y-111229856D01*
X201258772Y-111248977D01*
X201258766Y-111248984D01*
X201256830Y-111251165D01*
X201255161Y-111253562D01*
X201254699Y-111254151D01*
X201254491Y-111254403D01*
X201254258Y-111254703D01*
X201254083Y-111254944D01*
X201253613Y-111255559D01*
X201251709Y-111257770D01*
X201250079Y-111260188D01*
X201250075Y-111260195D01*
X201235768Y-111281434D01*
X201234946Y-111282635D01*
X201220354Y-111303622D01*
X201220342Y-111303640D01*
X201218682Y-111306029D01*
X201217309Y-111308606D01*
X201216915Y-111309253D01*
X201216743Y-111309521D01*
X201216541Y-111309857D01*
X201216396Y-111310116D01*
X201216005Y-111310776D01*
X201214379Y-111313193D01*
X201213046Y-111315788D01*
X201213044Y-111315793D01*
X201201359Y-111338556D01*
X201200686Y-111339844D01*
X201188667Y-111362433D01*
X201188661Y-111362445D01*
X201187292Y-111365019D01*
X201186231Y-111367748D01*
X201185934Y-111368398D01*
X201185791Y-111368692D01*
X201185620Y-111369072D01*
X201185503Y-111369356D01*
X201185203Y-111370034D01*
X201183866Y-111372642D01*
X201182850Y-111375374D01*
X201182845Y-111375388D01*
X201173929Y-111399390D01*
X201173411Y-111400752D01*
X201164158Y-111424577D01*
X201164154Y-111424587D01*
X201163098Y-111427308D01*
X201162371Y-111430128D01*
X201162133Y-111430869D01*
X201162032Y-111431161D01*
X201161928Y-111431494D01*
X201161840Y-111431807D01*
X201161617Y-111432536D01*
X201160598Y-111435283D01*
X201156413Y-111452603D01*
X201153903Y-111462989D01*
X201153549Y-111464407D01*
X201150534Y-111476123D01*
X201146442Y-111492021D01*
X201146054Y-111494909D01*
X201145909Y-111495653D01*
X201145846Y-111495941D01*
X201145772Y-111496333D01*
X201145722Y-111496656D01*
X201145590Y-111497389D01*
X201144903Y-111500235D01*
X201144556Y-111503144D01*
X201144556Y-111503147D01*
X201141537Y-111528491D01*
X201141353Y-111529941D01*
X201137945Y-111555345D01*
X201137944Y-111555357D01*
X201137556Y-111558250D01*
X201137512Y-111561164D01*
X201137453Y-111561960D01*
X201137425Y-111562245D01*
X201137399Y-111562631D01*
X201137388Y-111562944D01*
X201137343Y-111563701D01*
X201137000Y-111566589D01*
X201137000Y-111569506D01*
X201137000Y-111595090D01*
X201136989Y-111596555D01*
X201136619Y-111621584D01*
X201136567Y-111625065D01*
X201136870Y-111627976D01*
X201136902Y-111628693D01*
X201137000Y-111633091D01*
X201137000Y-114625790D01*
X201133627Y-114651413D01*
X201123736Y-114675291D01*
X201108003Y-114695794D01*
X201012311Y-114791484D01*
X201009136Y-114794521D01*
X200997493Y-114805172D01*
X200997475Y-114805189D01*
X200995332Y-114807151D01*
X200993423Y-114809365D01*
X200993424Y-114809365D01*
X200976706Y-114828762D01*
X200975749Y-114829856D01*
X200958772Y-114848977D01*
X200958766Y-114848984D01*
X200956830Y-114851165D01*
X200955161Y-114853562D01*
X200954699Y-114854151D01*
X200954491Y-114854403D01*
X200954258Y-114854703D01*
X200954083Y-114854944D01*
X200953613Y-114855559D01*
X200951709Y-114857770D01*
X200950079Y-114860188D01*
X200950075Y-114860195D01*
X200935768Y-114881434D01*
X200934946Y-114882635D01*
X200920354Y-114903622D01*
X200920342Y-114903640D01*
X200918682Y-114906029D01*
X200917309Y-114908606D01*
X200916915Y-114909253D01*
X200916743Y-114909521D01*
X200916541Y-114909857D01*
X200916396Y-114910116D01*
X200916005Y-114910776D01*
X200914379Y-114913193D01*
X200913046Y-114915788D01*
X200913044Y-114915793D01*
X200901359Y-114938556D01*
X200900686Y-114939844D01*
X200888667Y-114962433D01*
X200888661Y-114962445D01*
X200887292Y-114965019D01*
X200886231Y-114967748D01*
X200885934Y-114968398D01*
X200885791Y-114968692D01*
X200885620Y-114969072D01*
X200885503Y-114969356D01*
X200885203Y-114970034D01*
X200883866Y-114972642D01*
X200882850Y-114975374D01*
X200882845Y-114975388D01*
X200873929Y-114999390D01*
X200873411Y-115000752D01*
X200864158Y-115024577D01*
X200864154Y-115024587D01*
X200863098Y-115027308D01*
X200862371Y-115030128D01*
X200862133Y-115030869D01*
X200862032Y-115031161D01*
X200861928Y-115031494D01*
X200861840Y-115031807D01*
X200861617Y-115032536D01*
X200860598Y-115035283D01*
X200859090Y-115041525D01*
X200853903Y-115062989D01*
X200853549Y-115064407D01*
X200849218Y-115081235D01*
X200846442Y-115092021D01*
X200846054Y-115094909D01*
X200845909Y-115095653D01*
X200845846Y-115095941D01*
X200845772Y-115096333D01*
X200845722Y-115096656D01*
X200845590Y-115097389D01*
X200844903Y-115100235D01*
X200844556Y-115103144D01*
X200844556Y-115103147D01*
X200841537Y-115128491D01*
X200841353Y-115129941D01*
X200837945Y-115155345D01*
X200837944Y-115155357D01*
X200837556Y-115158250D01*
X200837512Y-115161164D01*
X200837453Y-115161960D01*
X200837425Y-115162245D01*
X200837399Y-115162631D01*
X200837388Y-115162944D01*
X200837343Y-115163701D01*
X200837000Y-115166589D01*
X200837000Y-115169506D01*
X200837000Y-115195090D01*
X200836989Y-115196555D01*
X200836611Y-115222109D01*
X200836567Y-115225065D01*
X200836870Y-115227976D01*
X200836902Y-115228693D01*
X200837000Y-115233091D01*
X200837000Y-117785261D01*
X200836902Y-117789663D01*
X200836200Y-117805423D01*
X200836200Y-117805432D01*
X200836070Y-117808357D01*
X200836287Y-117811276D01*
X200838183Y-117836825D01*
X200838280Y-117838281D01*
X200838914Y-117848953D01*
X200839968Y-117866705D01*
X200840485Y-117869586D01*
X200840572Y-117870313D01*
X200840604Y-117870645D01*
X200840653Y-117871034D01*
X200840700Y-117871332D01*
X200840799Y-117872075D01*
X200841017Y-117874996D01*
X200841577Y-117877869D01*
X200841578Y-117877873D01*
X200846484Y-117903023D01*
X200846754Y-117904465D01*
X200851270Y-117929596D01*
X200851272Y-117929608D01*
X200851788Y-117932474D01*
X200852640Y-117935265D01*
X200852814Y-117935984D01*
X200852878Y-117936278D01*
X200852985Y-117936705D01*
X200853069Y-117937005D01*
X200853250Y-117937708D01*
X200853811Y-117940583D01*
X200854706Y-117943366D01*
X200854708Y-117943373D01*
X200862558Y-117967780D01*
X200862993Y-117969167D01*
X200871304Y-117996383D01*
X200872491Y-117999078D01*
X200872737Y-117999740D01*
X200872843Y-118000047D01*
X200872989Y-118000433D01*
X200873110Y-118000723D01*
X200873372Y-118001399D01*
X200874272Y-118004195D01*
X200875490Y-118006852D01*
X200875494Y-118006863D01*
X200886145Y-118030102D01*
X200886742Y-118031432D01*
X200898241Y-118057535D01*
X200899729Y-118060055D01*
X200900073Y-118060725D01*
X200900203Y-118060993D01*
X200900390Y-118061352D01*
X200900563Y-118061659D01*
X200900887Y-118062269D01*
X200902113Y-118064942D01*
X200910397Y-118078505D01*
X200916975Y-118089275D01*
X200917729Y-118090531D01*
X200932223Y-118115072D01*
X200933996Y-118117395D01*
X200934407Y-118118005D01*
X200934569Y-118118257D01*
X200934810Y-118118609D01*
X200934995Y-118118864D01*
X200935420Y-118119476D01*
X200936943Y-118121968D01*
X200954586Y-118144383D01*
X200955400Y-118145433D01*
X200972770Y-118168186D01*
X200974813Y-118170291D01*
X200975278Y-118170830D01*
X200975467Y-118171060D01*
X200975768Y-118171404D01*
X200975979Y-118171631D01*
X200976467Y-118172180D01*
X200978274Y-118174476D01*
X200980342Y-118176543D01*
X200980342Y-118176544D01*
X200998424Y-118194626D01*
X200999452Y-118195670D01*
X201019316Y-118216131D01*
X201021601Y-118217985D01*
X201022105Y-118218446D01*
X201025289Y-118221491D01*
X201191482Y-118387684D01*
X201194524Y-118390865D01*
X201207151Y-118404668D01*
X201209378Y-118406587D01*
X201228767Y-118423297D01*
X201229870Y-118424262D01*
X201248969Y-118441221D01*
X201248979Y-118441228D01*
X201251165Y-118443170D01*
X201253567Y-118444840D01*
X201254122Y-118445277D01*
X201254374Y-118445484D01*
X201254718Y-118445751D01*
X201254966Y-118445932D01*
X201255548Y-118446376D01*
X201257770Y-118448291D01*
X201281515Y-118464284D01*
X201282630Y-118465048D01*
X201306029Y-118481318D01*
X201308623Y-118482698D01*
X201309212Y-118483058D01*
X201309484Y-118483232D01*
X201309876Y-118483468D01*
X201310143Y-118483618D01*
X201310762Y-118483984D01*
X201313193Y-118485621D01*
X201315798Y-118486958D01*
X201315803Y-118486961D01*
X201338596Y-118498660D01*
X201339817Y-118499297D01*
X201365019Y-118512708D01*
X201367769Y-118513775D01*
X201368357Y-118514045D01*
X201368670Y-118514197D01*
X201369099Y-118514390D01*
X201369377Y-118514505D01*
X201370026Y-118514790D01*
X201372642Y-118516134D01*
X201399368Y-118526061D01*
X201400733Y-118526579D01*
X201427308Y-118536902D01*
X201430142Y-118537631D01*
X201430837Y-118537855D01*
X201431121Y-118537953D01*
X201431541Y-118538085D01*
X201431857Y-118538174D01*
X201432528Y-118538379D01*
X201435283Y-118539402D01*
X201463016Y-118546102D01*
X201464409Y-118546450D01*
X201492021Y-118553558D01*
X201494950Y-118553950D01*
X201495588Y-118554075D01*
X201495924Y-118554148D01*
X201496377Y-118554233D01*
X201496690Y-118554282D01*
X201497367Y-118554403D01*
X201500235Y-118555097D01*
X201528689Y-118558485D01*
X201529798Y-118558625D01*
X201558250Y-118562444D01*
X201561189Y-118562487D01*
X201561909Y-118562541D01*
X201562194Y-118562568D01*
X201562668Y-118562600D01*
X201562996Y-118562612D01*
X201563665Y-118562651D01*
X201566589Y-118563000D01*
X201595090Y-118563000D01*
X201596555Y-118563011D01*
X201625065Y-118563433D01*
X201627978Y-118563129D01*
X201628693Y-118563098D01*
X201633091Y-118563000D01*
X203007357Y-118563000D01*
X203029626Y-118565537D01*
X203050753Y-118573018D01*
X203069656Y-118585060D01*
X203070950Y-118586108D01*
X203070954Y-118586111D01*
X203072976Y-118587748D01*
X203075143Y-118589155D01*
X203075151Y-118589161D01*
X203125166Y-118621640D01*
X203136752Y-118629164D01*
X203204507Y-118663687D01*
X203275500Y-118690939D01*
X203348953Y-118710620D01*
X203424060Y-118722516D01*
X203500000Y-118726496D01*
X203575940Y-118722516D01*
X203651047Y-118710620D01*
X203724500Y-118690939D01*
X203795493Y-118663687D01*
X203863248Y-118629164D01*
X203927024Y-118587748D01*
X203986121Y-118539892D01*
X204039892Y-118486121D01*
X204087748Y-118427024D01*
X204129164Y-118363248D01*
X204163687Y-118295493D01*
X204190939Y-118224500D01*
X204210620Y-118151047D01*
X204222516Y-118075940D01*
X204226496Y-118000000D01*
X204222516Y-117924060D01*
X204210620Y-117848953D01*
X204190939Y-117775500D01*
X204163687Y-117704507D01*
X204129164Y-117636752D01*
X204112404Y-117610944D01*
X204089161Y-117575151D01*
X204089155Y-117575143D01*
X204087748Y-117572976D01*
X204039892Y-117513879D01*
X203986121Y-117460108D01*
X203984111Y-117458480D01*
X203984104Y-117458474D01*
X203929044Y-117413888D01*
X203927024Y-117412252D01*
X203924859Y-117410846D01*
X203924848Y-117410838D01*
X203865415Y-117372243D01*
X203865411Y-117372241D01*
X203863248Y-117370836D01*
X203795493Y-117336313D01*
X203793078Y-117335386D01*
X203793067Y-117335381D01*
X203726926Y-117309992D01*
X203726921Y-117309990D01*
X203724500Y-117309061D01*
X203651047Y-117289380D01*
X203648492Y-117288975D01*
X203648486Y-117288974D01*
X203578505Y-117277890D01*
X203578500Y-117277889D01*
X203575940Y-117277484D01*
X203573359Y-117277348D01*
X203573343Y-117277347D01*
X203502595Y-117273640D01*
X203500000Y-117273504D01*
X203497405Y-117273640D01*
X203426656Y-117277347D01*
X203426638Y-117277348D01*
X203424060Y-117277484D01*
X203421501Y-117277889D01*
X203421494Y-117277890D01*
X203351513Y-117288974D01*
X203351503Y-117288976D01*
X203348953Y-117289380D01*
X203346457Y-117290048D01*
X203346451Y-117290050D01*
X203278007Y-117308389D01*
X203278002Y-117308390D01*
X203275500Y-117309061D01*
X203273084Y-117309988D01*
X203273073Y-117309992D01*
X203206932Y-117335381D01*
X203206913Y-117335389D01*
X203204507Y-117336313D01*
X203202204Y-117337486D01*
X203202196Y-117337490D01*
X203139055Y-117369662D01*
X203139046Y-117369666D01*
X203136752Y-117370836D01*
X203134596Y-117372235D01*
X203134584Y-117372243D01*
X203075151Y-117410838D01*
X203075130Y-117410852D01*
X203072976Y-117412252D01*
X203070969Y-117413876D01*
X203070950Y-117413891D01*
X203069656Y-117414940D01*
X203050753Y-117426982D01*
X203029626Y-117434463D01*
X203007357Y-117437000D01*
X202062000Y-117437000D01*
X202036377Y-117433627D01*
X202012500Y-117423737D01*
X201991996Y-117408004D01*
X201976263Y-117387500D01*
X201966373Y-117363623D01*
X201963000Y-117338000D01*
X201963000Y-115474210D01*
X201966373Y-115448587D01*
X201976263Y-115424711D01*
X201991996Y-115404207D01*
X202009692Y-115386509D01*
X202087714Y-115308487D01*
X202090848Y-115305490D01*
X202104668Y-115292849D01*
X202123316Y-115271208D01*
X202124252Y-115270139D01*
X202143170Y-115248835D01*
X202144854Y-115246411D01*
X202145258Y-115245899D01*
X202145468Y-115245643D01*
X202145762Y-115245264D01*
X202145947Y-115245011D01*
X202146358Y-115244471D01*
X202148291Y-115242230D01*
X202164313Y-115218440D01*
X202164957Y-115217500D01*
X202181318Y-115193971D01*
X202182709Y-115191355D01*
X202183040Y-115190814D01*
X202183228Y-115190521D01*
X202183479Y-115190103D01*
X202183629Y-115189836D01*
X202183975Y-115189248D01*
X202185621Y-115186807D01*
X202198709Y-115161305D01*
X202199275Y-115160224D01*
X202212708Y-115134981D01*
X202213774Y-115132232D01*
X202214044Y-115131645D01*
X202214192Y-115131339D01*
X202214395Y-115130890D01*
X202214520Y-115130587D01*
X202214787Y-115129979D01*
X202216134Y-115127358D01*
X202226104Y-115100514D01*
X202226557Y-115099323D01*
X202236902Y-115072692D01*
X202237636Y-115069836D01*
X202237848Y-115069180D01*
X202237955Y-115068870D01*
X202238088Y-115068444D01*
X202238175Y-115068137D01*
X202238375Y-115067479D01*
X202239402Y-115064717D01*
X202246133Y-115036856D01*
X202246417Y-115035719D01*
X202253558Y-115007979D01*
X202253950Y-115005053D01*
X202254079Y-115004392D01*
X202254145Y-115004091D01*
X202254237Y-115003598D01*
X202254289Y-115003267D01*
X202254401Y-115002639D01*
X202255097Y-114999765D01*
X202258475Y-114971392D01*
X202258637Y-114970113D01*
X202262444Y-114941750D01*
X202262487Y-114938793D01*
X202262539Y-114938103D01*
X202262570Y-114937780D01*
X202262598Y-114937368D01*
X202262611Y-114937006D01*
X202262650Y-114936348D01*
X202263000Y-114933411D01*
X202263000Y-114904910D01*
X202263011Y-114903445D01*
X202263319Y-114882635D01*
X202263433Y-114874935D01*
X202263129Y-114872022D01*
X202263098Y-114871307D01*
X202263000Y-114866909D01*
X202263000Y-113430000D01*
X207673504Y-113430000D01*
X207673640Y-113432595D01*
X207677347Y-113503343D01*
X207677348Y-113503359D01*
X207677484Y-113505940D01*
X207677889Y-113508500D01*
X207677890Y-113508505D01*
X207688159Y-113573343D01*
X207689380Y-113581047D01*
X207709061Y-113654500D01*
X207709990Y-113656921D01*
X207709992Y-113656926D01*
X207735381Y-113723067D01*
X207735386Y-113723078D01*
X207736313Y-113725493D01*
X207737489Y-113727802D01*
X207737490Y-113727803D01*
X207763350Y-113778557D01*
X207770836Y-113793248D01*
X207772241Y-113795411D01*
X207772243Y-113795415D01*
X207810838Y-113854848D01*
X207810846Y-113854859D01*
X207812252Y-113857024D01*
X207817292Y-113863248D01*
X207858474Y-113914104D01*
X207858480Y-113914111D01*
X207860108Y-113916121D01*
X207913879Y-113969892D01*
X207915889Y-113971520D01*
X207915895Y-113971525D01*
X207932029Y-113984590D01*
X207972976Y-114017748D01*
X207975143Y-114019155D01*
X207975151Y-114019161D01*
X207984942Y-114025519D01*
X208036752Y-114059164D01*
X208104507Y-114093687D01*
X208175500Y-114120939D01*
X208248953Y-114140620D01*
X208324060Y-114152516D01*
X208400000Y-114156496D01*
X208475940Y-114152516D01*
X208551047Y-114140620D01*
X208624500Y-114120939D01*
X208695493Y-114093687D01*
X208763248Y-114059164D01*
X208827024Y-114017748D01*
X208886121Y-113969892D01*
X208939892Y-113916121D01*
X208987748Y-113857024D01*
X209029164Y-113793248D01*
X209063687Y-113725493D01*
X209090939Y-113654500D01*
X209110620Y-113581047D01*
X209122516Y-113505940D01*
X209126496Y-113430000D01*
X209122516Y-113354060D01*
X209110620Y-113278953D01*
X209090939Y-113205500D01*
X209063687Y-113134507D01*
X209029164Y-113066752D01*
X209016859Y-113047803D01*
X208989161Y-113005151D01*
X208989155Y-113005143D01*
X208987748Y-113002976D01*
X208965045Y-112974940D01*
X208941525Y-112945895D01*
X208941520Y-112945889D01*
X208939892Y-112943879D01*
X208886121Y-112890108D01*
X208884111Y-112888480D01*
X208884104Y-112888474D01*
X208842395Y-112854699D01*
X208827024Y-112842252D01*
X208824859Y-112840846D01*
X208824848Y-112840838D01*
X208765415Y-112802243D01*
X208765411Y-112802241D01*
X208763248Y-112800836D01*
X208756718Y-112797509D01*
X208697803Y-112767490D01*
X208697802Y-112767489D01*
X208695493Y-112766313D01*
X208693078Y-112765386D01*
X208693067Y-112765381D01*
X208626926Y-112739992D01*
X208626921Y-112739990D01*
X208624500Y-112739061D01*
X208551047Y-112719380D01*
X208548492Y-112718975D01*
X208548486Y-112718974D01*
X208478505Y-112707890D01*
X208478500Y-112707889D01*
X208475940Y-112707484D01*
X208473359Y-112707348D01*
X208473343Y-112707347D01*
X208402595Y-112703640D01*
X208400000Y-112703504D01*
X208397405Y-112703640D01*
X208326656Y-112707347D01*
X208326638Y-112707348D01*
X208324060Y-112707484D01*
X208321501Y-112707889D01*
X208321494Y-112707890D01*
X208251513Y-112718974D01*
X208251503Y-112718976D01*
X208248953Y-112719380D01*
X208246457Y-112720048D01*
X208246451Y-112720050D01*
X208178007Y-112738389D01*
X208178002Y-112738390D01*
X208175500Y-112739061D01*
X208173084Y-112739988D01*
X208173073Y-112739992D01*
X208106932Y-112765381D01*
X208106913Y-112765389D01*
X208104507Y-112766313D01*
X208102204Y-112767486D01*
X208102196Y-112767490D01*
X208039055Y-112799662D01*
X208039046Y-112799666D01*
X208036752Y-112800836D01*
X208034596Y-112802235D01*
X208034584Y-112802243D01*
X207975151Y-112840838D01*
X207975130Y-112840852D01*
X207972976Y-112842252D01*
X207970961Y-112843882D01*
X207970955Y-112843888D01*
X207915895Y-112888474D01*
X207915878Y-112888488D01*
X207913879Y-112890108D01*
X207912059Y-112891927D01*
X207912049Y-112891937D01*
X207861937Y-112942049D01*
X207861927Y-112942059D01*
X207860108Y-112943879D01*
X207858488Y-112945878D01*
X207858474Y-112945895D01*
X207813888Y-113000955D01*
X207813882Y-113000961D01*
X207812252Y-113002976D01*
X207810852Y-113005130D01*
X207810838Y-113005151D01*
X207772243Y-113064584D01*
X207772235Y-113064596D01*
X207770836Y-113066752D01*
X207769666Y-113069046D01*
X207769662Y-113069055D01*
X207737490Y-113132196D01*
X207737486Y-113132204D01*
X207736313Y-113134507D01*
X207735389Y-113136913D01*
X207735381Y-113136932D01*
X207709992Y-113203073D01*
X207709988Y-113203084D01*
X207709061Y-113205500D01*
X207708390Y-113208002D01*
X207708389Y-113208007D01*
X207695311Y-113256819D01*
X207689380Y-113278953D01*
X207688976Y-113281503D01*
X207688974Y-113281513D01*
X207677890Y-113351494D01*
X207677484Y-113354060D01*
X207677348Y-113356638D01*
X207677347Y-113356656D01*
X207674359Y-113413687D01*
X207673504Y-113430000D01*
X202263000Y-113430000D01*
X202263000Y-111874209D01*
X202266373Y-111848586D01*
X202276264Y-111824709D01*
X202291997Y-111804205D01*
X202504207Y-111591996D01*
X202524710Y-111576263D01*
X202548587Y-111566373D01*
X202574210Y-111563000D01*
X207077618Y-111563000D01*
X207102406Y-111566153D01*
X207125614Y-111575413D01*
X207145765Y-111590188D01*
X207161575Y-111609538D01*
X207172036Y-111632230D01*
X207176482Y-111656819D01*
X207177347Y-111673343D01*
X207177348Y-111673359D01*
X207177484Y-111675940D01*
X207177889Y-111678500D01*
X207177890Y-111678505D01*
X207185636Y-111727412D01*
X207189380Y-111751047D01*
X207190049Y-111753545D01*
X207190050Y-111753548D01*
X207202136Y-111798653D01*
X207209061Y-111824500D01*
X207209990Y-111826921D01*
X207209992Y-111826926D01*
X207235381Y-111893067D01*
X207235386Y-111893078D01*
X207236313Y-111895493D01*
X207270836Y-111963248D01*
X207272241Y-111965411D01*
X207272243Y-111965415D01*
X207310838Y-112024848D01*
X207310846Y-112024859D01*
X207312252Y-112027024D01*
X207313888Y-112029044D01*
X207358474Y-112084104D01*
X207358480Y-112084111D01*
X207360108Y-112086121D01*
X207413879Y-112139892D01*
X207415889Y-112141520D01*
X207415895Y-112141525D01*
X207439745Y-112160838D01*
X207472976Y-112187748D01*
X207475143Y-112189155D01*
X207475151Y-112189161D01*
X207507408Y-112210108D01*
X207536752Y-112229164D01*
X207604507Y-112263687D01*
X207675500Y-112290939D01*
X207748953Y-112310620D01*
X207824060Y-112322516D01*
X207900000Y-112326496D01*
X207975940Y-112322516D01*
X208051047Y-112310620D01*
X208124500Y-112290939D01*
X208195493Y-112263687D01*
X208263248Y-112229164D01*
X208327024Y-112187748D01*
X208386121Y-112139892D01*
X208439892Y-112086121D01*
X208487748Y-112027024D01*
X208529164Y-111963248D01*
X208563687Y-111895493D01*
X208590939Y-111824500D01*
X208610620Y-111751047D01*
X208621235Y-111684021D01*
X208626590Y-111664037D01*
X208635987Y-111645596D01*
X208649007Y-111629517D01*
X208801023Y-111477502D01*
X208801030Y-111477493D01*
X208812808Y-111465716D01*
X208821244Y-111454947D01*
X208825055Y-111450373D01*
X208834137Y-111440124D01*
X208841914Y-111428855D01*
X208845445Y-111424057D01*
X208853881Y-111413291D01*
X208860971Y-111401561D01*
X208864192Y-111396579D01*
X208871968Y-111385315D01*
X208878330Y-111373191D01*
X208881252Y-111368010D01*
X208888334Y-111356298D01*
X208893950Y-111343818D01*
X208896553Y-111338470D01*
X208902919Y-111326345D01*
X208907771Y-111313549D01*
X208910059Y-111308026D01*
X208914439Y-111298295D01*
X208915667Y-111295567D01*
X208919742Y-111282485D01*
X208921677Y-111276876D01*
X208926534Y-111264074D01*
X208929811Y-111250776D01*
X208931405Y-111245056D01*
X208935480Y-111231984D01*
X208937946Y-111218520D01*
X208939193Y-111212714D01*
X208942473Y-111199412D01*
X208944122Y-111185824D01*
X208945019Y-111179928D01*
X208947485Y-111166477D01*
X208948309Y-111152837D01*
X208948852Y-111146872D01*
X208950139Y-111136272D01*
X208950139Y-111136269D01*
X208950500Y-111133299D01*
X208950500Y-111099000D01*
X208953873Y-111073377D01*
X208963763Y-111049500D01*
X208979496Y-111028996D01*
X209000000Y-111013263D01*
X209023877Y-111003373D01*
X209049500Y-111000000D01*
X209800500Y-111000000D01*
X209826123Y-111003373D01*
X209850000Y-111013263D01*
X209870504Y-111028996D01*
X209886237Y-111049500D01*
X209896127Y-111073377D01*
X209899500Y-111099000D01*
X209899500Y-122151264D01*
X209896127Y-122176887D01*
X209886237Y-122200764D01*
X209870504Y-122221268D01*
X209850000Y-122237001D01*
X209826123Y-122246891D01*
X209800500Y-122250264D01*
X209774877Y-122246891D01*
X209751000Y-122237001D01*
X209730496Y-122221268D01*
X209284168Y-121774940D01*
X209284167Y-121774939D01*
X209283610Y-121774382D01*
X209283035Y-121773843D01*
X209283018Y-121773827D01*
X209260832Y-121753048D01*
X209260824Y-121753041D01*
X209259656Y-121751947D01*
X209234287Y-121731127D01*
X209213783Y-121715394D01*
X209212927Y-121714794D01*
X209212903Y-121714777D01*
X209179713Y-121691538D01*
X209177945Y-121690300D01*
X209140056Y-121668425D01*
X209100405Y-121649936D01*
X209099407Y-121649522D01*
X209099392Y-121649516D01*
X209077542Y-121640466D01*
X209077541Y-121640465D01*
X209076528Y-121640046D01*
X209075527Y-121639681D01*
X209075497Y-121639670D01*
X209037443Y-121625821D01*
X209037441Y-121625820D01*
X209035415Y-121625083D01*
X209033354Y-121624530D01*
X209033339Y-121624526D01*
X208995228Y-121614314D01*
X208995212Y-121614310D01*
X208993154Y-121613759D01*
X208991044Y-121613387D01*
X208991026Y-121613383D01*
X208951155Y-121606354D01*
X208951126Y-121606349D01*
X208950068Y-121606163D01*
X208949021Y-121606025D01*
X208948981Y-121606019D01*
X208925238Y-121602894D01*
X208925214Y-121602891D01*
X208924445Y-121602790D01*
X208923683Y-121602715D01*
X208923640Y-121602710D01*
X208893422Y-121599734D01*
X208893394Y-121599732D01*
X208891788Y-121599574D01*
X208890166Y-121599520D01*
X208890153Y-121599520D01*
X208859814Y-121598526D01*
X208859759Y-121598525D01*
X208858992Y-121598500D01*
X208858168Y-121598500D01*
X207348736Y-121598500D01*
X207323113Y-121595127D01*
X207299236Y-121585237D01*
X207278732Y-121569504D01*
X206630496Y-120921268D01*
X206614763Y-120900764D01*
X206604873Y-120876887D01*
X206601500Y-120851264D01*
X206601500Y-119899824D01*
X206601500Y-119899000D01*
X206600426Y-119866204D01*
X206597210Y-119833547D01*
X206593837Y-119807924D01*
X206586241Y-119764838D01*
X206574917Y-119722577D01*
X206559954Y-119681464D01*
X206550064Y-119657587D01*
X206531575Y-119617936D01*
X206509700Y-119580047D01*
X206499344Y-119565257D01*
X206485222Y-119545088D01*
X206485210Y-119545072D01*
X206484606Y-119544209D01*
X206468873Y-119523705D01*
X206440750Y-119490189D01*
X206409811Y-119459250D01*
X206376295Y-119431127D01*
X206355791Y-119415394D01*
X206354935Y-119414794D01*
X206354911Y-119414777D01*
X206321721Y-119391538D01*
X206319953Y-119390300D01*
X206282064Y-119368425D01*
X206242413Y-119349936D01*
X206241415Y-119349522D01*
X206241400Y-119349516D01*
X206219550Y-119340466D01*
X206219549Y-119340465D01*
X206218536Y-119340046D01*
X206217535Y-119339681D01*
X206217505Y-119339670D01*
X206179451Y-119325821D01*
X206179449Y-119325820D01*
X206177423Y-119325083D01*
X206175362Y-119324530D01*
X206175347Y-119324526D01*
X206137236Y-119314314D01*
X206137220Y-119314310D01*
X206135162Y-119313759D01*
X206133052Y-119313387D01*
X206133034Y-119313383D01*
X206093163Y-119306354D01*
X206093134Y-119306349D01*
X206092076Y-119306163D01*
X206091029Y-119306025D01*
X206090989Y-119306019D01*
X206067246Y-119302894D01*
X206067222Y-119302891D01*
X206066453Y-119302790D01*
X206065691Y-119302715D01*
X206065648Y-119302710D01*
X206035430Y-119299734D01*
X206035402Y-119299732D01*
X206033796Y-119299574D01*
X206032174Y-119299520D01*
X206032161Y-119299520D01*
X206001822Y-119298526D01*
X206001767Y-119298525D01*
X206001000Y-119298500D01*
X202741008Y-119298500D01*
X202740241Y-119298525D01*
X202740185Y-119298526D01*
X202709846Y-119299520D01*
X202709831Y-119299520D01*
X202708212Y-119299574D01*
X202706607Y-119299731D01*
X202706577Y-119299734D01*
X202676359Y-119302710D01*
X202676309Y-119302715D01*
X202675555Y-119302790D01*
X202674792Y-119302890D01*
X202674761Y-119302894D01*
X202651018Y-119306019D01*
X202650971Y-119306026D01*
X202649932Y-119306163D01*
X202648880Y-119306348D01*
X202648844Y-119306354D01*
X202608973Y-119313383D01*
X202608950Y-119313387D01*
X202606846Y-119313759D01*
X202604792Y-119314309D01*
X202604771Y-119314314D01*
X202566660Y-119324526D01*
X202566639Y-119324532D01*
X202564585Y-119325083D01*
X202562565Y-119325818D01*
X202562556Y-119325821D01*
X202524502Y-119339670D01*
X202524457Y-119339687D01*
X202523472Y-119340046D01*
X202522473Y-119340459D01*
X202522457Y-119340466D01*
X202500607Y-119349516D01*
X202500575Y-119349530D01*
X202499595Y-119349936D01*
X202498633Y-119350384D01*
X202498607Y-119350396D01*
X202461905Y-119367510D01*
X202461893Y-119367515D01*
X202459944Y-119368425D01*
X202458085Y-119369498D01*
X202458074Y-119369504D01*
X202423920Y-119389223D01*
X202422055Y-119390300D01*
X202420296Y-119391531D01*
X202420286Y-119391538D01*
X202387096Y-119414777D01*
X202387050Y-119414810D01*
X202386217Y-119415394D01*
X202385393Y-119416026D01*
X202385362Y-119416049D01*
X202366375Y-119430618D01*
X202366335Y-119430649D01*
X202365713Y-119431127D01*
X202365111Y-119431620D01*
X202365072Y-119431652D01*
X202341588Y-119450925D01*
X202341569Y-119450941D01*
X202340344Y-119451947D01*
X202339189Y-119453027D01*
X202339167Y-119453048D01*
X202316981Y-119473827D01*
X202316933Y-119473872D01*
X202316390Y-119474382D01*
X202315862Y-119474909D01*
X202315831Y-119474940D01*
X202174940Y-119615831D01*
X202174909Y-119615862D01*
X202174382Y-119616390D01*
X202173872Y-119616933D01*
X202173827Y-119616981D01*
X202153048Y-119639167D01*
X202153027Y-119639189D01*
X202151947Y-119640344D01*
X202150941Y-119641569D01*
X202150925Y-119641588D01*
X202131652Y-119665072D01*
X202131620Y-119665111D01*
X202131127Y-119665713D01*
X202130649Y-119666335D01*
X202130618Y-119666375D01*
X202116049Y-119685362D01*
X202116026Y-119685393D01*
X202115394Y-119686217D01*
X202114810Y-119687050D01*
X202114777Y-119687096D01*
X202091538Y-119720286D01*
X202091531Y-119720296D01*
X202090300Y-119722055D01*
X202089225Y-119723915D01*
X202089223Y-119723920D01*
X202069504Y-119758074D01*
X202069498Y-119758085D01*
X202068425Y-119759944D01*
X202067515Y-119761893D01*
X202067510Y-119761905D01*
X202050396Y-119798607D01*
X202050384Y-119798633D01*
X202049936Y-119799595D01*
X202049530Y-119800575D01*
X202049516Y-119800607D01*
X202046036Y-119809010D01*
X202040046Y-119823472D01*
X202039687Y-119824457D01*
X202039670Y-119824502D01*
X202025821Y-119862556D01*
X202025083Y-119864585D01*
X202024532Y-119866639D01*
X202024526Y-119866660D01*
X202014314Y-119904771D01*
X202014309Y-119904792D01*
X202013759Y-119906846D01*
X202013387Y-119908950D01*
X202013383Y-119908973D01*
X202006354Y-119948844D01*
X202006348Y-119948880D01*
X202006163Y-119949932D01*
X202006026Y-119950971D01*
X202006019Y-119951018D01*
X202002894Y-119974761D01*
X202002890Y-119974792D01*
X202002790Y-119975555D01*
X202002715Y-119976309D01*
X202002710Y-119976359D01*
X201999734Y-120006577D01*
X201999731Y-120006607D01*
X201999574Y-120008212D01*
X201999520Y-120009831D01*
X201999520Y-120009846D01*
X201998526Y-120040185D01*
X201998525Y-120040241D01*
X201998500Y-120041008D01*
X201998500Y-120041832D01*
X201998500Y-123001000D01*
X201995127Y-123026623D01*
X201985237Y-123050500D01*
X201969504Y-123071004D01*
X201949000Y-123086737D01*
X201925123Y-123096627D01*
X201899500Y-123100000D01*
X189700500Y-123100000D01*
X189674877Y-123096627D01*
X189651000Y-123086737D01*
X189630496Y-123071004D01*
X189614763Y-123050500D01*
X189604873Y-123026623D01*
X189601500Y-123001000D01*
X189601500Y-122799824D01*
X189601500Y-122799000D01*
X189600426Y-122766204D01*
X189597210Y-122733547D01*
X189593837Y-122707924D01*
X189586241Y-122664838D01*
X189574917Y-122622577D01*
X189559954Y-122581464D01*
X189550064Y-122557587D01*
X189531575Y-122517936D01*
X189509700Y-122480047D01*
X189499344Y-122465257D01*
X189485222Y-122445088D01*
X189485210Y-122445072D01*
X189484606Y-122444209D01*
X189468873Y-122423705D01*
X189440750Y-122390189D01*
X189409811Y-122359250D01*
X189402417Y-122353046D01*
X189377124Y-122331823D01*
X189376295Y-122331127D01*
X189355791Y-122315394D01*
X189354935Y-122314794D01*
X189354911Y-122314777D01*
X189321721Y-122291538D01*
X189319953Y-122290300D01*
X189282064Y-122268425D01*
X189280102Y-122267510D01*
X189243400Y-122250396D01*
X189243391Y-122250392D01*
X189242413Y-122249936D01*
X189241415Y-122249522D01*
X189241400Y-122249516D01*
X189219550Y-122240466D01*
X189219549Y-122240465D01*
X189218536Y-122240046D01*
X189217535Y-122239681D01*
X189217505Y-122239670D01*
X189179451Y-122225821D01*
X189179449Y-122225820D01*
X189177423Y-122225083D01*
X189175362Y-122224530D01*
X189175347Y-122224526D01*
X189137236Y-122214314D01*
X189137220Y-122214310D01*
X189135162Y-122213759D01*
X189133052Y-122213387D01*
X189133034Y-122213383D01*
X189093163Y-122206354D01*
X189093134Y-122206349D01*
X189092076Y-122206163D01*
X189091029Y-122206025D01*
X189090989Y-122206019D01*
X189067246Y-122202894D01*
X189067222Y-122202891D01*
X189066453Y-122202790D01*
X189065691Y-122202715D01*
X189065648Y-122202710D01*
X189035430Y-122199734D01*
X189035402Y-122199732D01*
X189033796Y-122199574D01*
X189032174Y-122199520D01*
X189032161Y-122199520D01*
X189001822Y-122198526D01*
X189001767Y-122198525D01*
X189001000Y-122198500D01*
X189000176Y-122198500D01*
X186535710Y-122198500D01*
X186510087Y-122195127D01*
X186486210Y-122185237D01*
X186465706Y-122169504D01*
X185488198Y-121191996D01*
X184508494Y-120212291D01*
X184505475Y-120209135D01*
X184492849Y-120195332D01*
X184490629Y-120193419D01*
X184490621Y-120193411D01*
X184471226Y-120176697D01*
X184470124Y-120175733D01*
X184462525Y-120168986D01*
X184448835Y-120156830D01*
X184446426Y-120155155D01*
X184445879Y-120154724D01*
X184445623Y-120154513D01*
X184445278Y-120154246D01*
X184445048Y-120154078D01*
X184444445Y-120153618D01*
X184442230Y-120151709D01*
X184439802Y-120150073D01*
X184439796Y-120150069D01*
X184418540Y-120135752D01*
X184417329Y-120134923D01*
X184396373Y-120120352D01*
X184396371Y-120120351D01*
X184393971Y-120118682D01*
X184391398Y-120117312D01*
X184390757Y-120116921D01*
X184390515Y-120116766D01*
X184390152Y-120116547D01*
X184389851Y-120116379D01*
X184389246Y-120116021D01*
X184386807Y-120114379D01*
X184384197Y-120113039D01*
X184384183Y-120113031D01*
X184361449Y-120101362D01*
X184360155Y-120100686D01*
X184337570Y-120088669D01*
X184337562Y-120088665D01*
X184334981Y-120087292D01*
X184332257Y-120086234D01*
X184331596Y-120085931D01*
X184331330Y-120085802D01*
X184330920Y-120085617D01*
X184330617Y-120085492D01*
X184329973Y-120085208D01*
X184327358Y-120083866D01*
X184324605Y-120082843D01*
X184324602Y-120082842D01*
X184300655Y-120073947D01*
X184299286Y-120073427D01*
X184275424Y-120064159D01*
X184275422Y-120064158D01*
X184272692Y-120063098D01*
X184269858Y-120062368D01*
X184269134Y-120062135D01*
X184268832Y-120062030D01*
X184268467Y-120061916D01*
X184268169Y-120061832D01*
X184267448Y-120061612D01*
X184264717Y-120060598D01*
X184261883Y-120059913D01*
X184261866Y-120059908D01*
X184236965Y-120053891D01*
X184235541Y-120053536D01*
X184210810Y-120047170D01*
X184210799Y-120047167D01*
X184207979Y-120046442D01*
X184205089Y-120046054D01*
X184204351Y-120045910D01*
X184204077Y-120045850D01*
X184203637Y-120045768D01*
X184203327Y-120045719D01*
X184202608Y-120045589D01*
X184199765Y-120044903D01*
X184196858Y-120044556D01*
X184196854Y-120044556D01*
X184171517Y-120041538D01*
X184170066Y-120041354D01*
X184144650Y-120037944D01*
X184144631Y-120037942D01*
X184141750Y-120037556D01*
X184138836Y-120037512D01*
X184138053Y-120037454D01*
X184137762Y-120037426D01*
X184137368Y-120037399D01*
X184137059Y-120037388D01*
X184136294Y-120037342D01*
X184133411Y-120037000D01*
X184130496Y-120037000D01*
X184104910Y-120037000D01*
X184103445Y-120036989D01*
X184077865Y-120036610D01*
X184077858Y-120036610D01*
X184074935Y-120036567D01*
X184072023Y-120036870D01*
X184071307Y-120036902D01*
X184066909Y-120037000D01*
X180274209Y-120037000D01*
X180248586Y-120033627D01*
X180224709Y-120023736D01*
X180204205Y-120008003D01*
X179991996Y-119795793D01*
X179976263Y-119775290D01*
X179966373Y-119751413D01*
X179963000Y-119725790D01*
X179963000Y-115514739D01*
X179963098Y-115510337D01*
X179963799Y-115494576D01*
X179963930Y-115491643D01*
X179961808Y-115463077D01*
X179961716Y-115461683D01*
X179961434Y-115456932D01*
X179960032Y-115433295D01*
X179959509Y-115430386D01*
X179959433Y-115429748D01*
X179959399Y-115429395D01*
X179959342Y-115428945D01*
X179959295Y-115428646D01*
X179959201Y-115427946D01*
X179958983Y-115425004D01*
X179953517Y-115396985D01*
X179953246Y-115395539D01*
X179950178Y-115378467D01*
X179948212Y-115367526D01*
X179947351Y-115364708D01*
X179947188Y-115364031D01*
X179947116Y-115363703D01*
X179947014Y-115363291D01*
X179946927Y-115362982D01*
X179946750Y-115362296D01*
X179946189Y-115359418D01*
X179939136Y-115337490D01*
X179937443Y-115332226D01*
X179937039Y-115330940D01*
X179928696Y-115303617D01*
X179927510Y-115300926D01*
X179927277Y-115300298D01*
X179927170Y-115299990D01*
X179926996Y-115299532D01*
X179926880Y-115299250D01*
X179926627Y-115298599D01*
X179925729Y-115295805D01*
X179913799Y-115269775D01*
X179913277Y-115268614D01*
X179901759Y-115242465D01*
X179900265Y-115239936D01*
X179899946Y-115239314D01*
X179899808Y-115239029D01*
X179899600Y-115238632D01*
X179899436Y-115238340D01*
X179899117Y-115237742D01*
X179897888Y-115235058D01*
X179882992Y-115210669D01*
X179882275Y-115209475D01*
X179869274Y-115187463D01*
X179867777Y-115184928D01*
X179865987Y-115182584D01*
X179865621Y-115182040D01*
X179865433Y-115181747D01*
X179865178Y-115181374D01*
X179865000Y-115181130D01*
X179864588Y-115180537D01*
X179863058Y-115178032D01*
X179861245Y-115175729D01*
X179861239Y-115175720D01*
X179845421Y-115155624D01*
X179844524Y-115154467D01*
X179829010Y-115134145D01*
X179829005Y-115134139D01*
X179827230Y-115131814D01*
X179825186Y-115129708D01*
X179824710Y-115129156D01*
X179824511Y-115128914D01*
X179824237Y-115128601D01*
X179824005Y-115128351D01*
X179823541Y-115127829D01*
X179821727Y-115125524D01*
X179801539Y-115105336D01*
X179800512Y-115104292D01*
X179782736Y-115085982D01*
X179782730Y-115085976D01*
X179780684Y-115083869D01*
X179778404Y-115082019D01*
X179777897Y-115081555D01*
X179774716Y-115078513D01*
X178804792Y-114108589D01*
X178789936Y-114089574D01*
X178780122Y-114067530D01*
X178775932Y-114043766D01*
X178777615Y-114019694D01*
X178785072Y-113996745D01*
X178797859Y-113976282D01*
X178837748Y-113927024D01*
X178879164Y-113863248D01*
X178913687Y-113795493D01*
X178940939Y-113724500D01*
X178960620Y-113651047D01*
X178972516Y-113575940D01*
X178973001Y-113566684D01*
X178977191Y-113542921D01*
X178987005Y-113520876D01*
X179001861Y-113501861D01*
X179020876Y-113487005D01*
X179042921Y-113477191D01*
X179066684Y-113473001D01*
X179075940Y-113472516D01*
X179151047Y-113460620D01*
X179224500Y-113440939D01*
X179295493Y-113413687D01*
X179330058Y-113396075D01*
X179351888Y-113388022D01*
X179375000Y-113385286D01*
X179398112Y-113388022D01*
X179419941Y-113396075D01*
X179454507Y-113413687D01*
X179525500Y-113440939D01*
X179598953Y-113460620D01*
X179674060Y-113472516D01*
X179750000Y-113476496D01*
X179825940Y-113472516D01*
X179901047Y-113460620D01*
X179974500Y-113440939D01*
X180045493Y-113413687D01*
X180113248Y-113379164D01*
X180177024Y-113337748D01*
X180236121Y-113289892D01*
X180289892Y-113236121D01*
X180337748Y-113177024D01*
X180379164Y-113113248D01*
X180413687Y-113045493D01*
X180440939Y-112974500D01*
X180460620Y-112901047D01*
X180472516Y-112825940D01*
X180476496Y-112750000D01*
X180472516Y-112674060D01*
X180460620Y-112598953D01*
X180440939Y-112525500D01*
X180413687Y-112454507D01*
X180396075Y-112419941D01*
X180388022Y-112398112D01*
X180385286Y-112375000D01*
X180388022Y-112351888D01*
X180396075Y-112330058D01*
X180413687Y-112295493D01*
X180440939Y-112224500D01*
X180460620Y-112151047D01*
X180472516Y-112075940D01*
X180473001Y-112066684D01*
X180477191Y-112042921D01*
X180487005Y-112020876D01*
X180501861Y-112001861D01*
X180520876Y-111987005D01*
X180542921Y-111977191D01*
X180566684Y-111973001D01*
X180575940Y-111972516D01*
X180651047Y-111960620D01*
X180724500Y-111940939D01*
X180795493Y-111913687D01*
X180830058Y-111896075D01*
X180851888Y-111888022D01*
X180875000Y-111885286D01*
X180898112Y-111888022D01*
X180919941Y-111896075D01*
X180954507Y-111913687D01*
X181025500Y-111940939D01*
X181098953Y-111960620D01*
X181174060Y-111972516D01*
X181250000Y-111976496D01*
X181255738Y-111976195D01*
X181283352Y-111978634D01*
X181309210Y-111988635D01*
X181331281Y-112005414D01*
X181347833Y-112027656D01*
X181357570Y-112053615D01*
X181359726Y-112081255D01*
X181354133Y-112108410D01*
X181333868Y-112165048D01*
X181333864Y-112165058D01*
X181333046Y-112167347D01*
X181332454Y-112169708D01*
X181332454Y-112169710D01*
X181314525Y-112241283D01*
X181314521Y-112241300D01*
X181313935Y-112243642D01*
X181313580Y-112246030D01*
X181313577Y-112246049D01*
X181303420Y-112314525D01*
X181302394Y-112321443D01*
X181302274Y-112323866D01*
X181302274Y-112323876D01*
X181300522Y-112359543D01*
X181298535Y-112400000D01*
X181298654Y-112402422D01*
X181302194Y-112474500D01*
X181302394Y-112478557D01*
X181302751Y-112480967D01*
X181302752Y-112480972D01*
X181313577Y-112553950D01*
X181313580Y-112553965D01*
X181313935Y-112556358D01*
X181314522Y-112558703D01*
X181314525Y-112558716D01*
X181325246Y-112601513D01*
X181333046Y-112632653D01*
X181333860Y-112634930D01*
X181333865Y-112634944D01*
X181358724Y-112704419D01*
X181359543Y-112706707D01*
X181393171Y-112777808D01*
X181413388Y-112811538D01*
X181432240Y-112842992D01*
X181433606Y-112845270D01*
X181480459Y-112908444D01*
X181533279Y-112966721D01*
X181591556Y-113019541D01*
X181654730Y-113066394D01*
X181722192Y-113106829D01*
X181793293Y-113140457D01*
X181867347Y-113166954D01*
X181943642Y-113186065D01*
X182021443Y-113197606D01*
X182100000Y-113201465D01*
X182178557Y-113197606D01*
X182256358Y-113186065D01*
X182332653Y-113166954D01*
X182406707Y-113140457D01*
X182477808Y-113106829D01*
X182545270Y-113066394D01*
X182574144Y-113044979D01*
X182592255Y-113034325D01*
X182612213Y-113027731D01*
X182633113Y-113025500D01*
X185079685Y-113025500D01*
X185085233Y-113025655D01*
X185100000Y-113026485D01*
X185117545Y-113025500D01*
X185117558Y-113025500D01*
X185170144Y-113022547D01*
X185239406Y-113010779D01*
X185306915Y-112991330D01*
X185309489Y-112990263D01*
X185312101Y-112989350D01*
X185312250Y-112989776D01*
X185333645Y-112984130D01*
X185360294Y-112984448D01*
X185385892Y-112991864D01*
X185408585Y-113005839D01*
X185426727Y-113025361D01*
X185439005Y-113049015D01*
X185444528Y-113075087D01*
X185442896Y-113101688D01*
X185434228Y-113126889D01*
X185419151Y-113148865D01*
X185382098Y-113189746D01*
X185382083Y-113189763D01*
X185380459Y-113191556D01*
X185379020Y-113193496D01*
X185379012Y-113193506D01*
X185335054Y-113252777D01*
X185333606Y-113254730D01*
X185332361Y-113256805D01*
X185332353Y-113256819D01*
X185294424Y-113320101D01*
X185293171Y-113322192D01*
X185292134Y-113324384D01*
X185292130Y-113324392D01*
X185266225Y-113379164D01*
X185259543Y-113393293D01*
X185258729Y-113395567D01*
X185258724Y-113395580D01*
X185233865Y-113465055D01*
X185233858Y-113465074D01*
X185233046Y-113467347D01*
X185232454Y-113469708D01*
X185232454Y-113469710D01*
X185214525Y-113541283D01*
X185214521Y-113541300D01*
X185213935Y-113543642D01*
X185213580Y-113546030D01*
X185213577Y-113546049D01*
X185204254Y-113608903D01*
X185202394Y-113621443D01*
X185202274Y-113623866D01*
X185202274Y-113623876D01*
X185200893Y-113651992D01*
X185198535Y-113700000D01*
X185198654Y-113702422D01*
X185202243Y-113775500D01*
X185202394Y-113778557D01*
X185202751Y-113780967D01*
X185202752Y-113780972D01*
X185213577Y-113853950D01*
X185213580Y-113853965D01*
X185213935Y-113856358D01*
X185214522Y-113858703D01*
X185214525Y-113858716D01*
X185221258Y-113885593D01*
X185233046Y-113932653D01*
X185233860Y-113934930D01*
X185233865Y-113934944D01*
X185258724Y-114004419D01*
X185259543Y-114006707D01*
X185293171Y-114077808D01*
X185308755Y-114103809D01*
X185332354Y-114143182D01*
X185332358Y-114143189D01*
X185333606Y-114145270D01*
X185355020Y-114174144D01*
X185365675Y-114192255D01*
X185372269Y-114212213D01*
X185374500Y-114233113D01*
X185374500Y-116166887D01*
X185372269Y-116187787D01*
X185365675Y-116207745D01*
X185355020Y-116225855D01*
X185333606Y-116254730D01*
X185332364Y-116256800D01*
X185332354Y-116256817D01*
X185307789Y-116297803D01*
X185293171Y-116322192D01*
X185259543Y-116393293D01*
X185258729Y-116395567D01*
X185258724Y-116395580D01*
X185233865Y-116465055D01*
X185233858Y-116465074D01*
X185233046Y-116467347D01*
X185232454Y-116469708D01*
X185232454Y-116469710D01*
X185214525Y-116541283D01*
X185214521Y-116541300D01*
X185213935Y-116543642D01*
X185213580Y-116546030D01*
X185213577Y-116546049D01*
X185202752Y-116619027D01*
X185202394Y-116621443D01*
X185202274Y-116623866D01*
X185202274Y-116623876D01*
X185200319Y-116663687D01*
X185198535Y-116700000D01*
X185198654Y-116702422D01*
X185199836Y-116726496D01*
X185202394Y-116778557D01*
X185202751Y-116780967D01*
X185202752Y-116780972D01*
X185213577Y-116853950D01*
X185213580Y-116853965D01*
X185213935Y-116856358D01*
X185214522Y-116858703D01*
X185214525Y-116858716D01*
X185221548Y-116886752D01*
X185233046Y-116932653D01*
X185233860Y-116934930D01*
X185233865Y-116934944D01*
X185258724Y-117004419D01*
X185259543Y-117006707D01*
X185293171Y-117077808D01*
X185333606Y-117145270D01*
X185380459Y-117208444D01*
X185433279Y-117266721D01*
X185491556Y-117319541D01*
X185554730Y-117366394D01*
X185622192Y-117406829D01*
X185693293Y-117440457D01*
X185767347Y-117466954D01*
X185843642Y-117486065D01*
X185921443Y-117497606D01*
X186000000Y-117501465D01*
X186078557Y-117497606D01*
X186156358Y-117486065D01*
X186232653Y-117466954D01*
X186306707Y-117440457D01*
X186377808Y-117406829D01*
X186445270Y-117366394D01*
X186508444Y-117319541D01*
X186566721Y-117266721D01*
X186619541Y-117208444D01*
X186666394Y-117145270D01*
X186706829Y-117077808D01*
X186740457Y-117006707D01*
X186766954Y-116932653D01*
X186786065Y-116856358D01*
X186797606Y-116778557D01*
X186801465Y-116700000D01*
X186797606Y-116621443D01*
X186786065Y-116543642D01*
X186766954Y-116467347D01*
X186740457Y-116393293D01*
X186706829Y-116322192D01*
X186666394Y-116254730D01*
X186644979Y-116225855D01*
X186634325Y-116207745D01*
X186627731Y-116187787D01*
X186625500Y-116166887D01*
X186625500Y-114233113D01*
X186627731Y-114212213D01*
X186634325Y-114192255D01*
X186644979Y-114174144D01*
X186666394Y-114145270D01*
X186706829Y-114077808D01*
X186707881Y-114075583D01*
X186708734Y-114073988D01*
X186724104Y-114052641D01*
X186744553Y-114036095D01*
X186768637Y-114025519D01*
X186794656Y-114021658D01*
X186820774Y-114024785D01*
X186845146Y-114034680D01*
X186866053Y-114050644D01*
X189470659Y-116655249D01*
X189485570Y-116674356D01*
X189495392Y-116696514D01*
X189499536Y-116720394D01*
X189501322Y-116756743D01*
X189502394Y-116778557D01*
X189502751Y-116780967D01*
X189502752Y-116780972D01*
X189513577Y-116853950D01*
X189513580Y-116853965D01*
X189513935Y-116856358D01*
X189514522Y-116858703D01*
X189514525Y-116858716D01*
X189521548Y-116886752D01*
X189533046Y-116932653D01*
X189533860Y-116934930D01*
X189533865Y-116934944D01*
X189558724Y-117004419D01*
X189559543Y-117006707D01*
X189593171Y-117077808D01*
X189633606Y-117145270D01*
X189680459Y-117208444D01*
X189733279Y-117266721D01*
X189791556Y-117319541D01*
X189854730Y-117366394D01*
X189922192Y-117406829D01*
X189993293Y-117440457D01*
X190067347Y-117466954D01*
X190143642Y-117486065D01*
X190221443Y-117497606D01*
X190300000Y-117501465D01*
X190378557Y-117497606D01*
X190456358Y-117486065D01*
X190532653Y-117466954D01*
X190606707Y-117440457D01*
X190670963Y-117410066D01*
X190694412Y-117402379D01*
X190719043Y-117400732D01*
X190743315Y-117405229D01*
X190765720Y-117415591D01*
X190784865Y-117431174D01*
X190799559Y-117451009D01*
X190807174Y-117469661D01*
X190807588Y-117469527D01*
X190808389Y-117471992D01*
X190809061Y-117474500D01*
X190809990Y-117476921D01*
X190809992Y-117476926D01*
X190835381Y-117543067D01*
X190835386Y-117543078D01*
X190836313Y-117545493D01*
X190870836Y-117613248D01*
X190872241Y-117615411D01*
X190872243Y-117615415D01*
X190910838Y-117674848D01*
X190910846Y-117674859D01*
X190912252Y-117677024D01*
X190913888Y-117679044D01*
X190958474Y-117734104D01*
X190958480Y-117734111D01*
X190960108Y-117736121D01*
X191013879Y-117789892D01*
X191015889Y-117791520D01*
X191015895Y-117791525D01*
X191033058Y-117805423D01*
X191072976Y-117837748D01*
X191075143Y-117839155D01*
X191075151Y-117839161D01*
X191118968Y-117867615D01*
X191136752Y-117879164D01*
X191204507Y-117913687D01*
X191275500Y-117940939D01*
X191348953Y-117960620D01*
X191424060Y-117972516D01*
X191500000Y-117976496D01*
X191575940Y-117972516D01*
X191651047Y-117960620D01*
X191724500Y-117940939D01*
X191795493Y-117913687D01*
X191863248Y-117879164D01*
X191927024Y-117837748D01*
X191986121Y-117789892D01*
X192039892Y-117736121D01*
X192087748Y-117677024D01*
X192129164Y-117613248D01*
X192163687Y-117545493D01*
X192190939Y-117474500D01*
X192210620Y-117401047D01*
X192222516Y-117325940D01*
X192226496Y-117250000D01*
X192222516Y-117174060D01*
X192210620Y-117098953D01*
X192190939Y-117025500D01*
X192163687Y-116954507D01*
X192162510Y-116952197D01*
X192162506Y-116952188D01*
X192146077Y-116919945D01*
X192138021Y-116898110D01*
X192135286Y-116874998D01*
X192138022Y-116851886D01*
X192146075Y-116830056D01*
X192163687Y-116795493D01*
X192178564Y-116756736D01*
X192189890Y-116735437D01*
X192206036Y-116717505D01*
X192226041Y-116704011D01*
X192248716Y-116695758D01*
X192272714Y-116693236D01*
X192296601Y-116696592D01*
X192348953Y-116710620D01*
X192424060Y-116722516D01*
X192500000Y-116726496D01*
X192575940Y-116722516D01*
X192651047Y-116710620D01*
X192724500Y-116690939D01*
X192795493Y-116663687D01*
X192830058Y-116646075D01*
X192851888Y-116638022D01*
X192875000Y-116635286D01*
X192898112Y-116638022D01*
X192919941Y-116646075D01*
X192954507Y-116663687D01*
X192956930Y-116664617D01*
X192956932Y-116664618D01*
X192973604Y-116671018D01*
X193025500Y-116690939D01*
X193098953Y-116710620D01*
X193174060Y-116722516D01*
X193250000Y-116726496D01*
X193325940Y-116722516D01*
X193401047Y-116710620D01*
X193474500Y-116690939D01*
X193545493Y-116663687D01*
X193580058Y-116646075D01*
X193601888Y-116638022D01*
X193625000Y-116635286D01*
X193648112Y-116638022D01*
X193669941Y-116646075D01*
X193704507Y-116663687D01*
X193706930Y-116664617D01*
X193706932Y-116664618D01*
X193723604Y-116671018D01*
X193775500Y-116690939D01*
X193848953Y-116710620D01*
X193924060Y-116722516D01*
X194000000Y-116726496D01*
X194075940Y-116722516D01*
X194151047Y-116710620D01*
X194224500Y-116690939D01*
X194295493Y-116663687D01*
X194330058Y-116646075D01*
X194351888Y-116638022D01*
X194375000Y-116635286D01*
X194398112Y-116638022D01*
X194419941Y-116646075D01*
X194454507Y-116663687D01*
X194456930Y-116664617D01*
X194456932Y-116664618D01*
X194473604Y-116671018D01*
X194525500Y-116690939D01*
X194598953Y-116710620D01*
X194674060Y-116722516D01*
X194750000Y-116726496D01*
X194825940Y-116722516D01*
X194901047Y-116710620D01*
X194974500Y-116690939D01*
X195045493Y-116663687D01*
X195113248Y-116629164D01*
X195177024Y-116587748D01*
X195236121Y-116539892D01*
X195289892Y-116486121D01*
X195337748Y-116427024D01*
X195379164Y-116363248D01*
X195413687Y-116295493D01*
X195440939Y-116224500D01*
X195460620Y-116151047D01*
X195472516Y-116075940D01*
X195476496Y-116000000D01*
X195472516Y-115924060D01*
X195460620Y-115848953D01*
X195440939Y-115775500D01*
X195413687Y-115704507D01*
X195379164Y-115636752D01*
X195356522Y-115601886D01*
X195339161Y-115575151D01*
X195339155Y-115575143D01*
X195337748Y-115572976D01*
X195336117Y-115570961D01*
X195336112Y-115570955D01*
X195329105Y-115562303D01*
X195315185Y-115539318D01*
X195307958Y-115513436D01*
X195307958Y-115486564D01*
X195315185Y-115460682D01*
X195329105Y-115437697D01*
X195336112Y-115429044D01*
X195337748Y-115427024D01*
X195379164Y-115363248D01*
X195413687Y-115295493D01*
X195440939Y-115224500D01*
X195460620Y-115151047D01*
X195472516Y-115075940D01*
X195472871Y-115069180D01*
X195476360Y-115002595D01*
X195476496Y-115000000D01*
X195472516Y-114924060D01*
X195460620Y-114848953D01*
X195440939Y-114775500D01*
X195413687Y-114704507D01*
X195379164Y-114636752D01*
X195339673Y-114575940D01*
X195339161Y-114575151D01*
X195339155Y-114575143D01*
X195337748Y-114572976D01*
X195289892Y-114513879D01*
X195236121Y-114460108D01*
X195234111Y-114458480D01*
X195234104Y-114458474D01*
X195179044Y-114413888D01*
X195177024Y-114412252D01*
X195174859Y-114410846D01*
X195174848Y-114410838D01*
X195115415Y-114372243D01*
X195115411Y-114372241D01*
X195113248Y-114370836D01*
X195080054Y-114353923D01*
X195047803Y-114337490D01*
X195047802Y-114337489D01*
X195045493Y-114336313D01*
X195043078Y-114335386D01*
X195043067Y-114335381D01*
X194976926Y-114309992D01*
X194976921Y-114309990D01*
X194974500Y-114309061D01*
X194901047Y-114289380D01*
X194898492Y-114288975D01*
X194898486Y-114288974D01*
X194828505Y-114277890D01*
X194828500Y-114277889D01*
X194825940Y-114277484D01*
X194823359Y-114277348D01*
X194823343Y-114277347D01*
X194752595Y-114273640D01*
X194750000Y-114273504D01*
X194747405Y-114273640D01*
X194676656Y-114277347D01*
X194676638Y-114277348D01*
X194674060Y-114277484D01*
X194671501Y-114277889D01*
X194671494Y-114277890D01*
X194601513Y-114288974D01*
X194601503Y-114288976D01*
X194598953Y-114289380D01*
X194596457Y-114290048D01*
X194596451Y-114290050D01*
X194528007Y-114308389D01*
X194528002Y-114308390D01*
X194525500Y-114309061D01*
X194523084Y-114309988D01*
X194523073Y-114309992D01*
X194456932Y-114335381D01*
X194456913Y-114335389D01*
X194454507Y-114336313D01*
X194452204Y-114337486D01*
X194452196Y-114337490D01*
X194419945Y-114353923D01*
X194398111Y-114361978D01*
X194375000Y-114364713D01*
X194351889Y-114361978D01*
X194330055Y-114353923D01*
X194297803Y-114337490D01*
X194297802Y-114337489D01*
X194295493Y-114336313D01*
X194293078Y-114335386D01*
X194293067Y-114335381D01*
X194226926Y-114309992D01*
X194226921Y-114309990D01*
X194224500Y-114309061D01*
X194151047Y-114289380D01*
X194148492Y-114288975D01*
X194148486Y-114288974D01*
X194078505Y-114277890D01*
X194078500Y-114277889D01*
X194075940Y-114277484D01*
X194073359Y-114277348D01*
X194073343Y-114277347D01*
X194002595Y-114273640D01*
X194000000Y-114273504D01*
X193997405Y-114273640D01*
X193926656Y-114277347D01*
X193926638Y-114277348D01*
X193924060Y-114277484D01*
X193921501Y-114277889D01*
X193921494Y-114277890D01*
X193851513Y-114288974D01*
X193851503Y-114288976D01*
X193848953Y-114289380D01*
X193846457Y-114290048D01*
X193846451Y-114290050D01*
X193778007Y-114308389D01*
X193778002Y-114308390D01*
X193775500Y-114309061D01*
X193773084Y-114309988D01*
X193773073Y-114309992D01*
X193706932Y-114335381D01*
X193706913Y-114335389D01*
X193704507Y-114336313D01*
X193702204Y-114337486D01*
X193702196Y-114337490D01*
X193669945Y-114353923D01*
X193648111Y-114361978D01*
X193625000Y-114364713D01*
X193601889Y-114361978D01*
X193580055Y-114353923D01*
X193547803Y-114337490D01*
X193547802Y-114337489D01*
X193545493Y-114336313D01*
X193543078Y-114335386D01*
X193543067Y-114335381D01*
X193476926Y-114309992D01*
X193476921Y-114309990D01*
X193474500Y-114309061D01*
X193401047Y-114289380D01*
X193398492Y-114288975D01*
X193398486Y-114288974D01*
X193328505Y-114277890D01*
X193328500Y-114277889D01*
X193325940Y-114277484D01*
X193323359Y-114277348D01*
X193323343Y-114277347D01*
X193252595Y-114273640D01*
X193250000Y-114273504D01*
X193247405Y-114273640D01*
X193176656Y-114277347D01*
X193176638Y-114277348D01*
X193174060Y-114277484D01*
X193171501Y-114277889D01*
X193171494Y-114277890D01*
X193101513Y-114288974D01*
X193101503Y-114288976D01*
X193098953Y-114289380D01*
X193096457Y-114290048D01*
X193096451Y-114290050D01*
X193028007Y-114308389D01*
X193028002Y-114308390D01*
X193025500Y-114309061D01*
X193023084Y-114309988D01*
X193023073Y-114309992D01*
X192956932Y-114335381D01*
X192956913Y-114335389D01*
X192954507Y-114336313D01*
X192952204Y-114337486D01*
X192952196Y-114337490D01*
X192919945Y-114353923D01*
X192898111Y-114361978D01*
X192875000Y-114364713D01*
X192851889Y-114361978D01*
X192830055Y-114353923D01*
X192797803Y-114337490D01*
X192797802Y-114337489D01*
X192795493Y-114336313D01*
X192793078Y-114335386D01*
X192793067Y-114335381D01*
X192726926Y-114309992D01*
X192726921Y-114309990D01*
X192724500Y-114309061D01*
X192651047Y-114289380D01*
X192648492Y-114288975D01*
X192648486Y-114288974D01*
X192578505Y-114277890D01*
X192578500Y-114277889D01*
X192575940Y-114277484D01*
X192573359Y-114277348D01*
X192573343Y-114277347D01*
X192502595Y-114273640D01*
X192500000Y-114273504D01*
X192497405Y-114273640D01*
X192426656Y-114277347D01*
X192426638Y-114277348D01*
X192424060Y-114277484D01*
X192421501Y-114277889D01*
X192421494Y-114277890D01*
X192351513Y-114288974D01*
X192351503Y-114288976D01*
X192348953Y-114289380D01*
X192346457Y-114290048D01*
X192346451Y-114290050D01*
X192278007Y-114308389D01*
X192278002Y-114308390D01*
X192275500Y-114309061D01*
X192273084Y-114309988D01*
X192273073Y-114309992D01*
X192206932Y-114335381D01*
X192206913Y-114335389D01*
X192204507Y-114336313D01*
X192202204Y-114337486D01*
X192202196Y-114337490D01*
X192169945Y-114353923D01*
X192148111Y-114361978D01*
X192125000Y-114364713D01*
X192101889Y-114361978D01*
X192080055Y-114353923D01*
X192047803Y-114337490D01*
X192047802Y-114337489D01*
X192045493Y-114336313D01*
X192043078Y-114335386D01*
X192043067Y-114335381D01*
X191976926Y-114309992D01*
X191976921Y-114309990D01*
X191974500Y-114309061D01*
X191901047Y-114289380D01*
X191898492Y-114288975D01*
X191898486Y-114288974D01*
X191828505Y-114277890D01*
X191828500Y-114277889D01*
X191825940Y-114277484D01*
X191823359Y-114277348D01*
X191823343Y-114277347D01*
X191752595Y-114273640D01*
X191750000Y-114273504D01*
X191747405Y-114273640D01*
X191676656Y-114277347D01*
X191676638Y-114277348D01*
X191674060Y-114277484D01*
X191671501Y-114277889D01*
X191671494Y-114277890D01*
X191601513Y-114288974D01*
X191601503Y-114288976D01*
X191598953Y-114289380D01*
X191596457Y-114290048D01*
X191596451Y-114290050D01*
X191528007Y-114308389D01*
X191528002Y-114308390D01*
X191525500Y-114309061D01*
X191523084Y-114309988D01*
X191523073Y-114309992D01*
X191456932Y-114335381D01*
X191456913Y-114335389D01*
X191454507Y-114336313D01*
X191452204Y-114337486D01*
X191452196Y-114337490D01*
X191419945Y-114353923D01*
X191398111Y-114361978D01*
X191375000Y-114364713D01*
X191351889Y-114361978D01*
X191330055Y-114353923D01*
X191297803Y-114337490D01*
X191297802Y-114337489D01*
X191295493Y-114336313D01*
X191293078Y-114335386D01*
X191293067Y-114335381D01*
X191226926Y-114309992D01*
X191226921Y-114309990D01*
X191224500Y-114309061D01*
X191151047Y-114289380D01*
X191148492Y-114288975D01*
X191148486Y-114288974D01*
X191078505Y-114277890D01*
X191078500Y-114277889D01*
X191075940Y-114277484D01*
X191073359Y-114277348D01*
X191073343Y-114277347D01*
X191002595Y-114273640D01*
X191000000Y-114273504D01*
X190997405Y-114273640D01*
X190926656Y-114277347D01*
X190926638Y-114277348D01*
X190924060Y-114277484D01*
X190921501Y-114277889D01*
X190921494Y-114277890D01*
X190851513Y-114288974D01*
X190851503Y-114288976D01*
X190848953Y-114289380D01*
X190846457Y-114290048D01*
X190846451Y-114290050D01*
X190778007Y-114308389D01*
X190778002Y-114308390D01*
X190775500Y-114309061D01*
X190773084Y-114309988D01*
X190773073Y-114309992D01*
X190706932Y-114335381D01*
X190706913Y-114335389D01*
X190704507Y-114336313D01*
X190702204Y-114337486D01*
X190702196Y-114337490D01*
X190639055Y-114369662D01*
X190639046Y-114369666D01*
X190636752Y-114370836D01*
X190634596Y-114372235D01*
X190634584Y-114372243D01*
X190575151Y-114410838D01*
X190575130Y-114410852D01*
X190572976Y-114412252D01*
X190570961Y-114413882D01*
X190570955Y-114413888D01*
X190515895Y-114458474D01*
X190515878Y-114458488D01*
X190513879Y-114460108D01*
X190512059Y-114461927D01*
X190512049Y-114461937D01*
X190461937Y-114512049D01*
X190461927Y-114512059D01*
X190460108Y-114513879D01*
X190458488Y-114515878D01*
X190458474Y-114515895D01*
X190413888Y-114570955D01*
X190413882Y-114570961D01*
X190412252Y-114572976D01*
X190410852Y-114575130D01*
X190410838Y-114575151D01*
X190372243Y-114634584D01*
X190372235Y-114634596D01*
X190370836Y-114636752D01*
X190369666Y-114639046D01*
X190369662Y-114639055D01*
X190337490Y-114702196D01*
X190337486Y-114702204D01*
X190336313Y-114704507D01*
X190335389Y-114706913D01*
X190335381Y-114706932D01*
X190309992Y-114773073D01*
X190309988Y-114773084D01*
X190309061Y-114775500D01*
X190308390Y-114778002D01*
X190308389Y-114778007D01*
X190294444Y-114830055D01*
X190289380Y-114848953D01*
X190288976Y-114851503D01*
X190288974Y-114851513D01*
X190278135Y-114919947D01*
X190277484Y-114924060D01*
X190277348Y-114926638D01*
X190277347Y-114926656D01*
X190273670Y-114996840D01*
X190273504Y-115000000D01*
X190273640Y-115002595D01*
X190277129Y-115069180D01*
X190277484Y-115075940D01*
X190277889Y-115078500D01*
X190277890Y-115078505D01*
X190287246Y-115137579D01*
X190289380Y-115151047D01*
X190290049Y-115153545D01*
X190290050Y-115153548D01*
X190307152Y-115217376D01*
X190309061Y-115224500D01*
X190309990Y-115226921D01*
X190309992Y-115226926D01*
X190335381Y-115293067D01*
X190335386Y-115293078D01*
X190336313Y-115295493D01*
X190337485Y-115297794D01*
X190337493Y-115297811D01*
X190353922Y-115330053D01*
X190361977Y-115351887D01*
X190364713Y-115374998D01*
X190361978Y-115398109D01*
X190353923Y-115419943D01*
X190337494Y-115452187D01*
X190337486Y-115452204D01*
X190336313Y-115454507D01*
X190335389Y-115456913D01*
X190335381Y-115456932D01*
X190309061Y-115525500D01*
X190308762Y-115525385D01*
X190299508Y-115544938D01*
X190283328Y-115564255D01*
X190262795Y-115578861D01*
X190239240Y-115587811D01*
X190214188Y-115590524D01*
X190189263Y-115586824D01*
X190166079Y-115576952D01*
X190146138Y-115561547D01*
X187619262Y-113034671D01*
X187606061Y-113018314D01*
X187596611Y-112999539D01*
X187591340Y-112979205D01*
X187586065Y-112943642D01*
X187566954Y-112867347D01*
X187540457Y-112793293D01*
X187506829Y-112722192D01*
X187466394Y-112654730D01*
X187419541Y-112591556D01*
X187366721Y-112533279D01*
X187308444Y-112480459D01*
X187245270Y-112433606D01*
X187243184Y-112432355D01*
X187243180Y-112432353D01*
X187190948Y-112401047D01*
X187177808Y-112393171D01*
X187106707Y-112359543D01*
X187104424Y-112358726D01*
X187104419Y-112358724D01*
X187034944Y-112333865D01*
X187034930Y-112333860D01*
X187032653Y-112333046D01*
X187014524Y-112328505D01*
X186958716Y-112314525D01*
X186958703Y-112314522D01*
X186956358Y-112313935D01*
X186953965Y-112313580D01*
X186953950Y-112313577D01*
X186880972Y-112302752D01*
X186880967Y-112302751D01*
X186878557Y-112302394D01*
X186876131Y-112302274D01*
X186876123Y-112302274D01*
X186802422Y-112298654D01*
X186800000Y-112298535D01*
X186797578Y-112298654D01*
X186723876Y-112302274D01*
X186723866Y-112302274D01*
X186721443Y-112302394D01*
X186719034Y-112302751D01*
X186719027Y-112302752D01*
X186646049Y-112313577D01*
X186646030Y-112313580D01*
X186643642Y-112313935D01*
X186641300Y-112314521D01*
X186641283Y-112314525D01*
X186569710Y-112332454D01*
X186567347Y-112333046D01*
X186565074Y-112333858D01*
X186565055Y-112333865D01*
X186495580Y-112358724D01*
X186495567Y-112358729D01*
X186493293Y-112359543D01*
X186491097Y-112360581D01*
X186491096Y-112360582D01*
X186424392Y-112392130D01*
X186424384Y-112392134D01*
X186422192Y-112393171D01*
X186420105Y-112394421D01*
X186420101Y-112394424D01*
X186356819Y-112432353D01*
X186356805Y-112432361D01*
X186354730Y-112433606D01*
X186352783Y-112435049D01*
X186352777Y-112435054D01*
X186293506Y-112479012D01*
X186293496Y-112479020D01*
X186291556Y-112480459D01*
X186289763Y-112482083D01*
X186289757Y-112482089D01*
X186235083Y-112531643D01*
X186235073Y-112531652D01*
X186233279Y-112533279D01*
X186231652Y-112535073D01*
X186231643Y-112535083D01*
X186182089Y-112589757D01*
X186182083Y-112589763D01*
X186180459Y-112591556D01*
X186179020Y-112593496D01*
X186179012Y-112593506D01*
X186149979Y-112632653D01*
X186133606Y-112654730D01*
X186132361Y-112656805D01*
X186132353Y-112656819D01*
X186094856Y-112719380D01*
X186093171Y-112722192D01*
X186092134Y-112724384D01*
X186092130Y-112724392D01*
X186076662Y-112757098D01*
X186059543Y-112793293D01*
X186058732Y-112795558D01*
X186058721Y-112795586D01*
X186044562Y-112835159D01*
X186034201Y-112855997D01*
X186019261Y-112873840D01*
X186000569Y-112887703D01*
X185979157Y-112896820D01*
X185956208Y-112900686D01*
X185923875Y-112902274D01*
X185923864Y-112902275D01*
X185921443Y-112902394D01*
X185919034Y-112902751D01*
X185919027Y-112902752D01*
X185846049Y-112913577D01*
X185846030Y-112913580D01*
X185843642Y-112913935D01*
X185841300Y-112914521D01*
X185841283Y-112914525D01*
X185769710Y-112932454D01*
X185767347Y-112933046D01*
X185765074Y-112933858D01*
X185765055Y-112933865D01*
X185695580Y-112958724D01*
X185695567Y-112958729D01*
X185694624Y-112959066D01*
X185694615Y-112959069D01*
X185693293Y-112959543D01*
X185693251Y-112959425D01*
X185668721Y-112965827D01*
X185641598Y-112965294D01*
X185615638Y-112957419D01*
X185592790Y-112942793D01*
X185574770Y-112922515D01*
X185562930Y-112898106D01*
X185558161Y-112871400D01*
X185560820Y-112844402D01*
X185570708Y-112819140D01*
X185587081Y-112797509D01*
X185861517Y-112523073D01*
X186165332Y-112219257D01*
X186181684Y-112206061D01*
X186200460Y-112196611D01*
X186220793Y-112191340D01*
X186256358Y-112186065D01*
X186332653Y-112166954D01*
X186406707Y-112140457D01*
X186477808Y-112106829D01*
X186545270Y-112066394D01*
X186608444Y-112019541D01*
X186666721Y-111966721D01*
X186719541Y-111908444D01*
X186766394Y-111845270D01*
X186806829Y-111777808D01*
X186840457Y-111706707D01*
X186866954Y-111632653D01*
X186886065Y-111556358D01*
X186897606Y-111478557D01*
X186901465Y-111400000D01*
X186897606Y-111321443D01*
X186886065Y-111243642D01*
X186866954Y-111167347D01*
X186860211Y-111148502D01*
X186854433Y-111132351D01*
X186848889Y-111105936D01*
X186850686Y-111079005D01*
X186859690Y-111053560D01*
X186875232Y-111031493D01*
X186896156Y-111014444D01*
X186920907Y-111003679D01*
X186947646Y-111000000D01*
X195135199Y-111000000D01*
X195162383Y-111003805D01*
G37*
%TD.AperFunction*%
%TA.AperFunction,Conductor*%
G36*
X172425359Y-111003373D02*
G01*
X172449236Y-111013264D01*
X172469740Y-111028997D01*
X172485473Y-111049500D01*
X172495363Y-111073377D01*
X172502229Y-111099001D01*
X172509061Y-111124500D01*
X172509990Y-111126921D01*
X172509992Y-111126926D01*
X172535381Y-111193067D01*
X172535386Y-111193078D01*
X172536313Y-111195493D01*
X172537489Y-111197802D01*
X172537490Y-111197803D01*
X172563564Y-111248977D01*
X172570836Y-111263248D01*
X172572241Y-111265411D01*
X172572243Y-111265415D01*
X172610838Y-111324848D01*
X172610846Y-111324859D01*
X172612252Y-111327024D01*
X172623656Y-111341107D01*
X172658474Y-111384104D01*
X172658480Y-111384111D01*
X172660108Y-111386121D01*
X172713879Y-111439892D01*
X172715889Y-111441520D01*
X172715895Y-111441525D01*
X172732495Y-111454967D01*
X172772976Y-111487748D01*
X172775143Y-111489155D01*
X172775151Y-111489161D01*
X172825166Y-111521640D01*
X172836752Y-111529164D01*
X172904507Y-111563687D01*
X172906930Y-111564617D01*
X172906932Y-111564618D01*
X172919666Y-111569506D01*
X172975500Y-111590939D01*
X173048953Y-111610620D01*
X173051511Y-111611025D01*
X173051515Y-111611026D01*
X173063410Y-111612909D01*
X173094969Y-111617908D01*
X173114956Y-111623263D01*
X173133397Y-111632659D01*
X173149482Y-111645684D01*
X173191482Y-111687684D01*
X173194524Y-111690865D01*
X173207151Y-111704668D01*
X173209378Y-111706587D01*
X173209383Y-111706592D01*
X173228796Y-111723322D01*
X173229899Y-111724286D01*
X173251165Y-111743170D01*
X173253576Y-111744847D01*
X173254123Y-111745277D01*
X173254392Y-111745499D01*
X173254708Y-111745744D01*
X173254968Y-111745933D01*
X173255543Y-111746372D01*
X173257770Y-111748291D01*
X173260205Y-111749931D01*
X173281481Y-111764261D01*
X173282693Y-111765091D01*
X173306029Y-111781317D01*
X173308621Y-111782696D01*
X173309199Y-111783049D01*
X173309482Y-111783231D01*
X173309863Y-111783459D01*
X173310146Y-111783618D01*
X173310744Y-111783971D01*
X173313193Y-111785621D01*
X173315816Y-111786967D01*
X173315819Y-111786969D01*
X173338584Y-111798653D01*
X173339889Y-111799335D01*
X173345690Y-111802422D01*
X173365019Y-111812708D01*
X173367755Y-111813770D01*
X173368359Y-111814047D01*
X173368655Y-111814190D01*
X173369099Y-111814390D01*
X173369377Y-111814505D01*
X173370025Y-111814790D01*
X173372642Y-111816134D01*
X173375407Y-111817161D01*
X173399389Y-111826069D01*
X173400672Y-111826556D01*
X173427307Y-111836902D01*
X173430154Y-111837634D01*
X173430819Y-111837848D01*
X173431103Y-111837946D01*
X173431568Y-111838092D01*
X173431913Y-111838189D01*
X173432511Y-111838371D01*
X173435283Y-111839402D01*
X173463097Y-111846123D01*
X173464338Y-111846433D01*
X173492021Y-111853558D01*
X173494941Y-111853949D01*
X173495595Y-111854077D01*
X173495900Y-111854143D01*
X173496382Y-111854233D01*
X173496691Y-111854282D01*
X173497364Y-111854402D01*
X173500235Y-111855097D01*
X173528456Y-111858458D01*
X173529908Y-111858641D01*
X173558249Y-111862444D01*
X173561192Y-111862487D01*
X173561900Y-111862540D01*
X173562197Y-111862569D01*
X173562661Y-111862599D01*
X173562998Y-111862612D01*
X173563663Y-111862651D01*
X173566589Y-111863000D01*
X173595090Y-111863000D01*
X173596555Y-111863011D01*
X173625065Y-111863433D01*
X173627978Y-111863129D01*
X173628693Y-111863098D01*
X173633091Y-111863000D01*
X174425790Y-111863000D01*
X174451413Y-111866373D01*
X174475290Y-111876263D01*
X174495794Y-111891996D01*
X176468888Y-113865090D01*
X176484620Y-113885593D01*
X176494510Y-113909469D01*
X176497884Y-113935091D01*
X176494512Y-113960713D01*
X176484623Y-113984590D01*
X176468892Y-114005094D01*
X176461939Y-114012047D01*
X176461929Y-114012057D01*
X176460108Y-114013879D01*
X176458488Y-114015878D01*
X176458474Y-114015895D01*
X176413888Y-114070955D01*
X176413882Y-114070961D01*
X176412252Y-114072976D01*
X176410852Y-114075130D01*
X176410838Y-114075151D01*
X176372243Y-114134584D01*
X176372235Y-114134596D01*
X176370836Y-114136752D01*
X176369666Y-114139046D01*
X176369662Y-114139055D01*
X176337490Y-114202196D01*
X176337486Y-114202204D01*
X176336313Y-114204507D01*
X176335389Y-114206913D01*
X176335381Y-114206932D01*
X176309992Y-114273073D01*
X176309988Y-114273084D01*
X176309061Y-114275500D01*
X176308390Y-114278002D01*
X176308389Y-114278007D01*
X176292767Y-114336313D01*
X176289380Y-114348953D01*
X176288976Y-114351503D01*
X176288974Y-114351513D01*
X176285914Y-114370836D01*
X176277484Y-114424060D01*
X176277348Y-114426638D01*
X176277347Y-114426656D01*
X176273640Y-114497405D01*
X176273504Y-114500000D01*
X176273640Y-114502595D01*
X176277347Y-114573343D01*
X176277348Y-114573359D01*
X176277484Y-114575940D01*
X176277889Y-114578500D01*
X176277890Y-114578505D01*
X176288592Y-114646077D01*
X176289380Y-114651047D01*
X176290049Y-114653545D01*
X176290050Y-114653548D01*
X176308389Y-114721992D01*
X176309061Y-114724500D01*
X176309990Y-114726921D01*
X176309992Y-114726926D01*
X176335381Y-114793067D01*
X176335386Y-114793078D01*
X176336313Y-114795493D01*
X176337489Y-114797802D01*
X176337490Y-114797803D01*
X176363564Y-114848977D01*
X176370836Y-114863248D01*
X176372241Y-114865411D01*
X176372243Y-114865415D01*
X176410838Y-114924848D01*
X176410846Y-114924859D01*
X176412252Y-114927024D01*
X176424177Y-114941750D01*
X176458474Y-114984104D01*
X176458480Y-114984111D01*
X176460108Y-114986121D01*
X176513879Y-115039892D01*
X176515889Y-115041520D01*
X176515895Y-115041525D01*
X176541021Y-115061871D01*
X176572976Y-115087748D01*
X176575143Y-115089155D01*
X176575151Y-115089161D01*
X176600061Y-115105337D01*
X176636752Y-115129164D01*
X176704507Y-115163687D01*
X176775500Y-115190939D01*
X176848953Y-115210620D01*
X176924060Y-115222516D01*
X177000000Y-115226496D01*
X177075940Y-115222516D01*
X177151047Y-115210620D01*
X177224500Y-115190939D01*
X177295493Y-115163687D01*
X177363248Y-115129164D01*
X177427024Y-115087748D01*
X177486121Y-115039892D01*
X177494901Y-115031111D01*
X177515401Y-115015381D01*
X177539278Y-115005489D01*
X177564902Y-115002115D01*
X177590526Y-115005488D01*
X177614404Y-115015378D01*
X177634908Y-115031110D01*
X178023740Y-115419943D01*
X178408004Y-115804207D01*
X178423737Y-115824711D01*
X178433627Y-115848588D01*
X178437000Y-115874211D01*
X178437000Y-120199500D01*
X178433627Y-120225123D01*
X178423737Y-120249000D01*
X178408004Y-120269504D01*
X178387500Y-120285237D01*
X178363623Y-120295127D01*
X178338000Y-120298500D01*
X172341008Y-120298500D01*
X172340241Y-120298525D01*
X172340185Y-120298526D01*
X172309846Y-120299520D01*
X172309831Y-120299520D01*
X172308212Y-120299574D01*
X172306607Y-120299731D01*
X172306577Y-120299734D01*
X172276359Y-120302710D01*
X172276309Y-120302715D01*
X172275555Y-120302790D01*
X172274792Y-120302890D01*
X172274761Y-120302894D01*
X172251018Y-120306019D01*
X172250971Y-120306026D01*
X172249932Y-120306163D01*
X172248880Y-120306348D01*
X172248844Y-120306354D01*
X172208973Y-120313383D01*
X172208950Y-120313387D01*
X172206846Y-120313759D01*
X172204792Y-120314309D01*
X172204771Y-120314314D01*
X172166660Y-120324526D01*
X172166639Y-120324532D01*
X172164585Y-120325083D01*
X172162565Y-120325818D01*
X172162556Y-120325821D01*
X172124502Y-120339670D01*
X172124457Y-120339687D01*
X172123472Y-120340046D01*
X172122473Y-120340459D01*
X172122457Y-120340466D01*
X172100607Y-120349516D01*
X172100575Y-120349530D01*
X172099595Y-120349936D01*
X172098633Y-120350384D01*
X172098607Y-120350396D01*
X172061905Y-120367510D01*
X172061893Y-120367515D01*
X172059944Y-120368425D01*
X172058085Y-120369498D01*
X172058074Y-120369504D01*
X172023920Y-120389223D01*
X172022055Y-120390300D01*
X172020296Y-120391531D01*
X172020286Y-120391538D01*
X171987096Y-120414777D01*
X171987050Y-120414810D01*
X171986217Y-120415394D01*
X171985393Y-120416026D01*
X171985362Y-120416049D01*
X171966375Y-120430618D01*
X171966335Y-120430649D01*
X171965713Y-120431127D01*
X171965111Y-120431620D01*
X171965072Y-120431652D01*
X171941588Y-120450925D01*
X171941569Y-120450941D01*
X171940344Y-120451947D01*
X171939189Y-120453027D01*
X171939167Y-120453048D01*
X171916981Y-120473827D01*
X171916933Y-120473872D01*
X171916390Y-120474382D01*
X171915862Y-120474909D01*
X171915831Y-120474940D01*
X170269504Y-122121268D01*
X170249000Y-122137001D01*
X170225123Y-122146891D01*
X170199500Y-122150264D01*
X170173877Y-122146891D01*
X170150000Y-122137001D01*
X170129496Y-122121268D01*
X170113763Y-122100764D01*
X170103873Y-122076887D01*
X170100500Y-122051264D01*
X170100500Y-120391212D01*
X170103511Y-120366983D01*
X170112360Y-120344227D01*
X170126509Y-120324329D01*
X170145098Y-120308499D01*
X170166996Y-120297700D01*
X170190871Y-120292589D01*
X170223725Y-120289714D01*
X170267185Y-120285912D01*
X170399647Y-120266509D01*
X170530756Y-120239437D01*
X170660070Y-120204788D01*
X170787150Y-120162678D01*
X170911567Y-120113250D01*
X171032900Y-120056672D01*
X171150737Y-119993135D01*
X171264681Y-119922853D01*
X171374345Y-119846066D01*
X171479359Y-119763031D01*
X171579367Y-119674032D01*
X171674032Y-119579367D01*
X171763031Y-119479359D01*
X171846066Y-119374345D01*
X171922853Y-119264681D01*
X171993135Y-119150737D01*
X172056672Y-119032900D01*
X172113250Y-118911567D01*
X172162678Y-118787150D01*
X172204788Y-118660070D01*
X172239437Y-118530756D01*
X172266509Y-118399647D01*
X172285912Y-118267185D01*
X172297580Y-118133819D01*
X172301474Y-118000000D01*
X172297580Y-117866181D01*
X172285912Y-117732815D01*
X172266509Y-117600353D01*
X172239437Y-117469244D01*
X172204788Y-117339930D01*
X172162678Y-117212850D01*
X172135000Y-117143180D01*
X172113779Y-117089764D01*
X172113776Y-117089757D01*
X172113250Y-117088433D01*
X172056672Y-116967100D01*
X171993135Y-116849263D01*
X171922853Y-116735319D01*
X171846066Y-116625655D01*
X171763031Y-116520641D01*
X171681517Y-116429044D01*
X171674979Y-116421697D01*
X171674976Y-116421694D01*
X171674032Y-116420633D01*
X171579367Y-116325968D01*
X171479359Y-116236969D01*
X171374345Y-116153934D01*
X171264681Y-116077147D01*
X171263472Y-116076401D01*
X171263461Y-116076394D01*
X171151961Y-116007620D01*
X171150737Y-116006865D01*
X171032900Y-115943328D01*
X171031607Y-115942725D01*
X171031593Y-115942718D01*
X170912857Y-115887351D01*
X170912841Y-115887344D01*
X170911567Y-115886750D01*
X170910259Y-115886230D01*
X170910235Y-115886220D01*
X170788508Y-115837861D01*
X170788492Y-115837855D01*
X170787150Y-115837322D01*
X170774720Y-115833203D01*
X170661424Y-115795660D01*
X170661403Y-115795653D01*
X170660070Y-115795212D01*
X170530756Y-115760563D01*
X170529382Y-115760279D01*
X170529364Y-115760275D01*
X170401034Y-115733777D01*
X170401020Y-115733774D01*
X170399647Y-115733491D01*
X170398248Y-115733286D01*
X170398242Y-115733285D01*
X170268613Y-115714297D01*
X170268607Y-115714296D01*
X170267185Y-115714088D01*
X170265755Y-115713962D01*
X170265739Y-115713961D01*
X170190871Y-115707411D01*
X170166996Y-115702300D01*
X170145098Y-115691501D01*
X170126509Y-115675671D01*
X170112360Y-115655773D01*
X170103511Y-115633017D01*
X170100500Y-115608788D01*
X170100500Y-111099000D01*
X170103873Y-111073377D01*
X170113763Y-111049500D01*
X170129496Y-111028996D01*
X170150000Y-111013263D01*
X170173877Y-111003373D01*
X170199500Y-111000000D01*
X172399736Y-111000000D01*
X172425359Y-111003373D01*
G37*
%TD.AperFunction*%
%TD*%
M02*
